<svg width="24" height="24" viewBox="0 0 24 24" fill="none" xmlns="http://www.w3.org/2000/svg">
<path d="M4.20639 11.6466L3.85283 12.0001L4.20639 12.3537L9.74639 17.8937C9.84113 17.9884 9.84113 18.1518 9.74639 18.2466L9.74029 18.2527L9.73441 18.259C9.70417 18.2914 9.6453 18.3201 9.56994 18.3201C9.50539 18.3201 9.44478 18.2979 9.39349 18.2466L3.32349 12.1766C3.22876 12.0818 3.22876 11.9184 3.32349 11.8237L9.39349 5.75367C9.48823 5.65893 9.65165 5.65893 9.74639 5.75367C9.84113 5.84841 9.84113 6.01183 9.74639 6.10656L4.20639 11.6466Z" fill="#292D32" stroke="#6B727B"/>
<path d="M20.4999 12.75H3.66992C3.25992 12.75 2.91992 12.41 2.91992 12C2.91992 11.59 3.25992 11.25 3.66992 11.25H20.4999C20.9099 11.25 21.2499 11.59 21.2499 12C21.2499 12.41 20.9099 12.75 20.4999 12.75Z" fill="#292D32"/>
</svg>
