<svg width="20" height="20" viewBox="0 0 20 20" fill="none" xmlns="http://www.w3.org/2000/svg">
<path d="M6.66663 4.79169C6.32496 4.79169 6.04163 4.50835 6.04163 4.16669V1.66669C6.04163 1.32502 6.32496 1.04169 6.66663 1.04169C7.00829 1.04169 7.29163 1.32502 7.29163 1.66669V4.16669C7.29163 4.50835 7.00829 4.79169 6.66663 4.79169Z" fill="#6B727B"/>
<path d="M13.3334 4.79169C12.9917 4.79169 12.7084 4.50835 12.7084 4.16669V1.66669C12.7084 1.32502 12.9917 1.04169 13.3334 1.04169C13.675 1.04169 13.9584 1.32502 13.9584 1.66669V4.16669C13.9584 4.50835 13.675 4.79169 13.3334 4.79169Z" fill="#6B727B"/>
<path d="M17.0833 8.19995H2.91663C2.57496 8.19995 2.29163 7.91662 2.29163 7.57495C2.29163 7.23328 2.57496 6.94995 2.91663 6.94995H17.0833C17.425 6.94995 17.7083 7.23328 17.7083 7.57495C17.7083 7.91662 17.425 8.19995 17.0833 8.19995Z" fill="#6B727B"/>
<path d="M13.3333 18.9584H6.66667C3.625 18.9584 1.875 17.2084 1.875 14.1667V7.08335C1.875 4.04169 3.625 2.29169 6.66667 2.29169H13.3333C16.375 2.29169 18.125 4.04169 18.125 7.08335V14.1667C18.125 17.2084 16.375 18.9584 13.3333 18.9584ZM6.66667 3.54169C4.28333 3.54169 3.125 4.70002 3.125 7.08335V14.1667C3.125 16.55 4.28333 17.7084 6.66667 17.7084H13.3333C15.7167 17.7084 16.875 16.55 16.875 14.1667V7.08335C16.875 4.70002 15.7167 3.54169 13.3333 3.54169H6.66667Z" fill="#6B727B"/>
<path d="M7.08333 12.0834C6.975 12.0834 6.86666 12.0584 6.76666 12.0167C6.66666 11.975 6.57501 11.9167 6.49167 11.8417C6.41667 11.7584 6.35832 11.6667 6.31666 11.5667C6.27499 11.4667 6.25 11.3584 6.25 11.25C6.25 11.0334 6.34167 10.8167 6.49167 10.6584C6.57501 10.5834 6.66666 10.525 6.76666 10.4834C6.91666 10.4167 7.08334 10.4 7.25001 10.4334C7.30001 10.4417 7.35 10.4584 7.4 10.4834C7.45 10.5 7.5 10.525 7.55 10.5584C7.59166 10.5917 7.63333 10.625 7.67499 10.6584C7.70833 10.7 7.74999 10.7417 7.77499 10.7834C7.80832 10.8334 7.83334 10.8834 7.85001 10.9334C7.87501 10.9834 7.89168 11.0334 7.90001 11.0834C7.90834 11.1417 7.91667 11.1917 7.91667 11.25C7.91667 11.4667 7.82499 11.6834 7.67499 11.8417C7.51666 11.9917 7.3 12.0834 7.08333 12.0834Z" fill="#6B727B"/>
<path d="M9.99996 12.0833C9.78329 12.0833 9.56663 11.9917 9.4083 11.8417C9.37497 11.8 9.34164 11.7583 9.3083 11.7167C9.27497 11.6667 9.24995 11.6167 9.23328 11.5667C9.20828 11.5167 9.19162 11.4667 9.18328 11.4167C9.17495 11.3584 9.16663 11.3083 9.16663 11.25C9.16663 11.1417 9.19161 11.0333 9.23328 10.9333C9.27495 10.8333 9.3333 10.7417 9.4083 10.6584C9.64163 10.425 10.0166 10.35 10.3166 10.4833C10.425 10.525 10.5083 10.5834 10.5916 10.6584C10.7416 10.8167 10.8333 11.0333 10.8333 11.25C10.8333 11.3083 10.825 11.3584 10.8166 11.4167C10.8083 11.4667 10.7916 11.5167 10.7666 11.5667C10.75 11.6167 10.7249 11.6667 10.6916 11.7167C10.6583 11.7583 10.625 11.8 10.5916 11.8417C10.5083 11.9167 10.425 11.975 10.3166 12.0167C10.2166 12.0584 10.1083 12.0833 9.99996 12.0833Z" fill="#6B727B"/>
<path d="M7.08333 15C6.975 15 6.86666 14.975 6.76666 14.9333C6.66666 14.8917 6.57501 14.8333 6.49167 14.7583C6.41667 14.675 6.35832 14.5916 6.31666 14.4833C6.27499 14.3833 6.25 14.275 6.25 14.1666C6.25 13.95 6.34167 13.7333 6.49167 13.575C6.57501 13.5 6.66666 13.4416 6.76666 13.4C7.075 13.2666 7.44166 13.3416 7.67499 13.575C7.70833 13.6166 7.74999 13.6583 7.77499 13.7C7.80832 13.75 7.83334 13.8 7.85001 13.85C7.87501 13.9 7.89168 13.95 7.90001 14.0083C7.90834 14.0583 7.91667 14.1166 7.91667 14.1666C7.91667 14.3833 7.82499 14.6 7.67499 14.7583C7.51666 14.9083 7.3 15 7.08333 15Z" fill="#6B727B"/>
</svg>
