<svg width="20" height="21" viewBox="0 0 20 21" fill="none" xmlns="http://www.w3.org/2000/svg">
<g filter="url(#filter0_d_2930_19406)">
<path d="M16.1945 3.69157C16.036 3.6952 15.8855 3.76134 15.7757 3.87557L10.0001 9.65197L4.22405 3.87557C4.16814 3.81799 4.10123 3.77221 4.0273 3.74095C3.95337 3.70969 3.87392 3.69358 3.79365 3.69357C3.67419 3.69358 3.55746 3.72924 3.45839 3.796C3.35932 3.86276 3.28244 3.95757 3.23758 4.06829C3.19273 4.17901 3.18194 4.30059 3.20661 4.41748C3.23128 4.53436 3.29028 4.64123 3.37605 4.72437L9.15205 10.5L3.37565 16.276C3.31838 16.3314 3.2727 16.3976 3.24129 16.4708C3.20988 16.544 3.19336 16.6228 3.19271 16.7024C3.19205 16.7821 3.20727 16.8611 3.23748 16.9348C3.26768 17.0085 3.31226 17.0755 3.36862 17.1318C3.42499 17.1881 3.492 17.2326 3.56575 17.2628C3.6395 17.2929 3.71852 17.3081 3.79818 17.3073C3.87785 17.3066 3.95657 17.29 4.02976 17.2585C4.10295 17.227 4.16913 17.1813 4.22445 17.124L10.0001 11.3488L15.7761 17.1248C15.8314 17.1821 15.8977 17.2277 15.9709 17.2591C16.0441 17.2906 16.1228 17.3071 16.2025 17.3077C16.2822 17.3084 16.3612 17.2932 16.4349 17.263C16.5086 17.2328 16.5756 17.1882 16.6319 17.1318C16.6882 17.0754 16.7327 17.0084 16.7629 16.9347C16.793 16.8609 16.8081 16.7819 16.8074 16.7022C16.8067 16.6226 16.7901 16.5439 16.7586 16.4707C16.7271 16.3975 16.6814 16.3313 16.6241 16.276L10.8489 10.5L16.6249 4.72397C16.712 4.6402 16.7718 4.53205 16.7965 4.4137C16.8211 4.29535 16.8094 4.17231 16.7629 4.06071C16.7165 3.94912 16.6374 3.85416 16.536 3.78829C16.4346 3.72242 16.3157 3.68871 16.1949 3.69157H16.1945Z" fill="white"/>
</g>
<defs>
<filter id="filter0_d_2930_19406" x="-1.59998" y="-0.100098" width="23.2" height="23.2002" filterUnits="userSpaceOnUse" color-interpolation-filters="sRGB">
<feFlood flood-opacity="0" result="BackgroundImageFix"/>
<feColorMatrix in="SourceAlpha" type="matrix" values="0 0 0 0 0 0 0 0 0 0 0 0 0 0 0 0 0 0 127 0" result="hardAlpha"/>
<feOffset dy="1"/>
<feGaussianBlur stdDeviation="1"/>
<feColorMatrix type="matrix" values="0 0 0 0 0 0 0 0 0 0 0 0 0 0 0 0 0 0 0.12 0"/>
<feBlend mode="normal" in2="BackgroundImageFix" result="effect1_dropShadow_2930_19406"/>
<feBlend mode="normal" in="SourceGraphic" in2="effect1_dropShadow_2930_19406" result="shape"/>
</filter>
</defs>
</svg>
