<svg width="154" height="191" viewBox="0 0 154 191" fill="none" xmlns="http://www.w3.org/2000/svg">
<path d="M65.4454 125.94C65.4454 125.94 81.9202 114.983 103.423 127.309C125.605 140.025 131.123 147.925 131.42 152.538C131.535 154.323 130.81 156.725 130.025 157.615C129.018 158.756 127.872 158.124 127.872 158.124L121.995 151.753C121.995 151.753 89.4945 134.234 63.9258 163.938L65.4454 125.94Z" fill="#D8A172"/>
<path d="M65.0204 74.971C65.0204 74.971 79.8985 65.5464 101.086 76.3404C140.163 96.2464 124.464 107.388 124.464 107.388L118.725 100.784C118.725 100.784 87.8599 83.2655 63.5776 112.969L65.0204 74.971Z" fill="#D8A172"/>
<path d="M122.68 124.78C115.916 105.048 118.101 99.3722 133.629 87.816C146.216 78.4479 150.779 57.4166 132.966 47.7972C115.155 38.1779 75.8439 21.625 59.9848 47.5484C44.1256 73.4717 24.8653 119.222 36.995 144.537C49.1247 169.852 70.3327 187.002 103.538 177.154C121.335 171.876 126.615 159.101 127.484 146.933C128.069 138.732 124.461 129.978 122.68 124.78Z" fill="#D9E8A3"/>
<path d="M154 57.1088C154 57.1088 151.727 67.8138 143.438 72.1276C135.15 76.4413 136.465 50.548 136.465 50.548C136.465 50.548 150.542 51.8176 154 57.1088Z" fill="#D9E8A3"/>
<path d="M68.2015 29.0166C68.2015 29.0166 79.1278 28.3662 85.4866 35.2107C91.8466 42.0564 66.534 47.6626 66.534 47.6626C66.534 47.6626 64.0188 33.7559 68.2015 29.0166Z" fill="#D9E8A3"/>
<path d="M45.3413 172.466C45.3413 172.466 39.4971 163.213 42.4222 154.34C45.3473 145.466 62.4761 164.926 62.4761 164.926C62.4761 164.926 51.5102 173.841 45.3413 172.466Z" fill="#AFE0D7"/>
<path opacity="0.7" d="M107.887 96.1093C107.887 96.1093 107.904 96.2175 107.922 96.4255C107.945 96.6335 107.963 96.9377 107.966 97.3284C107.964 97.5232 107.96 97.7396 107.957 97.974C107.949 98.2097 107.922 98.461 107.905 98.7339C107.888 99.0056 107.85 99.2929 107.81 99.5947C107.764 99.8965 107.732 100.217 107.661 100.544C107.595 100.873 107.525 101.215 107.453 101.57C107.382 101.926 107.265 102.279 107.167 102.651C106.98 103.4 106.698 104.159 106.418 104.95C106.275 105.344 106.093 105.729 105.93 106.129C105.755 106.523 105.607 106.936 105.393 107.322C105.193 107.714 104.991 108.108 104.787 108.505L104.48 109.099L104.137 109.676C103.666 110.433 103.229 111.215 102.708 111.92C102.457 112.282 102.205 112.638 101.954 112.984C101.829 113.159 101.707 113.335 101.579 113.504C101.445 113.67 101.312 113.831 101.181 113.994C100.658 114.644 100.146 115.266 99.6454 115.843C99.126 116.405 98.6247 116.925 98.163 117.403C97.931 117.642 97.7109 117.87 97.4993 118.089C97.2745 118.292 97.0605 118.486 96.8609 118.666C96.457 119.026 96.1047 119.338 95.815 119.597C95.2306 120.105 94.8916 120.388 94.8916 120.388C94.8916 120.388 95.1693 120.041 95.6647 119.447C95.9135 119.153 96.2165 118.795 96.564 118.386C96.7395 118.183 96.9246 117.967 97.1218 117.741C97.3082 117.504 97.5029 117.255 97.7073 116.998C98.1149 116.479 98.5561 115.92 99.0334 115.34C99.4783 114.734 99.946 114.094 100.43 113.432C100.941 112.791 101.356 112.049 101.853 111.349C102.353 110.651 102.766 109.883 103.219 109.14L103.559 108.583L103.865 108.009C104.069 107.627 104.272 107.246 104.471 106.87C104.851 106.103 105.217 105.343 105.55 104.599C105.843 103.84 106.182 103.125 106.412 102.413C106.673 101.711 106.877 101.035 107.066 100.407C107.169 100.096 107.224 99.7883 107.305 99.5009C107.382 99.2124 107.454 98.9371 107.501 98.675C107.554 98.4141 107.603 98.17 107.651 97.9428C107.689 97.7143 107.723 97.5051 107.753 97.3164C107.804 96.9365 107.852 96.6347 107.865 96.4303C107.885 96.2211 107.887 96.1093 107.887 96.1093Z" fill="#BECC7F"/>
<path opacity="0.7" d="M100.095 102.119C100.095 102.119 100.155 102.377 100.223 102.832C100.289 103.289 100.364 103.943 100.393 104.733C100.408 105.128 100.42 105.557 100.406 106.008C100.396 106.461 100.379 106.939 100.331 107.432C100.283 107.925 100.236 108.436 100.149 108.95C100.061 109.464 99.9647 109.987 99.8421 110.505C99.7182 111.021 99.5679 111.534 99.3984 112.031C99.2337 112.529 99.0269 113.007 98.8237 113.465C98.6158 113.922 98.3813 114.349 98.1408 114.743C98.0134 114.937 97.9028 115.13 97.7741 115.307C97.6443 115.479 97.5193 115.647 97.3978 115.807C97.268 115.961 97.1442 116.108 97.0251 116.247C96.9037 116.383 96.7727 116.501 96.6597 116.616C96.4396 116.853 96.2016 117.018 96.0297 117.171C95.8481 117.313 95.6894 117.408 95.5896 117.478C95.4874 117.546 95.4321 117.582 95.4321 117.582C95.4321 117.582 95.5944 117.377 95.8794 117.019C96.0068 116.829 96.1823 116.621 96.3483 116.354C96.5226 116.097 96.6981 115.792 96.8905 115.463C97.0708 115.127 97.256 114.761 97.4387 114.368C97.6191 113.971 97.785 113.545 97.9569 113.105C98.035 112.88 98.1144 112.653 98.1949 112.423C98.2671 112.191 98.3404 111.954 98.4126 111.716C98.5508 111.237 98.6915 110.751 98.8057 110.253C98.9356 109.762 99.0401 109.262 99.1363 108.77C99.2253 108.276 99.3299 107.791 99.402 107.314C99.4742 106.84 99.5547 106.38 99.616 105.943C99.6749 105.503 99.7327 105.088 99.7868 104.704C99.9683 103.153 100.095 102.119 100.095 102.119Z" fill="#BECC7F"/>
<path d="M75.9715 190.18C75.9715 190.18 44.0476 194.932 24.2763 172.611C0.832002 146.141 24.3977 94.2614 27.5537 81.6652C31.1376 67.3558 38.5833 47.6626 56.9997 44.8673C85.4803 40.544 93.9971 65.675 86.5527 84.2669C83.5049 91.8809 82.0069 101.813 92.6097 122.913C103.56 144.698 106.536 184.17 75.9715 190.18Z" fill="#D8A172"/>
<path d="M47.4937 170.038C47.4937 170.038 54.2781 201.294 100.4 186.616C127.053 178.134 124.348 154.695 124.348 154.695C124.348 154.695 126.388 170.475 101.062 164.509C85.3796 160.817 70.0326 153.359 66.9548 141.004C62.0387 121.263 47.4937 170.038 47.4937 170.038Z" fill="#BC7057"/>
<path d="M44.0479 169.714C44.0479 169.714 52.1548 187.561 77.5491 189.237C101.928 190.846 118.882 179.53 123.225 173.788C130.673 163.938 124.349 154.695 124.349 154.695C124.349 154.695 124.198 163.492 105.513 164.464C91.9559 165.171 67.6761 156.291 67.4188 135.832C67.1627 115.373 44.0479 169.714 44.0479 169.714Z" fill="#D8A172"/>
<path d="M47.5479 105.54C47.5683 105.798 52.3954 140.245 87.955 135.52C123.114 130.848 119.172 107.388 119.172 107.388C119.172 107.388 117.37 116.971 101.887 113.97C85.4639 110.787 67.128 91.7751 72.0682 78.7557C79.5066 59.1563 47.5479 105.54 47.5479 105.54Z" fill="#BC7057"/>
<path d="M45.167 105.583C45.167 105.583 49.3653 122.591 65.6561 130.503C85.835 140.305 106.022 131.055 112.17 126.887C127.091 116.773 119.173 107.389 119.173 107.389C119.173 107.389 115.247 115.417 101.095 113.872C86.4758 112.275 68.812 98.1388 73.5983 77.6376C78.3845 57.1353 45.167 105.583 45.167 105.583Z" fill="#D8A172"/>
<path d="M124.462 107.388C124.462 107.388 126.473 105.913 125.197 103.673C125.197 103.673 110.954 100.893 112.289 102.614C114.877 105.947 124.462 107.388 124.462 107.388Z" fill="#FEF9D4"/>
<path d="M123.938 103.789C123.938 103.789 126.714 102.331 125.053 100.328C125.053 100.328 111.377 99.7546 112.874 101.35C116.486 105.206 123.938 103.789 123.938 103.789Z" fill="#D8A172"/>
<path d="M125.311 103.793C125.311 103.793 126.656 101.975 124.996 99.9722C124.996 99.9722 110.601 99.6837 112.223 101.16C115.367 104.024 125.311 103.793 125.311 103.793Z" fill="#FEF9D4"/>
<path d="M123.992 100.232C123.992 100.232 126.163 98.3407 124.206 96.6022C124.206 96.6022 111.013 98.4297 112.82 99.686C117.092 102.652 123.992 100.232 123.992 100.232Z" fill="#D8A172"/>
<path d="M124.996 99.9722C124.996 99.9722 126.108 97.9836 124.149 96.2464C124.149 96.2464 110.012 98.182 111.844 99.4023C115.397 101.767 124.996 99.9722 124.996 99.9722Z" fill="#FEF9D4"/>
<path d="M128.77 158.34C128.77 158.34 130.741 156.674 129.195 154.57C129.195 154.57 114.004 153.198 115.564 154.781C118.588 157.847 128.77 158.34 128.77 158.34Z" fill="#FEF9D4"/>
<path d="M128.057 154.69C128.057 154.69 130.66 153.085 128.732 151.254C128.732 151.254 114.34 152.022 116.057 153.466C120.203 156.951 128.057 154.69 128.057 154.69Z" fill="#D8A172"/>
<path d="M129.195 154.57C129.195 154.57 130.567 152.736 128.639 150.904C128.639 150.904 113.521 152.029 115.36 153.34C118.92 155.884 129.195 154.57 129.195 154.57Z" fill="#FEF9D4"/>
<path d="M127.603 151.166C127.603 151.166 129.713 149.164 127.496 147.627C127.496 147.627 113.836 150.742 115.848 151.814C120.601 154.348 127.603 151.166 127.603 151.166Z" fill="#D8A172"/>
<path d="M128.638 150.905C128.638 150.905 129.617 148.816 127.403 147.279C127.403 147.279 112.762 150.593 114.796 151.628C118.742 153.632 128.638 150.905 128.638 150.905Z" fill="#FEF9D4"/>
<path d="M86.0642 61.4899C83.4938 57.1149 78.5657 53.888 74.3156 52.5486C70.0656 51.2081 64.1793 51.0218 59.5638 53.1305C54.9471 55.2381 43.9054 63.2248 45.8254 74.864C47.2826 83.7031 60.1757 87.5251 63.0011 88.416C65.8276 89.3081 78.5813 93.5761 84.8439 87.1752C93.0939 78.7425 88.6335 65.8662 86.0642 61.4899Z" fill="#FEF9D4"/>
<path d="M45.7809 74.5862C45.7809 74.5862 43.3908 62.3255 55.5386 59.9955C64.7756 58.2246 64.558 69.5343 60.0627 71.286C55.5674 73.0389 53.7905 70.9854 45.7809 74.5862Z" fill="#BC7057"/>
<path d="M85.1477 86.7965C85.1477 86.7965 94.1779 78.0945 85.4134 69.1676C78.8273 62.4602 72.5539 71.8042 75.2289 75.8186C77.9052 79.833 80.6548 79.2523 85.1477 86.7965Z" fill="#BC7057"/>
<path d="M54.4294 72.7937C53.6611 75.2283 51.2482 76.6361 49.0408 75.94C46.8322 75.2415 45.6648 72.7047 46.4319 70.2713C47.2001 67.8367 49.6131 66.4288 51.8205 67.125C54.029 67.8235 55.1976 70.3603 54.4294 72.7937Z" fill="#FCB9A9"/>
<path d="M87.0297 83.0803C86.2614 85.5137 83.8485 86.9215 81.6399 86.2254C79.4314 85.5281 78.2627 82.9913 79.031 80.5579C79.7992 78.1233 82.2122 76.7155 84.4208 77.4116C86.6305 78.1077 87.7967 80.6457 87.0297 83.0803Z" fill="#FCB9A9"/>
<path d="M58.5826 70.4877C58.5826 70.4877 56.3439 64.6819 52.3584 69.4429C52.3584 69.4429 55.34 67.9208 58.5826 70.4877Z" fill="#5B0F28"/>
<path d="M59.0523 70.2857C58.6339 69.2205 57.9378 68.1805 57.0349 67.5662C55.199 66.3182 53.3475 67.5265 51.9781 69.0991C51.627 69.5018 52.0707 70.1775 52.5251 69.9527C54.4283 69.0113 56.673 69.7219 58.254 70.9133C58.7745 71.3064 59.431 70.4552 58.9068 70.0621C57.0445 68.6566 54.4271 67.8247 52.1861 68.9344C52.3677 69.2193 52.5504 69.5042 52.7331 69.7892C53.9546 68.3897 55.4575 67.4916 56.911 68.855C57.4196 69.3299 57.844 70.0152 58.1097 70.6909C58.3634 71.3281 59.306 70.9289 59.0523 70.2857Z" fill="#5B0F28"/>
<path d="M77.3623 76.3319C77.3623 76.3319 82.6054 72.9824 82.9962 79.1789C82.9962 79.1789 81.4957 76.1852 77.3623 76.3319Z" fill="#5B0F28"/>
<path d="M77.6219 76.7744C78.2495 76.3788 78.9732 76.1191 79.6754 76.0049C81.6531 75.6803 82.3396 77.456 82.4887 79.233C82.8037 79.1128 83.1199 78.9913 83.4361 78.8699C82.2879 76.6481 79.685 75.7681 77.3526 75.7957C76.6973 75.8041 76.7226 76.8778 77.373 76.8693C79.3556 76.8453 81.5834 77.6039 82.5584 79.4903C82.7904 79.9399 83.5503 79.6586 83.5058 79.126C83.3327 77.0485 82.5584 74.977 80.339 74.8964C79.2486 74.8555 78.0727 75.2823 77.1037 75.8907C76.517 76.2586 77.0424 77.1398 77.6219 76.7744Z" fill="#5B0F28"/>
<path d="M73.9536 77.7313C71.6716 77.8527 68.8788 77.0749 68.7345 74.3145C68.7044 73.7494 67.7162 73.4933 67.2906 73.9249C65.3597 75.8798 62.9937 75.6153 61.1205 73.7097C60.517 73.0966 59.5744 74.0391 60.1779 74.6523C62.2927 76.8032 65.1602 77.1699 67.4709 75.5576C68.3053 78.1605 71.2629 79.2089 73.9536 79.0646C74.8108 79.0201 74.8144 77.6856 73.9536 77.7313Z" fill="#5B0F28"/>
<path d="M86.5101 102.509C86.5101 102.509 78.212 84.7527 93.5025 78.0753C106.717 72.3056 99.0269 100.352 86.5101 102.509Z" fill="#D9E8A3"/>
<path d="M84.8998 100.227C84.8998 100.227 84.7207 99.9048 84.4814 99.3085C84.3648 99.0092 84.2205 98.6449 84.0895 98.2169C83.9524 97.7901 83.8093 97.3031 83.6903 96.7621C83.5629 96.2235 83.4486 95.6332 83.3657 95.002C83.2851 94.3708 83.2082 93.6999 83.1938 93.0014C83.1637 92.3029 83.1926 91.5791 83.2467 90.8433C83.3188 90.1099 83.4186 89.3645 83.5857 88.6299C83.7444 87.8942 83.968 87.1716 84.2253 86.4755C84.3552 86.128 84.5079 85.7914 84.6521 85.4584C84.8192 85.1337 84.9731 84.8091 85.1487 84.5014C85.335 84.2008 85.4997 83.8942 85.6945 83.6165C85.8953 83.3412 86.0828 83.0683 86.2788 82.8122C86.4856 82.5633 86.6852 82.3228 86.8799 82.0896C87.0903 81.8744 87.2959 81.6664 87.4919 81.4656C87.8886 81.0713 88.2854 80.7479 88.64 80.4713C89.0055 80.2056 89.3169 79.9712 89.5959 79.8053C90.1489 79.4735 90.4699 79.3015 90.4699 79.3015C90.4699 79.3015 90.2198 79.5757 89.775 80.0241C89.5502 80.2453 89.3109 80.5519 89.0128 80.8669C88.8625 81.0244 88.7302 81.2168 88.5751 81.4043C88.4273 81.5979 88.2529 81.7818 88.105 82.0042C87.9512 82.2206 87.7913 82.4443 87.6277 82.6775C87.4751 82.9156 87.3163 83.1632 87.1516 83.4169C86.9977 83.6742 86.8535 83.9483 86.6984 84.22C86.5577 84.5014 86.4134 84.7887 86.2692 85.0796C86.1393 85.3778 86.0059 85.6808 85.8736 85.9874C85.7606 86.3036 85.6356 86.6186 85.5238 86.9408C85.317 87.5924 85.1138 88.256 84.9755 88.9377C84.812 89.6134 84.7158 90.3071 84.6173 90.9864C84.5439 91.6717 84.4754 92.3486 84.4513 93.0074C84.4213 93.6675 84.4117 94.3083 84.4213 94.9178C84.4417 95.5274 84.4574 96.1057 84.4958 96.6407C84.568 97.7119 84.6738 98.6064 84.7555 99.2364C84.8373 99.8652 84.8998 100.227 84.8998 100.227Z" fill="#BECC7F"/>
<path d="M76.2443 32.9961C76.2443 32.9961 74.8028 67.6071 99.4734 54.9063C124.145 42.2043 76.2443 32.9961 76.2443 32.9961Z" fill="#D9E8A3"/>
<path d="M76.2288 42.9665C76.2288 42.9665 76.343 43.2899 76.557 43.8442C76.7722 44.3972 77.0884 45.1787 77.4996 46.0924C77.7088 46.5481 77.9432 47.035 78.2029 47.5423C78.459 48.0509 78.7451 48.5763 79.0577 49.1077C79.3667 49.6403 79.7106 50.1741 80.0712 50.7043C80.4403 51.2297 80.8251 51.7539 81.2483 52.2444C81.4551 52.4933 81.6642 52.741 81.8891 52.9706C82.1043 53.2098 82.3327 53.4335 82.5611 53.6547C82.7824 53.8831 83.0324 54.0755 83.2585 54.2895C83.4929 54.4951 83.7418 54.6742 83.975 54.8702C84.2215 55.0469 84.4631 55.2212 84.7 55.3908C84.9464 55.5471 85.1893 55.7009 85.4262 55.8488C85.6702 55.9847 85.9083 56.1181 86.1391 56.2468C86.3699 56.3766 86.6056 56.4764 86.8268 56.587C87.0456 56.7024 87.2692 56.7818 87.4784 56.8696C87.6876 56.9549 87.8836 57.0499 88.076 57.1148C88.4619 57.2362 88.7937 57.3769 89.0774 57.4587C89.6449 57.621 89.9743 57.7316 89.9743 57.7316C89.9743 57.7316 89.6353 57.7448 89.0306 57.7376C88.7276 57.7316 88.3645 57.6883 87.9437 57.6426C87.5289 57.5729 87.0504 57.5056 86.5491 57.3553C86.299 57.2807 86.0309 57.2158 85.7628 57.1208C85.4971 57.0186 85.223 56.9128 84.9404 56.8034C84.6675 56.6724 84.3862 56.5365 84.0988 56.3995C83.8211 56.242 83.5398 56.0785 83.2549 55.9065C82.7006 55.541 82.1428 55.1371 81.6258 54.6694C81.3685 54.435 81.104 54.2029 80.8671 53.942C80.6183 53.692 80.385 53.4275 80.1578 53.1581C79.9234 52.8936 79.7226 52.6039 79.5062 52.3274C79.303 52.0424 79.107 51.7539 78.9219 51.4629C78.7403 51.1696 78.5588 50.8798 78.4025 50.5805C78.2366 50.2871 78.0851 49.9902 77.9456 49.6956C77.6607 49.1077 77.4226 48.5234 77.2219 47.9631C77.0175 47.4041 76.8636 46.8619 76.7325 46.3617C76.5979 45.8616 76.5041 45.3975 76.4332 44.9839C76.355 44.5727 76.3166 44.2072 76.2817 43.9091C76.2216 43.3116 76.2288 42.9665 76.2288 42.9665Z" fill="#BECC7F"/>
<path d="M94.9254 89.9224C94.9254 89.9224 112.052 61.5524 98.0056 47.6626C83.9595 33.774 92.3273 49.4444 88.6423 52.9237C83.7094 57.5801 81.7677 75.4074 94.9254 89.9224Z" fill="#D9E8A3"/>
<path d="M87.471 50.548C87.471 50.548 87.3748 51.1107 87.1728 52.0845C87.0694 52.5715 86.9949 53.1666 86.8638 53.8362C86.7977 54.1693 86.7628 54.536 86.7063 54.9147C86.6606 55.2958 86.5765 55.6889 86.5404 56.1085C86.4935 56.5257 86.4454 56.9585 86.3961 57.4082C86.3553 57.8578 86.3168 58.3219 86.2759 58.7992C86.2074 59.7538 86.1641 60.7613 86.1449 61.8025C86.122 62.8437 86.1364 63.9185 86.1761 65.0101C86.2182 66.1018 86.2939 67.2079 86.3985 68.3128C86.5103 69.4165 86.6426 70.5189 86.8097 71.5998C86.9684 72.6818 87.1668 73.7422 87.3676 74.7666C87.5828 75.7873 87.7872 76.7792 88.0228 77.7097C88.256 78.6415 88.4917 79.5191 88.7177 80.3295C88.9558 81.1362 89.1722 81.8792 89.3814 82.532C89.5954 83.1837 89.7769 83.7571 89.9416 84.2224C90.2638 85.1578 90.4706 85.6904 90.4706 85.6904C90.4706 85.6904 90.128 85.2323 89.6206 84.3727C89.1109 83.5131 88.434 82.2519 87.7571 80.6745C87.4193 79.8858 87.0658 79.0226 86.7532 78.0896C86.4238 77.1603 86.1148 76.166 85.8347 75.1272C85.7024 74.6055 85.5594 74.0765 85.4463 73.533C85.3874 73.2625 85.3261 72.9896 85.266 72.7155C85.2155 72.4402 85.1638 72.1625 85.1121 71.8835C84.8993 70.7714 84.7586 69.6269 84.6336 68.4823C84.5903 67.9076 84.541 67.3341 84.5086 66.7607C84.4869 66.1872 84.4557 65.6161 84.4593 65.0486C84.4617 64.4811 84.4497 63.9197 84.4833 63.363C84.511 62.8076 84.5206 62.2593 84.5795 61.7219C84.6576 60.6447 84.8103 59.6107 84.9678 58.6369C85.0592 58.1512 85.135 57.6775 85.2311 57.223C85.3405 56.771 85.4463 56.3358 85.5473 55.9174C85.7565 55.083 85.9934 54.3316 86.2146 53.6691C86.4478 53.0091 86.6498 52.4356 86.8446 51.9775C87.2281 51.0638 87.471 50.548 87.471 50.548Z" fill="#BECC7F"/>
<path d="M62.6817 44.3768H62.2056C62.8897 43.2635 63.3622 42.7213 63.5317 42.5025C63.6916 42.274 63.8707 42.0432 64.0727 41.8184C64.2675 41.5863 64.4899 41.3663 64.7147 41.1415C64.9528 40.9323 65.1908 40.7147 65.4409 40.5103C65.7018 40.3227 65.9554 40.1196 66.2199 39.9488C66.4869 39.7769 66.7514 39.6134 67.0146 39.4679C67.2791 39.3249 67.5412 39.1986 67.7877 39.0772C68.0378 38.963 68.2818 38.8716 68.5043 38.785C68.9443 38.5987 69.3398 38.5133 69.6055 38.4364C69.8761 38.3667 70.0311 38.333 70.0311 38.333C70.0311 38.333 69.8977 38.4232 69.6608 38.5674C69.5418 38.6396 69.3988 38.7273 69.2316 38.8211C69.0645 38.9113 68.8818 39.0303 68.6834 39.1529C68.4862 39.278 68.2686 39.4078 68.0414 39.5449C67.819 39.694 67.5869 39.8527 67.3417 40.0041C67.0976 40.158 66.8668 40.3504 66.6119 40.5151C66.3618 40.6846 66.1286 40.8842 65.8833 41.0682C65.6405 41.2545 65.4096 41.4553 65.1776 41.6489C64.9636 41.8605 64.7231 42.0396 64.526 42.2476C64.3228 42.4496 64.1196 42.6419 63.9416 42.8367C63.7565 43.0267 63.599 43.2202 63.4403 43.3909C63.2972 43.5725 63.153 43.7312 63.0399 43.8839C62.9233 44.033 62.8259 44.1676 62.7442 44.2782L62.6817 44.3768Z" fill="#BECC7F"/>
<path d="M131.432 47.3368C131.432 47.3368 131.679 47.3969 132.103 47.5387C132.527 47.677 133.124 47.9018 133.822 48.2096C134.168 48.3731 134.55 48.5366 134.936 48.7458C135.324 48.949 135.739 49.1582 136.144 49.4143C136.556 49.6559 136.978 49.918 137.392 50.2078C137.815 50.4819 138.213 50.8101 138.627 51.1131C139.024 51.4377 139.406 51.784 139.788 52.117C140.149 52.4753 140.501 52.8287 140.823 53.1906C141.131 53.5645 141.441 53.9144 141.691 54.2823C141.94 54.6514 142.178 54.9964 142.368 55.3331C142.547 55.6769 142.701 55.9967 142.837 56.2781C142.981 56.5546 143.038 56.8299 143.116 57.0391C143.252 57.4659 143.32 57.7076 143.32 57.7076C143.32 57.7076 143.182 57.4899 142.953 57.1112C142.897 57.0175 142.837 56.9129 142.768 56.7986C142.702 56.6856 142.636 56.5606 142.538 56.4404C142.357 56.1939 142.154 55.9186 141.942 55.6144C141.713 55.3222 141.435 55.0253 141.172 54.6959C140.899 54.3725 140.561 54.0707 140.252 53.728C139.929 53.3974 139.553 53.0944 139.21 52.7518C138.836 52.4392 138.462 52.1134 138.073 51.808C137.678 51.5074 137.3 51.1828 136.896 50.9075C136.696 50.7668 136.501 50.6226 136.309 50.4783C136.115 50.3352 135.915 50.2066 135.723 50.0731C135.34 49.8062 134.962 49.5562 134.603 49.3181C134.241 49.0837 133.899 48.8625 133.583 48.6593C132.939 48.2625 132.404 47.9307 132.027 47.6999C131.651 47.4678 131.432 47.3368 131.432 47.3368Z" fill="#BECC7F"/>
<path opacity="0.7" d="M103.875 164.502C103.875 164.502 112.647 163.84 117.972 161.057C119.396 160.313 122.074 158.678 121.272 158.34C120.47 158.002 120.541 158.055 119.62 157.609C118.465 157.049 117.011 156.235 116.335 155.411C116.335 155.411 119.305 157.339 123.205 157.692C123.205 157.693 121.271 164.33 103.875 164.502Z" fill="#BECC7F"/>
<path opacity="0.7" fill-rule="evenodd" clip-rule="evenodd" d="M119.179 106.202C115.138 105.236 112.985 103.33 112.985 103.33C114.934 105.723 118.128 106.559 117.943 107.06C115.753 112.895 104.913 114.065 104.913 114.065C115.921 113.944 119.172 107.388 119.172 107.388C119.228 106.886 119.179 106.202 119.179 106.202Z" fill="#BECC7F"/>
<g clip-path="url(#clip0_2580_48260)">
<path d="M35.5504 33.5189L36.7925 35.4699C36.8353 35.5372 36.8619 35.6134 36.8704 35.6927C36.8789 35.772 36.8689 35.8522 36.8413 35.927C36.8137 36.0019 36.7692 36.0693 36.7112 36.1241C36.6532 36.1788 36.5834 36.2194 36.5072 36.2428L32.291 37.5289L39.5768 40.4459C39.7782 40.5265 39.9491 40.6684 40.0654 40.8515L41.9197 43.7682C41.9625 43.8355 41.9891 43.9118 41.9976 43.9911C42.006 44.0704 41.996 44.1506 41.9684 44.2254C41.9407 44.3002 41.8962 44.3676 41.8382 44.4223C41.7802 44.477 41.7104 44.5176 41.6341 44.5409L34.5978 46.6889C34.4534 46.7331 34.2984 46.7287 34.1568 46.6763C34.0152 46.6238 33.8947 46.5264 33.8138 46.3988L32.5717 44.4479C32.5288 44.3806 32.5021 44.3043 32.4936 44.225C32.4851 44.1457 32.4951 44.0655 32.5227 43.9906C32.5503 43.9158 32.5949 43.8484 32.6528 43.7936C32.7108 43.7389 32.7807 43.6983 32.857 43.675L37.0931 42.3817L29.789 39.4736C29.587 39.3932 29.4154 39.2511 29.2987 39.0675L27.4445 36.1515C27.4017 36.0842 27.3751 36.008 27.3667 35.9287C27.3583 35.8494 27.3682 35.7693 27.3959 35.6945C27.4235 35.6197 27.4681 35.5524 27.526 35.4976C27.584 35.4429 27.6538 35.4024 27.73 35.3791L34.7666 33.2308C34.9108 33.1865 35.0655 33.1907 35.207 33.2427C35.3486 33.2947 35.4692 33.3918 35.5504 33.5189Z" fill="#D8A172"/>
<path d="M24.8572 25.1808L24.3056 27.8492C24.2866 27.9412 24.2466 28.0275 24.1887 28.1015C24.1308 28.1755 24.0566 28.2351 23.9719 28.2756C23.8872 28.3161 23.7942 28.3365 23.7003 28.3351C23.6064 28.3337 23.5141 28.3106 23.4306 28.2677L18.814 25.8933L22.5742 34.3364C22.6781 34.5697 22.706 34.8298 22.6541 35.0798L21.8268 39.0653C21.8077 39.1572 21.7677 39.2435 21.7098 39.3174C21.6519 39.3913 21.5777 39.4509 21.493 39.4914C21.4083 39.5318 21.3153 39.5522 21.2215 39.5508C21.1276 39.5495 21.0353 39.5264 20.9518 39.4835L13.2462 35.5206C13.0884 35.4393 12.9615 35.3086 12.8849 35.1484C12.8083 34.9882 12.7863 34.8073 12.8222 34.6334L13.3738 31.9657C13.3928 31.8737 13.4329 31.7874 13.4908 31.7135C13.5487 31.6395 13.6229 31.58 13.7076 31.5395C13.7923 31.4989 13.8852 31.4786 13.9791 31.4799C14.073 31.4813 14.1653 31.5043 14.2488 31.5472L18.8884 33.9335L15.1072 25.4788C15.0024 25.2448 14.9741 24.9838 15.0263 24.7328L15.8533 20.7484C15.8724 20.6564 15.9125 20.5702 15.9704 20.4963C16.0284 20.4224 16.1026 20.3629 16.1873 20.3225C16.272 20.282 16.3649 20.2617 16.4587 20.263C16.5526 20.2644 16.6448 20.2875 16.7283 20.3304L24.4332 24.2936C24.5911 24.3748 24.718 24.5055 24.7946 24.6657C24.8712 24.8259 24.8931 25.0068 24.8572 25.1808Z" fill="#D8A172"/>
<path d="M17.2968 8.99014L15.5607 11.664C15.5008 11.7562 15.4204 11.8333 15.3258 11.8893C15.2312 11.9453 15.1249 11.9786 15.0153 11.9867C14.9057 11.9949 14.7957 11.9775 14.6939 11.9361C14.5921 11.8946 14.5012 11.8302 14.4284 11.7479L10.4031 7.1933L10.9114 18.0015C10.9256 18.3003 10.8454 18.5958 10.6823 18.8464L8.08628 22.8403C8.02635 22.9324 7.94596 23.0094 7.85138 23.0653C7.75679 23.1212 7.65057 23.1545 7.541 23.1626C7.43144 23.1707 7.32149 23.1533 7.21974 23.1118C7.11799 23.0704 7.02719 23.006 6.95443 22.9236L0.238506 15.3222C0.100872 15.1665 0.0180378 14.97 0.00267792 14.7626C-0.012682 14.5553 0.0402775 14.3487 0.153454 14.1744L1.88955 11.5008C1.94942 11.4086 2.0298 11.3315 2.12438 11.2755C2.21897 11.2195 2.32521 11.1862 2.43481 11.178C2.54442 11.1699 2.65441 11.1873 2.75621 11.2287C2.858 11.2701 2.94884 11.3346 3.02164 11.4169L7.06544 15.993L6.53858 5.16422C6.52401 4.86472 6.60411 4.56824 6.76752 4.31687L9.36474 0.324247C9.42466 0.232132 9.50505 0.155115 9.59964 0.0992074C9.69422 0.0432995 9.80044 0.0100125 9.91001 0.00194399C10.0196 -0.00612449 10.1295 0.0112438 10.2313 0.0526936C10.333 0.0941433 10.4238 0.158553 10.4966 0.240897L17.2118 7.84229C17.3494 7.99802 17.4322 8.19458 17.4476 8.40188C17.463 8.60918 17.41 8.81581 17.2968 8.99014Z" fill="#D8A172"/>
<path d="M32.2911 37.5301L30.2663 38.123L34.0566 38.2367L32.2911 37.5301Z" fill="#D8A172"/>
<path d="M37.0932 42.3827L38.9492 43.0829L35.8734 42.7549L37.0932 42.3827Z" fill="#D8A172"/>
<path d="M18.8138 25.8923L17.1089 25.0576L19.9175 28.3708L18.8138 25.8923Z" fill="#D8A172"/>
<path d="M18.8884 33.9332L19.9629 36.4293L17.3494 33.1418L18.8884 33.9332Z" fill="#D8A172"/>
<path d="M10.4041 7.1933L8.78895 5.27378L10.5332 9.93543L10.4041 7.1933Z" fill="#D8A172"/>
<path d="M7.06534 15.993L7.20898 19.1296L5.86501 14.6344L7.06534 15.993Z" fill="#D8A172"/>
</g>
<defs>
<clipPath id="clip0_2580_48260">
<rect width="42" height="46.7191" fill="white" transform="matrix(-1 0 0 1 42 0)"/>
</clipPath>
</defs>
</svg>
