<svg width="24" height="24" viewBox="0 0 24 24" fill="none" xmlns="http://www.w3.org/2000/svg">
<path d="M15.14 3.96L6.11 6.96C0.0399952 8.99 0.0399952 12.3 6.11 14.32L8.79 15.21L9.68 17.89C11.7 23.96 15.02 23.96 17.04 17.89L20.05 8.87C21.39 4.82 19.19 2.61 15.14 3.96ZM15.46 9.34L11.66 13.16C11.51 13.31 11.32 13.38 11.13 13.38C10.94 13.38 10.75 13.31 10.6 13.16C10.31 12.87 10.31 12.39 10.6 12.1L14.4 8.28C14.69 7.99 15.17 7.99 15.46 8.28C15.75 8.57 15.75 9.05 15.46 9.34Z" fill="#6B727B"/>
</svg>
