<svg width="14" height="14" viewBox="0 0 14 14" fill="none" xmlns="http://www.w3.org/2000/svg">
<path d="M5.343 6.77833C5.3255 6.77833 5.31383 6.77833 5.29633 6.77833C5.26717 6.7725 5.22633 6.7725 5.19133 6.77833C3.49967 6.72583 2.22217 5.39583 2.22217 3.75667C2.22217 2.08833 3.58133 0.729167 5.24967 0.729167C6.918 0.729167 8.27717 2.08833 8.27717 3.75667C8.27133 5.39583 6.988 6.72583 5.3605 6.77833C5.35467 6.77833 5.34883 6.77833 5.343 6.77833ZM5.24967 1.60417C4.0655 1.60417 3.09717 2.5725 3.09717 3.75667C3.09717 4.92333 4.00717 5.8625 5.168 5.90333C5.203 5.8975 5.27883 5.8975 5.35467 5.90333C6.498 5.85083 7.39633 4.91167 7.40217 3.75667C7.40217 2.5725 6.43383 1.60417 5.24967 1.60417Z" fill="#D1D1D1"/>
<path d="M9.64813 6.85417C9.63063 6.85417 9.61313 6.85417 9.59563 6.84833C9.35647 6.87167 9.11147 6.7025 9.08813 6.46333C9.0648 6.22417 9.21063 6.00833 9.4498 5.97917C9.5198 5.97333 9.59563 5.97333 9.6598 5.97333C10.5115 5.92667 11.1765 5.22667 11.1765 4.36917C11.1765 3.4825 10.459 2.765 9.5723 2.765C9.33313 2.77083 9.1348 2.5725 9.1348 2.33333C9.1348 2.09417 9.33313 1.89583 9.5723 1.89583C10.9373 1.89583 12.0515 3.01 12.0515 4.375C12.0515 5.71667 11.0015 6.80167 9.66563 6.85417C9.6598 6.85417 9.65397 6.85417 9.64813 6.85417Z" fill="#D1D1D1"/>
<path d="M5.34894 13.1542C4.20561 13.1542 3.05644 12.8625 2.18727 12.2792C1.37644 11.7425 0.933105 11.0075 0.933105 10.2083C0.933105 9.40917 1.37644 8.66833 2.18727 8.12583C3.93727 6.965 6.77227 6.965 8.5106 8.12583C9.31561 8.6625 9.76477 9.3975 9.76477 10.1967C9.76477 10.9958 9.32144 11.7367 8.5106 12.2792C7.63561 12.8625 6.49227 13.1542 5.34894 13.1542ZM2.67144 8.86083C2.11144 9.23417 1.80811 9.7125 1.80811 10.2142C1.80811 10.71 2.11727 11.1883 2.67144 11.5558C4.12394 12.53 6.57394 12.53 8.02644 11.5558C8.58644 11.1825 8.88977 10.7042 8.88977 10.2025C8.88977 9.70667 8.58061 9.22833 8.02644 8.86083C6.57394 7.8925 4.12394 7.8925 2.67144 8.86083Z" fill="#D1D1D1"/>
<path d="M10.6982 12.1042C10.494 12.1042 10.3132 11.9642 10.2724 11.7542C10.2257 11.515 10.3774 11.2875 10.6107 11.235C10.9782 11.1592 11.3165 11.0133 11.579 10.8092C11.9115 10.5583 12.0924 10.2433 12.0924 9.91083C12.0924 9.57833 11.9115 9.26333 11.5849 9.01833C11.3282 8.82 11.0074 8.68 10.6282 8.5925C10.3949 8.54 10.2432 8.30667 10.2957 8.0675C10.3482 7.83417 10.5815 7.6825 10.8207 7.735C11.3224 7.84583 11.7599 8.04417 12.1157 8.31833C12.6582 8.72667 12.9674 9.30417 12.9674 9.91083C12.9674 10.5175 12.6524 11.095 12.1099 11.5092C11.7482 11.7892 11.2932 11.9933 10.7915 12.0925C10.7565 12.1042 10.7274 12.1042 10.6982 12.1042Z" fill="#D1D1D1"/>
</svg>
