<svg width="24" height="24" viewBox="0 0 24 24" fill="none" xmlns="http://www.w3.org/2000/svg">
<path d="M16.0673 15.007C16.3573 15.297 16.3573 15.777 16.0673 16.067C15.9173 16.217 15.7273 16.287 15.5373 16.287C15.3473 16.287 15.1573 16.217 15.0073 16.067L12.0002 13.0599L8.99308 16.067C8.84308 16.217 8.65308 16.287 8.46308 16.287C8.27308 16.287 8.08308 16.217 7.93308 16.067C7.64308 15.777 7.64308 15.297 7.93308 15.007L10.9402 11.9999L7.93308 8.99283C7.64308 8.70283 7.64308 8.22283 7.93308 7.93283C8.22308 7.64283 8.70308 7.64283 8.99308 7.93283L12.0002 10.9399L15.0073 7.93283C15.2973 7.64283 15.7773 7.64283 16.0673 7.93283C16.3573 8.22283 16.3573 8.70283 16.0673 8.99283L13.0602 11.9999L16.0673 15.007Z" fill="white"/>
</svg>
