<svg width="25" height="24" viewBox="0 0 25 24" fill="none" xmlns="http://www.w3.org/2000/svg">
<path fill-rule="evenodd" clip-rule="evenodd" d="M19.2667 19.16C19.8567 18.26 20.0767 17.8 20.5267 16.79C17.2067 15.53 16.6767 10.8 19.9567 8.98999C18.9567 7.72999 17.5467 7 16.2167 7C15.2567 7 14.5967 7.25001 14.0067 7.48001C13.5067 7.67001 13.0567 7.84 12.4967 7.84C11.8967 7.84 11.3667 7.65001 10.8067 7.45001C10.1967 7.23001 9.55666 7 8.75666 7C7.26666 7 5.67666 7.91 4.66666 9.47C3.24666 11.67 3.49666 15.79 5.78666 19.31C6.60666 20.57 7.70666 21.98 9.13666 22C9.73666 22.01 10.1267 21.83 10.5567 21.64C11.0467 21.42 11.5767 21.18 12.5067 21.18C13.4367 21.17 13.9567 21.42 14.4467 21.64C14.8667 21.83 15.2467 22.01 15.8367 22C17.2867 21.98 18.4467 20.42 19.2667 19.16Z" fill="#1C2025"/>
<path fill-rule="evenodd" clip-rule="evenodd" d="M16.0067 2C16.1667 3.1 15.7167 4.19001 15.1267 4.95001C14.4967 5.77001 13.3967 6.41 12.3367 6.37C12.1467 5.31 12.6367 4.21999 13.2367 3.48999C13.9067 2.68999 15.0367 2.07 16.0067 2Z" fill="#1C2025"/>
</svg>
