<svg width="80" height="80" viewBox="0 0 80 80" fill="none" xmlns="http://www.w3.org/2000/svg">
<g filter="url(#filter0_d_1009_10827)">
<circle cx="40" cy="30" r="20" fill="#7D54F8"/>
<circle cx="40" cy="30" r="19" stroke="white" stroke-width="2"/>
</g>
<path d="M47.12 27.12C46.73 27.12 46.42 27.43 46.42 27.82V29.4C46.42 32.94 43.54 35.82 40 35.82C36.46 35.82 33.58 32.94 33.58 29.4V27.81C33.58 27.42 33.27 27.11 32.88 27.11C32.49 27.11 32.18 27.42 32.18 27.81V29.39C32.18 33.46 35.31 36.81 39.3 37.17V39.3C39.3 39.69 39.61 40 40 40C40.39 40 40.7 39.69 40.7 39.3V37.17C44.68 36.82 47.82 33.46 47.82 29.39V27.81C47.81 27.43 47.5 27.12 47.12 27.12Z" fill="white"/>
<path d="M40 20C37.56 20 35.58 21.98 35.58 24.42V29.54C35.58 31.98 37.56 33.96 40 33.96C42.44 33.96 44.42 31.98 44.42 29.54V24.42C44.42 21.98 42.44 20 40 20ZM41.31 26.95C41.24 27.21 41.01 27.38 40.75 27.38C40.7 27.38 40.65 27.37 40.6 27.36C40.21 27.25 39.8 27.25 39.41 27.36C39.09 27.45 38.78 27.26 38.7 26.95C38.61 26.64 38.8 26.32 39.11 26.24C39.7 26.08 40.32 26.08 40.91 26.24C41.21 26.32 41.39 26.64 41.31 26.95ZM41.84 25.01C41.75 25.25 41.53 25.39 41.29 25.39C41.22 25.39 41.16 25.38 41.09 25.36C40.39 25.1 39.61 25.1 38.91 25.36C38.61 25.47 38.27 25.31 38.16 25.01C38.05 24.71 38.21 24.37 38.51 24.27C39.47 23.92 40.53 23.92 41.49 24.27C41.79 24.38 41.95 24.71 41.84 25.01Z" fill="white"/>
<defs>
<filter id="filter0_d_1009_10827" x="0" y="0" width="80" height="80" filterUnits="userSpaceOnUse" color-interpolation-filters="sRGB">
<feFlood flood-opacity="0" result="BackgroundImageFix"/>
<feColorMatrix in="SourceAlpha" type="matrix" values="0 0 0 0 0 0 0 0 0 0 0 0 0 0 0 0 0 0 127 0" result="hardAlpha"/>
<feOffset dy="10"/>
<feGaussianBlur stdDeviation="10"/>
<feColorMatrix type="matrix" values="0 0 0 0 0 0 0 0 0 0 0 0 0 0 0 0 0 0 0.1 0"/>
<feBlend mode="normal" in2="BackgroundImageFix" result="effect1_dropShadow_1009_10827"/>
<feBlend mode="normal" in="SourceGraphic" in2="effect1_dropShadow_1009_10827" result="shape"/>
</filter>
</defs>
</svg>
