<svg width="80" height="80" viewBox="0 0 80 80" fill="none" xmlns="http://www.w3.org/2000/svg">
<g filter="url(#filter0_d_1009_10823)">
<circle cx="40" cy="30" r="20" fill="#7D54F8"/>
<circle cx="40" cy="30" r="19" stroke="white" stroke-width="2"/>
</g>
<path d="M46 24C45.39 24 44.83 23.65 44.55 23.11L43.83 21.66C43.37 20.75 42.17 20 41.15 20H38.86C37.83 20 36.63 20.75 36.17 21.66L35.45 23.11C35.17 23.65 34.61 24 34 24C31.83 24 30.11 25.83 30.25 27.99L30.77 36.25C30.89 38.31 32 40 34.76 40H45.24C48 40 49.1 38.31 49.23 36.25L49.75 27.99C49.89 25.83 48.17 24 46 24ZM38.5 25.25H41.5C41.91 25.25 42.25 25.59 42.25 26C42.25 26.41 41.91 26.75 41.5 26.75H38.5C38.09 26.75 37.75 26.41 37.75 26C37.75 25.59 38.09 25.25 38.5 25.25ZM40 36.12C38.14 36.12 36.62 34.61 36.62 32.74C36.62 30.87 38.13 29.36 40 29.36C41.87 29.36 43.38 30.87 43.38 32.74C43.38 34.61 41.86 36.12 40 36.12Z" fill="white"/>
<defs>
<filter id="filter0_d_1009_10823" x="0" y="0" width="80" height="80" filterUnits="userSpaceOnUse" color-interpolation-filters="sRGB">
<feFlood flood-opacity="0" result="BackgroundImageFix"/>
<feColorMatrix in="SourceAlpha" type="matrix" values="0 0 0 0 0 0 0 0 0 0 0 0 0 0 0 0 0 0 127 0" result="hardAlpha"/>
<feOffset dy="10"/>
<feGaussianBlur stdDeviation="10"/>
<feColorMatrix type="matrix" values="0 0 0 0 0 0 0 0 0 0 0 0 0 0 0 0 0 0 0.1 0"/>
<feBlend mode="normal" in2="BackgroundImageFix" result="effect1_dropShadow_1009_10823"/>
<feBlend mode="normal" in="SourceGraphic" in2="effect1_dropShadow_1009_10823" result="shape"/>
</filter>
</defs>
</svg>
