<svg width="24" height="24" viewBox="0 0 24 24" fill="none" xmlns="http://www.w3.org/2000/svg">
<path d="M18 6C17.39 6 16.83 5.65 16.55 5.11L15.83 3.66C15.37 2.75 14.17 2 13.15 2H10.86C9.82998 2 8.62998 2.75 8.16998 3.66L7.44998 5.11C7.16998 5.65 6.60998 6 5.99998 6C3.82998 6 2.10998 7.83 2.24998 9.99L2.76998 18.25C2.88998 20.31 3.99998 22 6.75998 22H17.24C20 22 21.1 20.31 21.23 18.25L21.75 9.99C21.89 7.83 20.17 6 18 6ZM10.5 7.25H13.5C13.91 7.25 14.25 7.59 14.25 8C14.25 8.41 13.91 8.75 13.5 8.75H10.5C10.09 8.75 9.74998 8.41 9.74998 8C9.74998 7.59 10.09 7.25 10.5 7.25ZM12 18.12C10.14 18.12 8.61998 16.61 8.61998 14.74C8.61998 12.87 10.13 11.36 12 11.36C13.87 11.36 15.38 12.87 15.38 14.74C15.38 16.61 13.86 18.12 12 18.12Z" fill="white"/>
</svg>
