<svg width="80" height="80" viewBox="0 0 80 80" fill="none" xmlns="http://www.w3.org/2000/svg">
<g filter="url(#filter0_d_1009_10842)">
<circle cx="40" cy="30" r="20" fill="#7D54F8"/>
<circle cx="40" cy="30" r="19" stroke="white" stroke-width="2"/>
</g>
<path d="M49 40H31C30.59 40 30.25 39.66 30.25 39.25C30.25 38.84 30.59 38.5 31 38.5H49C49.41 38.5 49.75 38.84 49.75 39.25C49.75 39.66 49.41 40 49 40Z" fill="white"/>
<path d="M47.02 21.48C45.08 19.54 43.18 19.49 41.19 21.48L39.98 22.69C39.88 22.79 39.84 22.95 39.88 23.09C40.64 25.74 42.76 27.86 45.41 28.62C45.45 28.63 45.49 28.64 45.53 28.64C45.64 28.64 45.74 28.6 45.82 28.52L47.02 27.31C48.01 26.33 48.49 25.38 48.49 24.42C48.5 23.43 48.02 22.47 47.02 21.48Z" fill="white"/>
<path d="M43.61 29.53C43.32 29.39 43.04 29.25 42.77 29.09C42.55 28.96 42.34 28.82 42.13 28.67C41.96 28.56 41.76 28.4 41.57 28.24C41.55 28.23 41.48 28.17 41.4 28.09C41.07 27.81 40.7 27.45 40.37 27.05C40.34 27.03 40.29 26.96 40.22 26.87C40.12 26.75 39.95 26.55 39.8 26.32C39.68 26.17 39.54 25.95 39.41 25.73C39.25 25.46 39.11 25.19 38.97 24.91C38.9488 24.8646 38.9283 24.8194 38.9085 24.7745C38.7609 24.4412 38.3262 24.3438 38.0685 24.6015L32.34 30.33C32.21 30.46 32.09 30.71 32.06 30.88L31.52 34.71C31.42 35.39 31.61 36.03 32.03 36.46C32.39 36.81 32.89 37 33.43 37C33.55 37 33.67 36.99 33.79 36.97L37.63 36.43C37.81 36.4 38.06 36.28 38.18 36.15L43.9013 30.4287C44.1609 30.1691 44.063 29.7237 43.7254 29.5796C43.6874 29.5634 43.6489 29.5469 43.61 29.53Z" fill="white"/>
<defs>
<filter id="filter0_d_1009_10842" x="0" y="0" width="80" height="80" filterUnits="userSpaceOnUse" color-interpolation-filters="sRGB">
<feFlood flood-opacity="0" result="BackgroundImageFix"/>
<feColorMatrix in="SourceAlpha" type="matrix" values="0 0 0 0 0 0 0 0 0 0 0 0 0 0 0 0 0 0 127 0" result="hardAlpha"/>
<feOffset dy="10"/>
<feGaussianBlur stdDeviation="10"/>
<feColorMatrix type="matrix" values="0 0 0 0 0 0 0 0 0 0 0 0 0 0 0 0 0 0 0.1 0"/>
<feBlend mode="normal" in2="BackgroundImageFix" result="effect1_dropShadow_1009_10842"/>
<feBlend mode="normal" in="SourceGraphic" in2="effect1_dropShadow_1009_10842" result="shape"/>
</filter>
</defs>
</svg>
