<svg width="25" height="24" viewBox="0 0 25 24" fill="none" xmlns="http://www.w3.org/2000/svg">
<path d="M12.5 2.5C9.98043 2.5 7.56407 3.50089 5.78247 5.28249C4.00087 7.06408 2.99998 9.48044 2.99998 12C2.99998 14.5196 4.00087 16.9359 5.78247 18.7175C7.56407 20.4991 9.98043 21.5 12.5 21.5C15.0195 21.5 17.4359 20.4991 19.2175 18.7175C20.9991 16.9359 22 14.5196 22 12C22 9.48044 20.9991 7.06408 19.2175 5.28249C17.4359 3.50089 15.0195 2.5 12.5 2.5V2.5Z" fill="#2794FF"/>
<path d="M13.786 14.518H16.2445L16.6305 12.0205H13.7855V10.6555C13.7855 9.61801 14.1245 8.69801 15.095 8.69801H16.6545V6.51851C16.3805 6.48151 15.801 6.40051 14.706 6.40051C12.4195 6.40051 11.079 7.60801 11.079 10.359V12.0205H8.72849V14.518H11.079V21.3825C11.5445 21.4525 12.016 21.5 12.5 21.5C12.9375 21.5 13.3645 21.46 13.786 21.403V14.518Z" fill="white"/>
</svg>
