<svg width="25" height="24" viewBox="0 0 25 24" fill="none" xmlns="http://www.w3.org/2000/svg">
<path d="M22.6388 10.0415H21.8333V10H12.8333V14H18.4848C17.6603 16.3285 15.4448 18 12.8333 18C9.51984 18 6.83334 15.3135 6.83334 12C6.83334 8.6865 9.51984 6 12.8333 6C14.3628 6 15.7543 6.577 16.8138 7.5195L19.6423 4.691C17.8563 3.0265 15.4673 2 12.8333 2C7.31084 2 2.83334 6.4775 2.83334 12C2.83334 17.5225 7.31084 22 12.8333 22C18.3558 22 22.8333 17.5225 22.8333 12C22.8333 11.3295 22.7643 10.675 22.6388 10.0415Z" fill="#F4B537"/>
<path d="M3.98636 7.3455L7.27186 9.755C8.16086 7.554 10.3139 6 12.8334 6C14.3629 6 15.7544 6.577 16.8139 7.5195L19.6424 4.691C17.8564 3.0265 15.4674 2 12.8334 2C8.99236 2 5.66136 4.1685 3.98636 7.3455Z" fill="#FF3D00"/>
<path d="M12.8333 22C15.4163 22 17.7633 21.0115 19.5378 19.404L16.4428 16.785C15.4388 17.5455 14.1908 18 12.8333 18C10.2323 18 8.02385 16.3415 7.19185 14.027L3.93085 16.5395C5.58585 19.778 8.94685 22 12.8333 22Z" fill="#4CAF50"/>
<path d="M22.6388 10.0415H21.8333V10H12.8333V14H18.4848C18.0888 15.1185 17.3693 16.083 16.4413 16.7855C16.4418 16.785 16.4423 16.785 16.4428 16.7845L19.5378 19.4035C19.3188 19.6025 22.8333 17 22.8333 12C22.8333 11.3295 22.7643 10.675 22.6388 10.0415Z" fill="#1976D2"/>
</svg>
