<svg width="24" height="24" viewBox="0 0 24 24" fill="none" xmlns="http://www.w3.org/2000/svg">
<path d="M12.3777 20.1002L12.3777 20.1002L12.3704 20.1028C12.3056 20.1256 12.1714 20.15 12 20.15C11.8286 20.15 11.6944 20.1256 11.6296 20.1028L11.6296 20.1027L11.6223 20.1002C10.2799 19.642 8.03683 18.4242 6.13923 16.4799C4.25068 14.5449 2.75 11.9405 2.75 8.69001C2.75 6.01071 4.90771 3.85001 7.56 3.85001C9.13147 3.85001 10.5225 4.6085 11.3979 5.78717C11.5394 5.97769 11.7627 6.09001 12 6.09001C12.2373 6.09001 12.4606 5.97769 12.6021 5.78717C13.477 4.60912 14.8778 3.85001 16.44 3.85001C19.0923 3.85001 21.25 6.01071 21.25 8.69001C21.25 11.9405 19.7493 14.5449 17.8608 16.4799C15.9632 18.4242 13.7201 19.642 12.3777 20.1002Z" stroke="#6B727B" stroke-width="1.5" stroke-linecap="round" stroke-linejoin="round"/>
</svg>
