<svg width="80" height="80" viewBox="0 0 80 80" fill="none" xmlns="http://www.w3.org/2000/svg">
<circle cx="40" cy="40" r="40" fill="#EFEAFE"/>
<path d="M44.9052 21.4639C43.0657 20.3993 40.8774 20.1176 38.8283 20.6666L23.7322 24.7116C19.452 25.8585 16.9254 30.2369 18.0677 34.5003L21.3024 46.5723C22.4448 50.8357 26.8374 53.3602 31.1023 52.2174L46.1984 48.1724C50.4633 47.0296 53.0067 42.6467 51.8644 38.3833L48.6297 26.3113C48.081 24.2636 46.7455 22.5251 44.9052 21.4639Z" fill="url(#paint0_linear_447_29347)"/>
<g filter="url(#filter0_f_447_29347)">
<path d="M40.7239 25.4343C39.5633 24.7226 38.1906 24.5205 36.9118 24.8631L27.4909 27.3875C24.8198 28.1032 23.2731 30.9479 24.0231 33.7471L26.1469 41.6731C26.897 44.4723 29.6683 46.16 32.3299 45.4468L41.7508 42.9225C44.4124 42.2094 45.9695 39.3619 45.2195 36.5627L43.0957 28.6366C42.7355 27.2922 41.885 26.1436 40.7239 25.4343Z" fill="#7D54F8"/>
</g>
<g filter="url(#filter1_b_447_29347)">
<mask id="path-4-outside-1_447_29347" maskUnits="userSpaceOnUse" x="25.3784" y="25.8108" width="38" height="34" fill="black">
<rect fill="white" x="25.3784" y="25.8108" width="38" height="34"/>
<path d="M59.0786 29.4259C57.4029 27.7466 55.1251 26.8108 52.7572 26.8108H35.3132C30.3673 26.8108 26.3784 30.8014 26.3784 35.7279V49.6775C26.3784 54.6039 30.3849 58.5946 35.3132 58.5946H52.7572C57.6854 58.5946 61.6937 54.6039 61.6937 49.6775V35.7279C61.6937 33.3618 60.7561 31.1016 59.0786 29.4259Z"/>
</mask>
<path d="M59.0786 29.4259C57.4029 27.7466 55.1251 26.8108 52.7572 26.8108H35.3132C30.3673 26.8108 26.3784 30.8014 26.3784 35.7279V49.6775C26.3784 54.6039 30.3849 58.5946 35.3132 58.5946H52.7572C57.6854 58.5946 61.6937 54.6039 61.6937 49.6775V35.7279C61.6937 33.3618 60.7561 31.1016 59.0786 29.4259Z" fill="#7D54F8" fill-opacity="0.4"/>
<path d="M58.3708 30.1323C58.7609 30.5232 59.3941 30.5239 59.785 30.1337C60.1759 29.7436 60.1766 29.1105 59.7865 28.7195L58.3708 30.1323ZM59.7854 28.7184C59.3946 28.3281 58.7615 28.3284 58.3712 28.7192C57.9808 29.1099 57.9812 29.7431 58.3719 30.1334L59.7854 28.7184ZM59.7865 28.7195C57.9215 26.8506 55.3883 25.8108 52.7572 25.8108V27.8108C54.8618 27.8108 56.8843 28.6426 58.3708 30.1323L59.7865 28.7195ZM52.7572 25.8108H35.3132V27.8108H52.7572V25.8108ZM35.3132 25.8108C29.8162 25.8108 25.3784 30.248 25.3784 35.7279H27.3784C27.3784 31.3549 30.9184 27.8108 35.3132 27.8108V25.8108ZM25.3784 35.7279V49.6775H27.3784V35.7279H25.3784ZM25.3784 49.6775C25.3784 55.1587 29.8351 59.5946 35.3132 59.5946V57.5946C30.9348 57.5946 27.3784 54.0492 27.3784 49.6775H25.3784ZM35.3132 59.5946H52.7572V57.5946H35.3132V59.5946ZM52.7572 59.5946C58.235 59.5946 62.6937 55.1589 62.6937 49.6775H60.6937C60.6937 54.049 57.1359 57.5946 52.7572 57.5946V59.5946ZM62.6937 49.6775V35.7279H60.6937V49.6775H62.6937ZM62.6937 35.7279C62.6937 33.0959 61.6503 30.5813 59.7854 28.7184L58.3719 30.1334C59.862 31.6219 60.6937 33.6277 60.6937 35.7279H62.6937Z" fill="url(#paint1_linear_447_29347)" mask="url(#path-4-outside-1_447_29347)"/>
</g>
<g filter="url(#filter2_bd_447_29347)">
<mask id="path-6-inside-2_447_29347" fill="white">
<path d="M55.7079 38.2175L55.5666 38.3588L47.6013 44.7332C46.6142 45.5102 45.3941 45.9339 44.1421 45.9339C42.8867 45.9339 41.6877 45.5102 40.6989 44.7332L32.6647 38.4648L32.4333 38.2352C32.029 37.7055 32.082 36.9462 32.5587 36.4694C33.016 35.9927 33.7753 35.9397 34.3245 36.3458L42.2704 42.7026C43.3105 43.5519 44.7778 43.5519 45.802 42.7026L53.7638 36.3458C54.0304 36.0986 54.3836 35.9733 54.7544 35.9927C55.1058 36.028 55.443 36.1887 55.6885 36.4518C56.1299 36.9639 56.1299 37.7055 55.7079 38.2175Z"/>
</mask>
<path d="M55.7079 38.2175L55.5666 38.3588L47.6013 44.7332C46.6142 45.5102 45.3941 45.9339 44.1421 45.9339C42.8867 45.9339 41.6877 45.5102 40.6989 44.7332L32.6647 38.4648L32.4333 38.2352C32.029 37.7055 32.082 36.9462 32.5587 36.4694C33.016 35.9927 33.7753 35.9397 34.3245 36.3458L42.2704 42.7026C43.3105 43.5519 44.7778 43.5519 45.802 42.7026L53.7638 36.3458C54.0304 36.0986 54.3836 35.9733 54.7544 35.9927C55.1058 36.028 55.443 36.1887 55.6885 36.4518C56.1299 36.9639 56.1299 37.7055 55.7079 38.2175Z" fill="url(#paint2_linear_447_29347)"/>
<path d="M55.5666 38.3588L55.6916 38.515L55.7002 38.5081L55.7081 38.5002L55.5666 38.3588ZM47.6013 44.7332L47.725 44.8904L47.7262 44.8894L47.6013 44.7332ZM40.6989 44.7332L40.8225 44.576L40.8219 44.5755L40.6989 44.7332ZM32.6647 38.4648L32.5238 38.6067L32.5322 38.6151L32.5416 38.6224L32.6647 38.4648ZM32.4333 38.2352L32.2744 38.3566L32.2827 38.3675L32.2925 38.3772L32.4333 38.2352ZM32.5587 36.4694L32.7002 36.6109L32.703 36.6079L32.5587 36.4694ZM34.3245 36.3458L34.4495 36.1896L34.4434 36.185L34.3245 36.3458ZM42.2704 42.7026L42.3969 42.5477L42.3954 42.5464L42.2704 42.7026ZM45.802 42.7026L45.6772 42.5463L45.6743 42.5486L45.802 42.7026ZM53.7638 36.3458L53.8886 36.5021L53.8944 36.4975L53.8998 36.4925L53.7638 36.3458ZM54.7544 35.9927L54.7744 35.7935L54.7649 35.793L54.7544 35.9927ZM55.6885 36.4518L55.8401 36.3211L55.8347 36.3154L55.6885 36.4518ZM55.5665 38.0761L55.4252 38.2174L55.7081 38.5002L55.8493 38.359L55.5665 38.0761ZM55.4417 38.2027L47.4763 44.5771L47.7262 44.8894L55.6916 38.515L55.4417 38.2027ZM47.4776 44.5761C46.5256 45.3254 45.349 45.7339 44.1421 45.7339V46.1339C45.4391 46.1339 46.7028 45.6949 47.725 44.8904L47.4776 44.5761ZM44.1421 45.7339C42.9325 45.7339 41.7769 45.3258 40.8225 44.576L40.5753 44.8905C41.5986 45.6945 42.8408 46.1339 44.1421 46.1339V45.7339ZM40.8219 44.5755L32.7877 38.3071L32.5416 38.6224L40.5759 44.8909L40.8219 44.5755ZM32.8055 38.3228L32.5742 38.0932L32.2925 38.3772L32.5238 38.6067L32.8055 38.3228ZM32.5923 38.1139C32.2496 37.6648 32.2933 37.0177 32.7001 36.6109L32.4173 36.328C31.8707 36.8747 31.8084 37.7461 32.2744 38.3566L32.5923 38.1139ZM32.703 36.6079C33.0871 36.2075 33.733 36.1572 34.2056 36.5066L34.4434 36.185C33.8177 35.7223 32.945 35.7779 32.4144 36.331L32.703 36.6079ZM34.1995 36.502L42.1455 42.8588L42.3954 42.5464L34.4494 36.1897L34.1995 36.502ZM42.1439 42.8575C43.257 43.7665 44.8309 43.7677 45.9296 42.8565L45.6743 42.5486C44.7247 43.3361 43.3639 43.3374 42.3969 42.5477L42.1439 42.8575ZM45.9267 42.8589L53.8886 36.5021L53.639 36.1895L45.6772 42.5463L45.9267 42.8589ZM53.8998 36.4925C54.1256 36.2831 54.4255 36.1757 54.7439 36.1924L54.7649 35.793C54.3417 35.7708 53.9353 35.9141 53.6278 36.1992L53.8998 36.4925ZM54.7344 36.1917C55.0394 36.2223 55.3312 36.3619 55.5422 36.5882L55.8347 36.3154C55.5549 36.0154 55.1722 35.8337 54.7744 35.7937L54.7344 36.1917ZM55.537 36.5824C55.9141 37.0198 55.9144 37.6525 55.5536 38.0904L55.8622 38.3447C56.3455 37.7584 56.3458 36.9079 55.84 36.3212L55.537 36.5824Z" fill="url(#paint3_linear_447_29347)" fill-opacity="0.5" mask="url(#path-6-inside-2_447_29347)"/>
</g>
<defs>
<filter id="filter0_f_447_29347" x="7.83398" y="8.70044" width="53.574" height="52.9099" filterUnits="userSpaceOnUse" color-interpolation-filters="sRGB">
<feFlood flood-opacity="0" result="BackgroundImageFix"/>
<feBlend mode="normal" in="SourceGraphic" in2="BackgroundImageFix" result="shape"/>
<feGaussianBlur stdDeviation="8" result="effect1_foregroundBlur_447_29347"/>
</filter>
<filter id="filter1_b_447_29347" x="10.3784" y="10.8108" width="67.3153" height="63.7837" filterUnits="userSpaceOnUse" color-interpolation-filters="sRGB">
<feFlood flood-opacity="0" result="BackgroundImageFix"/>
<feGaussianBlur in="BackgroundImageFix" stdDeviation="7.5"/>
<feComposite in2="SourceAlpha" operator="in" result="effect1_backgroundBlur_447_29347"/>
<feBlend mode="normal" in="SourceGraphic" in2="effect1_backgroundBlur_447_29347" result="shape"/>
</filter>
<filter id="filter2_bd_447_29347" x="17.1622" y="20.9907" width="53.8597" height="39.9431" filterUnits="userSpaceOnUse" color-interpolation-filters="sRGB">
<feFlood flood-opacity="0" result="BackgroundImageFix"/>
<feGaussianBlur in="BackgroundImageFix" stdDeviation="7.5"/>
<feComposite in2="SourceAlpha" operator="in" result="effect1_backgroundBlur_447_29347"/>
<feColorMatrix in="SourceAlpha" type="matrix" values="0 0 0 0 0 0 0 0 0 0 0 0 0 0 0 0 0 0 127 0" result="hardAlpha"/>
<feOffset dx="5" dy="5"/>
<feGaussianBlur stdDeviation="5"/>
<feColorMatrix type="matrix" values="0 0 0 0 0.490196 0 0 0 0 0.329412 0 0 0 0 0.972549 0 0 0 0.5 0"/>
<feBlend mode="normal" in2="effect1_backgroundBlur_447_29347" result="effect2_dropShadow_447_29347"/>
<feBlend mode="normal" in="SourceGraphic" in2="effect2_dropShadow_447_29347" result="shape"/>
</filter>
<linearGradient id="paint0_linear_447_29347" x1="37.7095" y1="37.6808" x2="15.7284" y2="58.4529" gradientUnits="userSpaceOnUse">
<stop stop-color="#CAB8FF"/>
<stop offset="1" stop-color="#7D54F8"/>
</linearGradient>
<linearGradient id="paint1_linear_447_29347" x1="32" y1="30.5136" x2="51.7264" y2="57.6598" gradientUnits="userSpaceOnUse">
<stop stop-color="white" stop-opacity="0.25"/>
<stop offset="1" stop-color="white" stop-opacity="0"/>
</linearGradient>
<linearGradient id="paint2_linear_447_29347" x1="54.3304" y1="37.7863" x2="27.8864" y2="39.8552" gradientUnits="userSpaceOnUse">
<stop stop-color="white"/>
<stop offset="1" stop-color="white" stop-opacity="0.2"/>
</linearGradient>
<linearGradient id="paint3_linear_447_29347" x1="54.9997" y1="41.1727" x2="31.9924" y2="43.4726" gradientUnits="userSpaceOnUse">
<stop stop-color="white"/>
<stop offset="1" stop-color="white" stop-opacity="0"/>
</linearGradient>
</defs>
</svg>
