<svg width="14" height="16" viewBox="0 0 14 16" fill="none" xmlns="http://www.w3.org/2000/svg">
<path d="M13.465 5.3375C12.6775 1.8725 9.65501 0.3125 7.00001 0.3125C7.00001 0.3125 7.00001 0.3125 6.99251 0.3125C4.34501 0.3125 1.31501 1.865 0.52751 5.33C-0.349989 9.2 2.02001 12.4775 4.16501 14.54C4.96001 15.305 5.98001 15.6875 7.00001 15.6875C8.02001 15.6875 9.04001 15.305 9.82751 14.54C11.9725 12.4775 14.3425 9.2075 13.465 5.3375ZM7.00001 9.095C5.69501 9.095 4.63751 8.0375 4.63751 6.7325C4.63751 5.4275 5.69501 4.37 7.00001 4.37C8.30501 4.37 9.36251 5.4275 9.36251 6.7325C9.36251 8.0375 8.30501 9.095 7.00001 9.095Z" fill="#BC160D"/>
</svg>
