<svg width="14" height="16" viewBox="0 0 14 16" fill="none" xmlns="http://www.w3.org/2000/svg">
<path d="M13.4651 5.3375C12.6776 1.8725 9.65507 0.3125 7.00007 0.3125C7.00007 0.3125 7.00007 0.3125 6.99257 0.3125C4.34507 0.3125 1.31507 1.865 0.527572 5.33C-0.349928 9.2 2.02007 12.4775 4.16507 14.54C4.96007 15.305 5.98007 15.6875 7.00007 15.6875C8.02007 15.6875 9.04007 15.305 9.82757 14.54C11.9726 12.4775 14.3426 9.2075 13.4651 5.3375ZM7.00007 9.095C5.69507 9.095 4.63757 8.0375 4.63757 6.7325C4.63757 5.4275 5.69507 4.37 7.00007 4.37C8.30507 4.37 9.36257 5.4275 9.36257 6.7325C9.36257 8.0375 8.30507 9.095 7.00007 9.095Z" fill="#BC160D"/>
</svg>
