<svg width="24" height="24" viewBox="0 0 24 24" fill="none" xmlns="http://www.w3.org/2000/svg">
<path d="M7.5 10.5C8.3285 10.5 9 11.1715 9 12C9 12.8285 8.3285 13.5 7.5 13.5C6.6715 13.5 6 12.8285 6 12C6 11.1715 6.6715 10.5 7.5 10.5ZM12 10.5C12.8285 10.5 13.5 11.1715 13.5 12C13.5 12.8285 12.8285 13.5 12 13.5C11.1715 13.5 10.5 12.8285 10.5 12C10.5 11.1715 11.1715 10.5 12 10.5ZM16.5 10.5C17.3285 10.5 18 11.1715 18 12C18 12.8285 17.3285 13.5 16.5 13.5C15.6715 13.5 15 12.8285 15 12C15 11.1715 15.6715 10.5 16.5 10.5Z" fill="#1C2025"/>
</svg>
