<svg width="14" height="3" viewBox="0 0 14 3" fill="none" xmlns="http://www.w3.org/2000/svg">
<path d="M7 2.75C6.3 2.75 5.75 2.1875 5.75 1.5C5.75 0.8125 6.3125 0.25 7 0.25C7.6875 0.25 8.25 0.8125 8.25 1.5C8.25 2.1875 7.7 2.75 7 2.75Z" fill="#6B727B"/>
<path d="M12 2.75C11.3 2.75 10.75 2.1875 10.75 1.5C10.75 0.8125 11.3125 0.25 12 0.25C12.6875 0.25 13.25 0.8125 13.25 1.5C13.25 2.1875 12.7 2.75 12 2.75Z" fill="#6B727B"/>
<path d="M2 2.75C1.3 2.75 0.75 2.1875 0.75 1.5C0.75 0.8125 1.3125 0.25 2 0.25C2.6875 0.25 3.25 0.8125 3.25 1.5C3.25 2.1875 2.7 2.75 2 2.75Z" fill="#6B727B"/>
</svg>
