<svg width="24" height="24" viewBox="0 0 24 24" fill="none" xmlns="http://www.w3.org/2000/svg">
<path d="M21 22H3C2.59 22 2.25 21.66 2.25 21.25C2.25 20.84 2.59 20.5 3 20.5H21C21.41 20.5 21.75 20.84 21.75 21.25C21.75 21.66 21.41 22 21 22Z" fill="white"/>
<path d="M19.02 3.48004C17.08 1.54004 15.18 1.49004 13.19 3.48004L11.98 4.69004C11.88 4.79004 11.84 4.95004 11.88 5.09004C12.64 7.74004 14.76 9.86003 17.41 10.62C17.45 10.63 17.49 10.64 17.53 10.64C17.64 10.64 17.74 10.6 17.82 10.52L19.02 9.31004C20.01 8.33004 20.49 7.38004 20.49 6.42004C20.5 5.43004 20.02 4.47004 19.02 3.48004Z" fill="white"/>
<path d="M15.61 11.53C15.32 11.39 15.04 11.25 14.77 11.09C14.55 10.96 14.34 10.82 14.13 10.67C13.96 10.56 13.76 10.4 13.57 10.24C13.55 10.23 13.48 10.17 13.4 10.09C13.07 9.80999 12.7 9.44999 12.37 9.04999C12.34 9.02999 12.29 8.95999 12.22 8.86999C12.12 8.74999 11.95 8.54999 11.8 8.31999C11.68 8.16999 11.54 7.94999 11.41 7.72999C11.25 7.45999 11.11 7.18999 10.97 6.90999C10.9488 6.86459 10.9283 6.81943 10.9085 6.77452C10.7609 6.44121 10.3262 6.34376 10.0685 6.60152L4.34001 12.33C4.21001 12.46 4.09001 12.71 4.06001 12.88L3.52001 16.71C3.42001 17.39 3.61001 18.03 4.03001 18.46C4.39001 18.81 4.89001 19 5.43001 19C5.55001 19 5.67001 18.99 5.79001 18.97L9.63001 18.43C9.81001 18.4 10.06 18.28 10.18 18.15L15.9013 12.4287C16.1609 12.1691 16.063 11.7237 15.7254 11.5796C15.6874 11.5634 15.6489 11.5469 15.61 11.53Z" fill="white"/>
</svg>
