<svg width="14" height="14" viewBox="0 0 14 14" fill="none" xmlns="http://www.w3.org/2000/svg">
<path d="M5.34312 6.77833C5.32562 6.77833 5.31396 6.77833 5.29646 6.77833C5.26729 6.7725 5.22646 6.7725 5.19146 6.77833C3.49979 6.72583 2.22229 5.39583 2.22229 3.75667C2.22229 2.08833 3.58146 0.729167 5.24979 0.729167C6.91812 0.729167 8.27729 2.08833 8.27729 3.75667C8.27146 5.39583 6.98812 6.72583 5.36062 6.77833C5.35479 6.77833 5.34896 6.77833 5.34312 6.77833ZM5.24979 1.60417C4.06562 1.60417 3.09729 2.5725 3.09729 3.75667C3.09729 4.92333 4.00729 5.8625 5.16812 5.90333C5.20312 5.8975 5.27896 5.8975 5.35479 5.90333C6.49812 5.85083 7.39646 4.91167 7.40229 3.75667C7.40229 2.5725 6.43396 1.60417 5.24979 1.60417Z" fill="#6B727B"/>
<path d="M9.64813 6.85417C9.63063 6.85417 9.61313 6.85417 9.59563 6.84833C9.35647 6.87167 9.11147 6.7025 9.08813 6.46333C9.0648 6.22417 9.21063 6.00833 9.4498 5.97917C9.5198 5.97333 9.59563 5.97333 9.6598 5.97333C10.5115 5.92667 11.1765 5.22667 11.1765 4.36917C11.1765 3.4825 10.459 2.765 9.5723 2.765C9.33313 2.77083 9.1348 2.5725 9.1348 2.33333C9.1348 2.09417 9.33313 1.89583 9.5723 1.89583C10.9373 1.89583 12.0515 3.01 12.0515 4.375C12.0515 5.71667 11.0015 6.80167 9.66563 6.85417C9.6598 6.85417 9.65397 6.85417 9.64813 6.85417Z" fill="#6B727B"/>
<path d="M5.34894 13.1542C4.20561 13.1542 3.05644 12.8625 2.18727 12.2792C1.37644 11.7425 0.933105 11.0075 0.933105 10.2083C0.933105 9.40917 1.37644 8.66833 2.18727 8.12583C3.93727 6.965 6.77227 6.965 8.5106 8.12583C9.31561 8.6625 9.76477 9.3975 9.76477 10.1967C9.76477 10.9958 9.32144 11.7367 8.5106 12.2792C7.63561 12.8625 6.49227 13.1542 5.34894 13.1542ZM2.67144 8.86083C2.11144 9.23417 1.80811 9.7125 1.80811 10.2142C1.80811 10.71 2.11727 11.1883 2.67144 11.5558C4.12394 12.53 6.57394 12.53 8.02644 11.5558C8.58644 11.1825 8.88977 10.7042 8.88977 10.2025C8.88977 9.70667 8.58061 9.22833 8.02644 8.86083C6.57394 7.8925 4.12394 7.8925 2.67144 8.86083Z" fill="#6B727B"/>
<path d="M10.6981 12.1042C10.4939 12.1042 10.3131 11.9642 10.2722 11.7542C10.2256 11.515 10.3772 11.2875 10.6106 11.235C10.9781 11.1592 11.3164 11.0133 11.5789 10.8092C11.9114 10.5583 12.0922 10.2433 12.0922 9.91083C12.0922 9.57833 11.9114 9.26333 11.5847 9.01833C11.3281 8.82 11.0072 8.68 10.6281 8.5925C10.3947 8.54 10.2431 8.30667 10.2956 8.0675C10.3481 7.83417 10.5814 7.6825 10.8206 7.735C11.3222 7.84583 11.7597 8.04417 12.1156 8.31833C12.6581 8.72667 12.9672 9.30417 12.9672 9.91083C12.9672 10.5175 12.6522 11.095 12.1097 11.5092C11.7481 11.7892 11.2931 11.9933 10.7914 12.0925C10.7564 12.1042 10.7272 12.1042 10.6981 12.1042Z" fill="#6B727B"/>
</svg>
