<svg width="25" height="24" viewBox="0 0 25 24" fill="none" xmlns="http://www.w3.org/2000/svg">
<path d="M17.5 3.5H7.5C4.5 3.5 2.5 5 2.5 8.5V15.5C2.5 19 4.5 20.5 7.5 20.5H17.5C20.5 20.5 22.5 19 22.5 15.5V8.5C22.5 5 20.5 3.5 17.5 3.5ZM17.97 9.59L14.84 12.09C14.18 12.62 13.34 12.88 12.5 12.88C11.66 12.88 10.81 12.62 10.16 12.09L7.03 9.59C6.71 9.33 6.66 8.85 6.91 8.53C7.17 8.21 7.64 8.15 7.96 8.41L11.09 10.91C11.85 11.52 13.14 11.52 13.9 10.91L17.03 8.41C17.35 8.15 17.83 8.2 18.08 8.53C18.34 8.85 18.29 9.33 17.97 9.59Z" fill="white"/>
</svg>
