<svg width="24" height="24" viewBox="0 0 24 24" fill="none" xmlns="http://www.w3.org/2000/svg">
<path fill-rule="evenodd" clip-rule="evenodd" d="M4.93997 4.95997C8.84997 1.04997 15.2 1.04997 19.11 4.95997C23.09 8.93997 23.02 15.43 18.9 19.33C15.1 22.92 8.93997 22.92 5.13997 19.33C1.02997 15.43 0.959966 8.93997 4.93997 4.95997ZM10.3801 8.25995C10.3801 7.21995 9.53012 6.37995 8.50012 6.37995C7.47012 6.37995 6.62012 7.21995 6.62012 8.24995C6.62012 9.27995 7.46012 10.14 8.50012 10.14C9.54012 10.14 10.3801 9.29995 10.3801 8.25995ZM7.12012 14.2C7.12012 16.89 9.31012 19.08 12.0001 19.08C14.6901 19.08 16.8801 16.89 16.8601 14.2C16.8601 13.49 16.2901 12.92 15.5901 12.92H8.39012C7.69012 12.92 7.12012 13.5 7.12012 14.2ZM13.6201 8.23995C13.6201 9.27995 14.4701 10.12 15.5001 10.12C16.5301 10.12 17.3801 9.27995 17.3801 8.23995C17.3801 7.19995 16.5401 6.35995 15.5001 6.35995C14.4601 6.35995 13.6201 7.19995 13.6201 8.23995Z" fill="white"/>
</svg>
