<svg width="24" height="24" viewBox="0 0 24 24" fill="none" xmlns="http://www.w3.org/2000/svg">
<path d="M14.22 21.63C13.04 21.63 11.37 20.8 10.05 16.83L9.33 14.67L7.17 13.95C3.21 12.63 2.38 10.96 2.38 9.78001C2.38 8.61001 3.21 6.93001 7.17 5.60001L15.66 2.77001C17.78 2.06001 19.55 2.27001 20.64 3.35001C21.73 4.43001 21.94 6.21001 21.23 8.33001L18.4 16.82C17.07 20.8 15.4 21.63 14.22 21.63ZM7.64 7.03001C4.86 7.96001 3.87 9.06001 3.87 9.78001C3.87 10.5 4.86 11.6 7.64 12.52L10.16 13.36C10.38 13.43 10.56 13.61 10.63 13.83L11.47 16.35C12.39 19.13 13.5 20.12 14.22 20.12C14.94 20.12 16.04 19.13 16.97 16.35L19.8 7.86001C20.31 6.32001 20.22 5.06001 19.57 4.41001C18.92 3.76001 17.66 3.68001 16.13 4.19001L7.64 7.03001Z" fill="#6B727B"/>
<path d="M12.12 12.38C11.93 12.38 11.74 12.31 11.59 12.16C11.3 11.87 11.3 11.39 11.59 11.1L15.39 7.28C15.68 6.99 16.16 6.99 16.45 7.28C16.74 7.57 16.74 8.05 16.45 8.34L12.65 12.16C12.5 12.3 12.31 12.38 12.12 12.38Z" fill="#6B727B"/>
</svg>
