<svg width="107" height="78" viewBox="0 0 107 78" fill="none" xmlns="http://www.w3.org/2000/svg">
<rect x="2" y="2" width="103" height="74" rx="14" stroke="#EFEAFE" stroke-width="4"/>
<rect x="3" y="3" width="101" height="72" rx="13" stroke="#7D54F8" stroke-width="2"/>
<g clip-path="url(#clip0_3432_1809)">
<g clip-path="url(#clip1_3432_1809)">
<path d="M227.414 93.706L194.928 -121.596L-20.3745 -89.1105L12.1114 126.192L227.414 93.706Z" fill="white"/>
<path d="M20.5898 36.0911L74.5744 42.2457L72.1756 57.9294L19.0524 52.376L20.5898 36.0911Z" fill="#B5DA72"/>
<path fill-rule="evenodd" clip-rule="evenodd" d="M131.13 63.8437L111.808 60.331L106.06 54.544L99.3832 52.6224L96.2019 49.4138L97.7481 47.8807L100.53 50.6867L107.206 52.608L112.871 58.3111L127.068 60.8921L120.06 47.8762L116.906 45.907L118.517 41.2219L105.882 36.6214L106.627 34.5754L121.272 39.9077L119.528 44.9773L121.703 46.3352L131.13 63.8437Z" fill="#C0BBA1"/>
<path fill-rule="evenodd" clip-rule="evenodd" d="M113.902 46.3047L109.426 51.4599L102.627 50.3831L98.95 45.2615L100.719 43.9915L103.866 48.3747L108.573 49.1204L111.226 46.0654L108.574 41.6065L103.674 39.6851L104.468 37.658L110.063 39.8519L113.902 46.3047Z" fill="#C0BBA1"/>
<path fill-rule="evenodd" clip-rule="evenodd" d="M-2.21865 38.4557L20.2032 39.8026L20.0726 41.976L-2.34921 40.6292L-2.21865 38.4557Z" fill="#C0BBA1"/>
<path d="M0.773796 51.0513L64.1556 55.6515L111.394 69.0778L148.427 90.5003L167.239 104.988L12.4362 128.345L0.773796 51.0513Z" fill="#82B4FF"/>
<path fill-rule="evenodd" clip-rule="evenodd" d="M61.7864 -57.8468L79.3903 -39.9094L79.6676 -35.9644L74.9144 -29.5219L73.7892 -28.5878L38.0808 -11.3089L37.7843 -11.1842L-5.66151 4.43468L-7.72407 -1.30255L35.5702 -16.867L70.4556 -33.7476L73.2192 -37.4934L57.3448 -53.6684L57.1722 -53.8598L20.5493 -98.1001L25.2456 -101.988L61.7864 -57.8468Z" fill="#E7E7E7"/>
<path fill-rule="evenodd" clip-rule="evenodd" d="M232.764 98.451L213.339 95.2163L211.207 93.9769L181.04 56.8547L127.962 4.36027L90.6677 -26.7411L95.1303 -32.0921L132.538 -0.896181L132.756 -0.697681L186.075 52.0337L186.328 52.3136L215.783 88.5598L233.909 91.5779L232.764 98.451Z" fill="#E7E7E7"/>
<path fill-rule="evenodd" clip-rule="evenodd" d="M146.727 93.0382L165.379 107.403L169.099 102.572L150.287 88.0852L149.954 87.8616L112.92 66.4392L112.227 66.1457L64.9891 52.7193L64.3763 52.6112L0.994538 48.011L0.55319 54.0917L63.6231 58.6693L110.196 71.9064L146.727 93.0382Z" fill="#E7E7E7"/>
<path fill-rule="evenodd" clip-rule="evenodd" d="M86.4439 -28.1157L73.2518 58.094L71.0994 57.7647L84.2916 -28.4451L86.4439 -28.1157Z" fill="#E7E7E7"/>
<path fill-rule="evenodd" clip-rule="evenodd" d="M104.759 -17.0034L88.634 4.55654L87.5619 4.97462L80.4467 3.64356L80.8471 1.50329L87.2962 2.70973L103.015 -18.3075L104.759 -17.0034Z" fill="#E7E7E7"/>
<path fill-rule="evenodd" clip-rule="evenodd" d="M21.4057 15.8232L13.4738 -5.67554L15.5166 -6.42923L23.5343 15.3019L23.5968 15.781L20.1363 52.4782L17.9685 52.2738L21.4057 15.8232Z" fill="#E7E7E7"/>
<path fill-rule="evenodd" clip-rule="evenodd" d="M75.0661 39.8086L69.2409 39.701L68.3346 39.1843L35.8266 -13.4809L37.6795 -14.6246L69.8753 37.5349L75.1063 37.6315L75.0661 39.8086Z" fill="#E7E7E7"/>
<path fill-rule="evenodd" clip-rule="evenodd" d="M79.3373 11.611L64.7454 10.3775L63.9079 9.85998L46.499 -18.6545L48.3574 -19.7892L65.4788 8.25433L79.5207 9.44133L79.3373 11.611Z" fill="#E7E7E7"/>
<path fill-rule="evenodd" clip-rule="evenodd" d="M60.6287 2.51813L50.3049 8.03071L49.2793 6.10998L59.6031 0.597411L60.6287 2.51813Z" fill="#E7E7E7"/>
<path fill-rule="evenodd" clip-rule="evenodd" d="M109.675 -13.8886L82.5768 31.5853L81.9109 32.0828L76.3428 33.5043L75.8042 31.3946L80.9366 30.0843L107.805 -15.0033L109.675 -13.8886Z" fill="#E7E7E7"/>
<path fill-rule="evenodd" clip-rule="evenodd" d="M107.144 -0.995084L107.495 0.426588L92.4602 28.2476L91.3132 28.8022L84.169 27.5415L84.5473 25.3973L90.918 26.5214L105.109 0.261819L95.8021 -5.98241L97.0152 -7.79055L107.144 -0.995084Z" fill="#E7E7E7"/>
<path fill-rule="evenodd" clip-rule="evenodd" d="M144.69 37.0827L158.388 50.7336L159.925 49.1914L146.189 35.5018L146.107 35.4286L121.004 14.9939L119.429 15.2071L96.5341 47.389L74.8736 41.1989L74.2753 43.2925L96.6759 49.694L97.8621 49.2784L120.53 17.416L144.69 37.0827Z" fill="#E7E7E7"/>
<path fill-rule="evenodd" clip-rule="evenodd" d="M58.2256 22.0757L22.3532 16.7556L22.6726 14.6017L58.545 19.9219L58.2256 22.0757Z" fill="#E7E7E7"/>
<path fill-rule="evenodd" clip-rule="evenodd" d="M62.8479 29.557L21.7199 23.4972L22.0373 21.3431L63.1653 27.4028L62.8479 29.557Z" fill="#E7E7E7"/>
</g>
</g>
<rect x="4" y="4" width="99" height="70" rx="12" stroke="#7D54F8"/>
<defs>
<clipPath id="clip0_3432_1809">
<rect x="4" y="4" width="99" height="70" rx="12" fill="white"/>
</clipPath>
<clipPath id="clip1_3432_1809">
<rect width="248.393" height="229.833" fill="white" transform="translate(198.26 -147) rotate(81.4197)"/>
</clipPath>
</defs>
</svg>
