<svg width="99" height="70" viewBox="0 0 99 70" fill="none" xmlns="http://www.w3.org/2000/svg">
    <g clip-path="url(#clip0_3442_48580)">
        <rect width="99" height="70" rx="12" fill="#D9D9D9"/>
        <g clip-path="url(#clip1_3442_48580)">
            <g clip-path="url(#clip2_3442_48580)">
                <path d="M251.385 -15.0634H-219.959V317.744H251.385V-15.0634Z" fill="#E4E4E4"/>
                <path d="M-79.0605 95.1931C-83.8311 96.65 -85.1356 102.001 -85.1356 106.182C-84.4691 110.695 -83.3074 109.267 -81.6029 114.504C-80.784 117.037 -80.3079 120.151 -79.27 123.34C-78.3749 126.092 -78.7368 129.454 -77.7655 132.444C-76.8324 135.319 -73.8519 137.595 -72.9188 140.471C-71.9475 143.461 -74.6232 147.574 -73.7282 150.326C-72.6903 153.516 -69.548 155.763 -68.7195 158.296C-67.0151 163.533 -67.177 162.562 -65.5201 166.809C-64.3584 169.237 -64.606 172.855 -62.8158 174.284C-60.8924 175.826 -56.8741 173.179 -54.4745 173.808C-52.1701 174.417 -50.1419 178.35 -47.6472 178.35C-43.3908 178.007 -43.2956 178.559 -39.0392 178.112C-34.7923 177.664 -34.9161 176.455 -30.6693 176.007C-26.4224 175.56 -26.2796 176.845 -22.0327 176.398C-17.7859 175.95 -17.8525 175.236 -13.6057 174.788C-9.3493 174.341 -9.72066 170.827 -5.47381 170.38C-1.22695 169.932 -0.817497 173.76 3.42935 173.312C7.68573 172.865 7.57146 171.77 11.8183 171.322C16.0747 170.875 15.8557 169.047 20.1025 168.513C21.5404 168.161 24.2637 166.637 28.4058 165.752C30.891 165.219 34.5761 168.332 37.785 167.666C40.4608 167.114 43.1269 165.466 46.1835 164.847C48.9354 164.295 51.4873 162.029 54.4773 161.438C57.2768 160.886 60.5809 162.419 63.5233 161.848C66.3608 161.296 68.9223 159.058 71.836 158.506C74.7117 157.963 78.1206 160.239 81.0058 159.705C83.9101 159.172 86.5191 157.115 89.3757 156.601C92.3181 156.077 95.0128 154.402 97.8409 153.925C100.821 153.411 103.716 152.811 106.506 152.364C109.563 151.869 112.333 150.364 115.057 149.964C118.247 149.498 121.551 151.888 124.15 151.593C127.826 151.174 130.692 149.317 132.787 149.317C132.796 149.317 136.234 151.021 140.205 150.298C142.433 149.888 144.556 145.936 146.994 145.936C150.688 145.936 153.764 148.698 156.554 149.231C160.81 150.031 164.181 151.65 166.314 151.65C169.447 151.65 171.285 148.441 173.199 146.774C175.151 145.079 177.655 143.556 178.493 140.766C179.236 138.309 178.274 135.395 178.274 132.548C178.274 129.977 180.369 125.988 179.102 122.617C178.045 119.789 176.093 116.675 174.398 113.99C172.646 111.209 167.857 111.019 165.667 109.067C163.02 106.705 161.401 105.744 158.535 105.744C158.487 105.744 158.106 105.125 157.83 105.125C154.935 105.125 152.012 103.687 149.232 103.03C146.413 102.354 144.461 99.4114 141.852 98.3163C139.11 97.1737 136.196 96.8499 133.777 95.5454C131.016 94.06 129.035 91.6604 126.826 90.3939C123.351 88.4038 119.694 87.9563 118.037 87.9563C117.961 87.9563 114.685 89.9845 110.01 91.4223C107.572 92.1746 104.583 92.0222 101.602 92.5745C98.8407 93.0887 96.1459 94.0695 93.3369 94.0695C90.2613 94.0695 87.5094 93.6315 84.8908 93.2506C81.8533 92.8126 79.5394 91.2033 77.0161 90.3463C74.169 89.3656 72.2455 87.7087 69.9031 86.3185C67.3702 84.8235 64.0946 84.8997 61.9616 83.0905C59.762 81.2146 59.0574 77.9485 57.0768 75.9394C55.0581 73.8921 50.7827 74.1207 48.7735 72.121C46.7453 70.1023 45.8788 66.8362 43.6221 65.0842C41.4034 63.3702 38.0802 63.5321 35.4236 62.2847C32.9859 61.1325 31.1577 57.6379 28.1677 57.038C25.5872 56.5238 22.5021 56.0191 19.3884 56.0191C17.1126 56.0191 13.3894 55.8573 9.68535 56.5809C6.78111 57.1427 4.00066 59.8089 0.915504 60.5707C-2.27439 61.3515 -4.81677 64.3795 -7.54961 65.1318C-12.7772 66.5601 -12.4059 65.0556 -16.8908 66.3982C-16.9194 66.3982 -18.9 67.598 -20.2711 67.598C-23.5658 67.598 -26.7557 65.1984 -29.1933 66.1697C-32.0214 67.2933 -32.6879 71.264 -34.7447 73.2541C-36.811 75.2443 -41.353 75.1776 -43.0575 77.5962C-44.7239 79.9672 -46.4474 82.3002 -48.1613 84.6521C-49.8944 87.0231 -51.6274 88.7942 -53.7889 90.7082C-55.9028 92.584 -56.9883 95.4407 -59.8926 96.4786C-62.3683 97.3641 -65.0631 96.3453 -68.3577 96.3453C-71.938 96.3453 -75.6802 96.0501 -79.051 95.155L-79.0605 95.1931Z" fill="#B4D871"/>
                <path d="M-107.513 3.28574C-108.008 5.87576 -109.645 8.36103 -110.112 11.0558C-110.579 13.7315 -109.788 16.5024 -109.788 19.1877C-109.788 21.8729 -109.598 24.282 -108.836 26.7006C-108.065 29.1383 -108.589 32.1663 -107.446 34.5754C-106.37 36.8417 -103.123 38.2224 -102.075 40.7076C-101.114 42.9929 -102.552 46.1543 -101.894 48.83C-101.361 50.9915 -101.666 54.0671 -101.247 57.5522C-100.904 60.3993 -97.9428 63.0941 -97.3334 65.9888C-96.6668 69.1311 -97.7048 73.0161 -96.3336 75.2919C-94.6958 78.0057 -91.0583 76.7774 -87.7827 76.7774C-83.6216 76.7774 -81.8314 76.6917 -80.0889 74.5111C-77.8893 71.7592 -76.6895 67.7599 -74.2519 66.4459C-71.4047 64.9033 -68.7766 63.7987 -66.5866 62.1419C-64.0156 60.1899 -62.9682 57.2951 -61.0923 55.2765C-58.8927 52.915 -54.5983 52.6579 -53.0366 50.3821C-51.1894 47.7064 -50.3323 44.6879 -48.8279 42.4311C-46.9996 39.6983 -44.4001 38.7365 -42.1243 37.1273C-39.9247 35.5657 -38.3536 32.6424 -34.7733 32.6424C-32.3642 32.6424 -29.8027 35.0801 -26.3938 36.1846C-23.8228 37.0226 -20.3378 35.5943 -17.1479 36.2798C-14.415 36.8607 -11.7393 36.4893 -8.53036 36.4893C-5.76895 36.4893 -3.5408 37.413 -0.960312 36.7655C1.32499 36.1942 3.58174 34.8896 6.46693 34.1374C8.68558 33.5565 11.2185 32.4805 14.1703 31.9663C16.4651 31.5569 19.2741 32.1282 22.1879 31.833C24.5589 31.595 27.187 30.8142 30.0531 30.6904C32.4718 30.5856 35.157 32.671 37.985 32.671C41.8891 32.671 46.0979 32.0901 46.0979 32.0901C49.5639 32.0901 52.8871 31.0617 54.6297 28.4812C56.1817 26.1864 57.9529 22.8822 58.5242 19.6352C59.0574 16.6453 59.0003 13.1792 59.0003 10.2083C59.0003 8.85617 56.1818 6.1519 55.201 2.50493C54.5725 0.143448 52.3824 -2.00855 51.4874 -4.74139C50.6494 -7.2838 52.3824 -10.7975 51.4207 -13.2732C50.3542 -15.9775 47.6785 -17.7772 46.574 -19.9196C44.7933 -23.3762 43.784 -24.2998 42.3176 -24.5855C38.2802 -25.3568 36.3091 -29.0704 34.8332 -28.9085C32.1861 -28.6228 31.6148 -28.1182 27.2346 -27.3754C25.454 -27.0803 23.3972 -25.1758 19.8645 -25.1758C17.1031 -25.1758 14.3417 -22.8144 11.7231 -22.9096C8.95219 -23.0048 6.46691 -27.0136 3.85786 -27.1945C1.07741 -27.385 -1.53164 -27.8515 -4.11212 -28.0991C-6.91162 -28.3657 -9.64445 -27.7563 -12.1964 -28.061C-15.034 -28.3943 -17.6049 -29.5084 -20.1092 -29.8226C-23.004 -30.1845 -26.0225 -27.6325 -28.4696 -27.8896C-31.5262 -28.2039 -34.1448 -27.0422 -36.4396 -27.0422C-38.7344 -27.0422 -41.7244 -30.8796 -45.2476 -30.9938C-47.9423 -31.0795 -51.0084 -29.0513 -54.1793 -29.1846C-57.0073 -29.2989 -60.0449 -28.0325 -63.1015 -28.1753C-66.0057 -28.3086 -68.8814 -30.613 -71.8618 -30.7463C-74.8327 -30.8796 -77.8607 -29.7464 -80.7745 -29.8702C-83.812 -30.0035 -86.8305 -28.9275 -89.6776 -29.0323C-92.8199 -29.1561 -95.7146 -31.6699 -98.4475 -31.7461C-101.837 -31.8413 -104.865 -33.6505 -107.313 -33.6505C-110.207 -33.6505 -111.036 -29.337 -111.778 -26.2899C-112.331 -24.0237 -112.026 -21.4622 -111.893 -18.5961C-111.769 -15.8918 -110.664 -13.3589 -110.283 -10.9117C-109.645 -6.77913 -108.56 -3.24642 -108.56 -2.77032C-108.56 -1.23726 -107.274 0.543377 -107.274 2.67633C-107.274 2.82869 -107.465 3.11435 -107.493 3.27622L-107.513 3.28574Z" fill="#B4D871"/>
                <path d="M72.8073 -11.4926C72.8549 -10.8451 72.1407 -10.5309 72.1407 -9.89287C72.1407 -9.6453 71.4456 -6.24591 70.4458 -1.30393C69.9316 1.23847 71.179 4.66643 70.3411 7.75159C69.5983 10.494 68.1796 13.2839 67.1607 16.093C66.1418 18.8925 64.2946 21.4349 62.971 23.9582C61.5236 26.7196 60.0572 29.4715 58.2194 31.4902C56.077 33.8326 52.7919 33.4232 50.0781 34.1183C49.2401 34.3278 50.7351 37.632 50.7351 39.2031C50.7351 40.679 50.1161 44.1356 53.1632 46.7922C55.0105 48.3919 58.1242 49.1442 60.619 50.8772C62.8091 52.3912 65.78 52.9149 68.2176 54.3623C70.6172 55.7906 72.8835 57.4094 75.2926 58.6282C77.9302 59.9613 80.206 61.7324 82.577 62.618C85.7573 63.8178 88.5664 66.3697 90.6326 66.3697C92.0038 66.3697 94.6605 64.8271 98.0313 64.4843C100.193 64.2653 102.659 64.1129 105.344 63.9511C107.677 63.8082 110.105 61.2182 112.657 61.2182C116.019 61.2182 118.847 64.0082 121.408 64.2748C124.893 64.6367 127.293 66.2364 129.692 66.8839C133.13 67.8075 136.005 67.5028 138.357 68.4169C141.147 69.5025 143.833 68.7407 147.137 68.7407C148.156 68.7407 149.193 70.1881 150.222 70.1881C151.983 70.1881 152.964 71.0927 154.297 72.2258C156.364 73.9969 159.677 74.9586 162.486 75.8251C165.048 76.6155 167.8 77.72 170.609 78.339C173.332 78.9389 176.379 78.1105 178.979 79.0722C181.597 80.0434 182.987 82.4811 185.149 84.3284C187.11 86.0043 191.805 85.9471 193.128 88.7657C194.176 90.9939 193.195 94.4789 193.709 97.6308C194.109 100.087 192.014 102.868 192.014 105.991C192.014 106.153 193.804 106.315 193.804 106.477C193.804 106.505 195.747 106.534 195.747 106.553C195.747 109.124 195.223 112.266 197.547 113.171C199.442 113.904 202.441 110.267 204.888 110.267C210.535 110.267 211.858 109.372 216.448 109.372C220.514 109.372 223.951 112.019 226.875 112.866C230.874 114.018 233.959 113.418 236.959 113.418C238.977 113.418 241.663 113.704 245.271 112.695C247.861 111.971 251.527 113.466 254.47 112.342C257.165 111.314 259.145 108.276 261.83 107.001C264.563 105.696 268.572 106.667 270.991 105.182C273.742 103.496 275.571 100.506 277.475 98.6877C280.103 96.1929 283.226 93.2411 283.226 90.7844C283.226 88.3277 281.722 85.4234 281.836 82.3859C281.931 79.7292 280.522 76.8345 280.694 73.9112C280.846 71.1974 281.96 68.436 282.16 65.5698C282.35 62.8179 285.169 60.1994 285.378 57.3808C285.588 54.5908 282.322 51.5152 282.55 48.7252C282.779 45.8972 286.559 43.3833 286.778 40.6219C287.007 37.7558 283.369 34.642 283.588 31.9282C283.817 29.0049 287.226 26.434 287.416 23.7868C287.635 20.7588 285.045 17.7498 285.197 15.2169C285.388 11.8651 284.959 9.07517 284.959 6.88509C284.959 6.12331 289.14 -5.04612 289.14 -5.80789C289.14 -8.655 287.788 -12.1115 286.121 -15.1776C284.664 -17.8438 281.817 -19.853 279.541 -22.1669C277.275 -24.4712 275.218 -27.1755 272.543 -28.6514C269.562 -30.2987 266.23 -32.4127 263.278 -32.4127C261.249 -32.4127 257.936 -31.07 254.013 -30.5368C251.242 -30.1559 248.128 -29.6989 244.852 -29.2228C241.882 -28.7847 238.768 -28.5752 235.673 -28.1658C232.559 -27.7563 229.731 -24.6331 226.77 -24.357C223.437 -24.0427 220.114 -25.1949 217.362 -25.1949C214.61 -25.1949 211.82 -25.7281 209.173 -25.9091C206.383 -26.0995 203.736 -26.9565 201.089 -27.2612C198.337 -27.5849 195.471 -26.5946 192.805 -26.966C190.081 -27.3469 187.396 -27.604 184.701 -27.9468C182.007 -28.2896 179.436 -29.6512 176.703 -29.8607C174.027 -30.0702 171.313 -30.1369 168.533 -30.1369C165.752 -30.1369 163.667 -28.8323 161.363 -28.0801C159.001 -27.3088 155.973 -28.3182 153.545 -27.3374C151.345 -26.4423 149.422 -24.7378 146.765 -24.1475C144.528 -23.6428 142.147 -21.9383 139.329 -21.9383C134.882 -21.9383 134.948 -24.8997 134.339 -26.5566C133.434 -29.0514 132.987 -30.9748 129.007 -30.9748C128.978 -30.9748 125.045 -31.2319 120.399 -30.0702C117.675 -29.3846 115.323 -25.9662 112.6 -25.2806C108.039 -24.1379 103.773 -26.2519 103.602 -26.2519C97.6123 -26.2519 99.4025 -26.309 95.7651 -29.3942C95.3747 -29.3942 91.6134 -25.4996 88.433 -24.5093C85.2717 -23.5285 81.8723 -22.8429 81.4629 -22.7668L75.283 -21.9193C75.0736 -21.9193 73.2072 -11.5021 72.7883 -11.5021L72.8073 -11.4926Z" fill="#B4D871"/>
                <path d="M83.5863 4.98065C83.034 5.08539 82.3008 4.93304 81.8247 5.16157C81.32 5.39962 80.5773 5.26631 80.1583 5.59007C79.7203 5.93286 79.6822 6.71367 79.3299 7.10408C78.9585 7.51353 79.2251 8.15151 79.0157 8.63714C78.8062 9.12277 78.4824 9.42747 78.4063 9.97023C78.3301 10.4939 78.6158 10.9129 78.6538 11.4652C78.6824 11.9508 77.5302 12.5031 77.4826 13.0649C77.435 13.5791 77.6254 14.1314 77.6254 14.6742C77.6254 15.1979 77.8254 15.693 77.9492 16.2072C78.073 16.7024 77.7873 17.5117 78.1111 17.9783C78.4063 18.4163 78.5205 18.9877 78.8157 19.4257C79.1204 19.8828 80.5392 19.8066 80.6535 20.3112C80.7677 20.8159 79.4537 21.4539 79.4537 21.9776C79.4537 22.5013 79.9679 23.006 79.9393 23.5202C79.9107 24.0534 80.5963 24.5676 80.6249 25.0723C80.6535 25.5103 80.0631 25.8912 79.8917 26.2435C79.7108 26.6149 79.6251 27.0434 79.3966 27.3671C79.149 27.7385 79.5584 28.167 79.4918 28.5288C79.4156 28.9478 79.3965 29.1097 79.4632 29.5191C79.5394 29.9381 78.8443 30.4904 78.9205 30.8808C79.0062 31.3093 79.0728 31.6521 78.949 32.033C78.8348 32.4138 79.1395 32.9185 79.0347 33.328C78.93 33.7184 78.9395 34.0802 78.8919 34.4992C78.8443 34.8896 78.0349 35.2705 78.0635 35.699C78.092 36.1941 78.3872 36.775 78.6443 37.1368C78.9014 37.4987 79.4061 37.7462 79.7584 38.0605C80.1012 38.3556 80.1297 38.9555 80.444 39.2698C80.7487 39.584 81.6533 39.2983 81.977 39.6126C82.2818 39.9173 82.2913 40.5743 82.6626 40.8409C83.0054 41.0885 83.3673 41.4503 83.7958 41.6408C84.2052 41.8217 84.8718 40.86 85.3383 40.9076C85.7764 40.9552 86.2048 41.1456 86.6619 41.1742C87.1094 41.2028 87.5094 41.8503 87.9569 41.955C88.3949 42.0597 88.9853 41.936 89.4043 42.174C89.8137 42.4025 89.8518 43.3262 90.2708 43.5357C90.6897 43.7547 91.2039 44.4117 91.661 44.4784C92.1276 44.545 93.1084 43.1167 93.5464 43.3547C93.9653 43.5833 94.2415 44.1165 94.6605 44.3451C95.108 44.5831 95.3841 44.5069 95.8412 44.5545C96.3078 44.6021 96.622 45.7543 97.0696 45.8305C97.5266 45.9162 98.2027 44.8212 98.6502 44.9068C99.1168 44.9925 99.3739 46.2399 99.8214 46.2876C100.288 46.3352 100.821 45.3068 101.231 45.3354C101.707 45.3734 102.031 46.7256 102.431 46.7637C102.907 46.8113 103.564 45.5544 103.945 45.6401C104.249 45.7067 104.801 46.9065 105.335 46.697C105.754 46.5351 106.001 45.8972 106.439 45.8115C106.925 45.7162 107.82 44.9449 108.191 45.2116C108.496 45.4306 108.944 46.0305 109.153 46.4113C109.353 46.7637 109.363 47.1826 109.582 47.5064C109.82 47.8682 109.591 48.5157 109.982 48.6205C110.658 48.7443 110.981 48.4205 111.334 48.2586C111.762 48.0587 112.4 48.7252 112.962 48.5633C113.324 48.4586 113.476 48.3539 114.124 48.43C114.552 48.4872 115.638 47.3445 116.085 47.6968C116.466 47.992 116.523 48.7062 116.933 48.9918C117.361 49.287 117.533 50.0774 118.018 50.144C118.456 50.2011 118.951 50.0488 119.399 50.1916C119.827 50.3345 120.494 49.7441 120.941 49.8774C121.379 50.0107 121.665 50.1059 122.122 50.1631C122.57 50.2202 122.884 50.582 123.351 50.5344C123.808 50.4963 124.265 50.344 124.722 50.3059C125.188 50.2678 125.607 51.5247 126.055 51.5818C126.521 51.639 127.178 50.9724 127.683 50.7629C128.14 50.5725 128.578 50.2868 129.035 50.0869C129.54 49.8774 130.073 48.6967 130.53 48.7538C130.997 48.8109 131.72 49.2965 132.149 49.5632C132.558 49.8203 132.225 51.2771 132.625 51.5342C133.063 51.8199 133.758 52.2484 134.215 52.3055C134.691 52.3627 135.596 51.2295 136.024 51.4771C136.443 51.7247 136.472 52.6674 136.862 52.9245C137.31 53.2197 137.834 52.8292 138.262 52.8769C138.795 52.9435 139.5 54.2957 139.824 54.1433C140.224 53.9529 140.443 53.0863 140.719 52.7531C140.995 52.4103 140.595 51.3724 140.919 51.1057C141.223 50.8582 141.957 51.6961 142.471 51.7152C142.909 51.6866 143.004 52.0294 143.461 52.2389C143.88 52.4388 144.851 51.439 145.28 51.6104C145.737 51.8009 146.108 52.8673 146.565 52.7531C146.994 52.6483 147.184 51.5818 147.603 51.4961C148.022 51.4009 148.536 51.6961 148.965 51.6295C149.384 51.5723 149.803 51.2771 150.25 51.2486C150.784 51.22 151.336 51.3819 151.86 51.1819C152.393 50.9724 153.078 51.1534 153.555 50.9629C154.183 50.7153 154.869 49.506 155.288 49.6965C155.745 49.906 155.307 51.42 155.697 51.8389C156.049 52.2198 156.859 52.2103 157.173 52.6483C157.497 53.0959 158.335 53.1244 158.649 53.5053C158.944 53.8481 159.449 54.5242 159.582 55.0669C159.706 55.543 158.487 56.4476 158.649 56.9238C158.82 57.4094 159.839 57.3999 160.211 57.7522C160.553 58.0664 160.849 57.876 161.458 57.876C161.953 57.876 162.477 58.9901 163.01 59.0091C163.562 59.0281 164.505 57.8379 164.943 58.095C165.257 58.2759 165.391 59.2471 165.571 59.7518C165.714 60.1422 165.029 60.8564 165.162 61.3039C165.295 61.7515 165.352 62.3418 165.543 62.7132C165.771 63.1607 166.505 63.6083 166.905 63.7606C167.343 63.9225 168.133 63.5797 168.733 63.3702C169.228 63.1988 169.485 62.1133 170.009 61.9514C170.571 61.78 171.542 61.5325 172.037 61.6562C172.484 61.7705 172.665 62.9227 173.094 63.256C173.484 63.5607 174.027 63.6749 174.446 63.9606C174.865 64.2558 175.113 65.1128 175.608 65.1985C176.036 65.2746 176.531 64.0844 176.988 64.0558C177.455 64.0272 177.998 64.0558 178.426 64.0653C178.921 64.0844 179.845 64.351 180.159 64.6747C180.454 64.9795 180.274 65.8555 180.397 66.3221C180.512 66.741 180.75 67.1695 180.845 67.6171C180.94 68.0741 181.273 68.2836 181.473 68.6645C181.673 69.0359 180.302 69.9119 180.369 70.369C180.435 70.807 180.845 71.2164 180.912 71.6544C180.988 72.121 181.254 72.7304 181.483 73.0828C181.73 73.4636 182.349 73.9398 182.826 74.1302C183.254 74.3016 183.921 73.9588 184.378 74.0921C184.863 74.2445 185.596 73.9874 185.949 74.2254C186.368 74.5016 186.653 74.692 187.11 74.8063C187.577 74.9301 188.025 74.8348 188.51 74.9015C188.977 74.9681 189.377 75.5966 189.843 75.7109C190.319 75.8251 190.957 75.1872 191.433 75.2824C191.91 75.3776 192.271 76.0822 192.757 76.1774C193.233 76.2727 193.643 76.7202 194.128 76.825C194.614 76.9297 195.242 76.4631 195.804 76.5107C196.337 76.5583 196.785 77.3201 197.309 77.4153C197.861 77.5105 198.527 77.1201 198.975 77.3582C199.184 77.4725 199.451 78.1295 199.384 78.8246C199.346 79.2245 199.346 79.6911 199.308 80.1767C199.27 80.6243 197.966 81.1289 197.994 81.5765C198.032 82.0526 198.823 82.5192 198.994 82.9191C199.165 83.319 200.365 83.1 200.67 83.5095C200.937 83.8808 201.165 84.2141 201.498 84.5855C201.813 84.9473 201.175 86.1471 201.498 86.4994C201.803 86.8422 202.574 86.6042 203.108 86.6708C203.565 86.7279 204.088 86.4804 204.583 86.5375C205.069 86.5946 205.536 87.0041 205.964 87.2326C206.345 87.4326 206.269 88.4324 206.64 88.6324C207.002 88.8323 207.869 88.0325 208.288 88.1944C208.649 88.3372 208.792 89.3561 209.249 89.4608C209.678 89.556 210.259 89.0323 210.687 89.2227C211.087 89.4037 211.677 89.0418 212.125 89.1942C212.534 89.337 212.753 90.2416 213.23 90.2702C213.668 90.2987 214.182 89.6227 214.648 89.6703C215.086 89.7084 215.477 90.7082 215.943 90.7272C216.381 90.7463 216.857 90.194 217.324 90.1654C217.762 90.1369 218.229 89.8702 218.667 89.8893C219.114 89.9083 219.533 90.2416 219.962 90.2321C220.419 90.2321 220.99 90.7463 221.399 90.6225C221.828 90.4892 222.447 90.6225 222.847 90.4511C223.247 90.2607 222.828 88.4895 223.199 88.2801C223.599 88.0515 224.666 89.0133 225.018 88.8038C225.399 88.5752 225.856 88.2896 226.161 88.0039C226.494 87.6992 226.484 87.0422 226.76 86.7279C227.065 86.3947 226.76 85.4425 227.056 85.1663C227.465 84.7759 228.436 85.2044 228.655 84.9854C229.055 84.595 229.322 84.4236 229.598 84.0998C229.798 83.8713 230.093 83.8237 230.484 83.3666C230.874 83.3381 231.388 82.9572 232.093 82.9096C232.521 82.881 233.197 83.2429 233.578 83.0905C233.94 82.9477 234.35 82.3859 234.683 82.0812C234.959 81.8336 234.483 80.8623 234.749 80.4814C234.988 80.1386 235.007 79.5007 235.311 79.1388C235.587 78.8055 237.339 79.5483 237.597 79.1674C237.844 78.8055 237.968 78.139 238.139 77.7105C238.292 77.3106 238.073 76.7393 238.235 76.3012C238.396 75.8918 237.949 75.2443 238.101 74.8158C238.244 74.3968 238.492 74.0159 238.606 73.5779C238.72 73.1494 239.434 72.8447 239.52 72.4067C239.606 71.9687 238.72 71.3497 238.796 70.9117C238.873 70.4737 239.558 70.1309 239.644 69.6929C239.739 69.2454 239.053 68.8835 238.958 68.4074C238.863 67.9503 239.387 67.3505 239.282 66.9029C239.168 66.4268 239.787 66.1031 239.853 65.665C239.929 65.2175 239.311 64.6462 239.301 64.1986C239.291 63.7511 239.996 63.2655 239.977 62.8275C239.958 62.3704 239.234 61.9895 239.292 61.561C239.349 61.104 239.53 60.704 239.606 60.2851C239.691 59.8375 239.006 59.2567 239.082 58.8472C239.168 58.3902 240.225 58.095 240.272 57.6855C240.32 57.2285 239.082 56.7238 239.101 56.3429C239.12 55.8573 239.177 55.4764 239.177 55.1241C239.177 54.4099 239.52 53.9909 239.52 53.8767C239.501 53.6386 240.053 53.0863 240.291 52.4388C240.453 52.0008 240.415 51.5342 240.415 51.001C240.415 50.5344 240.996 49.7822 240.71 49.3061C240.482 48.9347 239.434 49.2108 238.987 48.9157C238.596 48.6586 238.834 47.4588 238.435 47.1636C238.035 46.8779 236.987 47.335 236.711 46.9255C236.454 46.5447 236.635 45.5353 236.197 45.2687C235.797 45.0211 235.026 45.3353 234.616 45.0782C234.197 44.8116 233.074 45.0592 232.797 44.6688C232.578 44.3641 232.388 43.3547 232.417 42.8596C232.445 42.4597 233.473 42.0978 233.55 41.6598C233.626 41.2218 233.34 40.7647 233.359 40.3648C233.378 39.8792 233.54 39.4983 233.302 39.1936C233.016 38.8127 232.55 38.6604 232.017 38.4699C231.541 38.2985 231.083 37.9748 230.607 37.8034C230.074 37.6129 229.588 37.4415 229.293 37.0702C228.998 36.6988 229.436 36.0894 229.312 35.5847C229.198 35.1086 228.16 34.8515 228.046 34.3754C227.922 33.8707 228.512 32.9471 228.208 32.5948C227.894 32.2234 226.932 32.4995 226.361 32.3662C225.856 32.252 225.227 32.5472 224.723 32.4424C224.142 32.3186 223.647 31.7473 223.332 31.4045C223.018 31.0617 223.313 30.1666 223.009 29.8524C222.694 29.5191 221.885 29.6715 221.571 29.3668C221.247 29.043 220.362 29.3287 220.038 29.024C219.676 28.6812 219.914 27.6052 219.79 27.0339C219.676 26.5101 220.266 25.8245 220.181 25.3103C220.066 24.6724 219.695 23.7773 219.333 23.5107C218.886 23.1869 218.086 22.987 217.629 22.9965C217.134 23.006 216.886 24.3105 216.438 24.4724C215.896 24.6628 215.201 24.301 214.829 24.3296C214.286 24.3677 213.801 23.7868 213.277 23.7678C212.782 23.7487 212.258 24.2724 211.696 24.3201C211.23 24.3581 210.659 24.1677 210.087 24.3201C209.611 24.4534 209.183 25.6151 208.583 25.6436C208.088 25.6722 207.507 24.9676 206.916 24.9771C206.412 24.9866 205.878 25.0056 205.298 25.0437C204.86 25.0723 204.469 25.2342 204.003 25.4913C203.584 25.7293 202.755 25.2151 202.327 25.4341C201.86 25.6722 201.727 26.4244 201.27 26.3864C200.813 26.3387 201.032 25.5103 200.641 24.9771C200.327 24.5486 199.461 24.4534 199.137 24.0153C198.756 23.4916 198.337 22.8822 197.889 22.787C197.47 22.7013 196.975 22.5013 196.537 22.5109C196.099 22.5109 195.68 22.4918 195.242 22.4918C194.804 22.4918 194.442 22.6822 194.023 22.5585C193.614 22.4347 192.919 23.1393 192.519 22.9965C192.119 22.8537 191.748 22.5775 191.348 22.4251C190.948 22.2728 190.91 21.1682 190.5 21.0159C190.081 20.854 189.31 21.1206 188.767 21.2539C188.291 21.3777 187.72 21.273 187.253 21.3968C186.701 21.5301 186.606 21.5015 186.187 21.3206C185.777 21.1397 185.292 21.3492 184.958 20.9873C184.644 20.6445 184.787 19.8923 184.482 19.5495C184.159 19.1781 183.33 19.1781 182.94 18.9877C182.53 18.7877 181.969 19.559 181.464 19.5685C180.988 19.5685 180.493 19.2352 180.036 19.2448C179.521 19.2543 178.883 19.2448 178.502 19.0353C178.083 18.8163 177.103 18.3116 176.912 17.7117C176.75 17.207 176.665 16.5881 176.522 16.0834C176.341 15.4454 176.589 15.2836 176.208 15.0646C175.817 14.8456 175.532 14.4742 175.17 14.2742C174.779 14.0552 175.113 12.5983 174.751 12.3888C174.36 12.1698 173.303 13.1221 172.961 12.9126C172.513 12.6364 172.38 11.2748 171.923 11.2081C171.399 11.1319 170.894 12.9411 170.447 12.9983C169.723 13.084 168.895 12.5983 168.733 12.5126C168.276 12.2651 168.285 11.4366 167.962 10.9796C167.666 10.5511 167.152 10.2464 166.933 9.75123C166.705 9.24655 166.438 8.76093 166.238 8.30386C166.048 7.86585 165.219 7.56114 165.095 7.08504C164.972 6.61845 165.943 5.84716 165.819 5.38058C165.705 4.90447 165.943 4.26649 165.781 3.80943C165.619 3.34284 165.457 2.64773 165.2 2.27637C164.924 1.88597 163.324 2.60012 162.991 2.27637C162.658 1.9431 162.524 1.43843 162.182 1.11467C161.82 0.771878 161.934 -0.275553 161.563 -0.342208C161.22 -0.408863 160.782 0.790923 160.296 0.829011C159.953 0.857578 159.477 -0.180335 159.001 -0.151768C158.544 -0.123202 158.163 0.886143 157.706 0.943275C157.23 1.00041 156.725 0.676657 156.287 0.743312C155.792 0.819489 155.364 1.05754 154.945 1.13372C154.383 1.22894 153.812 1.62887 153.478 1.64791C152.821 1.56221 152.593 0.60048 152.326 0.248162C152.041 -0.132722 151.726 -0.494565 151.345 -0.865927C151.05 -1.15159 150.66 -1.24681 150.022 -1.36107C149.622 -1.43725 149.089 -2.51325 148.613 -2.45612C148.184 -2.39898 147.803 -1.83718 147.356 -1.78957C146.918 -1.74196 146.565 -1.66578 146.118 -1.72291C145.689 -1.78005 145.128 -1.45629 144.67 -1.29442C144.252 -1.14206 143.947 -0.608827 143.518 -0.446952C143.071 -0.285076 142.528 0.295771 142.09 0.276727C141.662 0.257683 141.024 0.362425 140.605 0.238638C140.186 0.114851 139.948 -0.60883 139.538 -0.713573C139.11 -0.827838 138.805 -0.246989 138.376 -0.218423C137.862 -0.189857 137.272 -0.780225 136.777 -0.818313C136.253 -0.856402 135.739 -0.637393 135.253 -0.66596C134.72 -0.694526 134.349 -0.875447 133.882 -0.770703C133.349 -0.656438 132.768 -0.827835 132.377 -0.408862C132.006 -0.0184557 132.082 0.7814 131.749 1.20037C131.368 1.686 130.854 2.43825 130.406 2.60012C129.921 2.79057 129.149 1.69552 128.645 1.71457C128.121 1.73361 127.616 3.16193 127.131 3.16193C126.578 3.16193 126.16 2.48586 125.722 2.69534C125.245 2.91435 124.769 3.12384 124.312 3.24762C123.827 3.38093 123.341 3.72373 122.874 3.78086C122.389 3.84752 121.846 3.55233 121.36 3.5809C120.856 3.60947 119.989 4.09509 119.561 3.86656C119.151 3.64755 118.751 3.21906 118.332 2.96196C117.923 2.70486 117.866 2.00023 117.399 1.86692C116.933 1.73361 116.523 1.06706 116.047 1.0385C115.561 1.00993 115.076 1.20037 114.6 1.15276C114.114 1.10515 113.333 1.92405 112.886 1.72409C112.429 1.52412 111.991 1.06706 111.572 0.800442C111.153 0.524301 111.257 -0.551694 110.848 -0.818313C110.42 -1.10398 109.572 -0.513606 109.134 -0.685004C108.648 -0.875447 108.382 -1.8467 107.858 -1.9324C107.325 -2.02762 106.706 -1.1135 106.182 -1.13254C105.601 -1.16111 105.106 -1.35155 104.64 -1.32299C104.202 -1.29442 103.497 -2.31328 103.04 -2.16093C102.621 -2.0181 102.754 -0.342209 102.326 -0.161289C101.897 0.0101089 101.031 -1.0278 100.602 -0.904012C100.183 -0.789747 99.7453 -0.865927 99.3168 -0.780228C98.8883 -0.694529 98.6788 0.495735 98.2503 0.581434C97.8218 0.667133 97.3552 0.486214 96.9267 0.600479C96.4982 0.714744 96.2126 0.971843 95.8031 1.23846C95.4127 1.49556 95.0413 1.82883 94.6509 2.06688C94.232 2.31446 93.5559 1.52412 93.1084 1.55269C92.5656 1.59078 92.08 2.12402 91.5753 1.98118C91.0516 1.83835 90.385 1.93358 89.9375 1.67648C89.4423 1.40034 88.9948 0.990888 88.6235 0.695702C87.9284 0.152942 87.6712 -0.408864 87.5951 -0.399342C87.4046 -0.38982 87.7189 1.00041 87.5189 1.11467C87.1285 1.3432 86.3096 0.857575 85.9382 1.19085C85.5954 1.50508 85.1193 1.72409 84.8051 2.08593C84.4909 2.44777 84.2242 2.86674 83.9576 3.24762C83.672 3.65707 83.8148 4.59024 83.5863 4.97113V4.98065Z" fill="#8FB44A"/>
                <path d="M83.8243 -26.6899C83.272 -26.5851 82.5388 -26.7375 82.0627 -26.509C81.5581 -26.2709 80.8153 -26.4042 80.3964 -26.0805C79.9583 -25.7377 79.9203 -24.9569 79.5679 -24.5665C79.1966 -24.157 79.4632 -23.519 79.2537 -23.0334C79.0442 -22.5478 78.7205 -22.2431 78.6443 -21.7003C78.5681 -21.1766 78.8538 -20.7576 78.8919 -20.2053C78.9204 -19.7197 77.7683 -19.1674 77.7207 -18.6056C77.673 -18.0914 77.8635 -17.5391 77.8635 -16.9964C77.8635 -16.4727 78.0634 -15.9775 78.1872 -15.4633C78.311 -14.9682 78.0254 -14.1588 78.3491 -13.6922C78.6443 -13.2542 78.7586 -12.6829 79.0537 -12.2448C79.3584 -11.7878 80.7772 -11.864 80.8915 -11.3593C81.0058 -10.8546 79.6917 -10.2166 79.6917 -9.69292C79.6917 -9.1692 80.2059 -8.66453 80.1773 -8.15034C80.1488 -7.6171 80.8344 -7.1029 80.8629 -6.59823C80.8915 -6.16022 80.3011 -5.77933 80.1297 -5.42701C79.9488 -5.05565 79.8631 -4.62716 79.6346 -4.3034C79.387 -3.93204 79.7965 -3.50355 79.7298 -3.14171C79.6536 -2.72274 79.6346 -2.56086 79.7012 -2.15141C79.7774 -1.73244 79.0823 -1.18015 79.1585 -0.789749C79.2442 -0.361252 79.3109 -0.0184593 79.1871 0.362427C79.0728 0.743313 79.3775 1.24798 79.2728 1.65743C79.168 2.04784 79.1775 2.40968 79.1299 2.82865C79.0823 3.21906 78.2729 3.59995 78.3015 4.02844C78.3301 4.52359 78.6253 5.10444 78.8824 5.46628C79.1394 5.82812 79.6441 6.0757 79.9964 6.38992C80.3392 6.68511 80.3678 7.27548 80.682 7.59923C80.9867 7.91346 81.8913 7.6278 82.2151 7.94202C82.5198 8.24673 82.5293 8.90376 82.9007 9.17038C83.2435 9.41795 83.6053 9.77979 84.0338 9.97023C84.4433 10.1512 85.1098 9.18942 85.5764 9.23703C86.0144 9.28464 86.4429 9.47509 86.8999 9.50365C87.3475 9.53222 87.7474 10.1797 88.195 10.2845C88.633 10.3892 89.2233 10.2654 89.6423 10.5035C90.0518 10.732 90.0898 11.6556 90.5088 11.8651C90.9278 12.0841 91.442 12.7412 91.899 12.8078C92.3656 12.8745 93.3464 11.4462 93.7844 11.6842C94.2034 11.9127 94.4795 12.446 94.8985 12.6745C95.3461 12.9126 95.6222 12.8364 96.0792 12.884C96.5458 12.9316 96.8601 14.0838 97.3076 14.16C97.7647 14.2457 98.4407 13.1506 98.8883 13.2363C99.3549 13.322 99.6119 14.5694 100.059 14.617C100.526 14.6646 101.059 13.6362 101.469 13.6648C101.945 13.7029 102.269 15.055 102.669 15.0931C103.145 15.1407 103.802 13.8838 104.183 13.9695C104.487 14.0362 105.04 15.236 105.573 15.0265C105.992 14.8646 106.239 14.2266 106.677 14.1409C107.163 14.0457 108.058 13.2744 108.429 13.541C108.734 13.76 109.182 14.3599 109.391 14.7408C109.591 15.0931 109.601 15.5121 109.82 15.8359C110.058 16.1977 109.829 16.8452 110.22 16.9499C110.896 17.0737 111.219 16.75 111.572 16.5881C112 16.3881 112.638 17.0547 113.2 16.8928C113.562 16.7881 113.714 16.6833 114.362 16.7595C114.79 16.8166 115.876 15.674 116.323 16.0263C116.704 16.3215 116.761 17.0452 117.171 17.3213C117.599 17.6165 117.771 18.4068 118.256 18.4735C118.694 18.5306 119.189 18.3783 119.637 18.5211C120.065 18.6639 120.732 18.0735 121.179 18.2069C121.617 18.3402 121.903 18.4354 122.36 18.4925C122.808 18.5497 123.122 18.9115 123.589 18.8639C124.046 18.8258 124.503 18.6734 124.96 18.6354C125.426 18.5973 125.845 19.8542 126.293 19.9113C126.759 19.9684 127.416 19.3019 127.921 19.0924C128.378 18.902 128.816 18.6163 129.273 18.4163C129.778 18.2069 130.311 17.0261 130.768 17.0832C131.235 17.1404 131.958 17.626 132.387 17.8926C132.796 18.1497 132.463 19.6066 132.863 19.8637C133.301 20.1494 133.996 20.5779 134.453 20.635C134.929 20.6921 135.834 19.559 136.262 19.8066C136.681 20.0541 136.71 20.9968 137.1 21.2539C137.548 21.5491 138.072 21.1587 138.5 21.2063C139.033 21.273 139.738 22.6251 140.062 22.4728C140.462 22.2823 140.681 21.4158 140.957 21.0825C141.233 20.7397 140.833 19.7018 141.157 19.4352C141.462 19.1876 142.195 20.0256 142.709 20.0446C143.147 20.0161 143.242 20.3589 143.699 20.5683C144.118 20.7683 145.089 19.7685 145.518 19.9399C145.975 20.1303 146.346 21.1968 146.803 21.0825C147.232 20.9778 147.422 19.9113 147.841 19.8256C148.26 19.7304 148.774 20.0256 149.203 19.9589C149.622 19.9018 150.041 19.6066 150.488 19.578C151.022 19.5495 151.574 19.7114 152.098 19.5114C152.631 19.3019 153.317 19.4828 153.793 19.2924C154.421 19.0448 155.107 17.8355 155.526 18.0259C155.983 18.2354 155.545 19.7494 155.935 20.1684C156.287 20.5493 157.097 20.5398 157.411 20.9778C157.735 21.4253 158.573 21.4539 158.887 21.8348C159.182 22.1776 159.687 22.8536 159.82 23.3964C159.944 23.8725 158.725 24.7771 158.887 25.2532C159.058 25.7388 160.077 25.7293 160.449 26.0816C160.791 26.3959 161.087 26.2054 161.696 26.2054C162.191 26.2054 162.715 27.3195 163.248 27.3386C163.8 27.3576 164.743 26.1673 165.181 26.4244C165.495 26.6054 165.629 27.5766 165.81 28.0813C165.952 28.4717 165.267 29.1858 165.4 29.6334C165.533 30.0809 165.591 30.6713 165.781 31.0427C166.009 31.4902 166.743 31.9377 167.143 32.0901C167.581 32.252 168.371 31.9092 168.971 31.6997C169.466 31.5283 169.723 30.4428 170.247 30.2809C170.809 30.1095 171.78 29.8619 172.275 29.9857C172.723 30.1 172.903 31.2521 173.332 31.5854C173.722 31.8901 174.265 32.0044 174.684 32.2901C175.103 32.5852 175.351 33.4422 175.846 33.5279C176.274 33.6041 176.769 32.4138 177.226 32.3853C177.693 32.3567 178.236 32.3853 178.664 32.3948C179.159 32.4138 180.083 32.6805 180.397 33.0042C180.693 33.3089 180.512 34.185 180.635 34.6515C180.75 35.0705 180.988 35.499 181.083 35.9465C181.178 36.4036 181.511 36.6131 181.711 36.994C181.911 37.3653 180.54 38.2414 180.607 38.6984C180.673 39.1365 181.083 39.5459 181.15 39.9839C181.226 40.4505 181.492 41.0599 181.721 41.4122C181.968 41.7931 182.587 42.2692 183.064 42.4597C183.492 42.6311 184.159 42.2883 184.616 42.4216C185.101 42.5739 185.834 42.3168 186.187 42.5549C186.606 42.831 186.891 43.0215 187.348 43.1357C187.815 43.2595 188.263 43.1643 188.748 43.231C189.215 43.2976 189.615 43.9261 190.081 44.0403C190.557 44.1546 191.195 43.5166 191.672 43.6118C192.148 43.7071 192.509 44.4117 192.995 44.5069C193.471 44.6021 193.881 45.0497 194.366 45.1544C194.852 45.2592 195.48 44.7926 196.042 44.8402C196.575 44.8878 197.023 45.6496 197.547 45.7448C198.099 45.84 198.765 45.4496 199.213 45.6877C199.422 45.8019 199.689 46.459 199.622 47.1541C199.584 47.554 199.584 48.0206 199.546 48.5062C199.508 48.9537 198.204 49.4584 198.232 49.906C198.27 50.3821 199.061 50.8486 199.232 51.2486C199.403 51.6485 200.603 51.4295 200.908 51.8389C201.175 52.2103 201.403 52.5436 201.736 52.9149C202.051 53.2768 201.413 54.4766 201.736 54.8289C202.041 55.1717 202.812 54.9336 203.346 55.0003C203.803 55.0574 204.326 54.8098 204.822 54.867C205.307 54.9241 205.774 55.3336 206.202 55.5621C206.583 55.7621 206.507 56.7619 206.878 56.9618C207.24 57.1618 208.107 56.3619 208.526 56.5238C208.887 56.6667 209.03 57.6855 209.487 57.7903C209.916 57.8855 210.497 57.3618 210.925 57.5522C211.325 57.7331 211.915 57.3713 212.363 57.5236C212.772 57.6665 212.991 58.5711 213.468 58.5996C213.906 58.6282 214.42 57.9521 214.886 57.9997C215.324 58.0378 215.715 59.0377 216.181 59.0567C216.619 59.0757 217.095 58.5235 217.562 58.4949C218 58.4663 218.467 58.1997 218.905 58.2188C219.352 58.2378 219.771 58.5711 220.2 58.5616C220.657 58.5616 221.228 59.0757 221.638 58.952C222.066 58.8186 222.685 58.952 223.085 58.7806C223.485 58.5901 223.066 56.819 223.437 56.6095C223.837 56.381 224.904 57.3427 225.256 57.1332C225.637 56.9047 226.094 56.619 226.399 56.3334C226.732 56.0287 226.722 55.3717 226.998 55.0574C227.303 54.7241 226.998 53.7719 227.294 53.4958C227.703 53.1054 228.674 53.5339 228.893 53.3149C229.293 52.9245 229.56 52.7531 229.836 52.4293C230.036 52.2008 230.331 52.1532 230.722 51.6961C231.112 51.6675 231.626 51.2867 232.331 51.2391C232.759 51.2105 233.435 51.5723 233.816 51.42C234.178 51.2771 234.588 50.7153 234.921 50.4106C235.197 50.163 234.721 49.1918 234.988 48.8109C235.226 48.4681 235.245 47.8301 235.549 47.4683C235.825 47.135 237.577 47.8777 237.835 47.4969C238.082 47.135 238.206 46.4685 238.377 46.04C238.53 45.6401 238.311 45.0687 238.473 44.6307C238.634 44.2213 238.187 43.5738 238.339 43.1453C238.482 42.7263 238.73 42.3454 238.844 41.9074C238.958 41.4789 239.672 41.1742 239.758 40.7362C239.844 40.2981 238.958 39.6792 239.034 39.2412C239.111 38.8032 239.796 38.4604 239.882 38.0224C239.977 37.5748 239.291 37.213 239.196 36.7369C239.101 36.2798 239.625 35.6799 239.52 35.2324C239.406 34.7563 240.025 34.4325 240.091 33.9945C240.167 33.547 239.549 32.9756 239.539 32.5281C239.53 32.0806 240.234 31.5949 240.215 31.1569C240.196 30.6999 239.472 30.319 239.53 29.8905C239.587 29.4334 239.768 29.0335 239.844 28.6145C239.929 28.167 239.244 27.5861 239.32 27.1767C239.406 26.7196 240.463 26.4244 240.51 26.015C240.558 25.5579 239.32 25.0533 239.339 24.6724C239.358 24.1867 239.415 23.8059 239.415 23.4535C239.415 22.7394 239.758 22.3204 239.758 22.2061C239.739 21.9681 240.291 21.4158 240.529 20.7683C240.691 20.3303 240.653 19.8637 240.653 19.3305C240.653 18.8639 241.234 18.1116 240.948 17.6355C240.72 17.2642 239.672 17.5403 239.225 17.2451C238.834 16.988 239.072 15.7882 238.673 15.4931C238.273 15.2074 237.225 15.6645 236.949 15.255C236.692 14.8741 236.873 13.8648 236.435 13.5982C236.035 13.3506 235.264 13.6648 234.854 13.4077C234.435 13.1411 233.312 13.3887 233.035 12.9983C232.816 12.6936 232.626 11.6842 232.655 11.1891C232.683 10.7891 233.712 10.4273 233.788 9.98928C233.864 9.55126 233.578 9.0942 233.597 8.69427C233.616 8.20864 233.778 7.82776 233.54 7.52305C233.254 7.14217 232.788 6.98981 232.255 6.79937C231.779 6.62798 231.321 6.30422 230.845 6.13282C230.312 5.94238 229.827 5.77098 229.531 5.39962C229.236 5.02826 229.674 4.41885 229.55 3.91417C229.436 3.43807 228.398 3.18097 228.284 2.70486C228.16 2.20019 228.751 1.27655 228.446 0.924232C228.132 0.552868 227.17 0.829014 226.599 0.695702C226.094 0.581436 225.465 0.876621 224.961 0.771877C224.38 0.64809 223.885 0.0767632 223.571 -0.266033C223.256 -0.608829 223.551 -1.50391 223.247 -1.81814C222.933 -2.15141 222.123 -1.99905 221.809 -2.30376C221.485 -2.62751 220.6 -2.34185 220.276 -2.64656C219.914 -2.98936 220.152 -4.06535 220.028 -4.63668C219.914 -5.1604 220.504 -5.84599 220.419 -6.36018C220.304 -6.99816 219.933 -7.89324 219.571 -8.15986C219.124 -8.48361 218.324 -8.68357 217.867 -8.67405C217.372 -8.66453 217.124 -7.36 216.677 -7.19813C216.134 -7.00768 215.439 -7.36953 215.067 -7.34096C214.525 -7.30287 214.039 -7.88372 213.515 -7.90276C213.02 -7.92181 212.496 -7.39809 211.935 -7.35048C211.468 -7.31239 210.897 -7.50283 210.325 -7.35048C209.849 -7.21717 209.421 -6.05547 208.821 -6.02691C208.326 -5.99834 207.745 -6.70298 207.154 -6.69345C206.65 -6.68393 206.117 -6.66489 205.536 -6.6268C205.098 -6.59823 204.707 -6.43636 204.241 -6.17926C203.822 -5.94121 202.993 -6.4554 202.565 -6.23639C202.098 -5.99834 201.965 -5.2461 201.508 -5.28418C201.051 -5.33179 201.27 -6.16022 200.879 -6.69345C200.565 -7.12195 199.699 -7.21717 199.375 -7.65519C198.994 -8.1789 198.575 -8.78832 198.127 -8.88354C197.709 -8.96924 197.213 -9.1692 196.775 -9.15968C196.337 -9.15968 195.918 -9.17873 195.48 -9.17873C195.042 -9.17873 194.68 -8.98829 194.261 -9.11207C193.852 -9.23586 193.157 -8.53122 192.757 -8.67405C192.357 -8.81688 191.986 -9.09303 191.586 -9.24538C191.186 -9.39773 191.148 -10.5023 190.738 -10.6547C190.319 -10.8165 189.548 -10.5499 189.005 -10.4166C188.529 -10.2928 187.958 -10.3976 187.491 -10.2738C186.939 -10.1405 186.844 -10.169 186.425 -10.3499C186.015 -10.5309 185.53 -10.3214 185.196 -10.6832C184.882 -11.026 185.025 -11.7783 184.72 -12.1211C184.397 -12.4924 183.568 -12.4924 183.178 -12.6829C182.768 -12.8828 182.207 -12.1115 181.702 -12.102C181.226 -12.102 180.731 -12.4353 180.274 -12.4258C179.759 -12.4162 179.121 -12.4258 178.741 -12.6353C178.322 -12.8543 177.341 -13.3589 177.15 -13.9588C176.988 -14.4635 176.903 -15.0824 176.76 -15.5871C176.579 -16.2251 176.827 -16.387 176.446 -16.606C176.055 -16.825 175.77 -17.1963 175.408 -17.3963C175.017 -17.6153 175.351 -19.0722 174.989 -19.2817C174.598 -19.5007 173.541 -18.5485 173.199 -18.758C172.751 -19.0341 172.618 -20.3958 172.161 -20.4624C171.637 -20.5386 171.132 -18.7294 170.685 -18.6723C169.961 -18.5866 169.133 -19.0722 168.971 -19.1579C168.514 -19.4055 168.523 -20.2339 168.2 -20.691C167.904 -21.1194 167.39 -21.4242 167.171 -21.9193C166.943 -22.424 166.676 -22.9096 166.476 -23.3667C166.286 -23.8047 165.457 -24.1094 165.333 -24.5855C165.21 -25.0521 166.181 -25.8138 166.057 -26.29C165.943 -26.7661 166.181 -27.404 166.019 -27.8611C165.857 -28.3277 165.695 -29.0228 165.438 -29.3942C165.162 -29.7846 163.562 -29.0704 163.229 -29.3942C162.896 -29.7274 162.762 -30.2321 162.42 -30.5559C162.058 -30.8987 162.172 -31.9461 161.801 -32.0127C161.458 -32.0794 161.02 -30.8796 160.534 -30.8415C160.191 -30.813 159.715 -31.8509 159.239 -31.8223C158.782 -31.7937 158.401 -30.7844 157.944 -30.7273C157.468 -30.6701 156.964 -30.9939 156.525 -30.9272C156.03 -30.851 155.602 -30.613 155.183 -30.5368C154.621 -30.4416 154.05 -30.0417 153.716 -30.0226C153.059 -30.1083 152.831 -31.0701 152.564 -31.4224C152.279 -31.8033 151.964 -32.1651 151.584 -32.5365C151.288 -32.8221 150.898 -32.9173 150.26 -33.0316C149.86 -33.1078 149.327 -34.1838 148.851 -34.1266C148.422 -34.0695 148.041 -33.5077 147.594 -33.4601C147.156 -33.4125 146.803 -33.3363 146.356 -33.3934C145.927 -33.4506 145.366 -33.1268 144.909 -32.965C144.49 -32.8126 144.185 -32.2794 143.756 -32.1175C143.309 -31.9556 142.766 -31.3748 142.328 -31.3938C141.9 -31.4128 141.262 -31.3081 140.843 -31.4414C140.424 -31.5652 140.186 -32.2889 139.776 -32.3936C139.348 -32.5079 139.043 -31.927 138.614 -31.8985C138.1 -31.8699 137.51 -32.4603 137.015 -32.4984C136.491 -32.5365 135.977 -32.3174 135.491 -32.346C134.958 -32.3746 134.587 -32.5555 134.12 -32.4508C133.587 -32.3365 133.006 -32.5079 132.615 -32.0889C132.244 -31.6985 132.32 -30.8987 131.987 -30.4797C131.606 -29.9941 131.092 -29.2418 130.644 -29.0799C130.159 -28.8895 129.388 -29.9845 128.883 -29.9655C128.359 -29.9464 127.854 -28.5181 127.369 -28.5181C126.817 -28.5181 126.398 -29.1942 125.96 -28.9847C125.483 -28.7657 125.007 -28.5562 124.55 -28.4324C124.065 -28.2991 123.579 -27.9563 123.112 -27.8992C122.627 -27.8325 122.084 -28.1277 121.598 -28.0992C121.094 -28.0706 120.227 -27.585 119.799 -27.8135C119.389 -28.0325 118.989 -28.461 118.57 -28.7181C118.161 -28.9752 118.104 -29.6798 117.637 -29.8131C117.171 -29.9464 116.761 -30.613 116.285 -30.6416C115.799 -30.6701 115.314 -30.4797 114.838 -30.5273C114.352 -30.5749 113.571 -29.756 113.124 -29.956C112.667 -30.1559 112.229 -30.613 111.81 -30.8796C111.391 -31.1558 111.496 -32.2318 111.086 -32.4984C110.658 -32.784 109.81 -32.1937 109.372 -32.3651C108.886 -32.5555 108.62 -33.5268 108.096 -33.6125C107.563 -33.7077 106.944 -32.7936 106.42 -32.8126C105.839 -32.8412 105.344 -33.0316 104.878 -33.003C104.44 -32.9745 103.735 -33.9933 103.278 -33.841C102.859 -33.6982 102.992 -32.0223 102.564 -31.8413C102.135 -31.6699 101.269 -32.7079 100.84 -32.5841C100.421 -32.4698 99.9833 -32.546 99.5548 -32.4603C99.1263 -32.3746 98.9168 -31.1843 98.4883 -31.0986C98.0598 -31.0129 97.5933 -31.1938 97.1648 -31.0796C96.7363 -30.9653 96.4506 -30.6987 96.0411 -30.4416C95.6507 -30.1845 95.2794 -29.8512 94.889 -29.6132C94.47 -29.3656 93.7939 -30.1559 93.3464 -30.1274C92.8036 -30.0893 92.318 -29.556 91.8133 -29.6989C91.2896 -29.8417 90.6231 -29.7465 90.1755 -30.0036C89.6804 -30.2797 89.2329 -30.6892 88.8615 -30.9844C88.1664 -31.5271 87.9093 -32.0889 87.8331 -32.0794C87.6427 -32.0699 87.9569 -30.6796 87.7569 -30.5654C87.3665 -30.3369 86.5476 -30.8225 86.1763 -30.4892C85.8335 -30.175 85.3574 -29.956 85.0431 -29.5941C84.7289 -29.2323 84.4623 -28.8133 84.1957 -28.4324C83.91 -28.023 84.0528 -27.0898 83.8243 -26.7089V-26.6899Z" fill="#8FB44A"/>
                <path d="M-71.8143 49.8012C-72.138 50.0869 -72.5665 50.3249 -72.8522 50.6868C-73.1283 51.0296 -73.5473 51.2962 -73.7948 51.6771C-74.0424 52.0389 -74.3376 52.3817 -74.5852 52.7531C-74.8327 53.1244 -74.8994 53.6005 -75.166 53.9338C-75.4517 54.2861 -75.1374 55.2479 -75.4612 55.5335C-75.804 55.8382 -76.2039 56.0572 -76.5562 56.4381C-76.8895 56.7905 -77.9655 56.4667 -78.2988 56.8285C-78.6416 57.1999 -78.813 57.6855 -79.1653 57.9998C-79.5462 58.3521 -80.0223 58.3711 -80.4317 58.5901C-80.8793 58.8377 -81.0697 58.7901 -81.5553 58.7901C-82.041 58.7901 -82.4028 59.2281 -82.8313 59.0662C-83.2503 58.9044 -83.2312 58.2664 -83.5931 57.9617C-83.9359 57.6855 -84.5643 57.8188 -84.85 57.438C-85.1071 57.0856 -86.0783 57.0761 -86.2783 56.6381C-86.4592 56.2382 -86.2783 55.6097 -86.4021 55.1526C-86.5163 54.7242 -86.6782 54.248 -86.7354 53.7815C-86.7925 53.3434 -87.4305 52.8483 -87.4305 52.3722C-87.4305 51.8961 -87.2019 51.42 -87.2019 50.9343C-87.2019 50.4297 -87.0877 50.0488 -87.1639 49.5917C-87.24 49.0871 -87.1543 48.6776 -87.2972 48.2396C-87.459 47.754 -86.364 46.697 -86.5925 46.2971C-86.8401 45.8591 -88.2494 46.2019 -88.5541 45.8591C-88.8969 45.4782 -88.4493 44.1546 -88.8207 43.8975C-89.2587 43.5928 -90.6108 44.9069 -91.0393 44.6879C-91.5154 44.4498 -91.7249 43.6404 -92.1058 43.3643C-92.5057 43.0691 -92.382 42.3549 -92.5819 41.8503C-92.7438 41.4599 -93.1342 41.0885 -93.1342 40.4791C-93.1342 39.8221 -92.7438 39.4697 -92.2106 39.2602C-91.7725 39.0888 -91.6392 38.3842 -91.1726 38.07C-90.7918 37.8129 -89.7063 38.2033 -89.4872 37.6034C-89.3444 37.2035 -88.8493 36.5845 -88.8493 35.9466C-88.8493 35.5181 -88.8112 34.7658 -88.973 34.2992C-89.1159 33.8803 -90.8489 34.1278 -91.087 33.7089C-91.306 33.3089 -91.2774 32.8138 -91.544 32.4329C-91.8106 32.0425 -91.2488 31.0712 -91.525 30.7094C-91.8202 30.319 -93.058 30.6999 -93.3246 30.3666C-93.6008 30.0238 -93.1628 28.9668 -93.5246 28.6812C-93.8769 28.3955 -94.8101 28.9288 -95.191 28.6812C-95.5909 28.4336 -95.7718 27.8623 -96.1432 27.6433C-96.5812 27.3957 -97.0763 27.2814 -97.4096 27.0624C-97.9238 26.7101 -98.7046 26.1293 -98.7046 25.8055C-98.7046 25.5865 -97.7048 25.1961 -97.362 24.5772C-97.162 24.2153 -97.0763 23.7202 -96.8764 23.225C-96.7145 22.8156 -96.6955 22.3395 -96.5907 21.8443C-96.4955 21.4063 -95.3338 20.9683 -95.3338 20.4636C-95.3338 20.0065 -95.7337 19.6923 -95.5338 19.1972C-95.3624 18.7687 -95.21 18.3497 -94.9624 17.8926C-94.7339 17.4737 -94.6673 16.9499 -94.4292 16.5119C-94.1912 16.0739 -94.2959 15.474 -94.1055 15.036C-93.9055 14.5694 -94.2007 14.0552 -94.1055 13.5886C-94.0102 13.103 -94.2292 12.884 -94.3149 12.3984C-94.3911 11.9699 -93.8864 11.4462 -93.9912 11.0082C-94.0959 10.5797 -94.8291 10.3321 -94.9529 9.89406C-95.0672 9.46557 -94.6387 8.89424 -94.7625 8.45622C-94.8863 8.02773 -95.2767 7.67541 -95.4005 7.24691C-95.5147 6.81842 -95.4766 6.33279 -95.5814 5.89478C-95.6861 5.46628 -95.2767 4.90448 -95.3719 4.46646C-95.4576 4.03796 -96.0765 3.76182 -96.2098 3.33333C-96.3431 2.91435 -96.6574 2.58108 -96.8097 2.16211C-96.9621 1.75266 -95.9908 0.924236 -96.1432 0.505264C-96.2955 0.0958138 -97.8286 0.162468 -97.9714 -0.256504C-98.1142 -0.675476 -97.6001 -1.3325 -97.7143 -1.761C-97.8286 -2.1895 -97.9714 -2.62751 -98.0476 -3.06553C-98.1333 -3.50354 -98.4666 -3.8273 -98.6094 -4.25579C-98.7522 -4.67476 -98.5904 -5.18896 -98.7618 -5.60793C-98.9332 -6.01738 -99.7806 -6.15069 -99.952 -6.56966C-100.123 -6.97911 -100.19 -7.47426 -100.352 -7.89324C-100.514 -8.31221 -100.123 -8.95971 -100.247 -9.38821C-100.371 -9.8167 -99.8568 -10.369 -99.9139 -10.8165C-99.9711 -11.2545 -100.219 -11.6545 -100.266 -12.102C-100.314 -12.54 -101.323 -12.9019 -101.352 -13.3494C-101.39 -13.7874 -101.247 -14.254 -101.276 -14.7015C-101.304 -15.1396 -100.39 -15.6442 -100.419 -16.0823C-100.447 -16.5203 -101.409 -16.9107 -101.437 -17.3582C-101.466 -17.7962 -100.619 -18.3009 -100.647 -18.7484C-100.685 -19.196 -101.637 -19.6721 -101.599 -20.1196C-101.561 -20.5576 -101.295 -21.0242 -101.218 -21.4718C-101.142 -21.9098 -99.9044 -22.1383 -99.8187 -22.5763C-99.733 -23.0143 -101.218 -23.7475 -101.133 -24.1951C-101.057 -24.6331 -99.7235 -24.8807 -99.6664 -25.3187C-99.6188 -25.7662 -99.4093 -26.2519 -99.4093 -26.6994C-99.4093 -27.1469 -100.59 -27.5088 -100.695 -27.9849C-100.799 -28.4324 -100.666 -28.9181 -100.838 -29.3751C-100.999 -29.8131 -101.247 -30.2035 -101.447 -30.6416C-101.647 -31.07 -101.904 -31.47 -102.114 -31.8889C-102.323 -32.3174 -101.618 -33.203 -101.818 -33.622C-102.028 -34.06 -102.79 -34.2219 -102.961 -34.6504C-103.151 -35.1074 -103.666 -35.4597 -103.789 -35.8978C-103.923 -36.3834 -103.942 -36.9452 -103.942 -37.3927C-103.942 -37.8403 -103.666 -38.3259 -103.466 -38.7544C-103.285 -39.1353 -103.618 -40.0304 -103.313 -40.4017C-103.037 -40.735 -102.028 -40.4969 -101.685 -40.8207C-101.361 -41.1254 -100.895 -41.2682 -100.542 -41.5539C-100.19 -41.8396 -99.8568 -42.1347 -99.495 -42.4014C-99.1236 -42.6775 -98.4094 -42.449 -98.0476 -42.7061C-97.7048 -42.9536 -97.8286 -43.8868 -97.4572 -44.1629C-97.1049 -44.42 -96.267 -44.0296 -95.9147 -44.2963C-95.5528 -44.5629 -95.9908 -45.9531 -95.629 -46.2007C-95.2481 -46.4578 -94.2007 -45.6103 -93.8293 -45.8103C-93.4199 -46.0388 -93.3246 -46.772 -92.9342 -46.9148C-92.4867 -47.0767 -92.0487 -47.9718 -91.6392 -47.9718C-91.106 -47.9718 -90.4109 -47.7242 -90.0205 -47.5719C-89.5634 -47.4005 -89.1445 -46.8196 -88.8017 -46.5149C-88.4589 -46.2102 -88.1541 -45.7722 -87.859 -45.4103C-87.5638 -45.058 -86.8877 -45.1056 -86.564 -44.7628C-86.2497 -44.4391 -86.5735 -43.4774 -86.164 -43.2203C-85.7927 -42.9917 -85.4023 -42.6775 -84.9166 -42.5537C-84.5072 -42.449 -84.0216 -43.325 -83.4978 -43.325C-83.0313 -43.325 -82.5075 -43.4297 -81.9934 -43.4202C-81.5077 -43.4202 -81.0126 -41.9729 -80.5079 -41.9824C-80.0128 -41.9824 -79.5271 -42.6108 -79.032 -42.6489C-78.5273 -42.6965 -78.0607 -42.8394 -77.5846 -42.9441C-77.0895 -43.0584 -76.242 -42.2966 -75.7945 -42.4966C-75.366 -42.687 -75.5945 -44.1153 -75.2041 -44.3629C-74.8137 -44.62 -74.1757 -44.4772 -73.8044 -44.7438C-73.4235 -45.0199 -72.9569 -45.1628 -72.5855 -45.4103C-72.1856 -45.677 -71.6238 -45.4484 -71.2144 -45.6198C-70.7859 -45.8007 -70.5764 -47.0862 -70.1098 -47.0862C-69.6051 -47.0862 -69.0909 -46.2959 -68.7672 -45.8388C-68.5196 -45.4865 -68.1387 -45.0771 -67.9197 -44.5724C-67.7388 -44.1439 -67.5674 -43.6773 -67.3674 -43.2107C-67.177 -42.7632 -66.9675 -42.3442 -66.7294 -41.9157C-66.4914 -41.4872 -66.1867 -41.1825 -65.8725 -40.8016C-65.5582 -40.4208 -65.3773 -40.0494 -64.9583 -39.7733C-64.5679 -39.5162 -64.0728 -39.8685 -63.5586 -39.7256C-63.1206 -39.6114 -62.854 -38.5163 -62.3112 -38.5163C-61.9113 -38.5163 -61.8065 -39.6495 -61.359 -39.8399C-60.9876 -39.9923 -59.8355 -38.6687 -59.426 -38.9067C-59.0642 -39.1162 -58.988 -39.897 -58.6071 -40.1446C-58.2453 -40.3827 -57.8834 -40.6398 -57.5121 -40.8778C-57.1407 -41.1159 -56.7408 -41.2873 -56.3694 -41.5063C-55.9885 -41.7348 -55.96 -42.6204 -55.5696 -42.8108C-55.1411 -43.0203 -54.1412 -42.0205 -53.7032 -42.2204C-53.2747 -42.4204 -52.9224 -42.8013 -52.4844 -43.0012C-52.0464 -43.2012 -51.9892 -44.2201 -51.5512 -44.42C-51.1132 -44.62 -50.2753 -43.9439 -49.8468 -44.1439C-49.4088 -44.3439 -49.2278 -45.0961 -48.7993 -45.2961C-48.3518 -45.5151 -48.3899 -46.553 -47.9614 -46.8291C-47.5329 -47.1053 -47.0568 -47.2481 -46.6569 -47.5338C-46.2379 -47.8385 -45.1334 -47.1529 -44.7334 -47.429C-44.2859 -47.7337 -44.4573 -49.0478 -44.0383 -49.2478C-43.5432 -49.4858 -42.7909 -50.0095 -42.3243 -50.0095C-41.8006 -50.0095 -40.8198 -49.2763 -40.4675 -48.8478C-40.1914 -48.505 -40.8008 -47.4481 -40.5627 -46.9529C-40.3533 -46.5244 -39.6391 -46.3054 -39.4106 -45.8388C-39.2011 -45.3913 -38.7536 -45.1056 -38.4869 -44.6676C-38.2298 -44.2391 -38.287 -43.6392 -37.9537 -43.2679C-37.6204 -42.906 -37.1443 -42.8108 -36.6968 -42.5442C-36.2873 -42.2966 -35.8017 -42.6775 -35.278 -42.5442C-34.8304 -42.4299 -34.5543 -41.9824 -34.002 -41.9824C-33.5259 -41.9824 -33.0784 -41.6586 -32.6213 -41.8205C-32.1833 -41.9729 -31.5453 -41.811 -31.1168 -42.0586C-30.7074 -42.2966 -30.0694 -42.249 -29.66 -42.5251C-29.26 -42.7918 -29.7076 -44.3439 -29.3076 -44.601C-28.8982 -44.8676 -27.8888 -44.1153 -27.4699 -44.3248C-27.0319 -44.5438 -26.6129 -44.401 -26.1558 -44.5057C-25.7083 -44.6105 -25.575 -46.2483 -25.1084 -46.3435C-24.6513 -46.4387 -24.0514 -45.8769 -23.5849 -45.9626C-23.1183 -46.0483 -22.6041 -45.7817 -22.1375 -45.8484C-21.6709 -45.915 -21.2615 -46.4863 -20.7949 -46.534C-20.3188 -46.5816 -19.7951 -45.9531 -19.3285 -45.9817C-18.8524 -46.0102 -18.3953 -46.3911 -17.9383 -46.3911C-17.4241 -46.3911 -17.0908 -45.4294 -16.5956 -45.3246C-16.091 -45.2199 -15.2816 -46.3245 -14.8055 -46.1435C-14.3199 -45.9626 -14.396 -44.5534 -13.9485 -44.3343C-13.4819 -44.1058 -12.5488 -44.8105 -12.1203 -44.5724C-11.6537 -44.3058 -10.9109 -44.5534 -10.5015 -44.3153C-10.0825 -44.0772 -10.0635 -43.1441 -9.69212 -42.8394C-9.31123 -42.5442 -9.30172 -41.8586 -8.95892 -41.5253C-8.61613 -41.192 -8.11145 -41.0302 -7.7877 -40.6874C-7.45442 -40.3351 -6.39748 -40.6874 -6.07373 -40.3446C-5.73093 -39.9923 -6.2356 -38.802 -5.89281 -38.4878C-5.5405 -38.1735 -4.34072 -38.9258 -3.99792 -38.6592C-3.62656 -38.3735 -4.01698 -37.069 -3.64561 -36.8404C-3.24568 -36.6024 -2.48389 -37.1356 -2.07444 -36.9642C-1.65547 -36.7928 -1.446 -36.0025 -0.988937 -35.9168C-0.560448 -35.8311 -0.0653 -36.012 0.410805 -36.012C0.886909 -36.012 1.23923 -36.6119 1.6963 -36.7071C2.15336 -36.8024 2.96275 -35.8121 3.40076 -35.993C3.82925 -36.1739 3.9435 -37.0499 4.33391 -37.3166C4.71479 -37.5736 5.26707 -37.6593 5.60986 -37.9926C5.94313 -38.3164 5.84793 -39.002 6.13359 -39.3828C6.40974 -39.7542 6.57159 -40.1446 6.80013 -40.5636C7.02866 -40.9826 8.44746 -40.8778 8.62838 -41.3349C8.81882 -41.7824 7.71426 -42.7537 7.88565 -43.2107C8.06657 -43.6773 9.21875 -43.7345 9.40919 -44.1629C9.60916 -44.6295 9.57105 -45.1247 9.8091 -45.5151C10.0852 -45.9626 9.78055 -46.9244 10.1424 -47.191C10.5233 -47.4766 11.2565 -47.3529 11.7802 -47.3529C12.2563 -47.3529 12.9895 -47.6861 13.4656 -47.4671C13.8846 -47.2672 14.3416 -46.8577 14.7701 -46.553C15.1605 -46.2769 15.5319 -45.9055 15.9318 -45.5913C16.3127 -45.2866 16.1223 -44.2201 16.5222 -43.9249C16.9221 -43.6297 17.5125 -43.5535 17.941 -43.306C18.3695 -43.0584 18.9027 -42.9346 19.3693 -42.7727C19.8264 -42.6108 20.3025 -42.1062 20.7976 -42.0681C21.2737 -42.0205 21.8641 -41.6682 22.3592 -41.6967C22.8448 -41.7253 23.3495 -42.0871 23.8447 -42.1538C24.3303 -42.2109 24.6255 -43.6964 25.1111 -43.7725C25.5967 -43.8392 26.2538 -42.5537 26.7394 -42.6108C27.2345 -42.6585 27.6726 -42.887 28.1487 -42.887C28.3962 -42.887 28.4438 -42.687 28.6819 -42.268C28.9676 -41.7729 29.4246 -41.4396 29.4436 -41.4396C29.8817 -41.4396 30.1483 -40.6302 30.5578 -40.535C30.9862 -40.4303 31.9003 -41.592 32.2717 -41.3825C32.6526 -41.1635 32.8526 -40.4588 33.1287 -40.1256C33.3953 -39.8018 33.8714 -39.4019 34.0047 -38.9734C34.1285 -38.5925 33.3763 -38.0117 33.3763 -37.5451C33.3763 -36.9738 33.5762 -36.4976 33.6524 -36.0692C33.7286 -35.6026 34.7284 -35.3264 34.8237 -34.7932C34.8903 -34.3837 33.5382 -33.7458 33.5858 -33.1744C33.6143 -32.7555 34.0619 -32.327 34.0619 -31.7652C34.0619 -31.2605 34.0619 -30.7558 34.1285 -30.3083C34.1952 -29.8227 35.0617 -29.556 35.195 -29.118C35.3378 -28.6705 34.7665 -27.9658 34.976 -27.5278C35.1664 -27.1184 36.3948 -27.2612 36.6423 -26.8327C36.8709 -26.4423 36.3091 -25.5663 36.5757 -25.1473C36.8233 -24.7664 36.9566 -24.3379 37.1756 -23.957C37.4041 -23.5666 38.2516 -23.519 38.4516 -23.1381C38.6706 -22.7287 38.4992 -22.1288 38.6896 -21.7479C38.8991 -21.3194 38.8324 -20.7957 38.9943 -20.4243C39.1943 -19.9577 39.0038 -19.415 39.1467 -19.0531C39.4228 -18.3295 39.2133 -18.0628 39.2133 -17.9962C39.2133 -17.5296 39.3276 -17.3106 39.1943 -16.9012C39.0515 -16.4727 39.2324 -16.0156 39.0134 -15.6252C38.7944 -15.2348 39.5466 -14.2826 39.3181 -13.9017C39.0896 -13.5113 39.0134 -13.2066 38.8515 -12.7971C38.6896 -12.3782 37.1946 -12.2829 37.1946 -11.8259C37.1946 -11.3402 38.3183 -11.0736 38.4992 -10.6356C38.6706 -10.2166 38.2611 -9.50248 38.5563 -9.09303C38.8229 -8.73118 39.8704 -9.00732 40.2036 -8.63596C40.5083 -8.30269 40.0227 -7.19812 40.3655 -6.84581C40.7273 -6.48397 41.5462 -6.55062 41.889 -6.16021C42.2318 -5.76981 41.9747 -4.91282 42.2604 -4.50337C42.5556 -4.06535 43.9172 -4.16057 44.0982 -3.69398C44.2886 -3.20836 44.4695 -2.42755 44.4695 -1.90383C44.4695 -1.38012 43.5744 -0.913532 43.4221 -0.446949C43.2697 0.0196342 43.8601 0.886147 43.6316 1.33369C43.4031 1.78122 42.3651 1.80027 42.1271 2.22876C41.8795 2.6763 41.7557 3.16193 41.5843 3.59995C41.3939 4.07605 40.6797 4.49503 40.6797 4.98066C40.6797 5.35202 40.6512 6.11378 40.8987 6.57085C41.0892 6.91364 42.2223 6.75177 42.508 7.13265C42.7555 7.46592 43.2031 7.65636 43.4887 8.01821C43.7554 8.35148 43.4887 9.14182 43.7649 9.49413C44.041 9.83693 44.8313 9.78931 45.098 10.1512C45.4217 10.5797 45.4693 11.2367 45.6503 11.6937C45.8407 12.1698 45.0123 12.865 45.098 13.3696C45.1837 13.8648 45.6884 14.2552 45.7074 14.7789C45.7264 15.2836 46.0978 15.7787 46.0978 16.2929C46.0978 16.6643 45.3741 17.1213 45.3837 17.5879C45.3932 18.0164 46.831 18.502 46.7929 18.921C46.7548 19.3971 46.6215 20.1399 46.4406 20.4731C46.2406 20.8635 45.1932 20.8064 44.6981 20.8064C44.3267 20.8064 44.0125 20.2541 43.5173 20.0351C43.1174 19.8542 42.3461 20.3112 41.9367 20.0827C41.5177 19.8447 41.6319 18.6639 41.2701 18.4544C40.7083 18.1307 39.6799 18.1973 39.4514 18.1973C39.1657 18.6068 39.2895 19.359 39.0705 19.7209C38.8039 20.1494 39.2705 20.9111 39.0705 21.273C38.8229 21.7205 38.0516 21.8253 37.8421 22.1776C37.585 22.6156 36.6614 22.3966 36.3567 22.6918C36.0425 22.987 36.3567 24.4058 35.8616 24.5772C35.4997 24.7009 34.8236 24.3105 34.2999 24.3772C33.9 24.4248 33.4049 23.9201 32.8907 23.9487C32.4812 23.9677 32.0337 24.3867 31.529 24.3867C31.0243 24.3867 30.5578 24.5676 30.0816 24.5676C29.596 24.5676 29.1294 23.5773 28.6533 23.5678C28.1582 23.5583 27.6535 24.3581 27.1869 24.3201C26.6918 24.282 26.13 24.6248 25.6729 24.5391C25.1778 24.4534 24.854 23.6821 24.4255 23.5202C23.978 23.3488 23.6828 22.9203 23.2829 22.7203C22.8544 22.5013 22.6449 22.0062 22.264 21.7681C21.845 21.511 20.9785 22.0348 20.6072 21.7967C20.1787 21.5206 20.0168 20.8731 19.6454 20.6921C19.1789 20.4541 18.6361 21.0064 18.2171 21.0064C17.7601 21.0064 17.3697 21.1778 16.8745 21.2444C16.4174 21.3111 16.0651 21.5682 15.5986 21.692C15.151 21.8157 14.5321 21.3016 14.075 21.4825C13.637 21.6539 12.8847 21.2159 12.4562 21.4349C12.0373 21.6539 12.0373 22.6251 11.6374 22.8917C11.247 23.1488 10.847 23.3774 10.4661 23.6821C10.1233 23.9677 9.35204 23.8059 9.02829 24.1296C8.71406 24.4438 8.59979 24.9771 8.28557 25.2913C7.97134 25.6151 7.28577 25.4818 6.94298 25.7674C6.60018 26.0626 6.30498 26.1769 5.91457 26.3959C5.53369 26.6149 5.51466 27.4243 5.06712 27.5481C4.65768 27.6623 4.2387 26.8815 3.75307 26.8815C3.26744 26.8815 2.76276 27.4528 2.27713 27.4528C1.77246 27.4528 1.28685 28.0813 0.810745 28.0813C0.306076 28.0813 -0.189087 27.967 -0.665192 27.948C-1.17938 27.9194 -1.56025 27.0434 -2.01731 26.9767C-2.53151 26.9005 -3.28375 27.967 -3.71224 27.8147C-4.19787 27.6433 -4.00743 26.3864 -4.36927 26.0912C-4.74063 25.7865 -4.7692 25.4246 -5.05486 25.0342C-5.331 24.6533 -6.90217 25.0723 -7.1307 24.6343C-7.34971 24.2058 -7.41637 23.663 -7.6068 23.2155C-7.79725 22.768 -8.06385 22.349 -8.24477 21.911C-8.42569 21.4539 -8.6923 21.0921 -8.89227 20.6636C-9.10175 20.216 -8.83513 19.5876 -9.10175 19.2162C-9.36837 18.8258 -9.44454 18.2926 -9.72068 17.8831C-9.9873 17.4832 -9.79688 16.7214 -10.0921 16.331C-10.3872 15.9406 -11.8156 16.5405 -12.1488 16.1977C-12.4916 15.8454 -12.2155 14.8837 -12.6154 14.617C-13.0153 14.3504 -13.3391 13.7124 -13.8152 13.5696C-14.2532 13.4363 -14.8817 13.8457 -15.3959 13.8457C-15.8434 13.8457 -16.4147 13.5029 -16.8337 13.6363C-17.2527 13.7696 -17.5574 14.3314 -17.9383 14.5599C-18.3191 14.7884 -18.6524 15.0931 -18.9762 15.3883C-19.3094 15.693 -20.2426 15.5407 -20.5092 15.8835C-20.7949 16.2548 -20.9091 16.8928 -21.0805 17.2642C-21.29 17.7212 -20.3664 18.3973 -20.3664 18.7782C-20.3664 19.2448 -20.4426 19.6447 -20.3664 20.1018C-20.2902 20.5684 -20.414 21.0921 -20.414 21.5491C-20.414 21.9871 -20.9091 22.4156 -20.9758 22.8917C-21.0424 23.3583 -19.976 24.1391 -20.1093 24.5676C-20.2617 25.0437 -21.1091 25.3675 -21.3472 25.7103C-21.6519 26.1293 -22.2613 26.4149 -22.7183 26.4149C-23.0707 26.4149 -23.2611 25.6912 -23.7277 25.2913C-24.0514 25.0152 -24.499 24.8247 -24.8703 24.4534C-25.1941 24.1296 -25.8321 24.082 -26.1749 23.7297C-26.5081 23.3964 -26.1273 22.2633 -26.4796 21.9395C-26.8414 21.6158 -27.9745 22.2062 -28.3554 21.9395C-28.7077 21.692 -28.8696 21.1301 -29.241 20.835C-29.5933 20.5493 -30.3265 20.7493 -30.6883 20.4636C-31.0502 20.1779 -30.7931 19.0543 -31.1644 18.8068C-31.5549 18.5497 -31.9167 17.9879 -32.3166 17.826C-32.7546 17.6451 -33.4783 17.9212 -33.9258 17.9212C-34.421 17.9212 -34.9257 17.9212 -35.3446 17.9879C-35.8398 18.064 -36.2302 18.5401 -36.6206 18.683C-37.0872 18.8639 -36.9634 19.7399 -37.2967 20.0065C-37.6776 20.3017 -38.8392 19.7304 -39.0868 20.1018C-39.3439 20.4827 -39.7724 20.9016 -39.9343 21.3301C-40.0962 21.7586 -39.401 22.4918 -39.5153 22.9298C-39.6391 23.3869 -40.4104 23.644 -40.5342 24.063C-40.677 24.5486 -39.9438 25.3865 -40.1628 25.8055C-40.3818 26.234 -40.6294 26.9862 -41.0103 27.3195C-41.3436 27.6052 -41.9815 28.0146 -42.4957 28.2146C-42.8957 28.3765 -43.5717 28.2432 -44.1145 28.3479C-44.543 28.4241 -45.1333 27.8432 -45.6761 27.8813C-46.1236 27.9099 -46.5997 28.9288 -47.133 28.9288C-47.6281 28.9288 -48.1138 28.1765 -48.628 28.2527C-49.1136 28.3289 -49.6659 28.1384 -50.1705 28.2527C-50.6562 28.367 -51.2656 28.0432 -51.7512 28.167C-52.2463 28.2908 -52.751 28.2717 -53.2366 28.3765C-53.7318 28.4907 -54.0365 29.4906 -54.5316 29.5572C-55.0363 29.6334 -55.56 28.7193 -56.0552 28.7193C-56.5503 28.7193 -57.074 30.1 -57.493 30.0428C-57.9882 29.9762 -58.4738 30.0048 -58.8737 29.9381C-59.3879 29.8524 -59.7212 29.0716 -60.1021 29.1668C-60.4925 29.262 -60.6448 29.6334 -60.94 30.119C-61.1781 30.5094 -60.6353 31.0998 -60.7781 31.614C-60.9019 32.033 -62.7778 32.1472 -62.8349 32.6805C-62.892 33.1185 -61.5494 33.7374 -61.5685 34.2707C-61.5875 34.7182 -63.0539 35.1848 -63.0539 35.718C-63.0539 36.0608 -62.7492 35.8799 -63.3681 36.2037C-63.7395 36.4036 -64.1394 36.5464 -64.6536 36.7369C-65.0821 36.8892 -65.5201 37.0702 -66.0153 37.2225C-66.4723 37.3558 -67.0246 37.1559 -67.5103 37.2892C-67.9864 37.4225 -68.3196 38.0509 -68.7957 38.1747C-69.2147 38.2795 -69.5194 39.0032 -69.9765 39.0984C-70.4145 39.1936 -71.0334 38.527 -71.4905 38.6318C-71.9475 38.7365 -72.1666 39.8221 -72.6046 39.9268C-73.0712 40.0411 -73.6044 39.784 -74.0043 39.9173C-74.4995 40.0696 -75.0708 39.9173 -75.4231 40.0982C-75.9564 40.3743 -76.4706 40.898 -76.4706 41.2789C-76.4706 41.6979 -75.7278 41.7931 -75.2612 42.1074C-74.928 42.3264 -74.4043 42.2216 -73.9567 42.4406C-73.5663 42.6311 -73.1759 42.9072 -72.7569 43.1262C-72.357 43.3357 -72.5951 44.5545 -72.2237 44.8307C-71.8523 45.0973 -70.7763 44.5831 -70.4907 44.9354C-70.205 45.2782 -70.4716 46.0114 -70.3193 46.459C-70.186 46.8589 -70.0907 47.2493 -70.0907 47.754C-70.0907 48.3443 -71.8999 48.0492 -72.0809 48.7633C-72.3951 49.0775 -71.4524 49.5251 -71.7952 49.8203L-71.8143 49.8012Z" fill="#8FB44A"/>
                <path d="M-73.2511 -84.0862C-73.5797 -84.3663 -73.8759 -84.7569 -74.2745 -84.9885C-74.6529 -85.2134 -74.976 -85.5905 -75.3881 -85.7818C-75.7813 -85.9757 -76.1624 -86.2195 -76.565 -86.4121C-76.9677 -86.6047 -77.4484 -86.6033 -77.816 -86.8202C-78.2052 -87.0532 -79.1128 -86.6061 -79.4414 -86.8863C-79.7915 -87.1825 -80.0648 -87.5475 -80.4917 -87.8424C-80.8876 -88.1226 -80.7192 -89.2335 -81.1245 -89.5123C-81.5406 -89.7992 -82.0456 -89.9002 -82.4064 -90.2045C-82.8091 -90.5318 -82.8952 -91.0004 -83.1699 -91.3748C-83.4783 -91.7829 -83.458 -91.9781 -83.5267 -92.4589C-83.5953 -92.9396 -84.0801 -93.2359 -83.9804 -93.683C-83.8794 -94.1206 -83.2451 -94.192 -82.9946 -94.5932C-82.7697 -94.9716 -82.9905 -95.5749 -82.6538 -95.9116C-82.3414 -96.2159 -82.4693 -97.1787 -82.0639 -97.4386C-81.6936 -97.6742 -81.0459 -97.584 -80.6109 -97.7711C-80.2028 -97.9448 -79.7544 -98.1724 -79.3006 -98.2949C-78.875 -98.4134 -78.475 -99.1149 -78.0037 -99.1822C-77.5324 -99.2495 -77.0288 -99.0906 -76.548 -99.1592C-76.0484 -99.2306 -75.6552 -99.1713 -75.2135 -99.3113C-74.7247 -99.4581 -74.3072 -99.4311 -73.8938 -99.6344C-73.4359 -99.8633 -72.2348 -98.9287 -71.8712 -99.2114C-71.4725 -99.5184 -72.0111 -100.865 -71.7148 -101.215C-71.3862 -101.608 -70.0127 -101.352 -69.8107 -101.756C-69.5709 -102.233 -71.0629 -103.386 -70.9067 -103.841C-70.7383 -104.346 -69.9667 -104.668 -69.7471 -105.084C-69.5115 -105.522 -68.787 -105.5 -68.3156 -105.769C-67.952 -105.985 -67.6396 -106.424 -67.0363 -106.51C-66.3859 -106.603 -65.9819 -106.266 -65.6991 -105.768C-65.4675 -105.358 -64.7511 -105.326 -64.3741 -104.909C-64.0657 -104.568 -64.2988 -103.438 -63.674 -103.306C-63.2579 -103.221 -62.5751 -102.818 -61.9436 -102.909C-61.5194 -102.969 -60.7693 -103.038 -60.3303 -103.264C-59.9357 -103.465 -60.4258 -105.145 -60.0447 -105.44C-59.6797 -105.714 -59.1855 -105.755 -58.8461 -106.073C-58.4973 -106.392 -57.4564 -105.973 -57.1372 -106.298C-56.7925 -106.645 -57.3445 -107.817 -57.0523 -108.128C-56.7519 -108.45 -55.6437 -108.165 -55.412 -108.564C-55.179 -108.953 -55.8388 -109.802 -55.6476 -110.214C-55.459 -110.645 -54.919 -110.904 -54.7547 -111.303C-54.5715 -111.772 -54.5284 -112.278 -54.3587 -112.639C-54.0826 -113.198 -53.618 -114.053 -53.2975 -114.099C-53.0807 -114.129 -52.5528 -113.195 -51.8917 -112.943C-51.5052 -112.796 -51.0029 -112.781 -50.4845 -112.653C-50.0562 -112.551 -49.5822 -112.599 -49.0772 -112.566C-48.6301 -112.533 -48.0323 -111.445 -47.5327 -111.517C-47.0802 -111.581 -46.8257 -112.022 -46.3073 -111.894C-45.8588 -111.785 -45.4225 -111.693 -44.9351 -111.512C-44.488 -111.345 -43.9601 -111.353 -43.4929 -111.18C-43.0256 -111.006 -42.4465 -111.194 -41.986 -111.068C-41.4958 -110.936 -41.0285 -111.301 -40.5531 -111.272C-40.0589 -111.247 -39.8731 -111.495 -39.4044 -111.648C-38.991 -111.784 -38.4012 -111.359 -37.9824 -111.524C-37.573 -111.688 -37.4316 -112.449 -37.0155 -112.634C-36.6074 -112.807 -35.9813 -112.464 -35.5651 -112.648C-35.1584 -112.832 -34.8648 -113.268 -34.4582 -113.451C-34.0501 -113.625 -33.564 -113.656 -33.1452 -113.821C-32.7358 -113.985 -32.1217 -113.659 -31.7016 -113.816C-31.2895 -113.961 -31.1036 -114.613 -30.6983 -114.805C-30.3024 -114.997 -30.0168 -115.355 -29.6236 -115.565C-29.2398 -115.774 -28.2824 -114.929 -27.8892 -115.139C-27.5054 -115.348 -27.7881 -116.856 -27.3935 -117.057C-26.9989 -117.257 -26.2758 -116.841 -25.8678 -117.015C-25.4597 -117.189 -25.0463 -117.392 -24.6235 -117.529C-24.2019 -117.676 -23.9286 -118.052 -23.5246 -118.254C-23.13 -118.454 -22.5981 -118.367 -22.2075 -118.596C-21.8264 -118.823 -21.8142 -119.681 -21.4237 -119.91C-21.0426 -120.137 -20.5618 -120.273 -20.17 -120.493C-19.7781 -120.712 -19.0819 -120.417 -18.6752 -120.6C-18.2685 -120.784 -17.6491 -120.353 -17.2141 -120.472C-16.7886 -120.591 -16.4276 -120.893 -15.9913 -121.003C-15.5644 -121.112 -15.3489 -122.162 -14.9099 -122.254C-14.4817 -122.353 -13.9996 -122.278 -13.5606 -122.37C-13.131 -122.46 -12.5022 -121.626 -12.0726 -121.716C-11.643 -121.807 -11.3925 -122.814 -10.9535 -122.905C-10.5239 -122.996 -9.90448 -122.228 -9.46547 -122.32C-9.02781 -122.42 -8.69109 -123.43 -8.24266 -123.456C-7.80366 -123.48 -7.30407 -123.282 -6.85026 -123.27C-6.40587 -123.257 -6.00465 -122.063 -5.55892 -122.04C-5.11319 -122.018 -4.59733 -123.592 -4.14217 -123.57C-3.69778 -123.557 -3.26425 -122.272 -2.82256 -122.277C-2.37278 -122.293 -1.86242 -122.155 -1.41937 -122.218C-0.976325 -122.281 -0.785025 -123.501 -0.328505 -123.672C0.0997339 -123.839 0.599329 -123.776 1.02757 -124.01C1.43831 -124.232 1.7898 -124.533 2.19515 -124.792C2.59108 -125.051 2.95065 -125.362 3.3358 -125.629C3.73038 -125.897 4.70665 -125.324 5.09315 -125.581C5.49716 -125.851 5.54973 -126.628 5.94969 -126.858C6.37524 -127.111 6.65134 -127.67 7.06746 -127.854C7.52937 -128.055 8.08284 -128.153 8.52589 -128.217C8.96893 -128.28 9.48871 -128.075 9.94117 -127.938C10.3438 -127.812 11.1828 -128.269 11.5935 -128.02C11.9625 -127.793 11.8695 -126.761 12.2384 -126.467C12.5858 -126.19 12.7932 -125.748 13.1258 -125.44C13.4584 -125.131 13.7977 -124.843 14.1128 -124.522C14.4387 -124.194 14.3134 -123.454 14.619 -123.133C14.9126 -122.828 15.8189 -123.083 16.1448 -122.754C16.4491 -122.442 16.181 -121.557 16.4948 -121.246C16.8099 -120.925 18.1242 -121.555 18.4205 -121.232C18.7288 -120.892 18.0379 -119.735 18.2884 -119.395C18.5725 -119.022 19.3118 -119.032 19.5084 -118.666C19.7319 -118.245 20.6799 -117.938 20.7378 -117.533C20.8131 -117.005 20.6663 -116.282 20.5707 -115.874C20.4656 -115.397 19.9498 -114.9 19.6966 -114.518C19.4434 -114.135 19.0529 -113.772 18.7364 -113.429C18.4293 -113.087 18.572 -112.424 18.2785 -112.055C18.0024 -111.698 17.0045 -111.883 16.8079 -111.441C16.6341 -111.041 16.3783 -110.61 16.3244 -110.112C16.2785 -109.692 17.2144 -109.335 17.2885 -108.816C17.3544 -108.355 17.5321 -107.851 17.5954 -107.341C17.664 -106.86 16.3012 -106.165 16.382 -105.667C16.452 -105.177 17.1428 -104.785 17.2505 -104.3C17.3689 -103.807 17.5763 -103.365 17.7473 -102.909C17.9304 -102.435 17.2961 -101.488 17.5573 -101.073C17.8064 -100.676 19.188 -101.104 19.4883 -100.753C19.798 -100.403 19.7468 -99.7508 20.0632 -99.4209C20.3905 -99.0828 20.5978 -98.6411 20.8954 -98.3085C21.2159 -97.9503 21.069 -97.3618 21.2966 -96.9807C21.5363 -96.5821 22.8385 -96.5564 22.9044 -96.0945C22.9757 -95.5949 22.266 -94.9741 21.8593 -94.589C21.5455 -94.2942 21.194 -93.8592 20.7254 -93.5711C20.3268 -93.3314 19.8891 -93.0958 19.4555 -92.8318C19.0394 -92.5801 18.6542 -92.3135 18.2637 -92.0172C17.8731 -91.721 17.6145 -91.3763 17.2819 -91.0114C16.9493 -90.6464 16.6072 -90.4148 16.3931 -89.961C16.1937 -89.5382 16.6125 -89.0978 16.5438 -88.5686C16.4926 -88.1189 15.4462 -87.7001 15.5229 -87.1628C15.5795 -86.7669 16.716 -86.8234 16.9678 -86.4073C17.1711 -86.0612 16.0237 -84.7335 16.3173 -84.3618C16.5758 -84.0332 17.3595 -84.0681 17.6585 -83.7261C17.9453 -83.4015 18.2509 -83.0797 18.5391 -82.7457C18.8273 -82.4117 19.0535 -82.04 19.3228 -81.7033C19.6028 -81.3586 20.4835 -81.4555 20.7273 -81.0959C20.9952 -80.7013 20.1468 -79.5702 20.4066 -79.1649C20.6652 -78.769 21.092 -78.474 21.3519 -78.0687C21.6118 -77.6633 22.6285 -77.7508 22.8884 -77.3454C23.1482 -76.9401 22.5974 -76.015 22.8559 -75.619C23.1158 -75.2137 23.8861 -75.1409 24.1446 -74.745C24.4247 -74.3329 25.4468 -74.5173 25.7807 -74.1322C26.1146 -73.747 26.3233 -73.2959 26.6627 -72.9403C27.0235 -72.5687 26.501 -71.3783 26.8309 -71.0214C27.1958 -70.6214 28.4724 -70.9768 28.7296 -70.5903C29.0352 -70.1338 29.66 -69.4632 29.726 -69.0013C29.8 -68.4828 29.2128 -67.4082 28.8384 -66.9989C28.5381 -66.6771 27.4056 -67.131 26.9491 -66.8253C26.5545 -66.5573 26.4387 -65.8194 26.0091 -65.5272C25.5956 -65.2566 25.3761 -64.7732 24.9802 -64.4473C24.5923 -64.1322 23.9904 -64.104 23.6698 -63.7215C23.3587 -63.3405 23.3318 -62.8557 23.1311 -62.375C22.9439 -61.9346 23.3896 -61.5077 23.3317 -60.9704C23.2818 -60.5112 22.8778 -60.1746 22.9559 -59.6278C23.0232 -59.1565 22.7659 -58.6677 22.9908 -58.2381C23.2035 -57.826 23.1335 -57.1716 23.4391 -56.7824C23.7327 -56.4107 23.7757 -55.7724 24.1069 -55.4061C24.4274 -55.0479 25.9007 -55.7103 26.2117 -55.3507C26.5335 -54.9831 25.9315 -53.8775 26.1981 -53.4924C26.4769 -53.0897 26.3947 -52.6548 26.563 -52.2171C26.7299 -51.7889 28.3701 -51.8884 28.5304 -51.44C28.6892 -51.001 28.2179 -50.3277 28.3687 -49.8779C28.5195 -49.4281 28.3282 -48.8814 28.4601 -48.4289C28.5921 -47.9765 29.2155 -47.6519 29.3286 -47.1967C29.4431 -46.7321 28.8949 -46.1248 28.9892 -45.667C29.0848 -45.1997 29.5264 -44.8011 29.591 -44.3486C29.6637 -43.8396 28.7588 -43.3737 28.7251 -42.8687C28.6927 -42.3543 29.9006 -41.7092 29.7888 -41.2123C29.6783 -40.7059 28.2724 -40.5822 28.1189 -40.1082C27.9586 -39.614 28.7881 -38.7898 28.613 -38.3319C28.415 -37.8323 28.7651 -37.1321 28.5873 -36.6931C28.4109 -36.2446 27.4897 -36.0939 27.2406 -35.6832C27.0022 -35.2644 26.3249 -35.1581 26.0434 -34.7716C25.7619 -34.3851 25.673 -33.8626 25.3794 -33.4937C25.0777 -33.114 25.5759 -32.1174 25.2823 -31.7485C24.982 -31.3593 23.7324 -31.6907 23.4697 -31.3069C23.2085 -30.9137 24.1228 -29.8323 23.9073 -29.4553C23.677 -29.0473 22.3304 -29.2493 22.1566 -28.8494C21.9775 -28.4198 22.613 -27.7411 22.5013 -27.3115C22.3908 -26.8725 21.638 -26.5534 21.6178 -26.0888C21.5935 -25.6525 21.8426 -25.1879 21.9099 -24.7166C21.9772 -24.2453 22.6209 -23.9813 22.7798 -23.5423C22.9386 -23.1033 22.0727 -22.162 22.3137 -21.754C22.5534 -21.3554 23.4368 -21.3661 23.7559 -21.0173C24.0642 -20.6766 24.2272 -20.142 24.6055 -19.8497C24.9731 -19.5656 25.6384 -19.7567 26.0558 -19.5278C26.4625 -19.3069 26.8719 -19.2019 27.3189 -19.0348C27.766 -18.8678 27.8629 -17.4485 28.3409 -17.334C28.8109 -17.2087 29.6163 -18.4395 30.093 -18.3344C30.5804 -18.2213 30.7999 -17.0887 31.251 -16.9608C31.7411 -16.8288 32.2259 -16.9365 32.6461 -16.756C33.1281 -16.5459 34.0371 -16.9835 34.3522 -16.663C34.6889 -16.3263 34.67 -15.5829 34.744 -15.0645C34.8113 -14.5932 35.2449 -13.9145 35.0954 -13.4122C34.9566 -12.9691 34.6159 -12.4588 34.3748 -11.9915C34.1566 -11.566 33.8415 -11.1459 33.5869 -10.7056C33.3391 -10.2854 32.2565 -10.3232 32.0208 -9.88554C31.7851 -9.44789 31.7931 -8.8527 31.6086 -8.39351C31.4241 -7.93431 31.3769 -7.38894 31.2826 -6.90416C31.187 -6.4288 30.7547 -5.88614 30.787 -5.39058C30.8071 -4.91253 30.5418 -4.2783 30.6401 -3.79216C30.737 -3.31545 31.1665 -2.86696 31.3025 -2.38621C31.4277 -1.91354 32.94 -1.8313 33.084 -1.36132C33.2187 -0.889993 32.039 -0.0578665 32.1642 0.414807C32.2813 0.898253 32.5694 1.29958 32.6367 1.77091C32.6717 2.016 32.4805 2.09139 32.0994 2.38628C31.6496 2.73906 31.3843 3.23863 31.387 3.25748C31.4489 3.6911 30.6853 4.06947 30.6489 4.48827C30.6058 4.92726 31.8851 5.66797 31.7302 6.06522C31.5672 6.47325 30.8979 6.77083 30.607 7.0913C30.3242 7.40101 29.9956 7.92885 29.5903 8.12139C29.2307 8.29777 28.5493 7.63519 28.0874 7.70114C27.5219 7.7819 27.0788 8.04716 26.6654 8.18314C26.2142 8.32452 26.0822 9.35334 25.5678 9.52298C25.1719 9.64684 24.3492 8.39845 23.7903 8.52634C23.3796 8.61385 23.0186 9.11746 22.4625 9.19688C21.9629 9.26822 21.4633 9.33955 21.0296 9.4688C20.5583 9.60344 20.4169 10.4989 20.0021 10.6928C19.5792 10.8975 18.8009 10.4315 18.3969 10.7008C18.0185 10.9472 18.3335 12.143 17.9443 12.4487C17.5901 12.7301 16.6435 12.2978 16.2664 12.621C15.9243 12.9199 15.519 13.1124 15.1729 13.3831C14.8187 13.6645 14.8914 14.5102 14.5426 14.762C14.1682 15.0367 13.5501 14.9518 13.2 15.1942C12.8054 15.4621 12.2775 15.4701 11.9327 15.6829C11.4991 15.9468 10.9349 15.835 10.5969 16.0275C9.91949 16.4032 9.62593 16.2335 9.55995 16.2429C9.09805 16.3089 8.8974 16.453 8.47321 16.3789C8.02883 16.298 7.60193 16.5418 7.18449 16.3801C6.76704 16.2185 5.93073 17.0978 5.52136 16.9254C5.10257 16.7544 4.79015 16.722 4.36193 16.6196C3.92429 16.5186 3.6187 15.0521 3.16623 15.1167C2.68548 15.1854 2.58036 16.3354 2.17232 16.5764C1.78178 16.8053 1.01692 16.5009 0.653304 16.851C0.332782 17.1661 0.754213 18.164 0.433691 18.5464C0.146834 18.8952 -1.01529 18.5705 -1.31561 18.9597C-1.62267 19.369 -1.44093 20.1703 -1.77896 20.5648C-2.11699 20.9594 -3.00171 20.826 -3.36667 21.1667C-3.75857 21.5208 -3.47183 22.8554 -3.90815 23.1004C-4.36198 23.3576 -5.10938 23.6471 -5.62783 23.7211C-6.14629 23.7951 -6.73471 22.975 -7.21815 22.8901C-7.70158 22.8053 -8.47594 23.5122 -8.95129 23.3492C-9.42664 23.1863 -9.59221 22.1614 -10.0501 21.9863C-10.5281 21.8045 -11.0263 21.7506 -11.4842 21.6429C-11.9824 21.5216 -12.4981 20.8739 -12.9789 20.9425C-13.3465 20.995 -14.1047 21.0744 -14.5222 21.3841C-14.8346 21.6211 -14.5142 22.72 -14.8509 23.0566C-15.1458 23.3488 -15.2711 23.8187 -15.5889 24.1527C-15.8811 24.4638 -16.7012 24.3115 -17.011 24.6347C-17.3113 24.9565 -17.1524 25.7322 -17.4729 26.0473C-17.8514 26.4284 -18.4951 26.5684 -18.922 26.8121C-19.3664 27.0679 -20.1716 26.3461 -20.6591 26.5022C-21.1372 26.6571 -21.4523 27.2119 -21.9681 27.3047C-22.465 27.3949 -22.9027 27.8326 -23.4117 27.9053C-23.7793 27.9578 -24.3341 27.3059 -24.7947 27.3813C-25.2175 27.4513 -25.495 28.9434 -25.9152 28.9649C-26.3919 28.9945 -27.146 28.9675 -27.5015 28.8355C-27.9162 28.6927 -28.0077 27.6477 -28.0777 27.1576C-28.1302 26.7899 -27.6279 26.4008 -27.4811 25.8796C-27.3585 25.4582 -27.92 24.7592 -27.7516 24.3216C-27.5752 23.8732 -26.3902 23.8194 -26.2339 23.4316C-25.9929 22.8296 -26.2042 21.821 -26.2365 21.5948C-26.6822 21.3698 -27.4094 21.5987 -27.7986 21.4331C-28.2605 21.2297 -28.9486 21.7993 -29.3351 21.6525C-29.8131 21.4706 -30.0259 20.7219 -30.4043 20.5643C-30.8742 20.3717 -30.788 19.4264 -31.1233 19.1665C-31.4599 18.8971 -32.82 19.4088 -33.0597 18.9428C-33.2334 18.6021 -32.9425 17.8776 -33.0825 17.3686C-33.1862 16.9794 -32.7566 16.4179 -32.8575 15.9129C-32.9342 15.5103 -33.4123 15.1264 -33.4836 14.6268C-33.555 14.1272 -33.8 13.6909 -33.8673 13.2196C-33.936 12.7388 -33.0216 12.137 -33.0794 11.6643C-33.14 11.1728 -34.0032 10.7862 -34.0314 10.3189C-34.0637 9.82338 -34.4825 9.31568 -34.4622 8.85109C-34.4474 8.3488 -33.7296 7.91928 -33.6299 7.4722C-33.5235 7.00493 -33.141 6.65213 -32.9996 6.22795C-32.8434 5.7728 -32.3828 5.49544 -32.201 5.08474C-32.0057 4.63363 -32.6466 3.84983 -32.4635 3.44855C-32.2507 2.98532 -31.6326 2.73356 -31.5059 2.34035C-31.3362 1.84481 -31.9597 1.38557 -32.0189 0.9708C-32.0835 0.518335 -32.3084 0.156073 -32.4444 -0.324682C-32.575 -0.767731 -32.8793 -1.08017 -33.0678 -1.52456C-33.2536 -1.95011 -32.832 -2.63552 -33.0758 -3.06242C-33.3074 -3.47181 -32.9801 -4.27843 -33.2574 -4.67166C-33.5335 -5.05547 -34.495 -4.91816 -34.8155 -5.27639C-35.1252 -5.62653 -35.4079 -5.99015 -35.7634 -6.32413C-36.0947 -6.62311 -36.0434 -7.40955 -36.4097 -7.68428C-36.7652 -7.95094 -37.3092 -7.98868 -37.6647 -8.25533C-38.0296 -8.52064 -37.9946 -9.21816 -38.3258 -9.51714C-38.6665 -9.81477 -38.8214 -10.0909 -39.0934 -10.4464C-39.364 -10.7925 -40.1679 -10.6969 -40.3538 -11.1225C-40.5248 -11.5116 -39.811 -12.0368 -39.8796 -12.5175C-39.9483 -12.9983 -40.5852 -13.4171 -40.6539 -13.8979C-40.7252 -14.3975 -41.416 -14.7894 -41.4833 -15.2607C-41.5546 -15.7603 -41.5115 -16.2667 -41.56 -16.7407C-41.6044 -17.2537 -40.791 -17.7546 -40.7896 -18.2165C-40.7869 -18.7363 -41.949 -19.3303 -41.8587 -19.776C-41.7577 -20.281 -40.4865 -20.2701 -40.2454 -20.67C-39.9962 -21.0807 -39.6421 -21.1602 -39.296 -21.4981C-38.9579 -21.8254 -39.5948 -23.3215 -39.1935 -23.6097C-38.8002 -23.8871 -38.2724 -24.0298 -37.8562 -24.2816C-37.4401 -24.5333 -37.063 -24.8565 -36.655 -25.0975C-36.2281 -25.3412 -35.9076 -25.6563 -35.5116 -25.9148C-35.0982 -26.1855 -34.4384 -26.0104 -34.1084 -26.3268C-33.7596 -26.6459 -33.2425 -26.7967 -32.8762 -27.128C-32.518 -27.4484 -31.7369 -27.3676 -31.3922 -27.715C-31.0474 -28.0624 -31.8432 -29.3916 -31.5509 -29.77C-31.2506 -30.1591 -30.2595 -30.0217 -30.0521 -30.4553C-29.8447 -30.8889 -29.2589 -31.2996 -29.1848 -31.7911C-29.1147 -32.2436 -29.6089 -32.8078 -29.6816 -33.3169C-29.7449 -33.7599 -29.4863 -34.374 -29.6775 -34.7699C-29.8687 -35.1658 -30.4679 -35.388 -30.748 -35.7328C-31.028 -36.0775 -31.3768 -36.3644 -31.7148 -36.6432C-32.0635 -36.93 -32.0446 -37.8754 -32.4217 -38.0908C-32.8297 -38.3211 -33.4774 -38.3441 -33.8693 -38.4613C-34.3513 -38.604 -34.8901 -37.5941 -35.2671 -37.5403C-35.729 -37.4743 -36.1357 -37.4932 -36.5774 -37.3532C-37.0285 -37.2118 -37.5645 -37.2603 -38.017 -37.1957C-38.4506 -37.1338 -38.9448 -37.5634 -39.4255 -37.5621C-39.8968 -37.5621 -40.5191 -36.396 -40.9621 -36.4674C-41.455 -36.5509 -41.8953 -37.3441 -42.2683 -37.5313C-42.7261 -37.7737 -43.095 -38.3366 -43.1596 -38.7891C-43.2094 -39.1379 -42.52 -39.4287 -42.19 -39.9471C-41.9624 -40.3067 -41.8371 -40.7766 -41.522 -41.1968C-41.2472 -41.563 -41.2903 -42.2013 -40.99 -42.5905C-40.7072 -42.9675 -39.5316 -42.7506 -39.2609 -43.1452C-38.9915 -43.5492 -39.7361 -44.5874 -39.526 -45.0022C-39.3307 -45.386 -38.7975 -45.6256 -38.5577 -46.035C-38.3247 -46.4242 -38.6263 -47.1217 -38.3947 -47.5203C-38.163 -47.9189 -37.0144 -47.8232 -36.8218 -48.2258C-36.6224 -48.6487 -36.1174 -49.0863 -36.0137 -49.5051C-35.8965 -49.9643 -36.2722 -50.6417 -36.3355 -51.0847C-36.4055 -51.5749 -36.4768 -52.0745 -36.602 -52.4798C-36.7474 -52.9592 -37.2739 -53.2784 -37.4705 -53.6447C-37.7156 -54.081 -38.5653 -53.8347 -38.8763 -54.1269C-39.2224 -54.4622 -38.821 -55.693 -39.2237 -55.8856C-39.6371 -56.0863 -40.1124 -56.4513 -40.5595 -56.5509C-41.0065 -56.6506 -41.6341 -55.8588 -42.0839 -55.91C-42.5539 -55.968 -42.9174 -56.6952 -43.3497 -56.7585C-43.8506 -56.8313 -44.5765 -55.987 -45.0222 -56.1446C-45.4774 -56.3008 -46.2571 -56.4395 -46.6408 -56.7695C-46.9707 -57.059 -47.4663 -57.6327 -47.7369 -58.1135C-47.9537 -58.4865 -47.9173 -59.1746 -48.0977 -59.6971C-48.2337 -60.1106 -47.7421 -60.7771 -47.8565 -61.309C-47.9481 -61.7481 -49.024 -62.0754 -49.0994 -62.6032C-49.1694 -63.0934 -48.4933 -63.6805 -48.6414 -64.1788C-48.7855 -64.6487 -48.675 -65.2224 -48.8595 -65.7058C-49.0413 -66.1704 -48.8069 -66.8195 -48.9981 -67.2828C-49.1906 -67.7554 -49.2431 -68.2577 -49.4154 -68.7237C-49.5986 -69.1977 -50.6314 -69.358 -50.7674 -69.8388C-50.9141 -70.3276 -50.0832 -70.9753 -50.1532 -71.4655C-50.2232 -71.9556 -51.6641 -72.2789 -51.6667 -72.7018C-51.6708 -73.2014 -51.7677 -73.6781 -51.7582 -74.0834C-51.7461 -74.6046 -51.0202 -75.0449 -51.1683 -75.4085C-51.3178 -75.7815 -51.7069 -75.8798 -52.2294 -76.1034C-52.6495 -76.2839 -53.1573 -75.6631 -53.6865 -75.7318C-54.1188 -75.7951 -54.497 -77.636 -55.033 -77.6172C-55.4747 -77.6118 -55.8976 -76.1952 -56.4282 -76.1387C-56.8739 -76.0943 -57.5431 -77.48 -58.071 -77.4046C-58.4104 -77.3561 -58.1882 -77.0801 -58.5962 -77.647C-58.8466 -77.9864 -59.0445 -78.3621 -59.3058 -78.8442C-59.5172 -79.2469 -59.7582 -79.6549 -59.979 -80.1236C-60.1756 -80.5572 -60.0557 -81.1322 -60.2563 -81.5941C-60.4556 -82.0466 -61.1248 -82.2877 -61.3147 -82.7415C-61.4776 -83.1415 -62.2371 -83.3408 -62.396 -83.7798C-62.5521 -84.2 -61.9798 -84.9069 -62.1481 -85.3446C-62.3164 -85.7822 -63.4219 -85.8456 -63.5876 -86.2644C-63.7666 -86.7102 -63.5875 -87.2744 -63.776 -87.6515C-63.9968 -88.1201 -63.9267 -88.7072 -64.1557 -89.0304C-64.5044 -89.5193 -65.0955 -89.9543 -65.4726 -89.9005C-65.8874 -89.8412 -65.8766 -89.0925 -66.1218 -88.5862C-66.2915 -88.2253 -66.1137 -87.7217 -66.2673 -87.2476C-66.4006 -86.8342 -66.6188 -86.4087 -66.7764 -85.963C-66.9273 -85.5375 -68.1675 -85.6008 -68.3884 -85.1942C-68.5998 -84.7889 -67.9387 -83.7963 -68.2471 -83.4637C-68.546 -83.1325 -69.3096 -83.2928 -69.7311 -83.0787C-70.1082 -82.8902 -70.4812 -82.7408 -70.9808 -82.6694C-71.5652 -82.586 -71.5288 -84.4187 -72.2613 -84.4969C-72.6168 -84.7635 -72.9266 -83.7671 -73.2673 -84.0647L-73.2511 -84.0862Z" fill="#7D9E3F"/>
            </g>
            <path d="M-1 48L30.309 45.2374C32.0546 45.0834 33.8025 45.5068 35.2841 46.4426L80.5 75" stroke="#898481" stroke-width="5"/>
        </g>
    </g>
    <defs>
        <clipPath id="clip0_3442_48580">
            <rect width="99" height="70" fill="white"/>
        </clipPath>
        <clipPath id="clip1_3442_48580">
            <rect width="99" height="70" fill="white"/>
        </clipPath>
        <clipPath id="clip2_3442_48580">
            <rect width="633" height="533" fill="white" transform="translate(-256 -50)"/>
        </clipPath>
    </defs>
</svg>
