<svg width="99" height="70" viewBox="0 0 99 70" fill="none" xmlns="http://www.w3.org/2000/svg">
    <g clip-path="url(#clip0_3442_48573)">
        <g clip-path="url(#clip1_3442_48573)">
            <path d="M223.414 89.706L190.928 -125.596L-24.3745 -93.1105L8.11139 122.192L223.414 89.706Z" fill="white"/>
            <path d="M16.5897 32.0911L70.5744 38.2457L68.1756 53.9295L15.0524 48.376L16.5897 32.0911Z" fill="#B5DA72"/>
            <path fill-rule="evenodd" clip-rule="evenodd" d="M127.13 59.8437L107.808 56.331L102.059 50.544L95.3831 48.6224L92.2018 45.4138L93.748 43.8807L96.5302 46.6867L103.205 48.608L108.871 54.3111L123.068 56.8921L116.059 43.8762L112.906 41.907L114.517 37.2219L101.882 32.6214L102.627 30.5754L117.271 35.9077L115.528 40.9773L117.703 42.3352L127.13 59.8437Z" fill="#C0BBA1"/>
            <path fill-rule="evenodd" clip-rule="evenodd" d="M109.902 42.3047L105.425 47.4599L98.6274 46.3831L94.9499 41.2615L96.7186 39.9915L99.8659 44.3747L104.573 45.1204L107.226 42.0653L104.573 37.6065L99.6735 35.6851L100.468 33.6579L106.063 35.8519L109.902 42.3047Z" fill="#C0BBA1"/>
            <path fill-rule="evenodd" clip-rule="evenodd" d="M-6.21871 34.4557L16.2031 35.8026L16.0725 37.976L-6.34927 36.6292L-6.21871 34.4557Z" fill="#C0BBA1"/>
            <path d="M-3.22626 47.0513L60.1556 51.6515L107.394 65.0778L144.427 86.5003L163.239 100.988L8.43618 124.345L-3.22626 47.0513Z" fill="#82B4FF"/>
            <path fill-rule="evenodd" clip-rule="evenodd" d="M57.7862 -61.8468L75.3902 -43.9095L75.6675 -39.9645L70.9143 -33.522L69.7891 -32.5878L34.0807 -15.3089L33.7842 -15.1843L-9.66164 0.434661L-11.7242 -5.30257L31.5701 -20.867L66.4555 -37.7477L69.219 -41.4934L53.3446 -57.6685L53.1721 -57.8598L16.5492 -102.1L21.2455 -105.988L57.7862 -61.8468Z" fill="#E7E7E7"/>
            <path fill-rule="evenodd" clip-rule="evenodd" d="M228.764 94.451L209.339 91.2163L207.207 89.9769L177.04 52.8547L123.961 0.360255L86.6676 -30.7411L91.1302 -36.0922L128.537 -4.8962L128.756 -4.6977L182.074 48.0337L182.328 48.3136L211.783 84.5598L229.909 87.5779L228.764 94.451Z" fill="#E7E7E7"/>
            <path fill-rule="evenodd" clip-rule="evenodd" d="M142.727 89.0382L161.379 103.403L165.099 98.5725L146.287 84.0852L145.954 83.8616L108.92 62.4392L108.227 62.1457L60.989 48.7193L60.3762 48.6112L-3.00559 44.011L-3.44693 50.0917L59.623 54.6693L106.196 67.9064L142.727 89.0382Z" fill="#E7E7E7"/>
            <path fill-rule="evenodd" clip-rule="evenodd" d="M82.4438 -32.1158L69.2517 54.094L67.0993 53.7647L80.2914 -32.4451L82.4438 -32.1158Z" fill="#E7E7E7"/>
            <path fill-rule="evenodd" clip-rule="evenodd" d="M100.759 -21.0034L84.6338 0.556552L83.5618 0.974634L76.4466 -0.356422L76.847 -2.49669L83.2961 -1.29025L99.0151 -22.3075L100.759 -21.0034Z" fill="#E7E7E7"/>
            <path fill-rule="evenodd" clip-rule="evenodd" d="M17.4056 11.8231L9.47369 -9.67557L11.5165 -10.4293L19.5342 11.3019L19.5967 11.7809L16.1362 48.4782L13.9684 48.2738L17.4056 11.8231Z" fill="#E7E7E7"/>
            <path fill-rule="evenodd" clip-rule="evenodd" d="M71.066 35.8085L65.2408 35.701L64.3345 35.1843L31.8265 -17.4809L33.6794 -18.6246L65.8752 33.5349L71.1062 33.6315L71.066 35.8085Z" fill="#E7E7E7"/>
            <path fill-rule="evenodd" clip-rule="evenodd" d="M75.3372 7.611L60.7453 6.37752L59.9078 5.86L42.4989 -22.6545L44.3573 -23.7891L61.4787 4.25435L75.5206 5.44135L75.3372 7.611Z" fill="#E7E7E7"/>
            <path fill-rule="evenodd" clip-rule="evenodd" d="M56.6286 -1.4819L46.3048 4.03068L45.2792 2.10995L55.603 -3.40262L56.6286 -1.4819Z" fill="#E7E7E7"/>
            <path fill-rule="evenodd" clip-rule="evenodd" d="M105.675 -17.8886L78.5767 27.5853L77.9108 28.0829L72.3427 29.5043L71.8041 27.3946L76.9364 26.0844L103.805 -19.0033L105.675 -17.8886Z" fill="#E7E7E7"/>
            <path fill-rule="evenodd" clip-rule="evenodd" d="M103.144 -4.99508L103.495 -3.57341L88.4601 24.2476L87.3131 24.8022L80.1688 23.5415L80.5472 21.3973L86.9179 22.5214L101.109 -3.73818L91.802 -9.98241L93.0151 -11.7906L103.144 -4.99508Z" fill="#E7E7E7"/>
            <path fill-rule="evenodd" clip-rule="evenodd" d="M140.69 33.0827L154.388 46.7336L155.925 45.1913L142.189 31.5018L142.107 31.4286L117.004 10.9939L115.429 11.2071L92.534 43.3889L70.8735 37.1989L70.2752 39.2924L92.6758 45.694L93.862 45.2783L116.53 13.4159L140.69 33.0827Z" fill="#E7E7E7"/>
            <path fill-rule="evenodd" clip-rule="evenodd" d="M54.2255 18.0757L18.353 12.7556L18.6725 10.6017L54.5449 15.9219L54.2255 18.0757Z" fill="#E7E7E7"/>
            <path fill-rule="evenodd" clip-rule="evenodd" d="M58.8478 25.5569L17.7198 19.4972L18.0372 17.343L59.1652 23.4028L58.8478 25.5569Z" fill="#E7E7E7"/>
        </g>
    </g>
    <defs>
        <clipPath id="clip0_3442_48573">
            <rect width="99" height="70" fill="white"/>
        </clipPath>
        <clipPath id="clip1_3442_48573">
            <rect width="248.393" height="229.833" fill="white" transform="translate(194.26 -151) rotate(81.4197)"/>
        </clipPath>
    </defs>
</svg>
