<svg width="99" height="70" viewBox="0 0 99 70" fill="none" xmlns="http://www.w3.org/2000/svg">
<g clip-path="url(#clip0_3432_1008)">
<rect width="99" height="70" rx="12" fill="#D9D9D9"/>
<g clip-path="url(#clip1_3432_1008)">
<g clip-path="url(#clip2_3432_1008)">
<rect width="275" height="155.722" transform="translate(-15 -31)" fill="#FDFDFD"/>
<g style="mix-blend-mode:multiply">
<path d="M-6.88123 16.0687V31.0988C-0.111244 29.1719 6.58166 27.1422 13.0947 24.8812C14.2123 24.4958 15.33 24.0976 16.4347 23.6865C9.16376 20.6163 1.43031 17.9057 -6.88123 16.0687Z" fill="#B5DA72"/>
</g>
<g style="mix-blend-mode:multiply">
<path d="M30.9382 -28.3537H-6.88123V-4.90925C-2.10242 -3.71455 2.35524 -1.86469 6.49174 -0.194672C14.5078 3.02974 22.6523 6.1 30.4115 9.5428C33.379 10.866 36.3465 12.2148 39.2754 13.5894C42.8338 11.6881 46.2638 9.69695 49.5396 7.60301C55.9499 3.49221 61.9362 -0.926908 67.3445 -5.56441C53.4448 -12.0775 40.9197 -19.6182 30.9382 -28.3408V-28.3537Z" fill="#B5DA72"/>
</g>
<g style="mix-blend-mode:multiply">
<path d="M1.93131 65.5654C11.5917 61.2105 22.2156 57.5236 32.7367 54.1322C41.6006 51.2803 50.5287 48.5441 59.611 46.0134C59.2 45.7693 49.1542 39.9242 44.3754 37.3421C37.3613 39.9885 30.0389 42.3265 22.3826 44.2663C15.5612 45.9877 8.77837 47.799 1.90562 49.4433C-0.98479 50.137 -3.90089 50.7793 -6.88123 51.3189V62.9062C-3.97797 63.8183 -0.997636 64.6533 1.93131 65.5654Z" fill="#E6E6E6"/>
</g>
<g style="mix-blend-mode:multiply">
<path d="M65.4689 95.677C66.0727 96.1138 66.7278 96.5248 67.3702 96.9616C79.7668 92.5682 92.6002 88.5602 105.665 84.9889C100.424 78.8869 94.7841 72.9391 88.2453 67.2611C87.0635 66.2334 85.8559 65.2185 84.6355 64.2036C67.7042 68.4301 52.2758 73.1703 37.22 79.3109C47.5484 84.231 56.605 89.2539 65.4689 95.6898V95.677Z" fill="#B5DA72"/>
</g>
<g style="mix-blend-mode:multiply">
<path d="M74.1144 32.1522C78.0197 34.5288 81.7965 36.9953 85.4448 39.5388C89.1574 38.7167 92.9085 37.9331 96.6982 37.2137C106.744 35.2867 116.957 33.7066 127.259 32.4477C127.041 31.4842 126.848 30.5336 126.643 29.5701C125.615 24.4959 124.87 19.3959 124.459 14.2831C115.171 12.0221 106.153 9.37581 97.4304 6.40833C88.772 14.2702 78.2252 21.3999 66.3296 27.579C68.9631 29.082 71.558 30.6107 74.1016 32.1522H74.1144Z" fill="#E6E6E6"/>
</g>
<path d="M31.9532 22.9029C31.9532 22.9029 30.8484 23.3911 28.8444 24.1875C28.3434 24.3931 27.791 24.6115 27.1872 24.8556C26.5834 25.0868 25.9154 25.3437 25.2089 25.6135C23.8086 26.1659 22.19 26.744 20.4301 27.3991C16.8845 28.658 12.6709 30.0711 8.03341 31.4585C3.40876 32.8459 -1.63983 34.2205 -6.77833 35.4537C-9.51459 36.1217 -12.2894 36.7383 -15.0256 37.3036V37.8303C-12.1866 37.2394 -9.32189 36.597 -6.47002 35.9033C-1.37006 34.6701 3.63999 33.3212 8.23895 31.9467C12.8379 30.5721 17.0258 29.1719 20.5585 27.9258C24.0656 26.654 26.956 25.5493 28.9214 24.7399C29.9106 24.3417 30.6814 24.0205 31.2209 23.8022C31.7348 23.5838 32.0174 23.4553 32.0174 23.4553L42.2045 32.0752C42.2045 32.0752 41.8962 32.2036 41.3181 32.4477C40.74 32.6789 39.8793 33.0386 38.8002 33.4754C36.6292 34.3618 33.469 35.5693 29.6151 36.9696C25.7484 38.3441 21.1623 39.8728 16.1394 41.3759C11.1165 42.8789 5.6697 44.3562 0.120112 45.6922C-4.95416 46.9254 -10.0927 48.0045 -15.0256 48.9551V49.469C-9.9899 48.5055 -4.74862 47.4007 0.428423 46.1418C6.05509 44.7801 11.5918 43.2899 16.6789 41.7612C21.7789 40.2325 26.4164 38.6781 30.3474 37.2779C32.3 36.5585 34.0856 35.9162 35.64 35.3124C36.4237 35.0169 37.143 34.7343 37.8239 34.4646C38.4919 34.1948 39.1085 33.9507 39.6481 33.7195C41.8705 32.8331 43.0909 32.2935 43.0909 32.2935L31.9146 22.8901L31.9532 22.9029Z" fill="#92968A"/>
<path d="M32.1972 23.1086C32.1972 23.1086 31.0924 23.5968 29.371 24.2776C27.6753 24.9842 25.363 25.8834 23.0121 26.7441C20.6741 27.6177 18.2719 28.4527 16.4734 29.0564C14.6621 29.6602 13.4545 30.0584 13.4545 30.0584C13.4545 30.0584 13.159 30.1612 12.6195 30.3282C12.08 30.4952 11.322 30.7393 10.3971 31.0219C8.56008 31.5871 6.08075 32.3322 3.56288 33.0388C1.05786 33.7453 -1.4857 34.4133 -3.39979 34.8886C-5.32673 35.364 -6.61136 35.6851 -6.61136 35.6851C-6.61136 35.6851 -6.93252 35.7622 -7.49775 35.9035C-8.06299 36.032 -8.8723 36.2246 -9.84862 36.443C-11.2874 36.777 -13.0987 37.1753 -15.0128 37.5735V49.2122C-13.741 48.9681 -12.3922 48.7112 -11.069 48.4414C-8.2043 47.8505 -5.36527 47.2339 -3.24564 46.7457C-2.19225 46.5017 -1.30585 46.2961 -0.689231 46.1548C-0.0726109 46.0135 0.274239 45.9236 0.274239 45.9236C0.274239 45.9236 0.621088 45.8337 1.23771 45.6923C1.85433 45.5382 2.72787 45.3327 3.76842 45.0629C5.86236 44.5362 8.63716 43.8039 11.3863 43.0332C14.1354 42.2624 16.8459 41.4531 18.8628 40.8365C19.8648 40.5153 20.7126 40.2584 21.2907 40.0657C21.8817 39.8858 22.2157 39.7702 22.2157 39.7702C22.2157 39.7702 23.5517 39.3334 25.5428 38.6783C27.5212 37.9974 30.1546 37.0982 32.7239 36.1347C35.306 35.1713 37.8624 34.1821 39.738 33.4113C41.6392 32.6534 42.8596 32.1138 42.8596 32.1138L32.1587 23.1086H32.1972Z" fill="#898481"/>
<g style="mix-blend-mode:multiply" opacity="0.5">
<path d="M33.726 31.5485C35.2675 32.4605 36.1668 33.3983 37.8753 34.1691C38.5562 33.8993 39.1985 33.6424 39.7766 33.3983C41.6778 32.6404 42.8982 32.1008 42.8982 32.1008L32.1973 23.0956C32.1973 23.0956 31.0925 23.5838 29.3711 24.2646C27.8553 24.8941 25.8384 25.6777 23.7444 26.4613C27.1487 27.9643 30.7071 29.75 33.726 31.5356V31.5485Z" fill="#898481"/>
</g>
<path d="M2.93337 39.1406C2.54798 39.2434 2.04698 39.3718 1.53313 39.5003C0.518273 39.7572 -0.496582 40.027 -0.496582 40.027L-0.342427 40.2582C-0.342427 40.2582 0.672428 40.0013 1.68728 39.7315C2.20113 39.6031 2.70214 39.4746 3.08753 39.3718C3.46007 39.2691 3.71699 39.2048 3.71699 39.2048L3.54999 38.9865C3.54999 38.9865 3.29307 39.0507 2.92052 39.1535L2.93337 39.1406Z" fill="white"/>
<path d="M37.4257 27.5019C37.4257 27.5019 36.9889 27.6946 36.5521 27.8744C36.1153 28.0671 35.6657 28.2341 35.6657 28.2341L35.8969 28.4397C35.8969 28.4397 36.3466 28.2598 36.7833 28.08C37.2201 27.8873 37.6569 27.7074 37.6569 27.7074L37.4128 27.5019H37.4257Z" fill="white"/>
<path d="M28.9086 30.919C27.9708 31.2659 27.0202 31.6127 27.0202 31.6127L27.2386 31.8182C27.2386 31.8182 28.1764 31.4714 29.127 31.1245C30.0519 30.7649 30.9897 30.4052 30.9897 30.4052L30.7713 30.1996C30.7713 30.1996 29.8464 30.5593 28.9086 30.919Z" fill="white"/>
<path d="M10.911 36.9182C10.4229 37.0724 9.92187 37.2137 9.54933 37.3164C9.17679 37.4192 8.91986 37.4963 8.91986 37.4963L9.09971 37.7147C9.09971 37.7147 9.34379 37.6504 9.72917 37.5348C10.1017 37.432 10.6027 37.2907 11.0909 37.1366C12.08 36.8411 13.0692 36.5457 13.0692 36.5457L12.8894 36.3273C12.8894 36.3273 11.9002 36.6227 10.911 36.9182Z" fill="white"/>
<path d="M21.3678 33.6167C21.0081 33.7323 20.5199 33.8993 20.0446 34.0535C19.0811 34.3746 18.1177 34.6958 18.1177 34.6958L18.3104 34.9142L20.2502 34.2719C20.7383 34.1177 21.2136 33.9507 21.5862 33.8351C21.9459 33.7066 22.1899 33.6296 22.1899 33.6296L21.9844 33.4112C21.9844 33.4112 21.7403 33.4882 21.3935 33.6167H21.3678Z" fill="white"/>
<path d="M42.8981 32.4092C42.8981 32.4092 43.2064 32.2807 43.7845 32.0238C44.3626 31.7668 45.2233 31.42 46.3024 30.9318C47.3686 30.4437 48.6661 29.8656 50.1434 29.1847C50.8756 28.8379 51.6464 28.4654 52.4686 28.08C52.8796 27.8873 53.2907 27.6817 53.7275 27.4762C54.1514 27.2707 54.5753 27.0523 55.0121 26.8339C58.5577 25.0868 62.5143 22.9286 66.6123 20.5135C67.6143 19.8969 68.6805 19.2931 69.6826 18.6508C70.6974 18.0085 71.7123 17.3533 72.7528 16.6982C73.7548 16.0173 74.7568 15.3365 75.7717 14.6556C76.7865 13.9748 77.7372 13.2554 78.7263 12.5488C82.6059 9.70981 86.2799 6.76801 89.4401 3.89045C92.6003 1.01289 95.3622 -1.73621 97.5333 -4.15131C98.0856 -4.75509 98.5995 -5.33317 99.1005 -5.88556C99.563 -6.43795 100.013 -6.97749 100.424 -7.47849C101.246 -8.4805 101.991 -9.3412 102.53 -10.0734C103.648 -11.5251 104.278 -12.3601 104.278 -12.3601L86.6139 -17.0104C86.6139 -17.0104 86.0487 -16.2653 85.0467 -14.955C84.5714 -14.2999 83.9034 -13.5291 83.1583 -12.6298C82.7858 -12.1802 82.3875 -11.7049 81.9764 -11.2039C81.5268 -10.7158 81.0643 -10.2019 80.5762 -9.64951C78.6493 -7.47849 76.1699 -5.0377 73.3566 -2.46845C70.5433 0.0879555 67.2675 2.7086 63.8118 5.23931C62.9254 5.86878 62.0904 6.51109 61.1783 7.11486C60.2791 7.71864 59.3799 8.33526 58.4935 8.93903C57.5685 9.52996 56.6564 10.108 55.7572 10.6861C54.858 11.2642 53.9073 11.8038 53.021 12.3433C49.3726 14.5015 45.827 16.4284 42.654 17.9957C42.2558 18.1883 41.8704 18.3939 41.4978 18.5737C41.1125 18.7536 40.7399 18.9334 40.3674 19.1133C39.6351 19.4601 38.9414 19.7941 38.2863 20.1024C36.9503 20.7062 35.7941 21.2329 34.8435 21.6697C32.8909 22.5047 31.7861 22.9928 31.7861 22.9928L42.9366 32.4092H42.8981ZM103.301 -12.2573C103.301 -12.2573 102.672 -11.4351 101.58 -10.0092C101.053 -9.28982 100.295 -8.44196 99.4859 -7.4528C99.062 -6.96464 98.6509 -6.43795 98.1627 -5.8984C97.6746 -5.35886 97.1607 -4.78078 96.6212 -4.18985C95.5806 -2.99515 94.296 -1.73621 92.9985 -0.400202C92.3562 0.280649 91.6111 0.93581 90.8917 1.62951C90.1595 2.31036 89.4401 3.02975 88.6308 3.72345C87.8343 4.42999 87.025 5.13654 86.2157 5.85593C85.3678 6.56247 84.4943 7.26902 83.6207 7.98841C82.76 8.72065 81.8223 9.41434 80.8973 10.1209C80.4349 10.4806 79.9724 10.8274 79.5099 11.1871C79.0475 11.5468 78.5465 11.8808 78.0712 12.2277C77.0948 12.9214 76.1571 13.6279 75.1679 14.2959C74.1659 14.9639 73.1767 15.6448 72.2004 16.2999C71.1856 16.9423 70.1707 17.5846 69.1815 18.2269C68.1924 18.8692 67.1518 19.4601 66.1627 20.0639C62.1418 22.4405 58.2365 24.5729 54.7552 26.2943C51.2995 28.0414 48.3064 29.4031 46.1996 30.3409C45.159 30.8291 44.2983 31.1631 43.7331 31.42C43.1679 31.6641 42.8596 31.7925 42.8596 31.7925L32.6211 23.1984C32.6211 23.1984 32.9037 23.0828 33.4175 22.8515C33.9314 22.6203 34.715 22.312 35.6528 21.8752C37.5669 21.0145 40.2775 19.7813 43.3991 18.214C46.5464 16.6596 50.0792 14.7327 53.7018 12.5874C54.5882 12.0478 55.5388 11.5083 56.4252 10.9302C57.3244 10.365 58.2365 9.77404 59.1486 9.19596C60.035 8.59219 60.9214 7.98841 61.8206 7.38463C62.7199 6.78086 63.5677 6.13855 64.4413 5.52193C71.3783 0.511885 77.2747 -4.97347 81.1414 -9.27697C81.6296 -9.81651 82.092 -10.3304 82.5288 -10.8185C82.9656 -11.3067 83.3381 -11.782 83.7235 -12.2316C84.4558 -13.118 85.1366 -13.8888 85.6119 -14.5439C86.6011 -15.8414 87.1663 -16.5865 87.1663 -16.5865L103.301 -12.3087V-12.2573Z" fill="#92968A"/>
<path d="M92.5874 0.486172C92.5874 0.486172 91.7653 1.25695 90.5449 2.41311C90.2366 2.70858 89.9154 3.01689 89.5429 3.35089C89.1703 3.67204 88.7849 4.0189 88.3867 4.37859C87.5645 5.08514 86.7424 5.85591 85.8303 6.58815C84.9311 7.33323 84.0318 8.06547 83.184 8.75917C82.3104 9.44002 81.4883 10.0695 80.7817 10.609C80.0752 11.1486 79.4971 11.5982 79.0603 11.9065C78.6364 12.2148 78.3923 12.3947 78.3923 12.3947C78.3923 12.3947 77.416 13.1012 75.9515 14.1546C74.4228 15.1823 72.4316 16.5697 70.312 17.88C69.7853 18.214 69.2586 18.548 68.7448 18.8692C68.2052 19.1903 67.6914 19.4986 67.1904 19.807C66.1755 20.4107 65.2506 20.9888 64.4027 21.4513C62.7327 22.3891 61.6279 23.0185 61.6279 23.0185C61.6279 23.0185 61.3582 23.1727 60.8572 23.4425C60.3562 23.7122 59.6496 24.0848 58.7889 24.5472C58.365 24.7785 57.9025 25.0225 57.4015 25.2795C56.9005 25.5364 56.3738 25.8062 55.8214 26.0759C54.7295 26.6283 53.5733 27.2321 52.3658 27.7845C51.1711 28.3497 49.9892 28.9278 48.8459 29.4417C47.7026 29.9555 46.6492 30.4437 45.7243 30.8547C43.8744 31.6512 42.6283 32.1779 42.6283 32.1779L31.9531 23.1727C31.9531 23.1727 33.0707 22.6974 34.7536 21.978C35.5757 21.6054 36.5392 21.1687 37.5669 20.7062C38.6074 20.2437 39.6608 19.717 40.7399 19.2032C41.819 18.7022 42.8595 18.1498 43.8487 17.6616C44.3369 17.4176 44.8122 17.1735 45.2618 16.9422C45.6986 16.711 46.1225 16.4798 46.495 16.2742C47.2658 15.8632 47.9081 15.5163 48.3449 15.2851C48.7945 15.0538 49.0386 14.8997 49.0386 14.8997C49.0386 14.8997 50.0406 14.3344 51.5308 13.4866C52.2887 13.0755 53.1109 12.5488 54.0229 12.0093C54.4726 11.7395 54.9479 11.4569 55.4232 11.1743C55.8857 10.8788 56.3481 10.5833 56.8234 10.2879C58.7375 9.10602 60.5103 7.85993 61.8849 6.94785C63.1952 5.99722 64.0816 5.36775 64.0816 5.36775C64.0816 5.36775 64.3 5.21359 64.6853 4.93098C65.0707 4.66121 65.5974 4.25013 66.2269 3.76197C66.8564 3.27381 67.5886 2.70858 68.3722 2.1048C69.1302 1.48818 69.9266 0.820175 70.7359 0.165016C71.5581 -0.490145 72.2903 -1.18384 73.0226 -1.81331C73.3823 -2.13447 73.7291 -2.44278 74.0631 -2.72539C74.3843 -3.02086 74.6797 -3.30348 74.9495 -3.5604C76.0414 -4.60095 76.7865 -5.29465 76.7865 -5.29465C76.7865 -5.29465 76.9792 -5.46165 77.2747 -5.76996C77.583 -6.07827 78.0069 -6.52789 78.5336 -7.05459C79.6127 -8.10798 80.8845 -9.55961 82.1948 -10.9984C82.8243 -11.7306 83.428 -12.4629 84.0061 -13.1566C84.2887 -13.5034 84.5714 -13.8374 84.8283 -14.1457C85.0724 -14.4669 85.3036 -14.7752 85.522 -15.045C86.3827 -16.1626 86.9479 -16.9205 86.9479 -16.9205L103.854 -12.4757C103.854 -12.4757 103.224 -11.6407 102.274 -10.4075C102.029 -10.0991 101.773 -9.76515 101.503 -9.40545C101.207 -9.0586 100.899 -8.68606 100.591 -8.30067C99.9483 -7.5299 99.2803 -6.72058 98.5866 -5.89842C97.135 -4.29264 95.6962 -2.67401 94.5144 -1.505C93.9363 -0.914072 93.4481 -0.425913 93.1141 -0.0790634C92.7801 0.267784 92.5746 0.46048 92.5746 0.46048L92.5874 0.486172Z" fill="#898481"/>
<g style="mix-blend-mode:multiply" opacity="0.5">
<path d="M86.6139 -16.4067C86.357 -16.0855 85.9973 -15.6102 85.5605 -15.0193C85.3421 -14.7366 85.1109 -14.4412 84.8668 -14.12C84.5971 -13.7989 84.3273 -13.4777 84.0447 -13.1309C83.4666 -12.4372 82.8628 -11.7049 82.2334 -10.9727C80.923 -9.53391 79.6512 -8.08228 78.5722 -7.02889C78.0583 -6.50219 77.6215 -6.05257 77.3132 -5.74426C77.0178 -5.43595 76.8251 -5.26895 76.8251 -5.26895C76.8251 -5.26895 76.4654 -4.93495 75.9001 -4.3954C80.6533 -2.04454 85.8175 -0.0276737 91.0844 1.91211C92.0094 1.03857 92.5874 0.486177 92.5874 0.486177C92.5874 0.486177 92.8058 0.293484 93.127 -0.0533657C93.461 -0.400215 93.9491 -0.888374 94.5272 -1.4793C95.7219 -2.64831 97.1479 -4.26694 98.5995 -5.87273C99.306 -6.68204 99.9612 -7.5042 100.604 -8.27497C100.925 -8.66036 101.233 -9.03291 101.516 -9.37975C101.785 -9.73945 102.042 -10.0735 102.286 -10.3818C102.351 -10.4717 102.415 -10.5488 102.479 -10.6258C96.9038 -12.2959 91.457 -14.12 86.5882 -16.4067H86.6139Z" fill="#898481"/>
</g>
<g style="mix-blend-mode:multiply" opacity="0.5">
<path d="M53.7147 22.8515C50.2076 21.2457 46.8933 19.5115 43.3606 17.9442C42.5256 18.3682 41.6777 18.8049 40.7785 19.2289C39.6994 19.7299 38.646 20.2694 37.6055 20.7319C36.5778 21.1944 35.6143 21.6311 34.7921 22.0037C33.1093 22.7231 31.9916 23.1984 31.9916 23.1984L42.6669 32.2036C42.6669 32.2036 43.9001 31.6769 45.7628 30.8804C46.6749 30.4694 47.7412 29.9812 48.8845 29.4673C50.0278 28.9535 51.1968 28.3754 52.4044 27.8102C53.6119 27.2449 54.7552 26.654 55.86 26.1016C56.3995 25.819 56.9391 25.5621 57.4401 25.3052C57.7869 25.1253 58.1081 24.9455 58.4292 24.7785C56.8235 24.1233 55.1791 23.5067 53.7404 22.8515H53.7147Z" fill="#898481"/>
</g>
<path d="M38.9543 26.8467L37.2072 27.5918L37.4384 27.7973L39.1984 27.0523L38.9543 26.8467Z" fill="white"/>
<path d="M95.632 -14.621L94.7328 -13.452L94.3602 -13.5548L95.2466 -14.7238L95.6192 -14.621H95.632ZM92.2021 -10.2661C92.2021 -10.2661 91.7139 -9.6752 91.2129 -9.08428C90.9688 -8.78881 90.7248 -8.49335 90.5192 -8.27496C90.3265 -8.05657 90.1852 -7.91527 90.1852 -7.91527L89.8255 -8.03088C89.8255 -8.03088 89.954 -8.17219 90.1595 -8.39058C90.3651 -8.60896 90.6091 -8.90443 90.8532 -9.19989C91.3414 -9.79082 91.8424 -10.3817 91.8424 -10.3817L92.2149 -10.2661H92.2021ZM87.3333 -4.81932L85.0981 -2.53268L84.7512 -2.66114L86.9865 -4.93493L87.3462 -4.80647L87.3333 -4.81932ZM81.9379 0.447653L79.4457 2.64437L79.1117 2.50306L81.5911 0.31919L81.9379 0.447653ZM75.9901 5.49623C75.9901 5.49623 75.8359 5.63754 75.5662 5.83024C75.3092 6.02293 74.9752 6.2927 74.6284 6.54963C73.9475 7.07632 73.2667 7.59018 73.2667 7.59018L72.9455 7.43602C72.9455 7.43602 73.6264 6.90932 74.3072 6.39548C74.6412 6.13855 74.9881 5.86878 75.245 5.67608C75.5019 5.48339 75.6689 5.34208 75.6689 5.34208L76.0029 5.48339L75.9901 5.49623ZM69.5284 10.3264C69.5284 10.3264 69.3614 10.4549 69.0788 10.6476C68.809 10.8403 68.4365 11.0844 68.0639 11.3284C67.3317 11.8294 66.5995 12.3176 66.5995 12.3176L66.2912 12.1506C66.2912 12.1506 67.0234 11.6496 67.7556 11.1614C68.1282 10.9174 68.4879 10.6733 68.7576 10.4806C69.0274 10.3007 69.2073 10.1594 69.2073 10.1594L69.5156 10.3136L69.5284 10.3264ZM62.5914 14.8997C62.5914 14.8997 62.4116 15.0282 62.1161 15.1952C61.8207 15.375 61.4353 15.6062 61.037 15.8375C60.2534 16.3128 59.4698 16.7753 59.4698 16.7753L59.1743 16.5954C59.1743 16.5954 59.958 16.1329 60.7287 15.6576C61.1141 15.4264 61.5123 15.1952 61.795 15.0153C62.0904 14.8355 62.2703 14.7199 62.2703 14.7199L62.5657 14.8869L62.5914 14.8997ZM55.2048 19.216L51.9033 20.976L51.6336 20.7961L54.9351 19.0362L55.2177 19.216H55.2048ZM47.3943 23.2626L43.9258 24.9198L43.6689 24.7271L47.1245 23.0828L47.3815 23.2755L47.3943 23.2626Z" fill="white"/>
<path d="M94.7072 -11.6664C94.0521 -11.9362 93.3455 -12.2316 92.6004 -12.5271C92.2279 -12.6812 91.8553 -12.8354 91.4571 -12.9895C91.0846 -13.1566 90.6992 -13.3364 90.3009 -13.5034C88.7209 -14.2099 87.0123 -14.9679 85.201 -15.7772C83.441 -16.625 81.5912 -17.5243 79.6771 -18.4492C77.8015 -19.3998 75.9003 -20.4147 73.9476 -21.4295C73.0099 -21.9562 72.0592 -22.4958 71.0958 -23.0225C70.1451 -23.562 69.1688 -24.0759 68.2567 -24.6411C66.4069 -25.7587 64.5185 -26.8507 62.7842 -27.9811C61.9107 -28.5464 61.0115 -29.0988 60.1765 -29.664C59.5213 -30.1136 58.879 -30.5504 58.2367 -30.9872H57.1447C57.1447 -30.9872 57.1833 -30.9615 57.1961 -30.9486C58.0054 -30.3962 58.8147 -29.8438 59.6498 -29.2786C60.4848 -28.7262 61.3712 -28.1738 62.2447 -27.6086C63.9661 -26.4781 65.8417 -25.399 67.6787 -24.2814C75.091 -19.9008 83.2098 -15.9442 89.5687 -13.2079C91.1103 -12.4885 92.6261 -11.9105 93.9364 -11.3581C95.2468 -10.8185 96.3901 -10.3432 97.3279 -9.95783C98.2656 -9.57244 99.0493 -9.30267 99.5631 -9.09713C100.077 -8.90444 100.36 -8.80167 100.36 -8.80167L90.8662 0.0879478C90.8662 0.0879478 90.5707 -0.027668 90.0055 -0.233208C89.4531 -0.451595 88.6052 -0.747061 87.5775 -1.15814C86.5498 -1.58207 85.3166 -2.08307 83.8907 -2.674C82.4776 -3.26493 80.8332 -3.8944 79.1504 -4.67802C72.2391 -7.6455 63.4137 -11.949 55.3206 -16.7278C53.3165 -17.9354 51.274 -19.1172 49.3856 -20.3505C48.435 -20.9671 47.4715 -21.558 46.5466 -22.1746C45.6345 -22.7913 44.7352 -23.4079 43.8617 -23.9988C40.3675 -26.4139 37.233 -28.7519 34.6895 -30.833C34.6381 -30.8716 34.5995 -30.9101 34.561 -30.9358H33.5461C33.6361 -30.8587 33.726 -30.7816 33.8288 -30.7045C36.398 -28.5849 39.5839 -26.2084 43.1295 -23.7547C44.0287 -23.1509 44.9408 -22.5215 45.8529 -21.9049C46.7778 -21.2754 47.767 -20.6716 48.7304 -20.055C50.6445 -18.7961 52.7256 -17.6014 54.7553 -16.3681C55.7573 -15.7515 56.8364 -15.1734 57.877 -14.5825C58.9304 -13.9916 59.9709 -13.4135 61.0115 -12.8354C63.1568 -11.7178 65.2379 -10.613 67.3061 -9.57244C69.4001 -8.55759 71.4298 -7.58127 73.3567 -6.6435C75.335 -5.7571 77.2106 -4.9221 78.9448 -4.15132C79.3816 -3.95863 79.8055 -3.76593 80.2166 -3.58608C80.6406 -3.40624 81.0516 -3.23924 81.4627 -3.07224C82.272 -2.73823 83.0428 -2.41708 83.775 -2.12161C85.2138 -1.53068 86.4856 -1.00398 87.5133 -0.580059C89.6458 0.229256 90.8662 0.678875 90.8662 0.678875L101.207 -9.05859C101.207 -9.05859 100.09 -9.48252 98.15 -10.2148C97.1994 -10.6001 96.0561 -11.0755 94.7329 -11.615L94.7072 -11.6664Z" fill="#92968A"/>
<path d="M92.2022 -12.3986C91.0974 -12.8354 90.0697 -13.3236 89.0805 -13.7603C88.0914 -14.1971 87.1664 -14.6082 86.3828 -14.9679C85.5992 -15.3276 84.9183 -15.6102 84.4816 -15.8286C84.0319 -16.047 83.775 -16.1626 83.775 -16.1626C83.775 -16.1626 82.7473 -16.6636 81.2186 -17.3958C80.4607 -17.7684 79.5357 -18.1923 78.6108 -18.6804C77.6859 -19.1686 76.6839 -19.6825 75.6947 -20.1963C73.6778 -21.2112 71.8023 -22.3031 70.3507 -23.1124C69.6313 -23.5106 69.0275 -23.8446 68.6164 -24.0887C68.2053 -24.3328 67.9741 -24.4741 67.9741 -24.4741C67.9741 -24.4741 67.0492 -25.0265 65.6489 -25.8615C64.223 -26.6837 62.4759 -27.8527 60.6646 -28.9832C59.7653 -29.5612 58.9303 -30.1522 58.1082 -30.7045C57.9669 -30.7945 57.8256 -30.8972 57.6971 -30.9872H34.0471C34.3554 -30.7431 34.6637 -30.4862 34.9721 -30.2421C35.7685 -29.5869 36.5521 -28.9832 37.233 -28.4693C37.901 -27.9554 38.4662 -27.5315 38.8516 -27.2361C39.2499 -26.9406 39.4811 -26.7736 39.4811 -26.7736C39.4811 -26.7736 40.406 -26.1056 41.7934 -25.1036C42.4743 -24.6026 43.3221 -24.0373 44.2085 -23.4336C45.1078 -22.8298 46.0455 -22.1746 47.0218 -21.5452C49.0002 -20.2862 50.94 -19.0144 52.4944 -18.1152C54.0231 -17.2031 55.0379 -16.5865 55.0379 -16.5865C55.0379 -16.5865 55.2948 -16.4323 55.7316 -16.1626C56.1812 -15.9057 56.8492 -15.5331 57.6329 -15.0963C59.213 -14.2228 61.2812 -13.0152 63.4779 -11.9105C64.5698 -11.3452 65.6489 -10.78 66.6638 -10.2533C67.6786 -9.7266 68.6806 -9.26413 69.5157 -8.85305C71.1857 -8.04374 72.3033 -7.50419 72.3033 -7.50419C72.3033 -7.50419 72.5859 -7.36289 73.0741 -7.13165C73.5622 -6.88758 74.2816 -6.57927 75.1423 -6.18103C76.003 -5.79564 77.0179 -5.34602 78.097 -4.85786C79.1889 -4.38255 80.3065 -3.84301 81.5141 -3.3677C83.8778 -2.39138 86.2543 -1.42791 88.0271 -0.695675C89.8513 -0.0148239 91.0717 0.447641 91.0717 0.447641L100.976 -8.8659C100.976 -8.8659 99.8585 -9.28983 98.1885 -9.91929C96.557 -10.5873 94.386 -11.4737 92.215 -12.3729L92.2022 -12.3986Z" fill="#898481"/>
<path d="M90.6093 0.537564C90.6093 0.537564 91.8296 1.00003 93.9621 1.7965C94.5017 1.98919 95.0798 2.22043 95.7349 2.45166C96.3901 2.68289 97.1095 2.91413 97.8674 3.1839C99.3961 3.69775 101.105 4.28867 102.98 4.93099C110.572 7.38462 120.901 10.442 131.64 12.87C132.963 13.204 134.338 13.4609 135.674 13.7564C137.023 14.039 138.372 14.3216 139.695 14.6042C141.031 14.8868 142.354 15.1566 143.664 15.4264C144.987 15.6705 146.298 15.9017 147.582 16.1329C150.165 16.5954 152.644 17.045 155.008 17.4561C157.397 17.8029 159.658 18.1498 161.739 18.4581C162.78 18.6123 163.782 18.7536 164.732 18.8949C165.683 19.0362 166.582 19.1775 167.443 19.2674C169.151 19.473 170.641 19.64 171.875 19.7941C174.328 20.0896 175.729 20.2437 175.729 20.2437L179.248 8.90048C179.248 8.90048 177.951 8.74633 175.664 8.47656C174.534 8.34809 173.146 8.18109 171.566 7.9884C170.77 7.91132 169.948 7.77001 169.061 7.64155C168.175 7.51309 167.263 7.37178 166.299 7.23047C164.373 6.94785 162.291 6.63954 160.082 6.31838C157.911 5.933 155.611 5.52192 153.235 5.09799C152.053 4.89245 150.845 4.67406 149.625 4.45568C148.417 4.19875 147.21 3.95467 145.977 3.69775C144.743 3.44082 143.51 3.1839 142.277 2.92697C141.044 2.6572 139.772 2.42597 138.564 2.11766C128.686 -0.117593 119.231 -2.91808 112.281 -5.16618C110.572 -5.7571 108.992 -6.2838 107.605 -6.75911C106.911 -6.99034 106.256 -7.22158 105.652 -7.42712C105.061 -7.6455 104.522 -7.85105 104.034 -8.03089C102.081 -8.76313 100.976 -9.18706 100.976 -9.18706L90.6093 0.537564ZM175.407 19.6913C175.407 19.6913 174.02 19.5243 171.605 19.2417C170.397 19.1004 168.92 18.9206 167.237 18.7279C165.554 18.5095 163.679 18.214 161.623 17.9186C159.568 17.6103 157.346 17.2891 154.982 16.9294C152.657 16.5183 150.203 16.0815 147.66 15.6191C146.388 15.3878 145.103 15.1566 143.793 14.9254C142.508 14.6556 141.198 14.3858 139.888 14.1032C138.577 13.8335 137.254 13.5508 135.918 13.2682C134.595 12.9856 133.246 12.7287 131.936 12.3947C121.338 9.99241 111.163 6.98639 103.674 4.58414C101.824 3.95467 100.128 3.37659 98.6382 2.86274C97.1352 2.34889 95.8248 1.91212 94.7843 1.50103C92.6775 0.717412 91.4828 0.254948 91.4828 0.254948L100.925 -8.64751C100.925 -8.64751 102.03 -8.23643 103.969 -7.5042C104.92 -7.13165 106.14 -6.72057 107.528 -6.25811C108.915 -5.7828 110.47 -5.2561 112.178 -4.67802C119.089 -2.46846 128.48 0.31918 138.282 2.54158C139.489 2.84989 140.735 3.08113 141.969 3.3509C143.202 3.60782 144.422 3.86475 145.643 4.12167C146.863 4.3786 148.071 4.63552 149.265 4.8796C150.473 5.09799 151.68 5.30353 152.849 5.52192C155.2 5.94584 157.487 6.34408 159.645 6.72947C161.842 7.05062 163.91 7.35893 165.824 7.64155C167.738 7.92417 169.485 8.19394 171.053 8.39948C172.62 8.57933 173.994 8.74633 175.125 8.87479C177.386 9.14456 178.67 9.29872 178.67 9.29872L175.42 19.6657L175.407 19.6913Z" fill="#92968A"/>
<path d="M153.543 16.9294C153.543 16.9294 152.169 16.6853 150.113 16.3128C149.086 16.1329 147.891 15.9146 146.593 15.6833C145.951 15.5677 145.283 15.4521 144.615 15.3236C144.281 15.2594 143.934 15.1952 143.6 15.1438L142.585 14.9254C139.888 14.3602 137.177 13.7949 135.147 13.371C134.132 13.1526 133.285 12.9856 132.707 12.8443C132.128 12.703 131.794 12.6259 131.794 12.6259C131.794 12.6259 130.458 12.3048 128.467 11.8294C127.465 11.5854 126.309 11.3027 125.063 11.0073C124.446 10.8531 123.791 10.699 123.136 10.5448C122.481 10.3907 121.839 10.198 121.183 10.0181C118.576 9.29873 115.968 8.59218 114.015 8.05264C113.026 7.79572 112.255 7.52595 111.69 7.35894C111.125 7.19194 110.816 7.08917 110.816 7.08917C110.816 7.08917 109.545 6.69094 107.631 6.11285C106.667 5.81739 105.562 5.47054 104.368 5.11085C103.199 4.71261 101.953 4.28868 100.706 3.86476C98.2143 3.00406 95.6964 2.1819 93.898 1.47536C92.0738 0.794503 90.8534 0.332036 90.8534 0.332036L100.771 -8.98151C100.771 -8.98151 101.888 -8.55758 103.558 -7.92811C105.203 -7.27295 107.528 -6.52787 109.814 -5.7314C110.958 -5.34601 112.101 -4.94778 113.18 -4.58808C114.285 -4.25408 115.313 -3.93292 116.186 -3.66315C117.946 -3.12361 119.115 -2.76391 119.115 -2.76391C119.115 -2.76391 119.411 -2.67399 119.924 -2.51983C120.438 -2.36568 121.158 -2.1216 122.07 -1.87752C123.868 -1.38936 126.271 -0.721357 128.673 -0.0661974C129.277 0.100803 129.867 0.267804 130.471 0.421959C131.075 0.563268 131.666 0.704579 132.244 0.845888C133.4 1.12851 134.466 1.38543 135.379 1.60382C137.216 2.05343 138.436 2.3489 138.436 2.3489C138.436 2.3489 138.744 2.42598 139.271 2.55444C139.811 2.6829 140.594 2.83706 141.532 3.02975C143.407 3.42799 145.9 3.94184 148.392 4.46853L149.33 4.66123C149.651 4.71261 149.959 4.77684 150.267 4.82823C150.897 4.94384 151.501 5.04661 152.104 5.14939C153.299 5.36777 154.404 5.56047 155.354 5.72747C157.256 6.06147 158.528 6.2927 158.528 6.2927C158.528 6.2927 159.786 6.53678 161.726 6.80655C163.653 7.08917 166.222 7.47456 168.805 7.8471C169.447 7.93703 170.089 8.03979 170.719 8.12972C171.361 8.20679 171.99 8.28387 172.594 8.3481C173.815 8.48941 174.958 8.63072 175.934 8.74634C177.887 8.97757 179.184 9.13173 179.184 9.13173L175.819 19.9868C175.819 19.9868 174.418 19.8198 172.312 19.5757C171.258 19.4473 170.038 19.306 168.727 19.1518C168.072 19.0747 167.391 18.9977 166.698 18.9077C166.017 18.805 165.323 18.7022 164.629 18.5994C161.855 18.1883 159.08 17.7773 156.999 17.469C154.905 17.1735 153.543 16.9166 153.543 16.9166V16.9294Z" fill="#898481"/>
<path d="M68.0255 32.8845C67.4731 32.5633 66.6638 32.088 65.6232 31.4842C63.5678 30.2767 60.5746 28.581 56.9263 26.5898C55.0893 25.6006 53.1238 24.5215 50.9785 23.4168C49.9122 22.8644 48.8331 22.2863 47.6898 21.7082C46.5594 21.1301 45.3903 20.552 44.2213 19.9483C39.4811 17.5846 34.3554 15.1309 29.1141 12.7544C18.6444 7.9884 7.73795 3.58213 -0.676357 0.460484C-4.87709 -1.10676 -8.46119 -2.35285 -11.0176 -3.22639C-13.1244 -3.94578 -14.5375 -4.3954 -15.0128 -4.53671V-3.94579L-14.9871 -3.97148C-14.9871 -3.97148 -14.6146 -3.85586 -13.908 -3.62463C-13.2143 -3.3934 -12.2123 -3.07224 -10.9662 -2.63547C-8.46119 -1.77477 -4.92847 -0.541525 -0.791972 1.00003C7.50672 4.08313 18.2719 8.43801 28.6003 13.1397C33.7645 15.4906 38.8388 17.9186 43.5148 20.2437C45.84 21.4127 48.1009 22.5432 50.182 23.6608C52.3016 24.7528 54.2543 25.819 56.0527 26.7953C57.8769 27.7588 59.4827 28.6966 60.9343 29.493C62.386 30.3024 63.6192 31.0218 64.6469 31.6127C65.6618 32.2036 66.4711 32.6661 67.0235 32.9872C67.5758 33.2955 67.8585 33.4754 67.8585 33.4754L55.4233 40.9519C55.4233 40.9519 55.1535 40.7849 54.6268 40.4766C54.1001 40.1683 53.3422 39.7315 52.3659 39.1663C51.3896 38.601 50.2205 37.9073 48.8331 37.1494C47.4458 36.3786 45.917 35.4922 44.1828 34.5673C42.4614 33.6295 40.5987 32.6147 38.569 31.5741C36.5778 30.5207 34.4196 29.4417 32.1972 28.3112C27.7267 26.0888 22.8708 23.7636 17.925 21.5155C8.03341 17.0193 -2.26929 12.8571 -10.1441 9.92818C-11.904 9.27302 -13.5483 8.66925 -15.0256 8.14255V8.72063C-13.741 9.1831 -12.3665 9.6841 -10.8891 10.2236C-2.9373 13.1783 7.45533 17.3662 17.4369 21.9137C22.4341 24.1747 27.3157 26.5256 31.8247 28.7737C32.9423 29.3389 34.0471 29.8913 35.1262 30.4437C36.2053 30.9832 37.233 31.5356 38.2478 32.0623C40.2904 33.1157 42.1531 34.1434 43.9002 35.0812C47.3558 36.9696 50.1949 38.5754 52.1475 39.7315C53.1238 40.2967 53.8946 40.7464 54.4213 41.0547C54.9351 41.363 55.2049 41.53 55.2049 41.53L68.8348 33.3598C68.8348 33.3598 68.5393 33.1799 67.9998 32.8588L68.0255 32.8845Z" fill="#92968A"/>
<path d="M67.7814 33.09C67.2676 32.7945 66.5225 32.3577 65.6489 31.8439C64.7625 31.33 63.722 30.7263 62.6172 30.084C61.4867 29.4545 60.292 28.7865 59.0845 28.1056C57.8898 27.4248 56.6694 26.7696 55.5261 26.153C54.3828 25.5364 53.3165 24.9583 52.3916 24.4701C50.5289 23.4938 49.2956 22.8515 49.2956 22.8515C49.2956 22.8515 48.0624 22.1964 46.174 21.2586C45.2362 20.7833 44.1314 20.2309 42.9496 19.6399C41.7549 19.0619 40.4831 18.4324 39.2113 17.8158C36.6549 16.5825 34.0857 15.3621 32.133 14.4629C30.1804 13.5637 28.8701 12.9727 28.8701 12.9727C28.8701 12.9727 27.5598 12.3818 25.5814 11.4954C23.6031 10.6219 20.9568 9.45286 18.2719 8.32239C16.9359 7.74431 15.587 7.19192 14.3153 6.66522C13.0563 6.13853 11.8616 5.65037 10.8339 5.23929C8.79137 4.41712 7.41682 3.87758 7.41682 3.87758C7.41682 3.87758 1.93147 1.70656 -3.70804 -0.348838C-6.53422 -1.37654 -9.39894 -2.37855 -11.5828 -3.11079C-13.1886 -3.65033 -14.4218 -4.04856 -15.0128 -4.24126V8.47655C-14.4475 8.68209 -13.8823 8.87478 -13.317 9.08032C-7.98585 11.0201 -2.77026 13.0884 -2.77026 13.0884C-2.77026 13.0884 -1.45995 13.6022 0.479839 14.3858C1.45616 14.7841 2.58663 15.2337 3.79418 15.7475C5.00172 16.2485 6.28635 16.7752 7.57098 17.3276C10.1402 18.4067 12.6581 19.5243 14.5593 20.3593C16.4349 21.2072 17.6938 21.7596 17.6938 21.7596C17.6938 21.7596 18.9399 22.3248 20.8026 23.1855C22.6782 24.0334 25.119 25.2152 27.5598 26.3842C28.7802 26.9752 29.9877 27.5661 31.1182 28.1313C32.2358 28.6966 33.2892 29.2233 34.1884 29.6729C35.9869 30.5721 37.1688 31.2016 37.1688 31.2016C37.1688 31.2016 38.3506 31.8182 40.1234 32.7431C41.0098 33.2056 42.0118 33.758 43.1037 34.3489C44.1957 34.9398 45.3647 35.5565 46.4952 36.1988C47.6385 36.8411 48.7818 37.4706 49.848 38.0743C50.9014 38.691 51.8777 39.2562 52.7256 39.7444C53.5606 40.2325 54.2671 40.6436 54.7553 40.9262C55.2435 41.2217 55.5132 41.3887 55.5132 41.3887L68.565 33.5653C68.565 33.5653 68.2696 33.3855 67.7686 33.09H67.7814Z" fill="#898481"/>
<path d="M61.9106 37.5605C61.9106 37.5605 61.4867 37.3036 61.0756 37.0595C60.6517 36.8154 60.2277 36.5585 60.2277 36.5585L60.5232 36.3786C60.5232 36.3786 60.9471 36.6227 61.3711 36.8796C61.7821 37.1366 62.2061 37.3806 62.2061 37.3806L61.9106 37.5605ZM55.526 33.8479L51.9548 31.8439L52.2374 31.664L55.8215 33.6681L55.5389 33.8479H55.526ZM47.1117 29.2233C47.1117 29.2233 46.8805 29.0948 46.5465 28.9149C46.1996 28.7351 45.7372 28.491 45.2747 28.2598C44.3498 27.7716 43.4377 27.2963 43.4377 27.2963L43.7075 27.1165C43.7075 27.1165 44.6324 27.5918 45.5573 28.0799C46.0198 28.324 46.4822 28.5681 46.8291 28.7479C47.1759 28.9278 47.3943 29.0563 47.3943 29.0563L47.1246 29.2361L47.1117 29.2233ZM38.4662 24.7528C38.4662 24.7528 38.2349 24.6371 37.8881 24.4573C37.5412 24.2774 37.0659 24.0462 36.5906 23.815C35.64 23.3525 34.7022 22.8901 34.7022 22.8901L34.9591 22.6974C34.9591 22.6974 35.9098 23.1598 36.8475 23.6223C37.3229 23.8535 37.7853 24.0848 38.145 24.2646C38.5047 24.4445 38.7359 24.5601 38.7359 24.5601L38.4662 24.7528ZM29.6151 20.4364C29.6151 20.4364 28.6516 19.9868 27.6882 19.5243C26.7247 19.0747 25.7484 18.6251 25.7484 18.6251L26.0053 18.4324C26.0053 18.4324 26.9688 18.882 27.9451 19.3316C28.9086 19.7813 29.872 20.2437 29.872 20.2437L29.6151 20.4364ZM20.5585 16.2742C20.5585 16.2742 19.5822 15.8246 18.593 15.4007C17.6038 14.9639 16.6147 14.54 16.6147 14.54L16.8588 14.3344C16.8588 14.3344 17.8479 14.7712 18.8371 15.1951C19.8262 15.6191 20.8026 16.0687 20.8026 16.0687L20.5585 16.2614V16.2742ZM11.3092 12.2662L7.28829 10.5962L7.51952 10.3906L11.5532 12.0607L11.322 12.2662H11.3092ZM1.86717 8.42516C1.86717 8.42516 0.839465 8.02692 -0.17539 7.62869C-1.20309 7.23046 -2.23079 6.83222 -2.23079 6.83222L-2.01241 6.62668C-2.01241 6.62668 -0.984705 7.02492 0.0429964 7.42315C1.0707 7.82138 2.0984 8.23247 2.0984 8.23247L1.86717 8.43801V8.42516ZM-7.76753 4.76397C-7.76753 4.76397 -8.82093 4.37858 -9.86147 4.00604C-10.9149 3.6335 -11.9683 3.26096 -11.9683 3.26096L-11.7627 3.05542C-11.7627 3.05542 -10.7093 3.42796 -9.65593 3.81335C-8.61539 4.19874 -7.56199 4.57128 -7.56199 4.57128L-7.78038 4.77682L-7.76753 4.76397Z" fill="white"/>
<path d="M55.038 41.4272C55.038 41.4272 56.1428 42.0952 58.0569 43.2514C59.0332 43.8295 60.1637 44.5489 61.474 45.371C62.1291 45.7821 62.8228 46.2189 63.5679 46.6813C64.2873 47.1566 65.0452 47.6448 65.8289 48.1587C72.1364 52.2823 80.2424 57.9475 87.4877 63.9724C94.7843 69.9716 101.31 76.3177 105.871 81.1992C108.157 83.64 109.994 85.6954 111.24 87.1471C111.87 87.8793 112.358 88.4445 112.692 88.8299C113.026 89.2153 113.206 89.4337 113.206 89.4337L130.446 84.2567C130.446 84.2567 130.253 84.0383 129.906 83.6272C129.559 83.2161 129.032 82.6123 128.377 81.8416C127.054 80.3129 125.127 78.129 122.699 75.5469C117.869 70.3827 110.932 63.6256 103.122 57.2024C95.3624 50.7536 86.7554 44.7416 80.0625 40.3738C79.2275 39.8343 78.4182 39.3076 77.6603 38.8066C76.8766 38.3184 76.1444 37.8559 75.4507 37.4192C74.0633 36.5456 72.8686 35.7877 71.8409 35.1839C69.8112 33.9635 68.6422 33.257 68.6422 33.257L55.0251 41.4272H55.038ZM113.694 88.9199C113.694 88.9199 113.514 88.7143 113.193 88.3289C112.872 87.9435 112.384 87.3783 111.754 86.6589C110.508 85.2201 108.697 83.1776 106.41 80.7625C101.875 75.9323 95.401 69.6248 88.1557 63.6769C80.9618 57.7034 72.9457 52.0768 66.6896 47.9917C65.9059 47.4778 65.1609 46.9896 64.4415 46.5272C63.7092 46.0647 63.0155 45.6408 62.3732 45.2297C61.0629 44.4204 59.9581 43.701 58.9946 43.1229C57.0934 41.9796 56.0015 41.3116 56.0015 41.3116L68.4752 33.8479C68.4752 33.8479 69.6185 34.5416 71.6225 35.7492C72.6374 36.3529 73.8064 37.1109 75.1809 37.9587C75.8618 38.3955 76.594 38.8451 77.3648 39.3333C78.1099 39.8214 78.9064 40.3353 79.7285 40.8877C86.3186 45.204 94.81 51.1518 102.454 57.4979C110.161 63.8311 117.008 70.4983 121.787 75.5854C124.189 78.129 126.091 80.2743 127.401 81.7902C128.056 82.5481 128.57 83.139 128.917 83.5501C129.264 83.9612 129.444 84.1667 129.444 84.1667L113.681 88.9199H113.694Z" fill="#92968A"/>
<path d="M101.529 76.2534C101.529 76.2534 100.732 75.4441 99.4989 74.2623C98.2785 73.0676 96.5956 71.5003 94.8999 69.9459C93.1785 68.3915 91.4314 66.8628 90.0826 65.7195C88.7465 64.5762 87.8216 63.8311 87.8216 63.8311C87.8216 63.8311 87.5904 63.6384 87.1921 63.3172C86.7939 62.9832 86.2158 62.5208 85.5093 61.9684C84.0962 60.8636 82.2463 59.3606 80.2808 57.9218C79.3045 57.1896 78.3539 56.4573 77.429 55.7893C76.4912 55.1213 75.6177 54.4919 74.8726 53.9523C73.3824 52.8732 72.3547 52.1795 72.3547 52.1795C72.3547 52.1795 71.327 51.4858 69.7854 50.4324C69.0275 49.9057 68.1026 49.302 67.1134 48.6597C66.1243 48.0173 65.0709 47.3236 64.0175 46.6428C62.9384 45.9619 61.8593 45.2939 60.8573 44.6516C60.3563 44.3305 59.8681 44.0222 59.4057 43.7395C58.9304 43.4569 58.4807 43.1871 58.0697 42.9302C56.4253 41.9282 55.3206 41.2731 55.3206 41.2731L68.3595 33.4497C68.3595 33.4497 69.5157 34.1434 71.2628 35.1968C71.6995 35.4537 72.1749 35.7492 72.663 36.0446C73.1512 36.3529 73.665 36.6741 74.2046 37.0081C75.2708 37.6761 76.4013 38.3955 77.5446 39.102C78.6622 39.8343 79.767 40.5537 80.8204 41.2345C81.8609 41.9154 82.8373 42.5577 83.6466 43.1101C85.278 44.2277 86.3571 44.9728 86.3571 44.9728C86.3571 44.9728 87.4491 45.705 89.0292 46.8483C89.8256 47.4136 90.7505 48.0816 91.7397 48.7881C92.7289 49.5075 93.7437 50.2783 94.7714 51.0491C96.8525 52.5778 98.8308 54.1836 100.321 55.3654C101.066 55.9563 101.696 56.4445 102.119 56.8042C102.543 57.151 102.788 57.3566 102.788 57.3566C102.788 57.3566 103.764 58.153 105.19 59.3734C106.629 60.581 108.491 62.2253 110.315 63.8696C112.127 65.5268 113.912 67.1968 115.21 68.4557C116.52 69.7147 117.355 70.5625 117.355 70.5625C117.355 70.5625 118.216 71.4104 119.462 72.6822C120.721 73.9539 122.34 75.6753 123.932 77.3967C127.118 80.8524 130.06 84.3723 130.06 84.3723L113.553 89.3309C113.553 89.3309 110.752 85.9909 107.733 82.7151C106.23 81.0836 104.689 79.4522 103.507 78.2575C102.325 77.0499 101.516 76.2534 101.516 76.2534H101.529Z" fill="#898481"/>
<g style="mix-blend-mode:multiply" opacity="0.5">
<path d="M85.2781 61.7757C91.3158 60.3754 97.5591 59.3092 103.738 58.1402C103.147 57.652 102.788 57.3566 102.788 57.3566C102.788 57.3566 102.543 57.151 102.12 56.8042C101.696 56.4445 101.079 55.9563 100.321 55.3654C98.818 54.1835 96.8526 52.5906 94.7715 51.049C93.7309 50.2783 92.7289 49.4946 91.7397 48.7881C90.7506 48.0816 89.8128 47.4135 89.0292 46.8483C87.4491 45.705 86.3572 44.9728 86.3572 44.9728C86.3572 44.9728 85.2781 44.2277 83.6466 43.11C83.4282 42.9559 83.197 42.8017 82.9529 42.6347C76.5298 43.7267 70.2222 45.037 64.1588 46.6942C65.1737 47.3622 66.1885 48.0173 67.1263 48.6468C68.1155 49.2891 69.0404 49.8929 69.7983 50.4196C71.3399 51.473 72.3676 52.1667 72.3676 52.1667C72.3676 52.1667 73.4081 52.8604 74.8854 53.9395C75.6305 54.479 76.5041 55.0956 77.4419 55.7765C78.3796 56.4445 79.3303 57.1896 80.2937 57.9089C82.1564 59.2706 83.8907 60.6837 85.2781 61.7628V61.7757Z" fill="#898481"/>
</g>
<path d="M63.6706 38.2799L61.9877 37.265L61.6923 37.432L63.3751 38.4469L63.6706 38.2799Z" fill="white"/>
<path d="M121.646 86.903L120.567 85.6312L120.939 85.5156L122.018 86.7874L121.646 86.903ZM117.548 82.1756C117.548 82.1756 116.97 81.5332 116.379 80.8909C115.788 80.2486 115.21 79.6063 115.21 79.6063L115.569 79.4907C115.569 79.4907 116.16 80.133 116.751 80.7753C117.329 81.4176 117.92 82.0599 117.92 82.0599L117.561 82.1756H117.548ZM111.998 76.2149C111.998 76.2149 111.382 75.5854 110.765 74.956C110.136 74.3265 109.519 73.697 109.519 73.697L109.879 73.5686C109.879 73.5686 110.508 74.198 111.125 74.8275C111.741 75.457 112.371 76.0864 112.371 76.0864L112.011 76.2149H111.998ZM106.102 70.3698C106.102 70.3698 105.447 69.7532 104.791 69.1366C104.136 68.52 103.468 67.9034 103.468 67.9034L103.815 67.762C103.815 67.762 104.496 68.3787 105.138 68.9953C105.793 69.6119 106.449 70.2285 106.449 70.2285L106.102 70.357V70.3698ZM99.8456 64.6532C99.8456 64.6532 99.1519 64.0495 98.4582 63.4457C97.7517 62.8419 97.0452 62.251 97.0452 62.251L97.3792 62.1097C97.3792 62.1097 98.0857 62.7135 98.7922 63.3044C99.4859 63.9082 100.18 64.5119 100.18 64.5119L99.8456 64.6532ZM93.217 59.0908L90.2623 56.7528L90.5835 56.5986L93.5381 58.9367L93.2041 59.078L93.217 59.0908ZM86.2286 53.6954C86.2286 53.6954 85.4707 53.1302 84.6999 52.5521C83.9163 51.9868 83.1326 51.4344 83.1326 51.4344L83.4538 51.2803C83.4538 51.2803 84.2374 51.8455 85.0211 52.4108C85.7918 52.976 86.5498 53.5541 86.5498 53.5541L86.2286 53.7082V53.6954ZM78.9191 48.4541L75.6947 46.2574L76.003 46.0904L79.2274 48.3L78.9191 48.467V48.4541ZM71.3012 43.367C71.3012 43.367 71.0957 43.2257 70.7874 43.033C70.4662 42.8274 70.0551 42.5705 69.6312 42.3008C68.7834 41.7741 67.9484 41.2345 67.9484 41.2345L68.2438 41.0675C68.2438 41.0675 69.0917 41.5942 69.9395 42.1337C70.3635 42.4035 70.7874 42.6604 71.0957 42.866C71.404 43.0715 71.6095 43.2 71.6095 43.2L71.3141 43.367H71.3012Z" fill="white"/>
<path d="M63.2595 48.5826C63.2595 48.5826 62.8613 48.6853 62.1033 48.8909C61.3583 49.0964 60.2406 49.379 58.8532 49.7773C56.0656 50.5481 52.0704 51.6657 47.3687 53.1045C37.9267 55.9306 25.6328 60.0286 13.8271 64.6276C7.9178 66.927 2.12413 69.3164 -3.19422 71.6673C-7.48487 73.5557 -11.4672 75.4184 -14.9999 77.127V77.9748C-11.2874 76.1507 -6.99672 74.1595 -2.35921 72.1169C2.89491 69.8046 8.6115 67.4409 14.4309 65.18C26.0696 60.6452 38.1964 56.5986 47.4971 53.811C52.1346 52.3979 56.0656 51.2931 58.8147 50.5224C60.1892 50.137 61.2812 49.8415 62.0263 49.6488C62.7713 49.4561 63.1567 49.3405 63.1567 49.3405L72.7786 62.1739C72.7786 62.1739 72.406 62.2767 71.7123 62.4565C71.0187 62.6364 70.0038 62.9062 68.7192 63.2787C66.1499 63.9981 62.4759 65.0258 58.1467 66.349C49.4626 68.9568 38.1194 72.7464 27.2514 76.9728C21.8175 79.0796 16.4863 81.2892 11.6175 83.4345C6.74879 85.5798 2.30398 87.6738 -1.39574 89.5108C-5.09547 91.3478 -8.0758 92.9279 -10.0798 94.0455C-11.0947 94.5979 -11.8526 95.0347 -12.3536 95.3301C-12.8418 95.6128 -13.0987 95.7669 -13.0987 95.7669L-14.9742 94.6364V95.009L-12.5848 96.3964C-12.8803 96.5634 -8.4355 93.8657 -0.971818 90.1659C2.74075 88.3161 7.21125 86.2093 12.1185 84.0383C17.0258 81.8673 22.3955 79.6449 27.868 77.5252C38.8131 73.2603 50.2462 69.4449 59.0074 66.8243C63.3751 65.5011 67.0749 64.4606 69.6698 63.7412C70.9544 63.3686 71.995 63.1117 72.6887 62.919C73.3824 62.7263 73.7549 62.6364 73.7549 62.6364L63.2724 48.5954L63.2595 48.5826Z" fill="#92968A"/>
<path d="M63.4778 48.8781C63.4778 48.8781 61.872 49.3149 59.4698 49.9572C58.2751 50.2912 56.8877 50.6766 55.3975 51.1005C53.9202 51.5244 52.3401 51.9869 50.76 52.4493C47.6127 53.3871 44.4782 54.3377 42.153 55.07C40.984 55.4297 40.0077 55.738 39.3397 55.9692C38.6588 56.1876 38.2863 56.3161 38.2863 56.3161C38.2863 56.3161 32.0944 58.3072 26.0695 60.4654C23.0506 61.5445 20.0575 62.6364 17.8351 63.4843C16.7174 63.9082 15.7925 64.2551 15.1502 64.512C14.5079 64.7561 14.1353 64.9102 14.1353 64.9102C14.1353 64.9102 12.6709 65.4883 10.4613 66.349C8.26459 67.2225 5.36133 68.4044 2.48377 69.6248C-0.393797 70.8324 -3.23282 72.0913 -5.33961 73.0419C-6.393 73.5172 -7.26655 73.9155 -7.88317 74.1981C-8.49979 74.4807 -8.84664 74.6477 -8.84664 74.6477C-8.84664 74.6477 -11.5444 75.8809 -15 77.5638V95.0219L-13.0088 96.178C-13.0088 96.178 -12.7904 96.0496 -12.3922 95.8055C-11.9297 95.5357 -11.236 95.1375 -10.3882 94.6622C-8.66679 93.6987 -6.29023 92.4269 -3.8366 91.168C1.05783 88.6501 6.23488 86.2736 6.23488 86.2736C6.23488 86.2736 6.55603 86.1194 7.12127 85.8625C7.6865 85.6056 8.49582 85.233 9.47213 84.7962C11.4376 83.9227 14.0454 82.7665 16.7174 81.6361C19.3766 80.5056 22.0872 79.4008 24.1169 78.5915C26.1594 77.7822 27.534 77.2426 27.534 77.2426C27.534 77.2426 27.8808 77.1142 28.4718 76.8829C29.0755 76.6517 29.9362 76.3305 30.9768 75.9323C33.045 75.1487 35.8327 74.121 38.646 73.119C44.2727 71.115 50.0278 69.2523 50.0278 69.2523C50.0278 69.2523 50.3875 69.1366 51.017 68.9311C51.6464 68.7256 52.5457 68.4429 53.6376 68.0961C55.8086 67.4024 58.7247 66.516 61.6537 65.6553C63.131 65.2314 64.5955 64.8075 65.9829 64.3964C67.3703 64.011 68.6677 63.6384 69.7853 63.3301C72.0206 62.7264 73.5108 62.3281 73.5108 62.3281L63.4778 48.8909V48.8781Z" fill="#898481"/>
<g style="mix-blend-mode:multiply" opacity="0.5">
<path d="M16.242 71.1278C14.1866 70.2671 12.1312 69.4064 10.0115 68.61C9.09944 68.2631 8.18735 67.9291 7.22388 67.6336C5.72087 68.2503 4.0894 68.9183 2.47077 69.612C-0.406796 70.8195 -3.24582 72.0785 -5.35261 73.0291C-6.406 73.5044 -7.27955 73.9026 -7.89617 74.1852C-8.51279 74.4678 -8.85964 74.6349 -8.85964 74.6349C-8.85964 74.6349 -11.5574 75.8681 -15.013 77.551V79.889C-11.4417 81.1351 -8.08886 82.6638 -4.55614 83.8842C-1.56296 84.9247 1.36599 86.0295 4.24355 87.1728C5.46395 86.5947 6.22188 86.2479 6.22188 86.2479C6.22188 86.2479 6.54303 86.0937 7.10827 85.8368C7.6735 85.5799 8.48282 85.2073 9.45914 84.7706C11.4246 83.897 14.0324 82.7409 16.7044 81.6104C19.3636 80.4799 22.0742 79.3751 24.1039 78.5658C26.1464 77.7565 27.521 77.2169 27.521 77.2169C27.521 77.2169 27.8678 77.0885 28.4588 76.8573C28.69 76.7673 28.9726 76.6646 29.2809 76.5489C25.2215 74.5192 20.584 72.952 16.2163 71.1278H16.242Z" fill="#898481"/>
</g>
<path d="M46.7134 61.7629C46.1353 61.9427 45.57 62.1226 45.1461 62.2639C44.7222 62.4052 44.4396 62.4951 44.4396 62.4951L44.6965 62.7777C44.6965 62.7777 44.9791 62.6878 45.403 62.5465C45.827 62.4052 46.3922 62.2253 46.9703 62.0455C48.1136 61.6858 49.2569 61.3261 49.2569 61.3261L49 61.0306C49 61.0306 47.8567 61.3903 46.7005 61.75L46.7134 61.7629Z" fill="white"/>
<path d="M25.7868 68.9824C25.2344 69.188 24.6821 69.3935 24.2838 69.5477C23.8727 69.7018 23.603 69.8046 23.603 69.8046L23.8984 70.0744C23.8984 70.0744 24.1682 69.9716 24.5793 69.8174C24.9904 69.6633 25.5299 69.4577 26.0823 69.2522C27.1871 68.8411 28.279 68.4429 28.279 68.4429L27.9964 68.1603C27.9964 68.1603 26.8916 68.5714 25.7868 68.9696V68.9824Z" fill="white"/>
<path d="M55.1661 59.1679L55.4102 59.4634L60.0606 58.1017L59.8293 57.8062L55.1661 59.1679Z" fill="white"/>
<path d="M68.385 55.4425L66.0855 56.0591L66.3167 56.3674L68.6034 55.7508L68.385 55.4425Z" fill="white"/>
<path d="M36.1536 65.257C35.036 65.6424 33.9184 66.0407 33.9184 66.0407L34.201 66.3233C34.201 66.3233 35.3186 65.9379 36.4363 65.5397C37.5539 65.1414 38.6844 64.7689 38.6844 64.7689L38.4146 64.4863C38.4146 64.4863 37.2841 64.8588 36.1665 65.257H36.1536Z" fill="white"/>
<path d="M73.4593 62.7006C73.4593 62.7006 73.8319 62.5979 74.5256 62.418C75.2193 62.2253 76.2598 61.9684 77.5701 61.6215C78.8805 61.2875 80.4734 60.8636 82.3233 60.4268C83.2482 60.1956 84.2245 59.9644 85.2522 59.7074C86.2799 59.4634 87.3847 59.2064 88.528 58.9367C93.0884 57.8704 98.4582 56.7014 104.265 55.5581C107.168 54.98 110.187 54.4276 113.257 53.8624C116.34 53.3357 119.475 52.7833 122.635 52.2951C124.202 52.0382 125.782 51.7941 127.362 51.5629C128.942 51.3317 130.51 51.1004 132.077 50.8821C135.211 50.4581 138.282 50.047 141.288 49.7002C144.281 49.3277 147.197 49.0322 149.946 48.7239C152.708 48.4413 155.329 48.1972 157.744 47.9788C160.172 47.7861 162.381 47.6063 164.347 47.4393C166.325 47.3108 168.046 47.1823 169.459 47.0924C170.873 46.9896 171.99 46.9383 172.748 46.8869C173.506 46.8483 173.917 46.8226 173.917 46.8226L171.528 31.5099C171.528 31.5099 171.091 31.5356 170.269 31.5741C169.447 31.6255 168.239 31.6769 166.71 31.7925C165.182 31.8953 163.319 32.0237 161.186 32.165C159.054 32.332 156.652 32.5376 154.031 32.7431C151.423 32.9872 148.584 33.2441 145.591 33.5524C142.611 33.8736 139.451 34.1948 136.226 34.6058C132.976 34.9784 129.649 35.4408 126.257 35.8905C124.562 36.1217 122.866 36.3786 121.17 36.6227C119.462 36.8668 117.753 37.1366 116.058 37.4063C112.64 37.933 109.262 38.5239 105.922 39.102C102.608 39.7058 99.3446 40.3096 96.2101 40.939C89.9411 42.1723 84.1346 43.4312 79.2273 44.5874C77.9941 44.87 76.8122 45.1398 75.6946 45.4095C74.577 45.6793 73.5236 45.9362 72.5344 46.1803C70.5432 46.6556 68.8347 47.1053 67.4216 47.465C66.0085 47.8246 64.8909 48.1073 64.1458 48.3128C63.3879 48.5183 62.9896 48.6211 62.9896 48.6211L73.485 62.6621L73.4593 62.7006ZM173.249 46.2189C173.249 46.2189 172.851 46.2446 172.093 46.2831C171.72 46.3088 171.245 46.3345 170.706 46.3602C170.166 46.3987 169.537 46.4372 168.83 46.4886C167.43 46.5914 165.721 46.707 163.756 46.8355C161.803 46.9896 159.606 47.1695 157.191 47.375C154.802 47.6063 152.194 47.8375 149.458 48.1201C146.722 48.4156 143.831 48.711 140.864 49.0836C137.883 49.4304 134.826 49.8544 131.717 50.2654C128.621 50.7151 125.474 51.1518 122.352 51.6657C119.218 52.141 116.109 52.6934 113.052 53.2201C110.007 53.7853 107.001 54.3249 104.123 54.9029C101.233 55.4553 98.471 56.0591 95.8375 56.5986C93.2297 57.1767 90.7504 57.7034 88.4895 58.243C87.359 58.4999 86.2671 58.7568 85.2394 59.0009C84.2117 59.245 83.2353 59.4891 82.3233 59.7074C80.4862 60.1442 78.9061 60.5553 77.6087 60.8893C75.0009 61.5573 73.5236 61.9555 73.5236 61.9555L63.9659 49.1093C63.9659 49.1093 65.546 48.6725 68.3465 47.966C69.7468 47.6063 71.4296 47.1695 73.3951 46.6942C74.3714 46.4501 75.412 46.206 76.5167 45.9362C77.6215 45.6793 78.7905 45.4095 79.9981 45.1269C82.4132 44.5488 85.0724 43.9836 87.8728 43.367C90.6862 42.7761 93.6537 42.1338 96.7496 41.5428C99.8327 40.9262 103.057 40.3353 106.333 39.7443C109.622 39.1791 112.949 38.5882 116.327 38.0743C129.752 35.9162 143.446 34.3746 153.761 33.4625C156.343 33.257 158.72 33.0643 160.814 32.8844C162.921 32.7431 164.758 32.6147 166.261 32.5119C167.019 32.4605 167.687 32.4091 168.278 32.3706C168.869 32.3321 169.37 32.3064 169.768 32.2807C170.577 32.2293 171.014 32.2164 171.014 32.2164L173.249 46.2189Z" fill="#92968A"/>
<path d="M147.993 48.6083C147.993 48.6083 146.388 48.7881 143.973 49.0451C142.778 49.1864 141.378 49.3534 139.875 49.5461C139.117 49.636 138.346 49.7259 137.562 49.8287C136.779 49.9314 135.982 50.0471 135.186 50.1498C128.801 50.972 122.494 51.9997 122.494 51.9997C122.494 51.9997 122.095 52.0639 121.414 52.1667C120.721 52.2823 119.732 52.4236 118.55 52.6292C116.199 53.0274 113.052 53.5541 109.93 54.145C109.146 54.2863 108.363 54.4276 107.592 54.5689C106.834 54.7231 106.076 54.8644 105.344 55.0057C103.892 55.2883 102.518 55.5581 101.361 55.7893C99.0491 56.2775 97.5076 56.5858 97.5076 56.5858C97.5076 56.5858 97.1222 56.6629 96.4413 56.8042C95.7733 56.9455 94.8098 57.1639 93.6665 57.4208C91.3542 57.9218 88.3096 58.6284 85.2651 59.3478C83.7492 59.7203 82.2333 60.08 80.8203 60.4397C79.4072 60.7865 78.0969 61.1334 76.9664 61.416C75.8359 61.6986 74.8981 61.9427 74.243 62.1225C73.5878 62.3024 73.2153 62.3923 73.2153 62.3923L63.1695 48.9551C63.1695 48.9551 63.5677 48.8524 64.2743 48.6597C64.9808 48.467 65.9828 48.21 67.1904 47.9017C68.3979 47.5934 69.811 47.2209 71.3397 46.8483C72.8684 46.4758 74.4871 46.0776 76.1185 45.6793C79.3943 44.9086 82.6701 44.1506 85.1495 43.6111C86.3827 43.3413 87.4232 43.1101 88.1426 42.9559C88.8749 42.8018 89.286 42.7247 89.286 42.7247C89.286 42.7247 90.9431 42.3778 93.4353 41.864C94.6814 41.6071 96.1459 41.3245 97.7131 41.0161C98.4967 40.862 99.306 40.7078 100.128 40.5408C100.95 40.3867 101.798 40.2325 102.633 40.0784C105.986 39.4489 109.378 38.8837 111.908 38.4469C113.18 38.2285 114.246 38.0743 114.991 37.9459C115.736 37.8303 116.16 37.766 116.16 37.766C116.16 37.766 122.956 36.6741 129.842 35.7749C130.702 35.6592 131.563 35.5436 132.411 35.428C133.259 35.3252 134.094 35.2225 134.903 35.1197C136.522 34.927 138.038 34.7472 139.322 34.5802C141.917 34.2975 143.651 34.1177 143.651 34.1177C143.651 34.1177 150.575 33.3598 157.564 32.8074C161.045 32.4991 164.552 32.2935 167.173 32.1008C168.483 31.9981 169.588 31.9595 170.346 31.9081C171.117 31.8696 171.553 31.8439 171.553 31.8439L173.84 46.5015C173.84 46.5015 173.429 46.5272 172.722 46.5657C172.016 46.6043 170.988 46.6556 169.781 46.7456C167.353 46.9126 164.103 47.1181 160.865 47.4007C154.391 47.9017 147.968 48.6083 147.968 48.6083H147.993Z" fill="#898481"/>
<path d="M70.4019 54.9158L68.0895 55.5324L68.3208 55.8279L70.6203 55.2113L70.4019 54.9158Z" fill="white"/>
<path d="M172.735 39.3461L170.23 39.4874L170.179 39.1663L172.684 39.025L172.735 39.359V39.3461ZM163.383 39.9371C163.383 39.9371 163.062 39.9627 162.587 39.9884C162.111 40.027 161.469 40.0784 160.827 40.1297C159.542 40.2325 158.257 40.3353 158.257 40.3353L158.18 40.0141C158.18 40.0141 159.465 39.9114 160.75 39.8086C161.392 39.7572 162.034 39.7058 162.522 39.6673C163.011 39.6287 163.319 39.6159 163.319 39.6159L163.383 39.9371ZM151.436 40.9519C151.436 40.9519 150.151 41.0675 148.88 41.196C147.608 41.3373 146.336 41.4658 146.336 41.4658L146.246 41.1446C146.246 41.1446 147.518 41.0033 148.803 40.8748C150.087 40.7592 151.359 40.6307 151.359 40.6307L151.449 40.9519H151.436ZM139.553 42.2237C139.553 42.2237 138.282 42.3778 137.023 42.532C136.393 42.6091 135.751 42.6862 135.276 42.7375C134.8 42.8018 134.492 42.8403 134.492 42.8403L134.376 42.5191C134.376 42.5191 134.697 42.4806 135.173 42.4164C135.648 42.365 136.29 42.2879 136.92 42.2108C138.192 42.0567 139.463 41.9025 139.463 41.9025L139.566 42.2237H139.553ZM127.76 43.7524L122.738 44.4846L122.596 44.1635L127.632 43.4312L127.76 43.7524ZM116.07 45.538L111.099 46.3859L110.945 46.0647L115.929 45.2169L116.07 45.538ZM104.496 47.5934C104.496 47.5934 104.188 47.6448 103.725 47.7347C103.263 47.8247 102.646 47.9403 102.029 48.0687C100.809 48.3128 99.5757 48.5569 99.5757 48.5569L99.4087 48.2486C99.4087 48.2486 100.642 48.0045 101.862 47.7604C102.479 47.6448 103.096 47.5163 103.558 47.4264C104.021 47.3365 104.329 47.2851 104.329 47.2851L104.496 47.5934ZM93.0498 49.8929C93.0498 49.8929 92.7415 49.9571 92.2791 50.0471C91.8294 50.1498 91.2128 50.2783 90.609 50.4196C89.3887 50.6894 88.1811 50.9591 88.1811 50.9591L87.9884 50.6508C87.9884 50.6508 89.2088 50.3811 90.4163 50.1113C91.0201 49.9828 91.6239 49.8415 92.0864 49.7387C92.5488 49.6488 92.8443 49.5846 92.8443 49.5846L93.0241 49.8929H93.0498ZM81.758 52.4236C81.758 52.4236 81.4625 52.4879 81 52.6035C80.5504 52.7191 79.9466 52.8604 79.3557 53.0017C78.161 53.2972 76.9535 53.5926 76.9535 53.5926L76.7479 53.2843C76.7479 53.2843 77.9426 52.9889 79.1502 52.6934C79.754 52.5521 80.3449 52.3979 80.8073 52.2952C81.257 52.1924 81.5653 52.1153 81.5653 52.1153L81.7708 52.4236H81.758Z" fill="white"/>
<path d="M5.16885 68.3915C4.59077 68.186 3.9613 67.9419 3.25476 67.685C2.54821 67.4409 1.77744 67.184 0.955276 66.9014C-0.689046 66.349 -2.53891 65.7195 -4.56862 65.0387C-6.62402 64.3835 -8.87212 63.7026 -11.2358 62.9704C-11.8268 62.7906 -12.4305 62.5979 -13.0343 62.418C-13.6509 62.2382 -14.2804 62.0583 -14.9099 61.8913C-14.9356 61.8913 -14.9612 61.8785 -14.9869 61.8656V62.585C-14.5759 62.7006 -14.1648 62.8163 -13.7537 62.9319C-13.1499 63.1117 -12.559 63.3044 -11.9809 63.4714C-9.65574 64.1908 -7.44618 64.8717 -5.41647 65.5011C-3.4253 66.1691 -1.60113 66.7858 0.017498 67.3381C1.63613 67.8905 3.06206 68.353 4.17969 68.7898C6.45348 69.6248 7.75095 70.1129 7.75095 70.1129L-4.69708 82.0471C-4.69708 82.0471 -5.86609 81.6103 -7.93434 80.8524C-8.94919 80.4542 -10.2338 80.0431 -11.6983 79.5421C-12.7131 79.1952 -13.8179 78.8227 -14.9869 78.4245V79.1824C-13.8822 79.5549 -12.8545 79.9018 -11.891 80.2358C-11.1588 80.4799 -10.4651 80.7239 -9.82274 80.9295C-9.19327 81.1479 -8.62804 81.3663 -8.10134 81.559C-6.03309 82.3297 -4.85124 82.7665 -4.85124 82.7665L8.80434 69.7404C8.80434 69.7404 7.49402 69.2522 5.1817 68.4044L5.16885 68.3915Z" fill="#92968A"/>
<path d="M5.20724 68.7897C3.26745 68.0318 0.544042 67.1583 -2.14083 66.2333C-2.80883 66.0021 -3.48969 65.7837 -4.14485 65.5525C-4.47885 65.4369 -4.8 65.3341 -5.13401 65.2185C-5.46801 65.1157 -5.78917 65.0129 -6.11032 64.9102C-7.39495 64.5119 -8.6025 64.1394 -9.6302 63.8182C-11.6984 63.1759 -13.073 62.752 -13.073 62.752C-13.073 62.752 -13.4198 62.6492 -14.0365 62.4822C-14.3062 62.4051 -14.6402 62.3152 -14.9999 62.2124V78.797C-14.7173 78.8869 -14.4475 78.9768 -14.1778 79.0796C-11.7627 79.9017 -9.30904 80.6982 -7.54911 81.3791C-5.77632 82.0342 -4.58162 82.471 -4.58162 82.471L8.49588 69.9973C8.49588 69.9973 7.18556 69.5091 5.20724 68.7769V68.7897Z" fill="#898481"/>
<path d="M-5.09552 82.6766C-5.09552 82.6766 -3.91366 83.1133 -1.84542 83.8841C-0.830561 84.2952 0.389834 84.7833 1.79008 85.3614C2.49662 85.644 3.24171 85.9524 4.02533 86.2607C4.80895 86.5818 5.6568 86.903 6.49181 87.2755C13.3003 90.1788 22.0486 94.3281 30.3216 98.8372C32.3385 99.9933 34.3682 101.149 36.3594 102.293C36.8604 102.575 37.3485 102.858 37.8495 103.141C38.3249 103.436 38.7873 103.732 39.2626 104.027C40.2004 104.605 41.1253 105.183 42.0246 105.761C42.9367 106.327 43.8231 106.892 44.6966 107.431C45.1334 107.701 45.5701 107.971 45.9941 108.241C46.4052 108.523 46.8034 108.793 47.2016 109.063C48.7946 110.155 50.2976 111.17 51.685 112.12C52.3787 112.596 53.0467 113.045 53.6761 113.482C54.3056 113.919 54.858 114.355 55.3975 114.754C56.4638 115.55 57.4016 116.257 58.1723 116.822C59.7139 117.965 60.5874 118.633 60.5874 118.633L80.9102 109.204C80.9102 109.204 79.9467 108.485 78.2767 107.239C77.4417 106.609 76.414 105.851 75.2579 104.978C74.6669 104.541 74.0632 104.066 73.3823 103.59C72.6886 103.115 71.9692 102.627 71.2113 102.1C69.6954 101.06 68.0511 99.9419 66.304 98.7601C65.8672 98.4646 65.4305 98.1692 64.9809 97.8608C64.5184 97.5654 64.0431 97.2699 63.5678 96.9745C62.6043 96.3707 61.628 95.7669 60.626 95.1374C59.624 94.5208 58.6091 93.8785 57.5942 93.2362C57.0804 92.915 56.5665 92.5939 56.0398 92.2727C55.5003 91.9644 54.9479 91.6433 54.4084 91.3349C52.2117 90.076 49.9893 88.8042 47.7669 87.5324C38.6589 82.5609 28.9856 77.962 21.4192 74.7376C20.5071 74.3136 19.5565 73.9668 18.6829 73.6071C17.8094 73.2474 16.9744 72.9134 16.1907 72.6051C14.6235 71.9756 13.2618 71.4232 12.1442 70.9736C9.84468 70.1129 8.53437 69.6248 8.53437 69.6248L-5.09552 82.6637V82.6766ZM61.1527 118.004C61.1527 118.004 60.2791 117.349 58.7504 116.218C57.196 115.088 55.1149 113.405 52.3016 111.555C50.927 110.617 49.4369 109.589 47.8439 108.523C47.4457 108.253 47.0603 107.971 46.6364 107.701C46.2125 107.431 45.7885 107.174 45.3518 106.905C44.4911 106.365 43.5918 105.813 42.6926 105.247C41.7933 104.682 40.8684 104.104 39.9435 103.526C39.481 103.231 39.0186 102.935 38.5432 102.653C38.0551 102.37 37.5541 102.087 37.0659 101.805C35.0876 100.674 33.0836 99.518 31.0667 98.3747C22.858 93.9042 14.1739 89.7549 7.4039 86.8773C6.58173 86.5047 5.74673 86.1707 4.9631 85.8624C4.17948 85.5413 3.4344 85.2458 2.7407 84.9632C1.34046 84.398 0.132909 83.9098 -0.881946 83.4987C-1.88395 83.0876 -2.71896 82.8179 -3.2585 82.5995C-3.81089 82.3939 -4.10636 82.2912 -4.10636 82.2912L8.4059 70.3827C8.4059 70.3827 8.72706 70.4983 9.33083 70.7295C9.93461 70.9608 10.8467 71.2691 11.9515 71.7187C13.0562 72.1683 14.4051 72.7079 15.9338 73.3245C16.7046 73.6328 17.5267 73.9668 18.3874 74.3136C19.2481 74.6605 20.1602 75.0202 21.0723 75.4441C28.5232 78.6043 38.0422 83.1519 47.0089 88.0463C49.2056 89.3052 51.3895 90.5513 53.5477 91.7846C54.0872 92.0929 54.6268 92.4012 55.1535 92.7095C55.6802 93.0178 56.1812 93.339 56.6822 93.6601C57.697 94.2896 58.699 94.919 59.6753 95.5228C60.6517 96.1394 61.6151 96.7432 62.5658 97.3341C63.0411 97.6296 63.5035 97.9251 63.966 98.2077C64.4156 98.5032 64.8395 98.7986 65.2763 99.0941C66.9849 100.263 68.6163 101.368 70.1065 102.383C73.1511 104.4 75.4249 106.211 77.0949 107.431C78.752 108.665 79.6898 109.371 79.6898 109.371L61.127 118.017L61.1527 118.004Z" fill="#92968A"/>
<path d="M46.5464 108.125C46.5464 108.125 46.3152 107.971 45.8913 107.701C45.4673 107.431 44.8636 107.059 44.1313 106.596C42.6797 105.684 40.7271 104.477 38.7873 103.256C38.312 102.948 37.7981 102.665 37.2971 102.383C36.7961 102.1 36.3079 101.818 35.8326 101.548C34.882 101.008 33.9956 100.494 33.2377 100.058C31.7218 99.184 30.707 98.6059 30.707 98.6059C30.707 98.6059 30.6427 98.5674 30.5271 98.5032C30.4115 98.4389 30.2445 98.3362 30.0004 98.2205C29.538 97.9765 28.8828 97.6296 28.0863 97.2185C26.5062 96.3835 24.3995 95.2788 22.2927 94.174C20.1088 93.1206 17.9378 92.08 16.3063 91.2836C15.4841 90.8853 14.8161 90.5642 14.328 90.3329C14.0967 90.2173 13.8912 90.1403 13.7627 90.076C13.6343 90.0246 13.5572 89.9861 13.5572 89.9861C13.5572 89.9861 12.4267 89.4851 10.7439 88.7529C9.89602 88.3803 8.9197 87.9435 7.86631 87.4811C7.33961 87.2498 6.80007 87.0058 6.24768 86.7617C5.68244 86.5304 5.10436 86.2992 4.52628 86.068C2.21395 85.1302 -0.0983768 84.2053 -1.83262 83.4987C-3.61825 82.8436 -4.80011 82.4068 -4.80011 82.4068L8.25169 69.9202C8.25169 69.9202 9.56201 70.4084 11.5275 71.1406C13.4544 71.9114 16.0108 72.952 18.5672 73.9797C19.2096 74.2366 19.839 74.4935 20.4685 74.7504C21.0723 75.0202 21.676 75.29 22.267 75.534C23.436 76.0479 24.5151 76.5232 25.4528 76.9343C27.3156 77.7564 28.5488 78.3088 28.5488 78.3088C28.5488 78.3088 28.6259 78.3474 28.7672 78.4116C28.9085 78.4758 29.1269 78.5658 29.3838 78.6942C29.9105 78.9512 30.6556 79.3108 31.5548 79.7348C33.3533 80.6083 35.7556 81.7645 38.145 82.9207C40.4573 84.1282 42.7696 85.3486 44.5039 86.2607C45.3646 86.7103 46.0968 87.0957 46.5978 87.3655C46.8547 87.4939 47.0346 87.6095 47.1759 87.6866C47.3043 87.7637 47.3814 87.8022 47.3814 87.8022C47.3814 87.8022 48.499 88.4317 50.1562 89.3952C51.8134 90.3586 54.0615 91.6047 56.2325 92.9022C58.3521 94.2254 60.4718 95.5485 62.0647 96.5505C62.8612 97.0515 63.5163 97.4626 63.9916 97.7452C64.467 98.0407 64.711 98.2077 64.711 98.2077C64.711 98.2077 68.7448 100.97 72.7913 103.719C74.7568 105.119 76.6324 106.571 78.0711 107.637C79.5099 108.716 80.4605 109.422 80.4605 109.422L60.9985 118.453C60.9985 118.453 60.1121 117.798 58.7889 116.809C57.4529 115.833 55.7315 114.497 53.9202 113.199C50.2076 110.669 46.5079 108.138 46.5079 108.138L46.5464 108.125Z" fill="#898481"/>
</g>
</g>
</g>
<defs>
<clipPath id="clip0_3432_1008">
<rect width="99" height="70" rx="12" fill="white"/>
</clipPath>
<clipPath id="clip1_3432_1008">
<rect width="99" height="70" rx="12" fill="white"/>
</clipPath>
<clipPath id="clip2_3432_1008">
<rect width="275" height="155.722" fill="white" transform="translate(-15 -31)"/>
</clipPath>
</defs>
</svg>
