<svg width="375" height="269" viewBox="0 0 375 269" fill="none" xmlns="http://www.w3.org/2000/svg">
<g clip-path="url(#clip0_353_35910)">
<path d="M298.568 223.343C301.659 223.343 304.166 220.844 304.166 217.762C304.166 214.68 301.659 212.181 298.568 212.181C295.476 212.181 292.969 214.68 292.969 217.762C292.969 220.844 295.476 223.343 298.568 223.343Z" fill="#4097FF"/>
<path d="M282.824 199.829C278.037 204.17 275.044 209.754 273.888 215.645L278.001 216.139C278.921 211.319 281.354 206.747 285.267 203.199C293.524 195.711 305.71 195.192 314.514 201.285L318.097 196.922C307.309 189.983 292.759 190.819 282.824 199.829V199.829Z" fill="#4097FF"/>
<path d="M289.43 207.301C286.532 209.929 284.701 213.295 283.954 216.853L287.085 217.229C287.655 214.785 288.959 212.571 290.823 210.884C295.423 206.713 302.329 206.624 307.024 210.403L311.115 205.423C304.456 201.221 295.535 201.765 289.43 207.301V207.301Z" fill="#4097FF"/>
<path d="M268.335 214.979C269.713 208.062 273.238 201.511 278.86 196.412C290.755 185.625 308.255 184.765 321.039 193.341L323.217 190.69C310.062 181.709 292.508 181.415 279.019 190.207L272.301 195.718C267.117 201.008 263.703 207.438 262.094 214.23L268.335 214.979Z" fill="#4097FF"/>
</g>
<g clip-path="url(#clip1_353_35910)">
<path d="M327.748 247.58C327.655 247.58 327.564 247.559 327.48 247.519C327.396 247.479 327.322 247.42 327.264 247.348C327.205 247.275 327.164 247.19 327.143 247.099C327.121 247.009 327.121 246.914 327.141 246.823C337.026 201.737 335.112 165.171 321.454 138.141C310.952 117.356 296.695 109.124 292.575 107.096C292.501 107.061 292.434 107.011 292.378 106.95C292.323 106.888 292.28 106.817 292.253 106.738C292.225 106.66 292.213 106.578 292.218 106.495C292.223 106.412 292.245 106.331 292.281 106.257C292.317 106.183 292.368 106.117 292.43 106.062C292.493 106.008 292.565 105.966 292.644 105.941C292.722 105.915 292.805 105.904 292.887 105.911C292.97 105.917 293.05 105.94 293.123 105.978C297.33 108.049 311.886 116.449 322.563 137.578C328.695 149.715 332.521 164.039 333.932 180.152C335.655 199.828 333.779 222.35 328.354 247.091C328.324 247.229 328.247 247.353 328.137 247.442C328.027 247.531 327.89 247.58 327.748 247.58H327.748Z" fill="#8E5740"/>
<path d="M306.444 103.918C315.375 113.512 321.109 126.249 318.327 128.848C315.546 131.448 303.637 124.886 294.707 115.292C285.776 105.698 280.79 95.8137 283.572 93.2139C286.353 90.6142 297.513 94.324 306.444 103.918ZM337.437 139.699C337.428 149.379 333.312 157.439 330.539 157.437C327.766 157.434 325.714 149.663 326.327 140.004C326.947 130.213 328.559 123.325 331.332 123.327C334.104 123.33 337.445 130.02 337.437 139.699ZM327.162 164.102C331.601 167.652 333.751 172.555 332.705 173.867C331.66 175.18 327.821 172.671 323.118 169.477C318.086 166.06 315.939 163.272 316.789 161.834C317.888 159.975 322.722 160.552 327.162 164.102H327.162Z" fill="#5B5C1A"/>
<path d="M306.444 103.918C301.895 99.0313 296.175 95.2144 291.168 93.3973C294.986 95.7756 299.887 100.831 303.666 105.927C308.123 111.938 311.524 118.778 313.101 123.932C313.765 126.1 318.793 122.407 315.5 116.634C313.212 112.623 310.106 107.851 306.444 103.918L306.444 103.918Z" fill="#7C7C29"/>
<path d="M323.385 111.695C323.633 121.369 319.602 129.537 316.743 129.611C313.883 129.684 311.365 121.902 311.118 112.228C310.87 102.554 312.987 94.652 315.846 94.5786C318.706 94.5051 323.137 102.021 323.385 111.695L323.385 111.695Z" fill="#5B5C1A"/>
<path d="M323.385 111.695C323.169 103.258 319.771 96.4642 317.009 94.9131C318.834 104.292 318.835 121.183 316.896 129.594C319.743 129.244 323.628 121.199 323.385 111.695Z" fill="#7C7C29"/>
<path d="M316.885 129.906C316.846 129.906 316.807 129.897 316.771 129.88C316.736 129.863 316.705 129.838 316.68 129.807C316.656 129.776 316.639 129.74 316.63 129.702C316.621 129.663 316.621 129.623 316.63 129.585C318.549 121.329 318.609 104.503 316.753 94.9626C316.747 94.9289 316.747 94.8941 316.754 94.8604C316.761 94.8267 316.774 94.7947 316.793 94.7662C316.812 94.7377 316.837 94.7132 316.866 94.6942C316.894 94.6753 316.926 94.6621 316.96 94.6555C316.994 94.649 317.028 94.6491 317.062 94.6559C317.096 94.6628 317.128 94.6762 317.156 94.6954C317.184 94.7146 317.209 94.7393 317.228 94.7679C317.247 94.7966 317.26 94.8287 317.266 94.8625C319.133 104.459 319.072 121.391 317.14 129.703C317.126 129.761 317.094 129.812 317.048 129.849C317.002 129.886 316.944 129.906 316.885 129.906H316.885Z" fill="#033A11"/>
<path d="M331.353 123.329C331.346 123.329 331.339 123.327 331.332 123.327C328.559 123.325 326.948 130.213 326.327 140.004C325.732 149.392 327.654 156.994 330.308 157.416C334.074 148.639 332.529 130.029 331.353 123.329Z" fill="#7C7C29"/>
</g>
<g clip-path="url(#clip2_353_35910)">
<path d="M262.928 137.737C264.445 136.486 269.15 126.773 271.581 122.722C274.011 118.671 284.617 108.812 291.962 108.211C300.335 107.526 311.314 107.963 311.889 110.893C312.417 113.583 307.838 115.137 305.678 116.131C308.378 116.131 312.489 117.287 312.489 119.571C312.489 121.881 307.433 123.816 306.218 124.917C308.195 125 310.968 125.876 311.106 128.179C311.244 130.483 298.926 132.482 296.495 133.795C294.064 135.108 294.131 143.453 287.647 148.543C281.432 153.422 273.603 159.25 269.349 161.328C265.41 160.071 256.189 152.275 255.188 143.469C255.109 142.778 262.357 138.208 262.928 137.737L262.928 137.737Z" fill="#F7B4A3"/>
<path d="M306.275 124.868C307.58 123.76 312.489 121.847 312.489 119.57C312.489 117.294 308.378 116.131 305.677 116.131C300.194 116.675 293.133 116.486 289.06 118.227C284.987 119.968 282.894 128.921 282.586 131.6C286.566 137.086 293.549 131.6 295.371 125.937C298.651 125.128 303.422 124.127 306.275 124.868Z" fill="#DDA094"/>
<path d="M255.124 196.493C250.245 208.834 231.027 212.838 212.198 205.435C193.368 198.032 180.026 186.398 184.904 174.057C189.782 161.715 211.034 153.339 229.863 160.742C248.693 168.145 260.002 184.151 255.124 196.493V196.493Z" fill="#F8A036"/>
<path d="M106.184 92.6725C103.453 93.3925 91.9711 96.0542 87.1871 101.442C81.8811 107.418 81.6472 117.401 89.3796 118.512C97.112 119.623 112.405 117.199 114.937 112.957C117.469 108.715 119.417 89.1826 106.184 92.6725Z" fill="#6940E4"/>
<path d="M230.166 175.934C220.734 196.317 180.149 198.685 140.333 180.359C100.517 162.032 75.8868 130.652 85.319 110.27C94.7511 89.8874 136.723 86.3154 175.865 106.033C210.091 123.273 239.598 155.551 230.165 175.934H230.166Z" fill="#F8A036"/>
<path d="M190.074 143.635C190.074 143.635 193.865 180.054 192.814 204.975C191.762 229.896 195.658 245.995 171.357 245.995H83.5262C65.5987 245.995 53.1903 227.376 59.4868 210.635L92.5793 122.65C97.1339 110.54 110.027 103.719 122.635 106.749L170.42 118.236C182.136 121.052 190.312 131.618 190.074 143.635V143.635Z" fill="#F8A036"/>
<path d="M175.994 114.416C178.358 107.512 169.587 98.2761 156.405 93.7872C143.223 89.2982 130.621 91.2562 128.257 98.1604C125.893 105.065 134.663 114.301 147.846 118.789C161.028 123.278 173.63 121.32 175.994 114.416Z" fill="#D88830"/>
<path d="M275.281 150.372C285.027 164.251 272.524 188.919 259.211 201.695C243.465 216.804 215.817 209.71 205.062 199.403C192.812 187.663 207.463 161.567 225.268 149.132C243.072 136.697 265.536 136.493 275.281 150.372Z" fill="#F8A036"/>
<path d="M211.58 200.706C201.493 193.086 194.98 182.785 192.658 172.382C190.624 174.749 189.161 177.335 188.432 180.015C184.953 192.819 199.505 202.91 219.04 208.189C223.231 209.322 227.381 209.929 231.35 210.061C224.56 208.489 217.766 205.379 211.58 200.706H211.58Z" fill="#D88830"/>
<path d="M95.5198 163.966C122.837 142.832 136.913 115.325 126.959 102.528C117.006 89.7313 86.7918 96.4901 59.4747 117.624C32.1576 138.759 18.0817 166.265 28.0353 179.062C37.9889 191.859 68.2027 185.1 95.5198 163.966Z" fill="#F8A036"/>
<path d="M192.997 169.813C192.759 155.462 201.113 124.504 188.161 111.521C180.437 103.779 171.106 93.7021 144.756 90.3577C126.24 88.0076 112.229 90.3239 100.699 94.4199C97.5653 95.5331 96.9209 96.5909 95.2094 98.5283C98.173 97.7708 101.37 102.924 103.024 110.212C104.851 118.262 104.186 129.076 101.606 137.041C97.4147 149.985 87.2002 162.74 83.5029 162.251C79.8057 161.762 54.3234 208.158 53.1573 211.261C48.4984 223.662 48.2959 246.085 68.5516 246.085H107.522C112.244 246.085 116.493 243.229 118.263 238.863C123.155 226.797 132.641 203.102 134.86 195.38C138.411 183.024 145.628 157.584 150.439 146.78C152.845 141.377 156.693 130.727 151.091 127.12C143.661 122.336 132.143 110.247 128.853 101.444C125.939 93.6472 139.563 93.0555 153.796 97.3726C168.028 101.689 178.306 109.621 179.257 117.711C180.105 124.923 174.714 129.527 168.391 131.032C167.035 131.355 166.104 132.592 166.209 133.978C166.989 144.337 175.934 181.035 174.894 201.622C173.679 225.682 158.082 246.086 172.666 246.086H190.491C206.898 246.086 196.314 183.841 192.997 169.813V169.813Z" fill="#7D54F8"/>
<path d="M172.385 129.856C177.595 127.446 181.531 122.711 180.907 116.031C180.073 107.099 169.47 98.5269 154.654 94.0329C139.837 89.539 125.561 90.4642 128.457 99.033C128.463 99.0519 128.47 99.071 128.477 99.0899C129.005 93.5768 141.16 93.5395 153.796 97.3723C168.029 101.689 178.307 109.621 179.257 117.71C179.922 123.366 176.751 127.418 172.303 129.629C172.177 129.691 172.266 129.911 172.385 129.856H172.385Z" fill="#6940E4"/>
<path d="M25.2 165.305C26.5355 149.807 49.4385 147.716 70.807 150.085C92.6886 152.512 109.841 163.782 103.135 185.645C95.8617 209.356 82.1567 216.404 58.7499 207.25C38.6659 199.396 23.5292 184.695 25.2 165.305Z" fill="#F8A036"/>
<path d="M193.162 170.734C193.113 170.734 193.066 170.718 193.029 170.687C192.991 170.657 192.965 170.614 192.955 170.567C191.893 165.536 189.354 161.277 187.935 159.186C187.904 159.139 187.892 159.082 187.903 159.027C187.913 158.972 187.946 158.923 187.992 158.892C188.039 158.861 188.096 158.849 188.151 158.859C188.206 158.87 188.255 158.902 188.286 158.949C189.723 161.065 192.293 165.378 193.37 170.479C193.376 170.51 193.376 170.542 193.368 170.573C193.361 170.603 193.347 170.632 193.327 170.656C193.307 170.681 193.282 170.7 193.253 170.714C193.225 170.728 193.194 170.735 193.162 170.734Z" fill="#2B2929"/>
<path d="M116.649 176.894C120.952 174.525 127.112 170.26 129.553 168.827C132.764 166.941 137.305 167.138 135.355 171.84C134.478 173.974 133.406 176.023 132.152 177.961L116.649 176.894Z" fill="#F7B4A3"/>
<path d="M161.463 165.613L141.254 211.642C140.95 212.334 140.45 212.923 139.815 213.336C139.18 213.748 138.437 213.967 137.679 213.964L121.701 211.529C119.555 211.52 117.822 209.778 117.83 207.638C117.832 207.141 117.93 206.649 118.118 206.188L137.327 160.054C137.72 159.093 138.418 158.288 139.315 157.762C140.212 157.237 141.257 157.02 142.29 157.145L157.693 159.021C160.292 159.336 162.143 161.692 161.828 164.284C161.772 164.742 161.649 165.19 161.463 165.613Z" fill="#FCF0E3"/>
<path d="M155.302 169.023L140.009 203.854C139.556 204.886 138.811 205.762 137.865 206.376C136.919 206.99 135.814 207.315 134.685 207.311L122.465 204.893C122.142 204.892 121.824 204.811 121.539 204.659C121.254 204.506 121.012 204.287 120.832 204.019C120.652 203.751 120.541 203.443 120.508 203.122C120.476 202.802 120.522 202.478 120.644 202.18L135.9 165.712C136.296 164.744 137.001 163.932 137.906 163.402C138.81 162.873 139.864 162.654 140.905 162.781L152.542 164.198C154.445 164.429 155.8 166.156 155.568 168.054C155.527 168.388 155.437 168.715 155.302 169.023V169.023Z" fill="#2B2929"/>
<path d="M146.007 160.7L145.994 160.837C145.974 161.065 146.143 161.267 146.373 161.288L148.963 161.519C149.193 161.54 149.395 161.371 149.416 161.142L149.428 161.006C149.449 160.777 149.279 160.575 149.05 160.555L146.459 160.323C146.23 160.303 146.027 160.471 146.007 160.7Z" fill="#2B2929"/>
<path d="M150.592 161.677C150.952 161.677 151.243 161.386 151.243 161.027C151.243 160.668 150.952 160.377 150.592 160.377C150.232 160.377 149.941 160.668 149.941 161.027C149.941 161.386 150.232 161.677 150.592 161.677Z" fill="#2B2929"/>
<path d="M157.338 169.244L156.242 171.82C156.115 172.12 156.255 172.466 156.556 172.593L156.556 172.593C156.856 172.72 157.203 172.58 157.331 172.28L158.426 169.705C158.553 169.405 158.413 169.059 158.113 168.932L158.112 168.932C157.812 168.805 157.465 168.945 157.338 169.244Z" fill="#EACAAC"/>
<path d="M156.266 173.27C156.338 173.3 156.402 173.344 156.457 173.399C156.511 173.455 156.554 173.52 156.583 173.592C156.613 173.664 156.627 173.741 156.626 173.818C156.626 173.895 156.61 173.972 156.579 174.043L155.484 176.618C155.454 176.689 155.41 176.754 155.355 176.808C155.299 176.863 155.234 176.905 155.162 176.934C155.016 176.993 154.854 176.992 154.709 176.931C154.565 176.869 154.451 176.754 154.392 176.609C154.333 176.464 154.335 176.302 154.396 176.158L155.491 173.583C155.521 173.511 155.565 173.447 155.621 173.392C155.676 173.338 155.742 173.295 155.814 173.266C155.886 173.237 155.963 173.223 156.04 173.223C156.118 173.224 156.195 173.24 156.266 173.27Z" fill="#EACAAC"/>
<path d="M98.8933 197.714C103.909 199.537 104.031 199.725 109.503 200.537C117.491 201.723 130.658 202.387 134.012 198.491C139.157 204.56 144.247 206.319 145.535 205.691C147.954 204.511 149.386 201.063 143.169 192.108C145.319 198.522 152.025 203.707 154.384 199.952C155.833 197.645 153.398 189.922 148.313 183.919C149.388 182.648 162.855 184.989 164.219 181.622C166.13 176.909 144.119 170.475 137.773 171.745C129.117 173.476 125.425 173.813 118.934 175.276C113.171 175.508 115.926 175.577 108.284 173.972C100.829 172.405 92.4163 195.359 98.8936 197.714L98.8933 197.714Z" fill="#F7B4A3"/>
<path d="M119.362 175.522C119.314 175.522 119.267 175.506 119.23 175.476C119.192 175.446 119.166 175.405 119.155 175.358C119.145 175.311 119.15 175.262 119.171 175.219C119.191 175.176 119.226 175.141 119.269 175.12C120.2 174.671 126.552 173.456 131.19 172.569C133.09 172.205 134.59 171.918 135.19 171.784C135.243 171.775 135.298 171.787 135.343 171.817C135.388 171.847 135.42 171.894 135.432 171.947C135.444 171.999 135.435 172.055 135.407 172.101C135.379 172.148 135.335 172.182 135.283 172.197C134.677 172.332 133.173 172.62 131.269 172.984C126.915 173.817 120.334 175.076 119.454 175.501C119.426 175.515 119.394 175.522 119.362 175.522V175.522ZM148.312 184.13C148.283 184.13 148.254 184.124 148.228 184.113C148.201 184.101 148.177 184.084 148.157 184.063C144.127 179.749 139.511 180.588 134.625 181.476C134.218 181.55 133.81 181.624 133.404 181.695C133.349 181.702 133.294 181.689 133.249 181.657C133.204 181.624 133.174 181.576 133.165 181.522C133.155 181.468 133.167 181.412 133.198 181.366C133.229 181.321 133.277 181.289 133.331 181.278C133.736 181.208 134.143 181.134 134.549 181.06C139.332 180.191 144.278 179.292 148.467 183.775C148.495 183.805 148.514 183.842 148.521 183.883C148.528 183.924 148.523 183.965 148.507 184.003C148.49 184.041 148.463 184.073 148.429 184.096C148.394 184.118 148.354 184.13 148.312 184.13ZM147.008 198.7C146.968 198.7 146.929 198.689 146.896 198.668C146.862 198.647 146.835 198.617 146.817 198.581C142.353 189.481 137.876 189.603 132.693 189.742C131.945 189.762 131.17 189.782 130.389 189.774C130.333 189.774 130.279 189.751 130.24 189.711C130.201 189.671 130.179 189.617 130.179 189.561C130.18 189.505 130.203 189.451 130.243 189.412C130.283 189.373 130.337 189.351 130.394 189.352C131.167 189.361 131.937 189.339 132.682 189.319C137.788 189.181 142.613 189.051 147.198 198.395C147.214 198.427 147.221 198.463 147.219 198.499C147.218 198.535 147.207 198.57 147.188 198.6C147.169 198.63 147.142 198.655 147.111 198.673C147.079 198.69 147.044 198.699 147.008 198.699V198.7ZM145.484 204.239C144.176 204.239 142.341 202.939 141.566 201.781C141.056 201.022 141.037 200.361 141.512 199.968C142.794 198.909 144.369 197.783 145.184 198.477C145.845 199.039 147.052 201.445 146.89 202.906C146.828 203.468 146.585 203.865 146.167 204.085C145.967 204.191 145.735 204.239 145.484 204.239H145.484ZM144.563 198.688C144.117 198.688 143.294 199.045 141.782 200.294C141.408 200.603 141.649 201.146 141.918 201.547C142.797 202.86 145.041 204.201 145.968 203.711C146.259 203.558 146.422 203.28 146.468 202.86C146.622 201.47 145.426 199.239 144.909 198.798C144.831 198.733 144.721 198.688 144.563 198.688ZM159.115 182.45C158.566 182.45 158.039 182.388 157.605 182.265C156.723 182.015 156.279 181.525 156.386 180.918C156.673 179.284 157.141 177.409 158.211 177.409H158.212C159.081 177.41 161.564 178.461 162.39 179.678C162.708 180.146 162.781 180.605 162.606 181.043C162.226 181.996 160.592 182.45 159.115 182.45V182.45ZM156.803 180.992C156.719 181.47 157.256 181.727 157.721 181.858C159.244 182.289 161.824 181.859 162.212 180.887C162.334 180.583 162.277 180.265 162.04 179.916C161.253 178.757 158.892 177.833 158.212 177.832H158.211C157.822 177.832 157.263 178.38 156.803 180.992V180.992ZM152.78 198.699C151.527 198.699 149.797 197.466 149.12 196.298C148.763 195.681 148.743 195.137 149.063 194.768C149.133 194.686 149.206 194.597 149.282 194.505C149.918 193.735 150.788 192.681 152.197 193.239C153.319 193.684 154.202 195.932 154.067 197.35C153.996 198.096 153.649 198.564 153.091 198.671C152.988 198.69 152.884 198.699 152.78 198.699ZM149.383 195.044C149.136 195.33 149.303 195.769 149.487 196.086C150.134 197.203 151.959 198.456 153.011 198.255C153.378 198.186 153.592 197.867 153.645 197.31C153.772 195.968 152.903 193.974 152.041 193.632C150.919 193.188 150.223 194.031 149.609 194.774C149.531 194.869 149.456 194.96 149.383 195.044V195.044Z" fill="#2B2929"/>
<path d="M108.184 173.7C106.946 173.42 106.174 173.187 105.014 172.944C98.6298 177.473 94.5907 189.469 94.1785 194.579C95.05 194.923 100.388 196.399 101.566 196.757C99.7009 191.25 105.859 175.934 108.184 173.7L108.184 173.7Z" fill="#DDA094"/>
<path d="M277.033 166.494L283.022 157.695C283.471 157.037 283.662 156.238 283.561 155.448C283.46 154.659 283.074 153.934 282.475 153.408L263.581 136.85C262.981 136.325 262.21 136.036 261.412 136.037C260.615 136.039 259.845 136.331 259.248 136.859L251.269 143.914C249.795 145.217 249.8 147.514 251.279 148.81L272.163 167.113C273.643 168.409 275.927 168.119 277.033 166.494ZM91.0018 199.416L101.571 200.824C102.362 200.929 103.164 200.743 103.827 200.3C104.49 199.857 104.968 199.188 105.171 198.419L111.572 174.16C111.775 173.39 111.689 172.573 111.331 171.862C110.972 171.151 110.366 170.595 109.626 170.299L99.7303 166.336C97.9026 165.604 95.8452 166.635 95.344 168.535L88.2692 195.349C87.7679 197.249 89.0497 199.157 91.0021 199.416L91.0018 199.416Z" fill="#F8A036"/>
<path d="M91.4872 155.832C95.2987 151.006 99.3361 144.052 101.606 137.041C102.098 135.523 102.52 133.901 102.868 132.214C100.785 137.017 96.6668 141.711 92.8004 145.585C87.8917 150.504 79.3341 146.995 76.957 151.319C81.9673 152.331 87.5949 153.775 91.4872 155.832Z" fill="#D88830"/>
<path d="M69.358 150.961C69.3147 150.961 69.2724 150.948 69.2368 150.923C66.1291 148.757 62.6126 147.939 60.2775 148.839C60.2515 148.849 60.2237 148.854 60.1958 148.853C60.1679 148.853 60.1404 148.847 60.1148 148.835C60.0893 148.824 60.0662 148.808 60.0469 148.788C60.0276 148.768 60.0125 148.744 60.0025 148.718C59.9924 148.692 59.9876 148.664 59.9884 148.636C59.9891 148.609 59.9953 148.581 60.0066 148.556C60.018 148.53 60.0343 148.507 60.0546 148.488C60.0749 148.469 60.0988 148.454 60.1248 148.444C62.5874 147.496 66.2595 148.333 69.4797 150.576C69.5167 150.602 69.5445 150.639 69.5591 150.682C69.5736 150.724 69.5741 150.77 69.5605 150.813C69.547 150.856 69.52 150.894 69.4836 150.92C69.4471 150.947 69.4032 150.961 69.358 150.961V150.961Z" fill="#2B2929"/>
<path d="M91.5704 156.324C91.5281 156.324 91.4869 156.311 91.4519 156.287C84.5968 151.666 64.6651 147.87 56.4806 155.013C56.4381 155.048 56.3835 155.065 56.3284 155.061C56.2733 155.056 56.2221 155.031 56.1857 154.989C56.1494 154.948 56.1307 154.894 56.1336 154.839C56.1366 154.784 56.1609 154.732 56.2016 154.695C61.232 150.305 69.8397 150.381 74.523 150.818C81.1671 151.437 88.0659 153.494 91.6896 155.937C91.7272 155.963 91.7556 155.999 91.7707 156.042C91.7858 156.085 91.7868 156.131 91.7735 156.174C91.7601 156.218 91.7332 156.255 91.6967 156.282C91.6602 156.309 91.616 156.324 91.5706 156.324H91.5704Z" fill="#2B2929"/>
<path d="M234.821 156.319C233.896 152.532 231.256 148.775 228.497 147.04C227.656 147.585 226.861 148.036 225.927 148.699C229.809 155.136 232.688 161.603 233.08 168.477C235.337 165.208 235.985 161.083 234.821 156.319ZM96.5254 200.152L99.9082 200.603C101.178 197.795 102.233 194.673 102.99 191.332C103.45 189.31 103.784 187.262 103.989 185.199C104.031 184.78 103.424 184.664 103.307 185.069C103.252 185.26 103.194 185.452 103.135 185.645C101.341 191.495 99.1523 196.324 96.5256 200.152L96.5254 200.152Z" fill="#D88830"/>
<path d="M233.088 168.871C233.034 168.871 232.981 168.85 232.942 168.812C232.902 168.775 232.879 168.723 232.877 168.669C232.61 162.542 230.228 155.929 225.797 149.012C225.782 148.988 225.772 148.962 225.767 148.935C225.762 148.908 225.763 148.88 225.769 148.852C225.775 148.825 225.786 148.8 225.802 148.777C225.818 148.754 225.838 148.735 225.862 148.72C225.885 148.705 225.911 148.695 225.939 148.69C225.966 148.685 225.994 148.686 226.021 148.692C226.049 148.698 226.074 148.709 226.097 148.725C226.12 148.741 226.139 148.761 226.154 148.784C230.626 155.765 233.03 162.449 233.3 168.65C233.301 168.678 233.297 168.706 233.288 168.732C233.278 168.758 233.264 168.782 233.245 168.802C233.226 168.823 233.203 168.839 233.178 168.851C233.153 168.863 233.126 168.869 233.098 168.871H233.088V168.871Z" fill="#2B2929"/>
<path d="M135.825 150.952C132.252 150.952 122.084 148.745 108.713 142.666C108.413 142.529 108.179 142.279 108.063 141.97C107.947 141.661 107.959 141.319 108.096 141.019C108.233 140.719 108.485 140.485 108.794 140.37C109.104 140.254 109.447 140.266 109.748 140.403C122.756 146.318 132.47 148.465 135.825 148.465C136.156 148.465 136.473 148.596 136.707 148.829C136.94 149.063 137.072 149.379 137.072 149.709C137.072 150.039 136.94 150.355 136.707 150.588C136.473 150.821 136.156 150.952 135.825 150.952Z" fill="#FF8D6E"/>
<path d="M135.825 149.92C132.342 149.92 122.363 147.738 109.143 141.727C109.118 141.716 109.095 141.699 109.076 141.679C109.057 141.659 109.042 141.635 109.032 141.609C109.022 141.583 109.018 141.555 109.019 141.527C109.02 141.5 109.026 141.472 109.038 141.447C109.049 141.422 109.066 141.399 109.086 141.38C109.107 141.361 109.13 141.346 109.157 141.337C109.183 141.327 109.21 141.322 109.238 141.323C109.266 141.324 109.293 141.331 109.319 141.342C122.477 147.326 132.379 149.497 135.825 149.497C135.881 149.497 135.935 149.52 135.975 149.559C136.015 149.599 136.037 149.653 136.037 149.709C136.037 149.765 136.015 149.819 135.975 149.858C135.935 149.898 135.881 149.92 135.825 149.92Z" fill="#2B2929"/>
<path d="M109.225 146.803C109.208 146.803 109.192 146.803 109.175 146.802C108.78 146.788 108.416 146.604 108.151 146.284C107.891 145.971 107.756 145.564 107.772 145.138C107.788 144.688 108.376 141.276 109.373 141.315C109.79 141.33 110.126 141.897 110.4 143.051C110.603 143.906 110.71 144.837 110.695 145.242C110.68 145.668 110.516 146.065 110.235 146.358C109.958 146.646 109.601 146.803 109.224 146.803L109.225 146.803ZM109.354 141.737C108.952 141.737 108.231 144.181 108.196 145.153C108.184 145.475 108.284 145.781 108.478 146.014C108.665 146.24 108.918 146.37 109.191 146.379C109.462 146.391 109.725 146.278 109.929 146.066C110.138 145.847 110.26 145.549 110.272 145.227C110.285 144.858 110.18 143.958 109.987 143.148C109.714 141.999 109.44 141.74 109.358 141.737H109.354ZM295.372 126.148C295.321 126.148 295.272 126.131 295.234 126.098C295.196 126.065 295.17 126.02 295.162 125.971C295.154 125.921 295.164 125.87 295.19 125.827C295.216 125.784 295.257 125.752 295.305 125.736C296.666 125.286 302.9 123.688 306.279 124.714C306.332 124.731 306.376 124.769 306.402 124.818C306.427 124.867 306.433 124.924 306.416 124.977C306.4 125.03 306.364 125.074 306.315 125.101C306.266 125.127 306.209 125.134 306.156 125.119C302.882 124.125 296.774 125.696 295.438 126.138C295.417 126.145 295.394 126.148 295.371 126.148H295.372Z" fill="#2B2929"/>
<path d="M284.747 114.395C287.988 113.991 301.086 110.727 302.437 115.254C303.787 119.782 292.309 122.88 290.688 123.284C289.068 123.688 289.184 130.152 282.586 131.6" fill="#F7B4A3"/>
<path d="M282.586 131.812C282.534 131.811 282.483 131.792 282.445 131.757C282.406 131.723 282.381 131.675 282.376 131.623C282.37 131.571 282.384 131.519 282.414 131.477C282.445 131.434 282.49 131.405 282.541 131.394C286.857 130.446 288.239 127.277 289.154 125.179C289.646 124.052 290.001 123.237 290.637 123.079C294.109 122.213 300.402 120.02 301.963 117.289C302.343 116.625 302.432 115.979 302.233 115.315C301.155 111.699 291.616 113.408 287.032 114.229C286.065 114.402 285.301 114.539 284.773 114.605C284.656 114.621 284.55 114.537 284.536 114.421C284.522 114.306 284.604 114.2 284.72 114.185C285.238 114.121 286.034 113.978 286.957 113.813C292.023 112.905 301.453 111.216 302.64 115.194C302.869 115.964 302.765 116.739 302.331 117.499C300.322 121.013 291.714 123.246 290.74 123.489C290.306 123.597 289.969 124.37 289.543 125.348C288.593 127.524 287.159 130.813 282.632 131.807C282.617 131.81 282.601 131.812 282.586 131.812Z" fill="#2B2929"/>
<path d="M295.998 115.251C295.42 115.251 295.246 114.929 295.198 114.787C295.01 114.242 295.527 113.426 296.513 112.709C296.558 112.678 296.614 112.667 296.668 112.676C296.722 112.686 296.77 112.716 296.802 112.76C296.834 112.804 296.848 112.859 296.841 112.913C296.834 112.967 296.806 113.017 296.763 113.051C295.872 113.698 295.499 114.358 295.599 114.651C295.652 114.806 295.864 114.834 296.031 114.828C297.822 114.777 299.961 114.274 300.583 113.41C300.599 113.387 300.619 113.368 300.643 113.352C300.666 113.337 300.693 113.327 300.721 113.322C300.748 113.318 300.777 113.318 300.804 113.325C300.832 113.331 300.857 113.343 300.88 113.359C300.903 113.375 300.923 113.396 300.937 113.42C300.952 113.444 300.962 113.47 300.966 113.498C300.971 113.526 300.969 113.554 300.963 113.581C300.956 113.609 300.944 113.634 300.927 113.657C300.083 114.83 297.46 115.211 296.043 115.251C296.028 115.251 296.013 115.251 295.998 115.251H295.998Z" fill="#2B2929"/>
</g>
<g clip-path="url(#clip3_353_35910)">
<path d="M87.7192 248.078H127.46C126.668 242.118 122.948 236.386 116.965 232.956C115.09 231.878 113.065 231.079 110.957 230.584C102.698 228.651 94.129 231.752 90.0105 238.838C88.3864 241.642 87.5921 244.845 87.7192 248.078Z" fill="#5B5C1A"/>
<path d="M115.351 248.078H153.737C153.829 247.902 153.917 247.719 154.002 247.54C158.128 238.743 155.148 228.043 147.006 221.831C146.18 221.203 145.314 220.628 144.413 220.111C133.804 214.023 120.535 217.12 114.78 227.029C114.124 228.158 113.584 229.348 113.167 230.584C111.196 236.393 112.095 242.792 115.351 248.078Z" fill="#5B5C1A"/>
<path d="M151.792 247.539C152.027 247.718 152.263 247.898 152.503 248.077H192.281C190.693 241.418 182.655 233.347 172.362 227.409C169.959 225.975 167.452 224.721 164.862 223.657C157.019 220.458 149.74 219.784 144.796 221.831C142.965 222.553 141.385 223.788 140.247 225.385C136.338 231.096 142.048 240.061 151.792 247.539Z" fill="#5B5C1A"/>
<path d="M185.347 248.078H217.772C218.074 247.715 218.343 247.328 218.579 246.921C218.721 246.681 218.849 246.433 218.962 246.178C222.469 238.41 213.308 226.762 198.502 220.159C197.843 219.866 197.184 219.584 196.528 219.324C182.397 213.654 168.697 214.843 165.344 222.263C165.143 222.713 164.981 223.18 164.862 223.658C162.943 231.286 171.662 241.828 185.347 248.078Z" fill="#7C7C29"/>
<path d="M192.844 219.324C195.526 225.789 201.092 233.721 208.651 241.233C210.714 243.282 212.81 245.186 214.895 246.921C215.371 247.316 215.843 247.702 216.314 248.078H243.633C241.607 241.181 235.525 231.92 226.772 223.226C212.928 209.466 197.648 202.346 192.645 207.321C190.372 209.579 190.608 213.943 192.844 219.324Z" fill="#7C7C29"/>
</g>
<g clip-path="url(#clip4_353_35910)">
<path d="M205.935 247.924C205.887 247.924 205.839 247.912 205.797 247.887C205.755 247.863 205.72 247.828 205.696 247.786C203.779 244.408 197.803 238.502 190.1 232.372C182.192 226.079 174.45 221.1 169.391 219.052C169.357 219.038 169.327 219.018 169.301 218.993C169.276 218.968 169.255 218.938 169.241 218.905C169.227 218.872 169.22 218.837 169.22 218.801C169.22 218.765 169.226 218.73 169.24 218.697C169.254 218.664 169.274 218.633 169.299 218.608C169.324 218.582 169.354 218.562 169.388 218.548C169.421 218.534 169.456 218.527 169.492 218.527C169.528 218.527 169.564 218.534 169.598 218.547C180.346 222.898 201.882 239.956 206.174 247.518C206.197 247.559 206.21 247.606 206.209 247.654C206.209 247.701 206.196 247.748 206.172 247.789C206.148 247.83 206.113 247.864 206.072 247.888C206.03 247.912 205.983 247.924 205.935 247.924V247.924ZM214.017 226.761C213.954 226.761 213.893 226.739 213.844 226.7C213.795 226.66 213.762 226.605 213.749 226.544C212.997 222.919 214.409 217.137 215.712 214.749C215.747 214.688 215.806 214.642 215.875 214.623C215.943 214.604 216.017 214.612 216.08 214.646C216.143 214.679 216.19 214.736 216.211 214.804C216.232 214.872 216.226 214.945 216.194 215.008C214.93 217.326 213.559 222.928 214.286 226.434C214.294 226.473 214.293 226.514 214.284 226.554C214.274 226.593 214.256 226.63 214.23 226.661C214.204 226.692 214.172 226.718 214.135 226.735C214.098 226.752 214.058 226.761 214.017 226.761Z" fill="#033A11"/>
<path d="M175.142 241.022C175.09 241.022 175.04 241.008 174.997 240.981C174.953 240.954 174.918 240.915 174.895 240.87C174.873 240.824 174.864 240.773 174.869 240.722C174.874 240.671 174.894 240.623 174.925 240.583C176.868 238.094 189.375 235.397 199.532 239.851C199.566 239.865 199.596 239.885 199.622 239.911C199.647 239.937 199.668 239.968 199.681 240.001C199.694 240.035 199.701 240.071 199.7 240.107C199.7 240.143 199.692 240.179 199.677 240.212C199.662 240.245 199.641 240.275 199.615 240.3C199.588 240.325 199.557 240.344 199.523 240.357C199.489 240.369 199.452 240.375 199.416 240.374C199.38 240.373 199.344 240.364 199.311 240.349C193.492 237.798 187.415 237.868 184.309 238.136C179.535 238.549 176.193 239.847 175.359 240.917C175.333 240.95 175.3 240.976 175.262 240.995C175.225 241.013 175.183 241.022 175.141 241.022L175.142 241.022ZM228.375 248.327C228.316 248.327 228.259 248.308 228.211 248.273C228.164 248.238 228.129 248.189 228.113 248.133C227.737 246.889 222.966 238.912 216.515 230.428C210.696 222.775 202.039 212.756 193.84 208.491C193.808 208.474 193.779 208.451 193.756 208.424C193.733 208.396 193.716 208.365 193.705 208.331C193.694 208.296 193.69 208.261 193.694 208.225C193.697 208.189 193.707 208.155 193.724 208.123C193.741 208.091 193.763 208.063 193.791 208.04C193.819 208.017 193.851 208 193.885 207.989C193.919 207.979 193.956 207.975 193.992 207.978C194.027 207.981 194.062 207.991 194.094 208.008C202.383 212.32 211.1 222.402 216.953 230.099C223.726 239.007 228.273 246.768 228.638 247.976C228.65 248.017 228.653 248.06 228.645 248.101C228.638 248.143 228.621 248.183 228.595 248.217C228.57 248.251 228.536 248.279 228.498 248.298C228.46 248.317 228.418 248.327 228.375 248.327Z" fill="#033A11"/>
<path d="M224.629 241.819C224.557 241.819 224.487 241.79 224.436 241.739C224.384 241.688 224.355 241.619 224.355 241.547C224.346 236.476 229.79 231.084 232.572 230.472C232.642 230.459 232.715 230.473 232.774 230.512C232.834 230.551 232.876 230.612 232.891 230.681C232.907 230.75 232.895 230.823 232.857 230.883C232.82 230.943 232.76 230.987 232.691 231.004C230.121 231.569 224.895 236.805 224.904 241.546C224.904 241.696 224.781 241.818 224.63 241.819H224.63H224.629Z" fill="#033A11"/>
<path d="M140.974 248.326C140.901 248.326 140.832 248.297 140.78 248.246C140.729 248.195 140.7 248.126 140.7 248.053C140.7 244.652 134.668 225.449 129.837 219.151C129.815 219.122 129.799 219.09 129.79 219.055C129.781 219.02 129.779 218.984 129.783 218.949C129.788 218.914 129.8 218.879 129.818 218.848C129.836 218.817 129.86 218.79 129.889 218.769C129.918 218.747 129.95 218.731 129.985 218.722C130.02 218.713 130.056 218.711 130.092 218.715C130.128 218.72 130.162 218.732 130.193 218.75C130.224 218.768 130.252 218.792 130.274 218.82C135.287 225.356 141.249 244.517 141.249 248.053C141.249 248.126 141.22 248.195 141.168 248.246C141.117 248.297 141.047 248.326 140.974 248.326H140.974Z" fill="#041C17"/>
<path d="M138.699 238.896C138.653 238.896 138.609 238.885 138.569 238.864C138.529 238.843 138.495 238.812 138.47 238.775C133.436 231.259 122.221 227.621 116.712 228.422C116.677 228.427 116.64 228.425 116.605 228.416C116.57 228.407 116.538 228.392 116.509 228.37C116.48 228.349 116.456 228.322 116.437 228.291C116.419 228.261 116.406 228.227 116.401 228.191C116.396 228.156 116.398 228.12 116.407 228.085C116.416 228.05 116.431 228.018 116.453 227.989C116.474 227.96 116.501 227.936 116.532 227.918C116.563 227.899 116.598 227.887 116.633 227.882C122.281 227.064 133.776 230.782 138.927 238.473C138.955 238.514 138.97 238.562 138.973 238.611C138.975 238.66 138.964 238.709 138.941 238.753C138.917 238.796 138.882 238.832 138.84 238.858C138.797 238.883 138.749 238.896 138.699 238.896H138.699Z" fill="#041C17"/>
</g>
<g clip-path="url(#clip5_353_35910)">
<path d="M295.262 228.152C295.154 228.152 295.047 228.128 294.95 228.082C294.852 228.036 294.765 227.969 294.696 227.885C294.627 227.802 294.577 227.704 294.55 227.598C294.523 227.493 294.519 227.383 294.538 227.276L303.297 179.689C303.333 179.496 303.443 179.325 303.604 179.214C303.765 179.103 303.962 179.061 304.154 179.096C304.346 179.132 304.516 179.243 304.626 179.405C304.736 179.567 304.778 179.766 304.743 179.959L295.984 227.546C295.953 227.716 295.863 227.87 295.732 227.98C295.6 228.091 295.434 228.152 295.262 228.152H295.262Z" fill="#FF5E43"/>
</g>
<g clip-path="url(#clip6_353_35910)">
<path d="M284.683 114.311C287.936 113.907 301.081 110.636 302.436 115.172C303.792 119.709 292.272 122.812 290.646 123.217C289.02 123.622 289.136 130.098 282.515 131.548" fill="#F7B4A3"/>
<path d="M282.515 131.76C282.462 131.761 282.411 131.741 282.372 131.707C282.333 131.672 282.308 131.624 282.302 131.571C282.297 131.519 282.311 131.467 282.341 131.425C282.372 131.382 282.418 131.353 282.469 131.342C286.801 130.393 288.188 127.217 289.106 125.116C289.6 123.986 289.956 123.17 290.594 123.012C291.555 122.772 300.032 120.578 301.961 117.211C302.342 116.546 302.431 115.898 302.232 115.233C301.15 111.61 291.577 113.323 286.976 114.145C286.006 114.319 285.24 114.456 284.709 114.522C284.682 114.526 284.654 114.523 284.627 114.516C284.6 114.509 284.574 114.496 284.552 114.479C284.53 114.462 284.512 114.441 284.498 114.417C284.484 114.392 284.475 114.366 284.472 114.338C284.468 114.311 284.47 114.283 284.478 114.256C284.485 114.229 284.498 114.204 284.515 114.182C284.532 114.16 284.554 114.142 284.578 114.128C284.602 114.114 284.629 114.105 284.657 114.102C285.176 114.037 285.975 113.894 286.901 113.729C291.985 112.819 301.449 111.126 302.64 115.113C302.87 115.884 302.766 116.661 302.331 117.421C300.314 120.941 291.676 123.179 290.698 123.423C290.263 123.531 289.925 124.305 289.497 125.285C288.544 127.466 287.104 130.761 282.561 131.756C282.546 131.759 282.53 131.761 282.515 131.761V131.76Z" fill="#2B2929"/>
<path d="M295.974 115.17C295.395 115.17 295.22 114.846 295.171 114.704C294.984 114.158 295.502 113.34 296.491 112.622C296.514 112.606 296.539 112.594 296.567 112.588C296.594 112.581 296.622 112.58 296.65 112.584C296.677 112.589 296.704 112.598 296.727 112.613C296.751 112.627 296.772 112.646 296.789 112.669C296.805 112.691 296.817 112.717 296.823 112.744C296.83 112.771 296.831 112.799 296.827 112.826C296.823 112.854 296.813 112.88 296.798 112.904C296.784 112.928 296.765 112.948 296.742 112.965C295.849 113.614 295.473 114.275 295.574 114.568C295.628 114.724 295.842 114.75 296.008 114.746C297.806 114.695 299.952 114.19 300.576 113.325C300.609 113.279 300.658 113.249 300.714 113.24C300.77 113.231 300.827 113.244 300.873 113.277C300.918 113.309 300.949 113.359 300.958 113.415C300.968 113.47 300.954 113.527 300.921 113.572C300.074 114.747 297.442 115.129 296.02 115.17C296.005 115.17 295.99 115.17 295.974 115.17V115.17Z" fill="#2B2929"/>
</g>
<g clip-path="url(#clip7_353_35910)">
<path d="M29.8753 216.104C29.8412 216.104 29.8075 216.096 29.7766 216.082C29.7456 216.068 29.7182 216.047 29.6961 216.021C21.0448 205.877 13.3706 194.941 6.77506 183.359C0.193356 171.788 -5.28274 159.625 -9.58075 147.03C-9.59136 147 -9.59601 146.969 -9.59442 146.938C-9.59284 146.907 -9.58505 146.876 -9.57151 146.848C-9.55796 146.82 -9.53894 146.795 -9.51556 146.774C-9.49217 146.753 -9.46488 146.737 -9.43528 146.727C-9.40569 146.717 -9.37438 146.713 -9.34318 146.715C-9.31198 146.717 -9.28152 146.726 -9.25358 146.74C-9.22563 146.754 -9.20076 146.773 -9.18042 146.797C-9.16007 146.821 -9.14466 146.848 -9.13508 146.878C-4.84663 159.445 0.6173 171.582 7.18439 183.127C13.7658 194.683 21.4235 205.594 30.0559 215.716C30.0963 215.764 30.1162 215.825 30.1111 215.887C30.1061 215.95 30.0765 216.007 30.029 216.048C29.9862 216.084 29.9316 216.104 29.8753 216.104Z" fill="#403838"/>
<path d="M4.92017 179.339C2.15818 179.048 -8.63732 177.597 -15.1794 168.784C-24.5908 156.102 -19.2146 136.243 -14.2746 135.369C-10.4531 134.693 -5.59007 145.152 -2.51402 151.77C1.51218 160.472 4.02611 169.795 4.92017 179.339Z" fill="#004214"/>
<path d="M4.92002 179.339C2.15803 179.048 -9.14262 138.801 -6.64921 143.366C-5.11522 146.173 -3.68512 149.25 -2.51337 151.771C1.51247 160.473 4.02612 169.795 4.92002 179.339Z" fill="#02350F"/>
<path d="M3.86227 179.479C3.81183 179.479 3.76241 179.465 3.71964 179.439C-0.936149 176.526 -9.35963 169.868 -13.4476 158.004C-15.9477 150.692 -16.3256 142.824 -14.5375 135.308C-14.5294 135.273 -14.5146 135.241 -14.4939 135.212C-14.4733 135.184 -14.4472 135.159 -14.4171 135.141C-14.387 135.122 -14.3536 135.11 -14.3187 135.104C-14.2838 135.098 -14.2482 135.1 -14.2138 135.108C-14.1793 135.116 -14.1469 135.131 -14.1182 135.151C-14.0895 135.172 -14.0652 135.198 -14.0466 135.228C-14.028 135.258 -14.0155 135.291 -14.0098 135.326C-14.0042 135.361 -14.0054 135.397 -14.0135 135.431C-15.7786 142.849 -15.4062 150.613 -12.9392 157.829C-8.90535 169.536 -0.591673 176.108 4.00491 178.983C4.05436 179.014 4.09237 179.06 4.11322 179.115C4.13407 179.169 4.13662 179.229 4.12049 179.285C4.10436 179.341 4.07042 179.39 4.0238 179.425C3.97717 179.46 3.92038 179.479 3.862 179.479H3.86227Z" fill="#05541A"/>
<path d="M-13.9648 155.678C-13.9891 155.678 -14.0133 155.675 -14.0367 155.668L-20.3683 153.92C-20.4031 153.911 -20.4359 153.896 -20.4646 153.874C-20.4933 153.853 -20.5175 153.826 -20.5356 153.795C-20.5537 153.764 -20.5654 153.73 -20.57 153.694C-20.5747 153.659 -20.5721 153.622 -20.5625 153.588C-20.553 153.553 -20.5365 153.521 -20.5143 153.493C-20.492 153.465 -20.4643 153.441 -20.4328 153.424C-20.4014 153.407 -20.3668 153.396 -20.331 153.392C-20.2953 153.389 -20.2592 153.392 -20.2248 153.402L-14.0351 155.111L-4.93286 146.847C-4.88001 146.799 -4.81024 146.774 -4.7389 146.777C-4.66756 146.781 -4.60049 146.812 -4.55246 146.865C-4.50442 146.918 -4.47935 146.987 -4.48276 147.058C-4.48616 147.13 -4.51777 147.197 -4.57062 147.245L-13.784 155.608C-13.8335 155.653 -13.898 155.678 -13.9648 155.678ZM-6.39015 170.396C-6.39977 170.396 -6.40938 170.395 -6.41894 170.394L-14.8796 169.482C-14.9493 169.473 -15.0127 169.437 -15.0562 169.382C-15.0997 169.327 -15.1198 169.257 -15.1123 169.187C-15.1047 169.117 -15.0701 169.053 -15.0159 169.009C-14.9616 168.964 -14.892 168.942 -14.822 168.948L-6.51125 169.843L0.795643 160.371C0.839216 160.314 0.903477 160.277 0.974285 160.268C1.0451 160.259 1.11665 160.278 1.17322 160.322C1.22978 160.365 1.26672 160.43 1.27591 160.5C1.28509 160.571 1.26577 160.642 1.2222 160.699L-6.17674 170.291C-6.20189 170.324 -6.23422 170.35 -6.27122 170.368C-6.30822 170.386 -6.34891 170.396 -6.39015 170.396Z" fill="#05541A"/>
<path d="M2.43684 169.599C0.211484 161.838 -2.19203 149.592 -0.159094 134.998C-0.0196897 133.998 3.05259 112.622 7.67555 112.601C12.1927 112.581 18.3866 132.95 15.5815 152.148C13.8023 164.327 8.75768 173.6 4.92029 179.34L2.43684 169.599Z" fill="#004214"/>
<path d="M10.5746 114.976C14.355 120.887 17.8113 136.888 15.5816 152.148C13.8025 164.327 8.7578 173.6 4.92041 179.34C10.7288 166.955 12.3726 156.743 12.846 149.912C13.9569 133.885 10.1142 115.006 10.5413 114.95C10.5558 114.948 10.5701 114.969 10.5746 114.976Z" fill="#02350F"/>
<path d="M4.99174 178.95C4.97567 178.95 4.95964 178.948 4.94383 178.945C4.87361 178.933 4.81128 178.893 4.77055 178.834C4.72983 178.776 4.71404 178.703 4.72665 178.633C6.93367 166.368 8.18819 153.95 8.479 141.492C8.69814 131.858 8.34047 122.219 7.4079 112.628C7.40077 112.557 7.42213 112.486 7.4673 112.431C7.51247 112.376 7.57775 112.341 7.64876 112.334C7.71978 112.327 7.79073 112.348 7.84599 112.393C7.90126 112.438 7.93631 112.503 7.94345 112.574C8.8782 122.187 9.23668 131.848 9.01697 141.503C8.72569 153.989 7.46838 166.435 5.25628 178.727C5.24535 178.789 5.21285 178.846 5.16447 178.886C5.1161 178.927 5.05495 178.949 4.99174 178.95Z" fill="#05541A"/>
<path d="M8.77518 132.054C8.74496 132.054 8.71494 132.049 8.68637 132.039L0.764807 129.281C0.730616 129.27 0.698966 129.252 0.67172 129.229C0.644474 129.206 0.622182 129.177 0.60616 129.145C0.590138 129.113 0.580709 129.078 0.578427 129.042C0.576146 129.006 0.581059 128.971 0.592876 128.937C0.604693 128.903 0.623175 128.872 0.647235 128.845C0.671295 128.818 0.700444 128.797 0.732968 128.782C0.765491 128.767 0.800732 128.758 0.836612 128.757C0.872493 128.755 0.908287 128.761 0.941888 128.774L8.76846 131.498L15.0866 128.934C15.1528 128.908 15.2269 128.908 15.2927 128.936C15.3585 128.963 15.4105 129.016 15.4374 129.082C15.4643 129.148 15.4638 129.222 15.436 129.288C15.4082 129.354 15.3554 129.406 15.2892 129.432L8.8761 132.034C8.84404 132.047 8.80977 132.054 8.77518 132.054ZM8.21514 153.158C8.17064 153.158 8.12683 153.147 8.08758 153.126L-1.03184 148.229C-1.06298 148.212 -1.09051 148.19 -1.11288 148.162C-1.13524 148.135 -1.15199 148.104 -1.16217 148.07C-1.17236 148.036 -1.17577 148.001 -1.17223 147.965C-1.16868 147.93 -1.15824 147.896 -1.14151 147.865C-1.12478 147.834 -1.10207 147.807 -1.0747 147.784C-1.04732 147.762 -1.01581 147.745 -0.98196 147.735C-0.948111 147.725 -0.912588 147.721 -0.877418 147.725C-0.842248 147.729 -0.808122 147.739 -0.776986 147.756L8.21757 152.587L15.8568 148.635C15.8883 148.617 15.923 148.606 15.9589 148.602C15.9949 148.598 16.0312 148.601 16.0658 148.611C16.1004 148.622 16.1326 148.639 16.1604 148.662C16.1883 148.685 16.2112 148.713 16.2278 148.745C16.2444 148.777 16.2544 148.812 16.2571 148.848C16.2599 148.884 16.2553 148.92 16.2438 148.954C16.2323 148.989 16.214 149.02 16.19 149.047C16.166 149.074 16.1368 149.096 16.1041 149.111L8.33786 153.128C8.29993 153.148 8.25786 153.158 8.21514 153.158Z" fill="#05541A"/>
<path d="M30.7415 247.311H18.6905C17.8221 247.432 -1.3377 249.819 -11.2413 236.563C-20.8788 223.664 -16.574 202.883 -9.4315 200.694C-7.4131 200.076 -2.30465 200.064 8.13535 214.262L30.7415 247.311Z" fill="#5B5C1A"/>
<path d="M40.4296 218.857C38.295 202.901 43.1459 197.354 45.2738 195.481C57.1813 185.002 88.0909 197.805 104.749 217.245C114.452 228.566 118.115 240.732 119.642 247.579L65.9991 247.338L40.4296 218.857Z" fill="#4F4F19"/>
<path d="M82.8722 247.459C82.858 247.459 82.8438 247.458 82.8297 247.455C82.7593 247.444 82.6962 247.406 82.6543 247.348C82.6123 247.291 82.595 247.219 82.6061 247.148C83.6476 240.587 84.0286 230.484 79.9289 219.61C77.7599 213.843 74.5876 208.504 70.5583 203.838C66.6153 199.308 61.9028 195.508 56.6373 192.613C56.6063 192.596 56.579 192.573 56.557 192.545C56.5349 192.517 56.5185 192.486 56.5086 192.452C56.4988 192.418 56.4958 192.382 56.4997 192.347C56.5036 192.312 56.5144 192.278 56.5315 192.247C56.5486 192.216 56.5716 192.189 56.5992 192.167C56.6268 192.145 56.6585 192.129 56.6925 192.119C56.7264 192.109 56.762 192.106 56.7971 192.11C56.8323 192.114 56.8663 192.125 56.8972 192.142C62.218 195.068 66.98 198.908 70.9645 203.486C75.0355 208.199 78.2408 213.593 80.4327 219.419C84.5739 230.403 84.1893 240.605 83.1376 247.23C83.128 247.294 83.096 247.352 83.0473 247.394C82.9986 247.436 82.9365 247.459 82.8722 247.459Z" fill="#041C17"/>
<path d="M82.0132 224.898C81.9632 224.898 81.9143 224.884 81.8717 224.858C81.8292 224.832 81.7949 224.794 81.7725 224.75C81.7502 224.705 81.7407 224.655 81.7452 224.606C81.7497 224.556 81.7679 224.508 81.7979 224.468C82.883 223.021 84.079 221.661 85.3751 220.399C89.4466 216.455 94.4031 213.539 99.8317 211.895C99.9 211.874 99.9738 211.881 100.037 211.915C100.1 211.949 100.147 212.006 100.167 212.074C100.188 212.142 100.181 212.216 100.147 212.279C100.114 212.342 100.056 212.388 99.9881 212.409C94.6421 214.028 89.761 216.899 85.7516 220.783C84.4753 222.026 83.2978 223.366 82.2296 224.791C82.2044 224.825 82.1717 224.852 82.1341 224.87C82.0965 224.889 82.0551 224.899 82.0132 224.898ZM80.9879 222.202C80.9497 222.202 80.912 222.194 80.8773 222.178C78.4635 221.088 57.8319 213.92 54.8094 213.056C52.0477 212.268 49.2325 211.681 46.386 211.297C46.3507 211.293 46.3166 211.282 46.2857 211.264C46.2549 211.246 46.2278 211.223 46.2061 211.195C46.1844 211.167 46.1685 211.134 46.1593 211.1C46.1501 211.066 46.1478 211.03 46.1526 210.995C46.1573 210.96 46.169 210.926 46.1869 210.895C46.2049 210.864 46.2287 210.838 46.2571 210.816C46.2855 210.795 46.3179 210.779 46.3523 210.771C46.3868 210.762 46.4226 210.76 46.4578 210.765C49.3302 211.151 52.1709 211.745 54.9577 212.54C57.9872 213.405 78.6772 220.595 81.0993 221.689C81.1553 221.714 81.201 221.758 81.2287 221.813C81.2563 221.868 81.2644 221.93 81.2514 221.99C81.2384 222.05 81.2051 222.104 81.1573 222.143C81.1094 222.181 81.0497 222.202 80.9881 222.202H80.9879Z" fill="#041C17"/>
<path d="M48.6936 193.184C51.3296 192.066 54.1727 191.516 57.0363 191.572C59.7224 191.632 85.5677 193.533 104.749 217.124C113.148 227.454 117.433 238.454 119.642 247.459L108.581 247.409C106.446 246.239 100.909 242.828 97.6727 235.905C92.8783 225.652 96.99 215.95 97.6727 214.41C83.0137 202.164 64.525 195.425 45.4114 195.36C46.4132 194.505 47.5153 193.774 48.6936 193.184Z" fill="#5B5C1A"/>
<path d="M9.94019 207.693C9.17696 208.179 2.57086 212.546 1.85203 221.017C1.11464 229.709 7.21211 235.195 7.84993 235.749L18.8212 229.188L14.1256 241.418L30.4719 247.311H66.8065C64.5458 238.951 59.4751 224.792 47.349 211.992C33.3087 197.173 11.3905 185.842 6.4427 190.766C4.86968 192.33 4.22675 196.315 9.94019 207.693Z" fill="#80862C"/>
<path d="M9.67114 207.841C8.90792 208.327 2.30181 212.694 1.58299 221.166C0.845601 229.857 6.94307 235.343 7.58088 235.898L18.5521 229.337L13.8565 241.566L30.2029 247.459C34.9313 247.459 47.1758 247.319 47.1731 247.311C46.9723 246.689 35.5885 246.53 29.0478 240.473C26.4871 238.102 23.4945 233.573 23.3963 224.083C12.5509 223.454 6.98909 222.11 6.71082 220.053C6.49157 218.434 9.54161 216.374 15.8609 213.873C10.947 207.016 7.72008 199.1 6.44169 190.766C6.11768 191.178 5.84647 191.63 5.63433 192.109C5.30791 192.876 5.12546 193.695 5.09609 194.527C4.95606 196.144 5.04667 197.773 5.36521 199.364C6.23501 203.466 8.80592 206.784 9.67114 207.841Z" fill="#7C7C29"/>
<path d="M49.2313 247.459C49.1658 247.459 49.1026 247.435 49.0535 247.392C49.0044 247.348 48.9728 247.289 48.9646 247.224C47.6334 236.65 43.9707 226.502 38.2401 217.511C28.7082 202.651 15.8762 194.693 6.79124 190.633C6.72608 190.604 6.67518 190.55 6.64974 190.484C6.62431 190.417 6.62642 190.343 6.65561 190.278C6.6848 190.213 6.73868 190.162 6.80541 190.137C6.87213 190.112 6.94622 190.114 7.01139 190.143C16.1636 194.232 29.0898 202.249 38.6936 217.221C44.467 226.28 48.1573 236.504 49.4988 247.157C49.5077 247.227 49.4882 247.299 49.4444 247.355C49.4006 247.411 49.3363 247.448 49.2655 247.457C49.2541 247.458 49.2427 247.459 49.2313 247.459Z" fill="#033A11"/>
<path d="M2.72633 217.412C2.671 217.412 2.61702 217.395 2.57174 217.363C2.52646 217.331 2.49208 217.286 2.47328 217.235C2.45448 217.183 2.45218 217.126 2.46669 217.073C2.4812 217.019 2.51181 216.972 2.55436 216.937C7.5057 212.83 13.7048 210.519 20.1405 210.381C26.5763 210.243 32.8691 212.286 37.9924 216.177C38.0493 216.22 38.0866 216.284 38.0962 216.354C38.1058 216.425 38.0869 216.497 38.0437 216.553C38.0005 216.61 37.9365 216.647 37.8657 216.657C37.795 216.666 37.7233 216.648 37.6665 216.605C32.64 212.787 26.4662 210.782 20.1521 210.918C13.8379 211.053 7.75603 213.321 2.8983 217.35C2.84995 217.39 2.78912 217.412 2.72633 217.412ZM47.3156 237.692C47.2984 237.692 47.2813 237.69 47.2645 237.687C47.2297 237.68 47.1967 237.666 47.1672 237.647C47.1377 237.628 47.1123 237.603 47.0925 237.573C47.0727 237.544 47.0588 237.511 47.0517 237.477C47.0446 237.442 47.0444 237.407 47.051 237.372C47.6698 234.146 49.3154 231.206 51.7429 228.989C53.4797 227.44 55.5544 226.317 57.8021 225.708C57.8362 225.699 57.8718 225.697 57.9069 225.701C57.942 225.706 57.9758 225.717 58.0065 225.734C58.0372 225.752 58.0641 225.775 58.0858 225.803C58.1074 225.831 58.1233 225.863 58.1326 225.897C58.1419 225.931 58.1444 225.967 58.1399 226.002C58.1355 226.037 58.1241 226.07 58.1066 226.101C58.0891 226.132 58.0656 226.159 58.0377 226.18C58.0097 226.202 57.9778 226.218 57.9437 226.227C55.7767 226.813 53.7764 227.895 52.1016 229.388C49.761 231.526 48.1746 234.362 47.5785 237.474C47.5667 237.535 47.5341 237.59 47.4861 237.63C47.4382 237.669 47.3779 237.691 47.3156 237.692Z" fill="#033A11"/>
</g>
<g clip-path="url(#clip8_353_35910)">
<path d="M296.772 247.902C304.12 230.372 357.128 137.846 370.637 146.531C384.035 155.145 345.59 241.387 341.591 247.902H296.772Z" fill="#80862C"/>
<path d="M325.961 248.078C325.926 248.078 325.891 248.07 325.859 248.056C325.826 248.042 325.798 248.021 325.774 247.994C325.751 247.968 325.733 247.937 325.723 247.903C325.712 247.87 325.709 247.834 325.713 247.799C326.546 240.876 336.485 215.971 344.743 196.747C353.58 176.177 364.292 153.163 368.303 148.118C368.323 148.092 368.348 148.07 368.377 148.054C368.406 148.038 368.437 148.028 368.47 148.024C368.502 148.021 368.535 148.023 368.567 148.032C368.598 148.041 368.628 148.056 368.653 148.077C368.679 148.097 368.7 148.122 368.716 148.151C368.732 148.18 368.742 148.211 368.746 148.244C368.75 148.276 368.747 148.309 368.738 148.341C368.728 148.372 368.713 148.402 368.693 148.427C364.71 153.437 354.024 176.404 345.201 196.943C336.955 216.137 327.034 240.988 326.207 247.859C326.2 247.919 326.171 247.975 326.126 248.015C326.08 248.055 326.021 248.078 325.961 248.078H325.961Z" fill="#033A11"/>
<path d="M326.367 247.902C330.776 241.066 377.393 158.348 367.53 146.074C368.716 145.833 369.761 145.968 370.637 146.531C384.035 155.145 345.591 241.388 341.592 247.903H326.367V247.902Z" fill="#7C7C29"/>
<path d="M348.428 189.142C348.383 189.142 348.339 189.129 348.3 189.106C348.262 189.083 348.23 189.05 348.209 189.01C348.188 188.97 348.178 188.925 348.18 188.88C348.182 188.835 348.197 188.791 348.222 188.754C353.017 181.651 360.035 178.249 368.517 178.912C368.55 178.915 368.581 178.924 368.611 178.939C368.64 178.953 368.666 178.974 368.687 178.999C368.708 179.024 368.724 179.052 368.734 179.083C368.744 179.114 368.748 179.147 368.746 179.18C368.743 179.212 368.734 179.244 368.719 179.273C368.705 179.302 368.684 179.328 368.659 179.35C368.634 179.371 368.606 179.387 368.575 179.397C368.544 179.407 368.511 179.411 368.478 179.408C360.184 178.759 353.323 182.087 348.635 189.032C348.612 189.066 348.581 189.093 348.545 189.113C348.509 189.132 348.469 189.142 348.428 189.142V189.142ZM338.575 212.337C338.538 212.337 338.502 212.329 338.468 212.313C338.435 212.297 338.405 212.274 338.382 212.245C338.358 212.216 338.342 212.182 338.333 212.146C338.324 212.11 338.324 212.073 338.332 212.036C339.573 206.201 336.804 198.805 333.568 194.809C331.929 192.785 330.228 191.671 328.78 191.671C328.714 191.671 328.651 191.644 328.604 191.598C328.557 191.551 328.531 191.488 328.531 191.422C328.531 191.356 328.557 191.293 328.604 191.246C328.651 191.199 328.714 191.173 328.78 191.173C330.382 191.173 332.219 192.353 333.955 194.496C337.263 198.582 340.092 206.154 338.818 212.14C338.807 212.196 338.776 212.246 338.732 212.281C338.687 212.317 338.632 212.337 338.575 212.337Z" fill="#033A11"/>
<path d="M378.138 217.34L391.68 209.894C391.257 206.649 390.416 203.726 389.166 201.25L382.562 205.16L386.77 197.634C385.485 196.148 383.966 194.959 382.217 194.126C370.601 188.593 353.256 200.748 343.474 221.275C339.081 230.494 336.963 239.834 337.012 247.828H382.016C383.301 245.717 384.476 243.542 385.538 241.311C389.157 233.717 391.232 226.041 391.823 219.103L378.138 217.339V217.34Z" fill="#5B5C1A"/>
<path d="M378.138 217.34L391.681 209.894V209.893C391.257 206.648 390.416 203.725 389.166 201.249C389.166 201.249 382.588 205.06 382.554 205.093C372.892 206.285 362.416 210.96 353.405 218.469C350.742 220.687 348.333 223.065 346.188 225.553C347.087 229.007 347.591 232.883 347.591 236.977C347.591 240.848 347.139 244.521 346.331 247.829H382.011C382.208 247.506 382.406 247.185 382.599 246.856C383.658 245.051 384.639 243.201 385.538 241.311C386.427 239.447 387.236 237.546 387.964 235.613C388.49 234.213 388.971 232.797 389.406 231.366C389.827 229.982 390.201 228.585 390.529 227.177C391.171 224.411 391.601 221.705 391.823 219.103L378.137 217.34L378.138 217.34Z" fill="#4F4F19"/>
<path d="M353.224 248.078C353.188 248.078 353.152 248.07 353.119 248.055C353.086 248.04 353.057 248.017 353.034 247.99C353.011 247.962 352.994 247.93 352.984 247.895C352.974 247.861 352.972 247.824 352.978 247.788C353.942 241.96 358.628 229.948 364.639 217.898C371.107 204.931 377.008 195.974 380.423 193.938C380.452 193.921 380.483 193.91 380.515 193.905C380.547 193.9 380.58 193.902 380.612 193.91C380.644 193.918 380.673 193.932 380.7 193.952C380.726 193.971 380.748 193.996 380.765 194.024C380.781 194.052 380.792 194.083 380.797 194.115C380.802 194.148 380.8 194.181 380.792 194.212C380.784 194.244 380.77 194.274 380.75 194.3C380.731 194.326 380.706 194.348 380.678 194.365C377.391 196.324 371.416 205.427 365.084 218.12C359.093 230.13 354.425 242.086 353.469 247.87C353.459 247.928 353.429 247.98 353.385 248.019C353.34 248.057 353.283 248.078 353.224 248.078Z" fill="#041C17"/>
<path d="M354.901 241.712L354.887 241.712C354.855 241.71 354.823 241.702 354.793 241.688C354.764 241.674 354.737 241.654 354.715 241.63C354.694 241.605 354.677 241.577 354.666 241.546C354.655 241.515 354.65 241.483 354.652 241.45C354.875 237.273 347.952 224.785 343.336 224.071C343.304 224.066 343.273 224.055 343.245 224.038C343.217 224.021 343.193 223.999 343.174 223.973C343.154 223.946 343.14 223.916 343.133 223.885C343.125 223.853 343.123 223.82 343.128 223.788C343.133 223.755 343.145 223.724 343.162 223.696C343.179 223.669 343.201 223.644 343.227 223.625C343.254 223.606 343.284 223.592 343.315 223.584C343.347 223.576 343.38 223.575 343.412 223.58C348.279 224.332 355.389 236.973 355.149 241.477C355.146 241.54 355.118 241.6 355.072 241.644C355.026 241.688 354.964 241.712 354.901 241.712V241.712ZM362.381 223.387C362.339 223.387 362.298 223.376 362.262 223.357C362.225 223.337 362.194 223.308 362.172 223.273C362.149 223.238 362.136 223.198 362.133 223.156C362.13 223.114 362.137 223.073 362.155 223.035C364.157 218.653 373.234 217.236 377.317 217.236C377.383 217.236 377.446 217.262 377.492 217.309C377.539 217.355 377.565 217.418 377.565 217.484C377.565 217.55 377.539 217.614 377.492 217.66C377.446 217.707 377.383 217.733 377.317 217.733C372.4 217.733 364.325 219.484 362.607 223.242C362.587 223.285 362.556 223.322 362.515 223.348C362.475 223.373 362.429 223.387 362.381 223.387Z" fill="#041C17"/>
</g>
<g clip-path="url(#clip9_353_35910)">
<path d="M168.729 83.6163C188.31 80.9302 203.413 73.173 202.463 66.2901C201.513 59.4073 184.869 56.0052 165.289 58.6913C145.708 61.3775 130.605 69.1347 131.555 76.0175C132.505 82.9004 149.149 86.3025 168.729 83.6163Z" fill="#2B2929"/>
<path d="M167.93 80.0835C148.349 82.7695 132.524 81.5325 131.647 75.6857C130.687 69.2867 145.422 61.5609 165.002 58.8749C184.583 56.1888 201.647 59.1869 202.531 66.367C203.253 72.2346 187.51 77.3972 167.93 80.0833L167.93 80.0835Z" fill="#1E1A1A"/>
<path d="M169.217 84.0325C192.543 80.8325 210.535 71.5913 209.404 63.392C209.37 63.1533 209.321 62.9171 209.256 62.6851L201.442 63.8421C202.046 64.6147 202.419 65.4574 202.531 66.3672C203.253 72.2351 187.51 77.3975 167.93 80.0835C148.349 82.7698 132.525 81.5324 131.647 75.6857C131.573 75.1869 131.593 74.6799 131.704 74.1679L124.964 75.166C126.369 83.24 146.068 87.2078 169.217 84.0325Z" fill="#FFE3C3"/>
<path d="M168.83 94.6094C185.09 94.6094 198.271 81.5052 198.271 65.3402C198.271 49.1753 185.09 36.071 168.83 36.071C152.57 36.071 139.389 49.1753 139.389 65.3402C139.389 81.5052 152.57 94.6094 168.83 94.6094Z" fill="#2B2929"/>
<path d="M193.192 81.2676C192.138 83.3785 190.716 85.2074 189.014 86.7361C189.028 89.1864 188.516 91.583 187.409 93.801C184.958 98.7123 180.093 101.841 174.203 102.931C168.32 104.023 161.416 103.08 154.888 99.841C144.498 94.6905 138.189 85.2822 138.504 76.7099C138.583 74.5061 139.103 72.3524 140.102 70.345C141.055 68.4378 142.374 66.8053 143.968 65.4516C144.061 62.8228 144.677 60.2367 145.888 57.8116C151.266 47.0285 166.217 43.5388 179.283 50.0144C192.346 56.4937 198.573 70.4842 193.192 81.2676Z" fill="#F7B4A3"/>
<path d="M146.539 68.264C151.189 73.5517 175.887 75.7646 184.766 67.658C188.131 75.4731 191.217 76.9554 194.862 78.0719C195.049 67.3564 187.009 58.6198 187.009 58.6198L166.167 61.3219L146.539 68.264Z" fill="#DDA094"/>
<path d="M143.642 66.4465C147.941 71.3849 173.456 72.5961 185.887 65.3283C187.663 71.5445 191.947 76.4322 194.859 78.28C197.009 71.0121 194.953 55.8243 188.317 50.5132C181.681 45.2021 168.036 37.5615 152.521 46.9725C146.054 50.8951 142.731 59.1039 143.642 66.4465H143.642Z" fill="#2B2929"/>
<path d="M174.045 81.1569C173.555 83.3857 170.13 84.5322 166.4 83.7179C166.126 83.6582 165.855 83.5878 165.587 83.507C162.294 82.532 160.076 80.2638 160.531 78.1994C161.022 75.9669 164.447 74.8206 168.177 75.6384C169.789 75.992 171.194 76.653 172.232 77.4708H172.236C173.597 78.546 174.325 79.889 174.045 81.1569H174.045ZM188.267 84.5544C187.095 84.8117 185.963 84.804 185.026 84.5775C183.786 84.2856 182.888 83.6134 182.684 82.6877C182.326 81.059 184.244 79.2537 186.968 78.6584C188.128 78.4048 189.249 78.4088 190.177 78.6276C191.433 78.9158 192.343 79.5916 192.551 80.5251C192.909 82.1538 190.994 83.9591 188.266 84.5544H188.267Z" fill="white"/>
<path d="M179.201 89.5363C178.924 89.5363 178.642 89.5079 178.359 89.4497C178.327 89.4431 178.296 89.4303 178.269 89.4119C178.242 89.3936 178.219 89.3701 178.201 89.3428C178.183 89.3155 178.17 89.285 178.164 89.2529C178.158 89.2208 178.158 89.1878 178.165 89.1558C178.171 89.1238 178.184 89.0935 178.203 89.0665C178.221 89.0394 178.245 89.0163 178.272 88.9984C178.299 88.9804 178.33 88.968 178.362 88.9619C178.394 88.9558 178.428 88.956 178.46 88.9626C179.703 89.2195 180.928 88.8206 181.58 87.9483C182.183 87.1412 182.181 86.0777 181.575 84.9537C181.559 84.925 181.55 84.8935 181.546 84.861C181.543 84.8285 181.546 84.7957 181.556 84.7644C181.565 84.7332 181.581 84.7041 181.601 84.6788C181.622 84.6535 181.648 84.6325 181.676 84.6171C181.705 84.6016 181.737 84.5919 181.769 84.5887C181.802 84.5854 181.835 84.5885 181.866 84.5979C181.898 84.6073 181.927 84.6228 181.952 84.6434C181.978 84.6641 181.999 84.6895 182.014 84.7183C182.708 86.0031 182.695 87.2887 181.98 88.2457C181.364 89.0695 180.327 89.5365 179.202 89.5365L179.201 89.5363Z" fill="#403838"/>
<path d="M140.33 76.0776C144.222 76.0776 147.376 72.9325 147.376 69.0529C147.376 65.1734 144.222 62.0283 140.33 62.0283C136.439 62.0283 133.284 65.1734 133.284 69.0529C133.284 72.9325 136.439 76.0776 140.33 76.0776Z" fill="#F7B4A3"/>
<path d="M138.416 73.638C138.382 73.6381 138.348 73.6309 138.316 73.6169C137.714 73.3547 137.17 72.9761 136.716 72.5029C136.261 72.0298 135.905 71.4714 135.669 70.8603C135.429 70.2504 135.313 69.5991 135.327 68.9442C135.342 68.2893 135.486 67.6437 135.753 67.0448C136.015 66.4445 136.395 65.9022 136.87 65.4492C137.345 64.9962 137.905 64.6416 138.518 64.4058C139.129 64.1667 139.783 64.0509 140.44 64.0651C141.096 64.0794 141.744 64.2234 142.345 64.4889C142.405 64.5154 142.453 64.5649 142.477 64.6264C142.501 64.6879 142.499 64.7564 142.473 64.8167C142.446 64.8771 142.396 64.9244 142.335 64.9483C142.273 64.9722 142.204 64.9707 142.144 64.9442C141.043 64.4613 139.819 64.4347 138.698 64.8693C137.578 65.304 136.693 66.1477 136.209 67.2453C135.725 68.3428 135.698 69.5625 136.134 70.68C136.57 71.7975 137.416 72.679 138.517 73.1616C138.57 73.1845 138.613 73.2248 138.639 73.2756C138.665 73.3265 138.673 73.3848 138.661 73.4407C138.649 73.4966 138.618 73.5468 138.574 73.5827C138.529 73.6187 138.474 73.6382 138.416 73.638Z" fill="#403838"/>
<path d="M174.203 102.931C168.32 104.023 161.416 103.081 154.888 99.841C144.498 94.6905 138.189 85.2822 138.504 76.71C140.006 84.168 149.471 100.462 174.203 102.931Z" fill="#DDA094"/>
<path d="M174.045 81.1568C174.259 80.1895 173.885 79.1789 173.091 78.2765C172.159 77.5371 171.003 77.1349 169.812 77.1357C166.89 77.1357 164.522 79.497 164.522 82.4095C164.522 82.6634 164.546 82.9108 164.581 83.155C164.903 83.2853 165.238 83.4036 165.587 83.5068C165.848 83.5854 166.121 83.6568 166.4 83.7174C170.129 84.5318 173.555 83.3852 174.045 81.1565V81.1568ZM184.441 84.4008C184.632 84.4717 184.828 84.5307 185.026 84.5776C185.962 84.8043 187.095 84.8118 188.267 84.5544C190.994 83.9591 192.909 82.1539 192.551 80.5252C192.511 80.3462 192.444 80.1741 192.354 80.0144C191.585 79.6193 190.732 79.4135 189.866 79.4144C187.008 79.4144 184.667 81.6096 184.441 84.4008Z" fill="#2B2929"/>
<path d="M166.269 90.7756C165.656 90.5449 165.503 89.7342 166.007 89.3155C167.262 88.2711 168.984 88.2304 170.258 89.0954C171.166 89.7119 171.638 90.4506 171.925 91.498C172.103 92.15 171.469 92.7313 170.834 92.4929L166.269 90.7756H166.269Z" fill="white"/>
<path d="M174.903 75.0141C174.548 75.0145 174.207 74.8775 173.952 74.6319C171.291 72.0794 165.929 72.0108 162.073 73.027C161.724 73.1124 161.355 73.0577 161.046 72.8746C160.737 72.6915 160.512 72.3947 160.42 72.0481C160.328 71.7014 160.376 71.3327 160.555 71.0212C160.733 70.7097 161.026 70.4804 161.372 70.3825C166.099 69.1368 172.411 69.3578 175.854 72.6608C176.051 72.8499 176.187 73.0934 176.245 73.3602C176.302 73.6269 176.278 73.9046 176.176 74.1577C176.073 74.4107 175.897 74.6274 175.671 74.78C175.444 74.9326 175.176 75.0141 174.903 75.0141ZM194.292 77.2401C193.998 77.2402 193.713 77.1461 193.477 76.9718C192.327 76.1231 188.383 75.629 186.227 76.2932C185.88 76.4003 185.504 76.3654 185.182 76.1961C184.86 76.0268 184.619 75.737 184.511 75.3904C184.404 75.0439 184.439 74.6689 184.609 74.3481C184.779 74.0273 185.069 73.7869 185.417 73.6798C188.04 72.8714 192.948 73.1787 195.109 74.7729C195.341 74.9441 195.513 75.184 195.601 75.4584C195.688 75.7329 195.686 76.0278 195.596 76.3012C195.505 76.5747 195.33 76.8126 195.096 76.9812C194.862 77.1498 194.581 77.2404 194.292 77.2401H194.292Z" fill="#2B2929"/>
<path d="M168.256 30.7503C168.281 29.0652 166.744 27.676 164.823 27.6476C162.903 27.6191 161.325 28.9621 161.3 30.6472C161.275 32.3324 162.812 33.7215 164.732 33.75C166.653 33.7785 168.231 32.4355 168.256 30.7503Z" fill="#FFE3C3"/>
<path d="M168.357 31.7454C168.382 30.0603 166.846 28.6711 164.925 28.6426C163.004 28.6141 161.427 29.9571 161.401 31.6423C161.376 33.3274 162.913 34.7166 164.834 34.745C166.755 34.7735 168.332 33.4305 168.357 31.7454Z" fill="#EACAAC"/>
<path d="M165.002 58.8749C178.896 56.9689 191.52 57.9258 197.998 61.2068C195.089 39.3621 174.66 26.6529 158.72 31.0009C146.318 34.3837 136.637 48.0898 137.112 64.1917L145.18 63.8486C150.66 61.687 157.472 59.9081 165.002 58.8751V58.8749Z" fill="#FFE3C3"/>
<path d="M165.003 58.8749C179.703 56.8583 192.985 58.0459 199.066 61.8019C194.233 44.2694 173.369 48.9442 158.359 53.0384C145.957 56.4211 136.1 51.5852 136.575 67.6871L137.519 67.6575C143.458 63.8416 153.376 60.4698 165.003 58.8747V58.8749Z" fill="#EACAAC"/>
<path d="M149.101 57.8104C149.068 57.8104 149.037 57.7979 149.014 57.7755C148.991 57.7532 148.977 57.7227 148.976 57.6905C148.796 52.7106 149.736 47.6636 151.693 43.0947C153.704 38.399 157.207 33.9463 162.101 29.8601C162.127 29.8389 162.16 29.8286 162.193 29.8315C162.225 29.8345 162.256 29.8503 162.277 29.8756C162.298 29.9009 162.309 29.9335 162.306 29.9664C162.303 29.9993 162.287 30.0296 162.262 30.0508C157.397 34.1116 153.918 38.533 151.922 43.1924C149.979 47.7277 149.047 52.7382 149.225 57.6816C149.226 57.6979 149.223 57.7142 149.217 57.7295C149.212 57.7448 149.203 57.7588 149.192 57.7708C149.181 57.7828 149.167 57.7924 149.152 57.7992C149.138 57.806 149.121 57.8098 149.105 57.8104H149.101H149.101ZM184.246 53.4374C184.218 53.4374 184.191 53.4281 184.169 53.4111C184.147 53.3941 184.132 53.3703 184.125 53.3434C182.785 48.0226 180.271 42.9766 176.855 38.7509C173.883 35.0747 170.61 32.0378 167.638 30.2C167.61 30.1826 167.59 30.1548 167.582 30.1227C167.574 30.0906 167.58 30.0569 167.597 30.0289C167.615 30.0009 167.643 29.981 167.675 29.9734C167.707 29.9659 167.741 29.9715 167.769 29.9889C170.764 31.8411 174.06 34.8976 177.049 38.595C180.487 42.8483 183.018 47.9274 184.367 53.283C184.372 53.3013 184.372 53.3205 184.368 53.339C184.364 53.3575 184.356 53.3748 184.344 53.3897C184.333 53.4046 184.318 53.4167 184.301 53.4249C184.284 53.4332 184.265 53.4375 184.246 53.4374H184.246Z" fill="#EACAAC"/>
<path d="M165.002 58.8749C182.101 56.5293 197.279 58.5185 201.442 63.8418L209.256 62.6848C207.11 54.9622 187.764 51.2328 165.118 54.3393C141.792 57.5393 123.8 66.7805 124.931 74.98C124.94 75.0427 124.953 75.1041 124.964 75.1663L131.704 74.1684C133.014 68.1131 146.948 61.352 165.002 58.8754V58.8749Z" fill="#FFE3C3"/>
<path d="M137.59 61.9329L137.988 67.3278L142.166 65.0737L140.316 60.7304L137.59 61.9329ZM185.193 53.3541L187.078 58.2865L193.797 59.6213L190.387 53.7739C188.661 53.5715 186.929 53.4315 185.193 53.3541H185.193Z" fill="#5D331B"/>
</g>
<defs>
<clipPath id="clip0_353_35910">
<rect width="61.1224" height="49.3167" fill="white" transform="translate(262.094 178.835)"/>
</clipPath>
<clipPath id="clip1_353_35910">
<rect width="54.6359" height="155.173" fill="white" transform="translate(282.801 92.4065)"/>
</clipPath>
<clipPath id="clip2_353_35910">
<rect width="287.65" height="156.668" fill="white" transform="translate(24.8396 89.4176)"/>
</clipPath>
<clipPath id="clip3_353_35910">
<rect width="155.924" height="42.3426" fill="white" transform="matrix(-1 0 0 1 243.633 205.735)"/>
</clipPath>
<clipPath id="clip4_353_35910">
<rect width="116.507" height="40.35" fill="white" transform="translate(116.398 207.977)"/>
</clipPath>
<clipPath id="clip5_353_35910">
<rect width="10.2286" height="49.0676" fill="white" transform="translate(294.527 179.084)"/>
</clipPath>
<clipPath id="clip6_353_35910">
<rect width="20.4573" height="19.1787" fill="white" transform="translate(282.302 112.581)"/>
</clipPath>
<clipPath id="clip7_353_35910">
<rect width="140.207" height="135.247" fill="white" transform="translate(-20.5657 112.332)"/>
</clipPath>
<clipPath id="clip8_353_35910">
<rect width="95.0516" height="102.12" fill="white" transform="translate(296.772 145.957)"/>
</clipPath>
<clipPath id="clip9_353_35910">
<rect width="84.5734" height="75.7185" fill="white" transform="translate(124.881 27.6472)"/>
</clipPath>
</defs>
</svg>
