<svg width="375" height="322" viewBox="0 0 375 322" fill="none" xmlns="http://www.w3.org/2000/svg">
<g clip-path="url(#clip0_813_32217)">
<rect width="375" height="322" fill="white"/>
<path fill-rule="evenodd" clip-rule="evenodd" d="M234.273 -219.998C298.589 -219.659 352.18 -184.991 398.105 -142.838C455.43 -90.2223 530.467 -34.1817 517.528 39.9904C504.186 116.464 413.513 149.496 340.681 186.315C260.883 226.657 179.512 279.165 92.64 254.788C-9.22441 226.203 -117.693 155.362 -123.798 55.976C-129.588 -38.2944 -9.76065 -84.5597 68.1113 -144.578C118.108 -183.111 169.513 -220.339 234.273 -219.998Z" fill="#E8F1FF"/>
<g clip-path="url(#clip1_813_32217)">
<path d="M298.568 297.343C301.659 297.343 304.166 294.844 304.166 291.762C304.166 288.68 301.659 286.181 298.568 286.181C295.476 286.181 292.969 288.68 292.969 291.762C292.969 294.844 295.476 297.343 298.568 297.343Z" fill="#4097FF"/>
<path d="M282.824 273.829C278.037 278.17 275.044 283.754 273.888 289.645L278.001 290.139C278.921 285.319 281.354 280.747 285.267 277.199C293.524 269.711 305.71 269.192 314.514 275.285L318.097 270.922C307.309 263.983 292.759 264.819 282.824 273.829V273.829Z" fill="#4097FF"/>
<path d="M289.43 281.301C286.532 283.929 284.701 287.295 283.954 290.853L287.085 291.229C287.655 288.785 288.959 286.571 290.823 284.884C295.423 280.713 302.329 280.624 307.024 284.403L311.115 279.423C304.456 275.221 295.535 275.765 289.43 281.301V281.301Z" fill="#4097FF"/>
<path d="M268.335 288.979C269.713 282.062 273.238 275.511 278.86 270.412C290.755 259.625 308.255 258.765 321.039 267.341L323.217 264.69C310.062 255.709 292.508 255.415 279.019 264.207L272.301 269.718C267.117 275.008 263.703 281.438 262.094 288.23L268.335 288.979Z" fill="#4097FF"/>
</g>
<g clip-path="url(#clip2_813_32217)">
<path d="M327.748 321.58C327.655 321.58 327.564 321.559 327.48 321.519C327.396 321.479 327.322 321.42 327.264 321.348C327.205 321.275 327.164 321.19 327.143 321.099C327.121 321.009 327.121 320.914 327.141 320.823C337.026 275.737 335.112 239.171 321.454 212.141C310.952 191.356 296.695 183.124 292.575 181.096C292.501 181.061 292.434 181.011 292.378 180.95C292.323 180.888 292.28 180.817 292.253 180.738C292.225 180.66 292.213 180.578 292.218 180.495C292.223 180.412 292.245 180.331 292.281 180.257C292.317 180.183 292.368 180.117 292.43 180.062C292.493 180.008 292.565 179.966 292.644 179.941C292.722 179.915 292.805 179.904 292.887 179.911C292.97 179.917 293.05 179.94 293.123 179.978C297.33 182.049 311.886 190.449 322.563 211.578C328.695 223.715 332.521 238.039 333.932 254.152C335.655 273.828 333.779 296.35 328.354 321.091C328.324 321.229 328.247 321.353 328.137 321.442C328.027 321.531 327.89 321.58 327.748 321.58H327.748Z" fill="#8E5740"/>
<path d="M306.444 177.918C315.375 187.512 321.109 200.249 318.327 202.848C315.546 205.448 303.637 198.886 294.707 189.292C285.776 179.699 280.79 169.814 283.572 167.214C286.353 164.614 297.513 168.324 306.444 177.918ZM337.437 213.699C337.428 223.379 333.312 231.439 330.539 231.437C327.766 231.434 325.714 223.663 326.327 214.004C326.947 204.213 328.559 197.325 331.332 197.327C334.104 197.33 337.445 204.02 337.437 213.699ZM327.162 238.102C331.601 241.652 333.751 246.555 332.705 247.867C331.66 249.18 327.821 246.671 323.118 243.477C318.086 240.06 315.939 237.272 316.789 235.834C317.888 233.975 322.722 234.552 327.162 238.102H327.162Z" fill="#5B5C1A"/>
<path d="M306.444 177.918C301.895 173.031 296.175 169.214 291.168 167.397C294.986 169.776 299.887 174.831 303.666 179.927C308.123 185.937 311.524 192.778 313.101 197.932C313.765 200.1 318.793 196.407 315.5 190.634C313.212 186.623 310.106 181.851 306.444 177.918L306.444 177.918Z" fill="#7C7C29"/>
<path d="M323.385 185.695C323.633 195.369 319.602 203.537 316.743 203.611C313.883 203.684 311.365 195.902 311.118 186.228C310.87 176.554 312.987 168.652 315.846 168.579C318.706 168.505 323.137 176.021 323.385 185.695L323.385 185.695Z" fill="#5B5C1A"/>
<path d="M323.385 185.695C323.169 177.258 319.771 170.464 317.009 168.913C318.834 178.292 318.835 195.183 316.896 203.594C319.743 203.244 323.628 195.199 323.385 185.695Z" fill="#7C7C29"/>
<path d="M316.885 203.906C316.846 203.906 316.807 203.897 316.771 203.88C316.736 203.863 316.705 203.838 316.68 203.807C316.656 203.776 316.639 203.74 316.63 203.702C316.621 203.663 316.621 203.623 316.63 203.585C318.549 195.329 318.609 178.503 316.753 168.963C316.747 168.929 316.747 168.894 316.754 168.861C316.761 168.827 316.774 168.795 316.793 168.766C316.812 168.738 316.837 168.713 316.866 168.694C316.894 168.675 316.926 168.662 316.96 168.656C316.994 168.649 317.028 168.649 317.062 168.656C317.096 168.663 317.128 168.676 317.156 168.695C317.184 168.715 317.209 168.739 317.228 168.768C317.247 168.797 317.26 168.829 317.266 168.863C319.133 178.459 319.072 195.392 317.14 203.704C317.126 203.761 317.094 203.812 317.048 203.849C317.002 203.886 316.944 203.906 316.885 203.906H316.885Z" fill="#033A11"/>
<path d="M331.353 197.329C331.346 197.329 331.339 197.327 331.332 197.327C328.559 197.325 326.948 204.213 326.327 214.004C325.732 223.392 327.654 230.994 330.308 231.416C334.074 222.639 332.529 204.029 331.353 197.329Z" fill="#7C7C29"/>
</g>
<g clip-path="url(#clip3_813_32217)">
<path d="M262.928 211.737C264.445 210.486 269.15 200.773 271.581 196.722C274.011 192.671 284.617 182.812 291.962 182.211C300.335 181.526 311.314 181.963 311.889 184.893C312.417 187.583 307.838 189.137 305.678 190.131C308.378 190.131 312.489 191.287 312.489 193.57C312.489 195.881 307.433 197.816 306.218 198.917C308.195 199 310.968 199.875 311.106 202.179C311.244 204.483 298.926 206.482 296.495 207.795C294.064 209.108 294.131 217.453 287.647 222.543C281.432 227.422 273.603 233.25 269.349 235.328C265.41 234.071 256.189 226.275 255.188 217.469C255.109 216.778 262.357 212.208 262.928 211.737L262.928 211.737Z" fill="#F7B4A3"/>
<path d="M306.275 198.868C307.58 197.76 312.489 195.847 312.489 193.571C312.489 191.294 308.378 190.131 305.677 190.131C300.194 190.675 293.133 190.486 289.06 192.227C284.987 193.968 282.894 202.922 282.586 205.6C286.566 211.086 293.549 205.6 295.371 199.937C298.651 199.128 303.422 198.127 306.275 198.868Z" fill="#DDA094"/>
<path d="M255.124 270.493C250.245 282.834 231.027 286.838 212.198 279.435C193.368 272.032 180.026 260.398 184.904 248.057C189.782 235.715 211.034 227.339 229.863 234.742C248.693 242.145 260.002 258.151 255.124 270.493V270.493Z" fill="#F8A036"/>
<path d="M106.184 166.672C103.453 167.392 91.9711 170.054 87.1871 175.442C81.8811 181.418 81.6472 191.401 89.3796 192.512C97.112 193.623 112.405 191.199 114.937 186.957C117.469 182.715 119.417 163.183 106.184 166.672Z" fill="#6940E4"/>
<path d="M230.166 249.934C220.734 270.317 180.149 272.685 140.333 254.359C100.517 236.032 75.8868 204.652 85.319 184.27C94.7511 163.887 136.723 160.315 175.865 180.033C210.091 197.273 239.598 229.551 230.165 249.934H230.166Z" fill="#F8A036"/>
<path d="M190.074 217.635C190.074 217.635 193.865 254.054 192.814 278.975C191.762 303.896 195.658 319.995 171.357 319.995H83.5262C65.5987 319.995 53.1903 301.376 59.4868 284.635L92.5793 196.65C97.1339 184.54 110.027 177.719 122.635 180.749L170.42 192.236C182.136 195.052 190.312 205.618 190.074 217.635V217.635Z" fill="#F8A036"/>
<path d="M175.994 188.416C178.358 181.512 169.587 172.276 156.405 167.787C143.223 163.298 130.621 165.256 128.257 172.16C125.893 179.065 134.663 188.3 147.846 192.789C161.028 197.278 173.63 195.32 175.994 188.416Z" fill="#D88830"/>
<path d="M275.281 224.372C285.027 238.251 272.524 262.919 259.211 275.695C243.465 290.804 215.817 283.71 205.062 273.403C192.812 261.663 207.463 235.567 225.268 223.132C243.072 210.697 265.536 210.493 275.281 224.372Z" fill="#F8A036"/>
<path d="M211.58 274.706C201.493 267.086 194.98 256.785 192.658 246.382C190.624 248.749 189.161 251.335 188.432 254.015C184.953 266.819 199.505 276.91 219.04 282.189C223.231 283.322 227.381 283.929 231.35 284.061C224.56 282.489 217.766 279.379 211.58 274.706H211.58Z" fill="#D88830"/>
<path d="M95.5198 237.966C122.837 216.832 136.913 189.325 126.959 176.528C117.006 163.731 86.7918 170.49 59.4747 191.624C32.1576 212.759 18.0817 240.265 28.0353 253.062C37.9889 265.859 68.2027 259.1 95.5198 237.966Z" fill="#F8A036"/>
<path d="M192.997 243.813C192.759 229.462 201.113 198.504 188.161 185.522C180.437 177.779 171.106 167.702 144.756 164.358C126.24 162.008 112.229 164.324 100.699 168.42C97.5653 169.533 96.9209 170.591 95.2094 172.528C98.173 171.771 101.37 176.924 103.024 184.212C104.851 192.262 104.186 203.076 101.606 211.041C97.4147 223.985 87.2002 236.74 83.5029 236.251C79.8057 235.762 54.3234 282.158 53.1573 285.261C48.4984 297.662 48.2959 320.085 68.5516 320.085H107.522C112.244 320.085 116.493 317.229 118.263 312.863C123.155 300.798 132.641 277.102 134.86 269.38C138.411 257.024 145.628 231.584 150.439 220.78C152.845 215.377 156.693 204.727 151.091 201.12C143.661 196.336 132.143 184.247 128.853 175.444C125.939 167.647 139.563 167.056 153.796 171.373C168.028 175.69 178.306 183.621 179.257 191.711C180.105 198.923 174.714 203.527 168.391 205.032C167.035 205.355 166.104 206.592 166.209 207.978C166.989 218.337 175.934 255.035 174.894 275.622C173.679 299.682 158.082 320.086 172.666 320.086H190.491C206.898 320.086 196.314 257.841 192.997 243.813V243.813Z" fill="#7D54F8"/>
<path d="M172.385 203.856C177.595 201.446 181.531 196.711 180.907 190.031C180.073 181.099 169.47 172.527 154.654 168.033C139.837 163.539 125.561 164.464 128.457 173.033C128.463 173.052 128.47 173.071 128.477 173.09C129.005 167.577 141.16 167.54 153.796 171.372C168.029 175.689 178.307 183.621 179.257 191.71C179.922 197.366 176.751 201.418 172.303 203.629C172.177 203.691 172.266 203.911 172.385 203.856H172.385Z" fill="#6940E4"/>
<path d="M25.2 239.305C26.5355 223.807 49.4385 221.716 70.807 224.085C92.6886 226.512 109.841 237.782 103.135 259.645C95.8617 283.356 82.1567 290.404 58.7499 281.25C38.6659 273.396 23.5292 258.695 25.2 239.305Z" fill="#F8A036"/>
<path d="M193.162 244.734C193.113 244.734 193.066 244.718 193.029 244.687C192.991 244.657 192.965 244.614 192.955 244.567C191.893 239.536 189.354 235.277 187.935 233.186C187.904 233.139 187.892 233.082 187.903 233.027C187.913 232.972 187.946 232.923 187.992 232.892C188.039 232.861 188.096 232.849 188.151 232.859C188.206 232.87 188.255 232.902 188.286 232.949C189.723 235.065 192.293 239.378 193.37 244.479C193.376 244.51 193.376 244.542 193.368 244.573C193.361 244.603 193.347 244.632 193.327 244.656C193.307 244.681 193.282 244.7 193.253 244.714C193.225 244.728 193.194 244.735 193.162 244.734Z" fill="#2B2929"/>
<path d="M116.649 250.894C120.952 248.525 127.112 244.26 129.553 242.827C132.764 240.941 137.305 241.138 135.355 245.84C134.478 247.974 133.406 250.023 132.152 251.961L116.649 250.894Z" fill="#F7B4A3"/>
<path d="M161.463 239.613L141.254 285.642C140.95 286.334 140.45 286.923 139.815 287.336C139.18 287.748 138.437 287.967 137.679 287.964L121.701 285.529C119.555 285.52 117.822 283.778 117.83 281.638C117.832 281.141 117.93 280.649 118.118 280.188L137.327 234.054C137.72 233.093 138.418 232.288 139.315 231.762C140.212 231.237 141.257 231.02 142.29 231.145L157.693 233.021C160.292 233.336 162.143 235.692 161.828 238.284C161.772 238.742 161.649 239.19 161.463 239.613Z" fill="#FCF0E3"/>
<path d="M155.302 243.023L140.009 277.854C139.556 278.886 138.811 279.762 137.865 280.376C136.919 280.99 135.814 281.315 134.685 281.311L122.465 278.893C122.142 278.892 121.824 278.811 121.539 278.659C121.254 278.506 121.012 278.287 120.832 278.019C120.652 277.751 120.541 277.443 120.508 277.122C120.476 276.802 120.522 276.478 120.644 276.18L135.9 239.712C136.296 238.744 137.001 237.932 137.906 237.402C138.81 236.873 139.864 236.654 140.905 236.781L152.542 238.198C154.445 238.429 155.8 240.156 155.568 242.054C155.527 242.388 155.437 242.715 155.302 243.023V243.023Z" fill="#2B2929"/>
<path d="M146.007 234.7L145.994 234.837C145.974 235.065 146.143 235.267 146.373 235.288L148.963 235.519C149.193 235.54 149.395 235.371 149.416 235.142L149.428 235.006C149.449 234.777 149.279 234.575 149.05 234.555L146.459 234.323C146.23 234.302 146.027 234.471 146.007 234.7Z" fill="#2B2929"/>
<path d="M150.592 235.677C150.952 235.677 151.243 235.386 151.243 235.027C151.243 234.668 150.952 234.377 150.592 234.377C150.232 234.377 149.941 234.668 149.941 235.027C149.941 235.386 150.232 235.677 150.592 235.677Z" fill="#2B2929"/>
<path d="M157.338 243.245L156.242 245.82C156.115 246.12 156.255 246.466 156.556 246.593L156.556 246.593C156.856 246.72 157.203 246.58 157.331 246.28L158.426 243.705C158.553 243.405 158.413 243.059 158.113 242.932L158.112 242.932C157.812 242.805 157.465 242.945 157.338 243.245Z" fill="#EACAAC"/>
<path d="M156.266 247.27C156.338 247.3 156.402 247.344 156.457 247.399C156.511 247.455 156.554 247.52 156.583 247.592C156.613 247.664 156.627 247.741 156.626 247.818C156.626 247.895 156.61 247.972 156.579 248.043L155.484 250.618C155.454 250.689 155.41 250.754 155.355 250.808C155.299 250.863 155.234 250.905 155.162 250.934C155.016 250.993 154.854 250.992 154.709 250.931C154.565 250.869 154.451 250.754 154.392 250.609C154.333 250.464 154.335 250.302 154.396 250.158L155.491 247.583C155.521 247.511 155.565 247.447 155.621 247.392C155.676 247.338 155.742 247.295 155.814 247.266C155.886 247.237 155.963 247.223 156.04 247.223C156.118 247.224 156.195 247.24 156.266 247.27Z" fill="#EACAAC"/>
<path d="M98.8933 271.714C103.909 273.537 104.031 273.725 109.503 274.537C117.491 275.723 130.658 276.387 134.012 272.491C139.157 278.56 144.247 280.319 145.535 279.691C147.954 278.511 149.386 275.063 143.169 266.108C145.319 272.522 152.025 277.707 154.384 273.952C155.833 271.645 153.398 263.922 148.313 257.919C149.388 256.648 162.855 258.989 164.219 255.622C166.13 250.909 144.119 244.475 137.773 245.745C129.117 247.476 125.425 247.813 118.934 249.276C113.171 249.508 115.926 249.577 108.284 247.972C100.829 246.405 92.4163 269.359 98.8936 271.714L98.8933 271.714Z" fill="#F7B4A3"/>
<path d="M119.362 249.522C119.314 249.522 119.267 249.506 119.23 249.476C119.192 249.446 119.166 249.405 119.155 249.358C119.145 249.311 119.15 249.262 119.171 249.219C119.191 249.176 119.226 249.141 119.269 249.12C120.2 248.671 126.552 247.456 131.19 246.569C133.09 246.205 134.59 245.918 135.19 245.784C135.243 245.775 135.298 245.787 135.343 245.817C135.388 245.847 135.42 245.894 135.432 245.947C135.444 245.999 135.435 246.055 135.407 246.101C135.379 246.148 135.335 246.182 135.283 246.197C134.677 246.332 133.173 246.62 131.269 246.984C126.915 247.817 120.334 249.076 119.454 249.501C119.426 249.515 119.394 249.522 119.362 249.522V249.522ZM148.312 258.13C148.283 258.13 148.254 258.124 148.228 258.113C148.201 258.101 148.177 258.084 148.157 258.063C144.127 253.749 139.511 254.588 134.625 255.476C134.218 255.55 133.81 255.624 133.404 255.695C133.349 255.702 133.294 255.689 133.249 255.657C133.204 255.624 133.174 255.576 133.165 255.522C133.155 255.468 133.167 255.412 133.198 255.366C133.229 255.321 133.277 255.289 133.331 255.278C133.736 255.208 134.143 255.134 134.549 255.06C139.332 254.191 144.278 253.292 148.467 257.775C148.495 257.805 148.514 257.842 148.521 257.883C148.528 257.924 148.523 257.965 148.507 258.003C148.49 258.041 148.463 258.073 148.429 258.096C148.394 258.118 148.354 258.13 148.312 258.13ZM147.008 272.7C146.968 272.7 146.929 272.689 146.896 272.668C146.862 272.647 146.835 272.617 146.817 272.581C142.353 263.481 137.876 263.603 132.693 263.742C131.945 263.762 131.17 263.782 130.389 263.774C130.333 263.774 130.279 263.751 130.24 263.711C130.201 263.671 130.179 263.617 130.179 263.561C130.18 263.505 130.203 263.451 130.243 263.412C130.283 263.373 130.337 263.351 130.394 263.352C131.167 263.361 131.937 263.339 132.682 263.319C137.788 263.181 142.613 263.051 147.198 272.395C147.214 272.427 147.221 272.463 147.219 272.499C147.218 272.535 147.207 272.57 147.188 272.6C147.169 272.63 147.142 272.655 147.111 272.673C147.079 272.69 147.044 272.699 147.008 272.699V272.7ZM145.484 278.239C144.176 278.239 142.341 276.939 141.566 275.781C141.056 275.022 141.037 274.361 141.512 273.968C142.794 272.909 144.369 271.783 145.184 272.477C145.845 273.039 147.052 275.445 146.89 276.906C146.828 277.468 146.585 277.865 146.167 278.085C145.967 278.191 145.735 278.239 145.484 278.239H145.484ZM144.563 272.688C144.117 272.688 143.294 273.045 141.782 274.294C141.408 274.603 141.649 275.146 141.918 275.547C142.797 276.86 145.041 278.201 145.968 277.711C146.259 277.558 146.422 277.28 146.468 276.86C146.622 275.47 145.426 273.239 144.909 272.798C144.831 272.733 144.721 272.688 144.563 272.688ZM159.115 256.45C158.566 256.45 158.039 256.388 157.605 256.265C156.723 256.015 156.279 255.525 156.386 254.918C156.673 253.284 157.141 251.409 158.211 251.409H158.212C159.081 251.41 161.564 252.461 162.39 253.678C162.708 254.146 162.781 254.605 162.606 255.043C162.226 255.996 160.592 256.45 159.115 256.45V256.45ZM156.803 254.992C156.719 255.47 157.256 255.727 157.721 255.858C159.244 256.289 161.824 255.859 162.212 254.887C162.334 254.583 162.277 254.265 162.04 253.916C161.253 252.757 158.892 251.833 158.212 251.832H158.211C157.822 251.832 157.263 252.38 156.803 254.992V254.992ZM152.78 272.699C151.527 272.699 149.797 271.466 149.12 270.298C148.763 269.681 148.743 269.137 149.063 268.768C149.133 268.686 149.206 268.597 149.282 268.505C149.918 267.735 150.788 266.681 152.197 267.239C153.319 267.684 154.202 269.932 154.067 271.35C153.996 272.096 153.649 272.564 153.091 272.671C152.988 272.69 152.884 272.699 152.78 272.699ZM149.383 269.044C149.136 269.33 149.303 269.769 149.487 270.086C150.134 271.203 151.959 272.456 153.011 272.255C153.378 272.186 153.592 271.867 153.645 271.31C153.772 269.968 152.903 267.974 152.041 267.632C150.919 267.188 150.223 268.031 149.609 268.774C149.531 268.869 149.456 268.96 149.383 269.044V269.044Z" fill="#2B2929"/>
<path d="M108.184 247.7C106.946 247.42 106.174 247.187 105.014 246.944C98.6298 251.473 94.5907 263.469 94.1785 268.579C95.05 268.923 100.388 270.399 101.566 270.757C99.7009 265.25 105.859 249.934 108.184 247.7L108.184 247.7Z" fill="#DDA094"/>
<path d="M277.033 240.494L283.022 231.695C283.471 231.037 283.662 230.238 283.561 229.448C283.46 228.659 283.074 227.934 282.475 227.408L263.581 210.85C262.981 210.325 262.21 210.036 261.412 210.037C260.615 210.039 259.845 210.331 259.248 210.859L251.269 217.914C249.795 219.217 249.8 221.514 251.279 222.81L272.163 241.113C273.643 242.409 275.927 242.119 277.033 240.494ZM91.0018 273.416L101.571 274.824C102.362 274.929 103.164 274.743 103.827 274.3C104.49 273.857 104.968 273.188 105.171 272.419L111.572 248.16C111.775 247.39 111.689 246.573 111.331 245.862C110.972 245.151 110.366 244.595 109.626 244.299L99.7303 240.336C97.9026 239.604 95.8452 240.635 95.344 242.535L88.2692 269.349C87.7679 271.249 89.0497 273.157 91.0021 273.416L91.0018 273.416Z" fill="#F8A036"/>
<path d="M91.4872 229.832C95.2987 225.006 99.3361 218.052 101.606 211.041C102.098 209.523 102.52 207.901 102.868 206.214C100.785 211.017 96.6668 215.711 92.8004 219.585C87.8917 224.504 79.3341 220.995 76.957 225.319C81.9673 226.331 87.5949 227.775 91.4872 229.832Z" fill="#D88830"/>
<path d="M69.358 224.961C69.3147 224.961 69.2724 224.948 69.2368 224.923C66.1291 222.757 62.6126 221.939 60.2775 222.839C60.2515 222.849 60.2237 222.854 60.1958 222.853C60.1679 222.853 60.1404 222.847 60.1148 222.835C60.0893 222.824 60.0662 222.808 60.0469 222.788C60.0276 222.768 60.0125 222.744 60.0025 222.718C59.9924 222.692 59.9876 222.664 59.9884 222.636C59.9891 222.609 59.9953 222.581 60.0066 222.556C60.018 222.53 60.0343 222.507 60.0546 222.488C60.0749 222.469 60.0988 222.454 60.1248 222.444C62.5874 221.496 66.2595 222.333 69.4797 224.576C69.5167 224.602 69.5445 224.639 69.5591 224.682C69.5736 224.724 69.5741 224.77 69.5605 224.813C69.547 224.856 69.52 224.894 69.4836 224.92C69.4471 224.947 69.4032 224.961 69.358 224.961V224.961Z" fill="#2B2929"/>
<path d="M91.5704 230.324C91.5281 230.324 91.4869 230.311 91.4519 230.287C84.5968 225.666 64.6651 221.871 56.4806 229.013C56.4381 229.048 56.3835 229.065 56.3284 229.061C56.2733 229.056 56.2221 229.031 56.1857 228.989C56.1494 228.948 56.1307 228.894 56.1336 228.839C56.1366 228.784 56.1609 228.732 56.2016 228.695C61.232 224.305 69.8397 224.381 74.523 224.818C81.1671 225.437 88.0659 227.494 91.6896 229.937C91.7272 229.963 91.7556 229.999 91.7707 230.042C91.7858 230.085 91.7868 230.131 91.7735 230.174C91.7601 230.218 91.7332 230.255 91.6967 230.282C91.6602 230.309 91.616 230.324 91.5706 230.324H91.5704Z" fill="#2B2929"/>
<path d="M234.821 230.319C233.896 226.532 231.256 222.775 228.497 221.04C227.656 221.585 226.861 222.036 225.927 222.699C229.809 229.136 232.688 235.603 233.08 242.477C235.337 239.208 235.985 235.083 234.821 230.319ZM96.5254 274.152L99.9082 274.603C101.178 271.795 102.233 268.673 102.99 265.332C103.45 263.31 103.784 261.262 103.989 259.199C104.031 258.78 103.424 258.664 103.307 259.069C103.252 259.26 103.194 259.452 103.135 259.645C101.341 265.495 99.1523 270.324 96.5256 274.152L96.5254 274.152Z" fill="#D88830"/>
<path d="M233.088 242.871C233.034 242.871 232.981 242.85 232.942 242.812C232.902 242.775 232.879 242.723 232.877 242.669C232.61 236.542 230.228 229.929 225.797 223.012C225.782 222.988 225.772 222.962 225.767 222.935C225.762 222.908 225.763 222.88 225.769 222.853C225.775 222.825 225.786 222.8 225.802 222.777C225.818 222.754 225.838 222.735 225.862 222.72C225.885 222.705 225.911 222.695 225.939 222.69C225.966 222.685 225.994 222.686 226.021 222.692C226.049 222.698 226.074 222.709 226.097 222.725C226.12 222.741 226.139 222.761 226.154 222.784C230.626 229.765 233.03 236.449 233.3 242.65C233.301 242.678 233.297 242.706 233.288 242.732C233.278 242.758 233.264 242.782 233.245 242.802C233.226 242.823 233.203 242.839 233.178 242.851C233.153 242.863 233.126 242.869 233.098 242.871H233.088V242.871Z" fill="#2B2929"/>
<path d="M135.825 224.952C132.252 224.952 122.084 222.745 108.713 216.666C108.413 216.529 108.179 216.279 108.063 215.97C107.947 215.661 107.959 215.319 108.096 215.019C108.233 214.719 108.485 214.485 108.794 214.37C109.104 214.254 109.447 214.266 109.748 214.403C122.756 220.318 132.47 222.465 135.825 222.465C136.156 222.465 136.473 222.596 136.707 222.829C136.94 223.063 137.072 223.379 137.072 223.709C137.072 224.039 136.94 224.355 136.707 224.588C136.473 224.821 136.156 224.952 135.825 224.952Z" fill="#FF8D6E"/>
<path d="M135.825 223.92C132.342 223.92 122.363 221.738 109.143 215.727C109.118 215.716 109.095 215.699 109.076 215.679C109.057 215.659 109.042 215.635 109.032 215.609C109.022 215.583 109.018 215.555 109.019 215.527C109.02 215.5 109.026 215.472 109.038 215.447C109.049 215.422 109.066 215.399 109.086 215.38C109.107 215.361 109.13 215.346 109.157 215.337C109.183 215.327 109.21 215.322 109.238 215.323C109.266 215.324 109.293 215.331 109.319 215.342C122.477 221.326 132.379 223.497 135.825 223.497C135.881 223.497 135.935 223.52 135.975 223.559C136.015 223.599 136.037 223.653 136.037 223.709C136.037 223.765 136.015 223.819 135.975 223.858C135.935 223.898 135.881 223.92 135.825 223.92Z" fill="#2B2929"/>
<path d="M109.225 220.803C109.208 220.803 109.192 220.803 109.175 220.802C108.78 220.788 108.416 220.604 108.151 220.284C107.891 219.971 107.756 219.564 107.772 219.138C107.788 218.688 108.376 215.276 109.373 215.315C109.79 215.33 110.126 215.897 110.4 217.051C110.603 217.906 110.71 218.837 110.695 219.242C110.68 219.668 110.516 220.065 110.235 220.358C109.958 220.646 109.601 220.803 109.224 220.803L109.225 220.803ZM109.354 215.737C108.952 215.737 108.231 218.181 108.196 219.153C108.184 219.475 108.284 219.781 108.478 220.014C108.665 220.24 108.918 220.369 109.191 220.379C109.462 220.391 109.725 220.278 109.929 220.066C110.138 219.847 110.26 219.549 110.272 219.227C110.285 218.858 110.18 217.958 109.987 217.148C109.714 215.999 109.44 215.74 109.358 215.737H109.354ZM295.372 200.148C295.321 200.148 295.272 200.131 295.234 200.098C295.196 200.065 295.17 200.02 295.162 199.971C295.154 199.921 295.164 199.87 295.19 199.827C295.216 199.784 295.257 199.752 295.305 199.736C296.666 199.286 302.9 197.688 306.279 198.714C306.332 198.731 306.376 198.769 306.402 198.818C306.427 198.867 306.433 198.924 306.416 198.977C306.4 199.03 306.364 199.074 306.315 199.101C306.266 199.127 306.209 199.134 306.156 199.119C302.882 198.125 296.774 199.696 295.438 200.138C295.417 200.145 295.394 200.148 295.371 200.148H295.372Z" fill="#2B2929"/>
<path d="M284.747 188.395C287.988 187.991 301.086 184.727 302.437 189.254C303.787 193.782 292.309 196.88 290.688 197.284C289.068 197.688 289.184 204.152 282.586 205.6" fill="#F7B4A3"/>
<path d="M282.586 205.811C282.534 205.811 282.483 205.792 282.445 205.757C282.406 205.722 282.381 205.675 282.376 205.623C282.37 205.571 282.384 205.519 282.414 205.477C282.445 205.434 282.49 205.405 282.541 205.394C286.857 204.446 288.239 201.276 289.154 199.179C289.646 198.052 290.001 197.237 290.637 197.079C294.109 196.213 300.402 194.02 301.963 191.289C302.343 190.625 302.432 189.979 302.233 189.315C301.155 185.699 291.616 187.408 287.032 188.229C286.065 188.402 285.301 188.539 284.773 188.605C284.656 188.621 284.55 188.537 284.536 188.421C284.522 188.306 284.604 188.2 284.72 188.185C285.238 188.121 286.034 187.978 286.957 187.813C292.023 186.905 301.453 185.216 302.64 189.194C302.869 189.964 302.765 190.739 302.331 191.499C300.322 195.013 291.714 197.246 290.74 197.489C290.306 197.597 289.969 198.37 289.543 199.348C288.593 201.524 287.159 204.813 282.632 205.807C282.617 205.81 282.601 205.812 282.586 205.811Z" fill="#2B2929"/>
<path d="M295.998 189.251C295.42 189.251 295.246 188.929 295.198 188.787C295.01 188.242 295.527 187.426 296.513 186.709C296.558 186.679 296.614 186.667 296.668 186.676C296.722 186.686 296.77 186.716 296.802 186.76C296.834 186.804 296.848 186.859 296.841 186.913C296.834 186.967 296.806 187.017 296.763 187.051C295.872 187.698 295.499 188.358 295.599 188.651C295.652 188.806 295.864 188.834 296.031 188.828C297.822 188.777 299.961 188.274 300.583 187.41C300.599 187.387 300.619 187.368 300.643 187.352C300.666 187.337 300.693 187.327 300.721 187.322C300.748 187.318 300.777 187.318 300.804 187.325C300.832 187.331 300.857 187.343 300.88 187.359C300.903 187.375 300.923 187.396 300.937 187.42C300.952 187.444 300.962 187.47 300.966 187.498C300.971 187.526 300.969 187.554 300.963 187.581C300.956 187.609 300.944 187.634 300.927 187.657C300.083 188.83 297.46 189.211 296.043 189.251C296.028 189.251 296.013 189.251 295.998 189.251H295.998Z" fill="#2B2929"/>
</g>
<g clip-path="url(#clip4_813_32217)">
<path d="M87.7192 322.078H127.46C126.668 316.118 122.948 310.386 116.965 306.956C115.09 305.878 113.065 305.079 110.957 304.584C102.698 302.651 94.129 305.752 90.0105 312.838C88.3864 315.642 87.5921 318.845 87.7192 322.078Z" fill="#5B5C1A"/>
<path d="M115.351 322.078H153.737C153.829 321.902 153.917 321.719 154.002 321.54C158.128 312.743 155.148 302.043 147.006 295.831C146.18 295.203 145.314 294.628 144.413 294.111C133.804 288.023 120.535 291.12 114.78 301.029C114.124 302.158 113.584 303.348 113.167 304.584C111.196 310.393 112.095 316.792 115.351 322.078Z" fill="#5B5C1A"/>
<path d="M151.792 321.539C152.027 321.718 152.263 321.898 152.503 322.077H192.281C190.693 315.418 182.655 307.347 172.362 301.409C169.959 299.975 167.452 298.721 164.862 297.657C157.019 294.458 149.74 293.784 144.796 295.831C142.965 296.553 141.385 297.788 140.247 299.385C136.338 305.096 142.048 314.061 151.792 321.539Z" fill="#5B5C1A"/>
<path d="M185.347 322.078H217.772C218.074 321.715 218.343 321.328 218.579 320.921C218.721 320.681 218.849 320.433 218.962 320.178C222.469 312.41 213.308 300.762 198.502 294.159C197.843 293.866 197.184 293.584 196.528 293.324C182.397 287.654 168.697 288.843 165.344 296.263C165.143 296.713 164.981 297.18 164.862 297.658C162.943 305.286 171.662 315.828 185.347 322.078Z" fill="#7C7C29"/>
<path d="M192.844 293.324C195.526 299.789 201.092 307.721 208.651 315.233C210.714 317.282 212.81 319.186 214.895 320.921C215.371 321.316 215.843 321.702 216.314 322.078H243.633C241.607 315.181 235.525 305.92 226.772 297.226C212.928 283.466 197.648 276.346 192.645 281.321C190.372 283.579 190.608 287.943 192.844 293.324Z" fill="#7C7C29"/>
</g>
<g clip-path="url(#clip5_813_32217)">
<path d="M205.935 321.925C205.887 321.925 205.839 321.912 205.797 321.887C205.755 321.863 205.72 321.828 205.696 321.786C203.779 318.408 197.803 312.502 190.1 306.372C182.192 300.079 174.45 295.1 169.391 293.052C169.357 293.038 169.327 293.018 169.301 292.993C169.276 292.968 169.255 292.938 169.241 292.905C169.227 292.872 169.22 292.837 169.22 292.801C169.22 292.765 169.226 292.73 169.24 292.697C169.254 292.664 169.274 292.633 169.299 292.608C169.324 292.583 169.354 292.562 169.388 292.548C169.421 292.534 169.456 292.527 169.492 292.527C169.528 292.527 169.564 292.534 169.598 292.547C180.346 296.898 201.882 313.956 206.174 321.518C206.197 321.559 206.21 321.606 206.209 321.654C206.209 321.701 206.196 321.748 206.172 321.789C206.148 321.83 206.113 321.864 206.072 321.888C206.03 321.912 205.983 321.924 205.935 321.924V321.925ZM214.017 300.761C213.954 300.761 213.893 300.739 213.844 300.7C213.795 300.66 213.762 300.605 213.749 300.544C212.997 296.919 214.409 291.137 215.712 288.749C215.747 288.688 215.806 288.642 215.875 288.623C215.943 288.604 216.017 288.612 216.08 288.646C216.143 288.679 216.19 288.736 216.211 288.804C216.232 288.872 216.226 288.945 216.194 289.008C214.93 291.326 213.559 296.928 214.286 300.434C214.294 300.474 214.293 300.514 214.284 300.554C214.274 300.593 214.256 300.63 214.23 300.661C214.204 300.692 214.172 300.718 214.135 300.735C214.098 300.752 214.058 300.761 214.017 300.761Z" fill="#033A11"/>
<path d="M175.142 315.022C175.09 315.022 175.04 315.008 174.997 314.981C174.953 314.954 174.918 314.915 174.895 314.87C174.873 314.824 174.864 314.773 174.869 314.722C174.874 314.671 174.894 314.623 174.925 314.583C176.868 312.094 189.375 309.397 199.532 313.851C199.566 313.865 199.596 313.885 199.622 313.911C199.647 313.937 199.668 313.968 199.681 314.001C199.694 314.035 199.701 314.071 199.7 314.107C199.7 314.143 199.692 314.179 199.677 314.212C199.662 314.245 199.641 314.275 199.615 314.3C199.588 314.325 199.557 314.344 199.523 314.357C199.489 314.369 199.452 314.375 199.416 314.374C199.38 314.373 199.344 314.364 199.311 314.349C193.492 311.798 187.415 311.868 184.309 312.136C179.535 312.549 176.193 313.847 175.359 314.917C175.333 314.95 175.3 314.976 175.262 314.995C175.225 315.013 175.183 315.022 175.141 315.022L175.142 315.022ZM228.375 322.327C228.316 322.327 228.259 322.308 228.211 322.273C228.164 322.238 228.129 322.189 228.113 322.133C227.737 320.889 222.966 312.912 216.515 304.428C210.696 296.775 202.039 286.756 193.84 282.491C193.808 282.474 193.779 282.451 193.756 282.424C193.733 282.397 193.716 282.365 193.705 282.331C193.694 282.297 193.69 282.261 193.694 282.225C193.697 282.189 193.707 282.155 193.724 282.123C193.741 282.091 193.763 282.063 193.791 282.04C193.819 282.017 193.851 282 193.885 281.989C193.919 281.979 193.956 281.975 193.992 281.978C194.027 281.981 194.062 281.991 194.094 282.008C202.383 286.32 211.1 296.402 216.953 304.099C223.726 313.007 228.273 320.768 228.638 321.976C228.65 322.017 228.653 322.06 228.645 322.102C228.638 322.143 228.621 322.183 228.595 322.217C228.57 322.251 228.536 322.279 228.498 322.298C228.46 322.317 228.418 322.327 228.375 322.327Z" fill="#033A11"/>
<path d="M224.629 315.819C224.557 315.819 224.487 315.79 224.436 315.739C224.384 315.688 224.355 315.619 224.355 315.547C224.346 310.476 229.79 305.084 232.572 304.472C232.642 304.459 232.715 304.473 232.774 304.512C232.834 304.551 232.876 304.612 232.891 304.681C232.907 304.75 232.895 304.823 232.857 304.883C232.82 304.943 232.76 304.987 232.691 305.004C230.121 305.569 224.895 310.805 224.904 315.546C224.904 315.696 224.781 315.818 224.63 315.819H224.63H224.629Z" fill="#033A11"/>
<path d="M140.974 322.326C140.901 322.326 140.832 322.297 140.78 322.246C140.729 322.195 140.7 322.126 140.7 322.053C140.7 318.652 134.668 299.449 129.837 293.151C129.815 293.122 129.799 293.09 129.79 293.055C129.781 293.02 129.779 292.984 129.783 292.949C129.788 292.914 129.8 292.879 129.818 292.848C129.836 292.817 129.86 292.79 129.889 292.769C129.918 292.747 129.95 292.731 129.985 292.722C130.02 292.713 130.056 292.711 130.092 292.715C130.128 292.72 130.162 292.732 130.193 292.75C130.224 292.768 130.252 292.792 130.274 292.82C135.287 299.356 141.249 318.517 141.249 322.053C141.249 322.126 141.22 322.195 141.168 322.246C141.117 322.297 141.047 322.326 140.974 322.326H140.974Z" fill="#041C17"/>
<path d="M138.699 312.896C138.653 312.896 138.609 312.885 138.569 312.864C138.529 312.843 138.495 312.812 138.47 312.775C133.436 305.259 122.221 301.621 116.712 302.422C116.677 302.427 116.64 302.425 116.605 302.416C116.57 302.407 116.538 302.392 116.509 302.37C116.48 302.349 116.456 302.322 116.437 302.291C116.419 302.261 116.406 302.227 116.401 302.191C116.396 302.156 116.398 302.12 116.407 302.085C116.416 302.05 116.431 302.018 116.453 301.989C116.474 301.96 116.501 301.936 116.532 301.918C116.563 301.899 116.598 301.887 116.633 301.882C122.281 301.064 133.776 304.782 138.927 312.473C138.955 312.514 138.97 312.562 138.973 312.611C138.975 312.66 138.964 312.709 138.941 312.753C138.917 312.796 138.882 312.832 138.84 312.858C138.797 312.883 138.749 312.896 138.699 312.896H138.699Z" fill="#041C17"/>
</g>
<g clip-path="url(#clip6_813_32217)">
<path d="M295.262 302.152C295.154 302.152 295.047 302.128 294.95 302.082C294.852 302.036 294.765 301.969 294.696 301.885C294.627 301.802 294.577 301.704 294.55 301.598C294.523 301.493 294.519 301.383 294.538 301.276L303.297 253.689C303.333 253.496 303.443 253.325 303.604 253.214C303.765 253.103 303.962 253.061 304.154 253.096C304.346 253.132 304.516 253.243 304.626 253.405C304.736 253.567 304.778 253.766 304.743 253.959L295.984 301.546C295.953 301.716 295.863 301.87 295.732 301.98C295.6 302.091 295.434 302.152 295.262 302.152H295.262Z" fill="#FF5E43"/>
</g>
<g clip-path="url(#clip7_813_32217)">
<path d="M284.683 188.311C287.936 187.907 301.081 184.636 302.436 189.172C303.792 193.709 292.272 196.812 290.646 197.217C289.02 197.622 289.136 204.098 282.515 205.548" fill="#F7B4A3"/>
<path d="M282.515 205.76C282.462 205.761 282.411 205.741 282.372 205.707C282.333 205.672 282.308 205.624 282.302 205.571C282.297 205.519 282.311 205.467 282.341 205.425C282.372 205.382 282.418 205.353 282.469 205.342C286.801 204.393 288.188 201.217 289.106 199.116C289.6 197.986 289.956 197.17 290.594 197.012C291.555 196.772 300.032 194.578 301.961 191.211C302.342 190.546 302.431 189.899 302.232 189.233C301.15 185.61 291.577 187.323 286.976 188.145C286.006 188.319 285.24 188.456 284.709 188.522C284.682 188.526 284.654 188.524 284.627 188.516C284.6 188.509 284.574 188.496 284.552 188.479C284.53 188.462 284.512 188.441 284.498 188.417C284.484 188.392 284.475 188.366 284.472 188.338C284.468 188.311 284.47 188.283 284.478 188.256C284.485 188.229 284.498 188.204 284.515 188.182C284.532 188.16 284.554 188.142 284.578 188.128C284.602 188.114 284.629 188.105 284.657 188.102C285.176 188.037 285.975 187.894 286.901 187.729C291.985 186.819 301.449 185.126 302.64 189.113C302.87 189.884 302.766 190.661 302.331 191.421C300.314 194.941 291.676 197.179 290.698 197.423C290.263 197.531 289.925 198.305 289.497 199.285C288.544 201.466 287.104 204.761 282.561 205.756C282.546 205.759 282.53 205.761 282.515 205.761V205.76Z" fill="#2B2929"/>
<path d="M295.974 189.17C295.395 189.17 295.22 188.846 295.171 188.704C294.984 188.158 295.502 187.34 296.491 186.622C296.514 186.606 296.539 186.594 296.567 186.588C296.594 186.581 296.622 186.58 296.65 186.584C296.677 186.589 296.704 186.598 296.727 186.613C296.751 186.627 296.772 186.646 296.789 186.669C296.805 186.691 296.817 186.717 296.823 186.744C296.83 186.771 296.831 186.799 296.827 186.826C296.823 186.854 296.813 186.88 296.798 186.904C296.784 186.928 296.765 186.948 296.742 186.965C295.849 187.614 295.473 188.275 295.574 188.568C295.628 188.724 295.842 188.75 296.008 188.746C297.806 188.695 299.952 188.19 300.576 187.325C300.609 187.279 300.658 187.249 300.714 187.24C300.77 187.231 300.827 187.244 300.873 187.277C300.918 187.309 300.949 187.359 300.958 187.415C300.968 187.47 300.954 187.527 300.921 187.572C300.074 188.747 297.442 189.129 296.02 189.17C296.005 189.17 295.99 189.17 295.974 189.17V189.17Z" fill="#2B2929"/>
</g>
<g clip-path="url(#clip8_813_32217)">
<path d="M29.8753 293.104C29.8412 293.104 29.8075 293.096 29.7766 293.082C29.7456 293.068 29.7182 293.047 29.6961 293.021C21.0448 282.877 13.3706 271.941 6.77506 260.359C0.193356 248.788 -5.28274 236.625 -9.58075 224.03C-9.59136 224 -9.59601 223.969 -9.59442 223.938C-9.59284 223.907 -9.58505 223.876 -9.57151 223.848C-9.55796 223.82 -9.53894 223.795 -9.51556 223.774C-9.49217 223.753 -9.46488 223.737 -9.43528 223.727C-9.40569 223.717 -9.37438 223.713 -9.34318 223.715C-9.31198 223.717 -9.28152 223.726 -9.25358 223.74C-9.22563 223.754 -9.20076 223.773 -9.18042 223.797C-9.16007 223.821 -9.14466 223.848 -9.13508 223.878C-4.84663 236.445 0.6173 248.582 7.18439 260.127C13.7658 271.683 21.4235 282.595 30.0559 292.716C30.0963 292.764 30.1162 292.825 30.1111 292.887C30.1061 292.95 30.0765 293.007 30.029 293.048C29.9862 293.084 29.9316 293.104 29.8753 293.104Z" fill="#403838"/>
<path d="M4.92017 256.339C2.15818 256.048 -8.63732 254.597 -15.1794 245.784C-24.5908 233.102 -19.2146 213.243 -14.2746 212.369C-10.4531 211.693 -5.59007 222.152 -2.51402 228.77C1.51218 237.472 4.02611 246.795 4.92017 256.339Z" fill="#004214"/>
<path d="M4.92002 256.339C2.15803 256.048 -9.14262 215.801 -6.64921 220.366C-5.11522 223.173 -3.68512 226.25 -2.51337 228.771C1.51247 237.473 4.02612 246.795 4.92002 256.339Z" fill="#02350F"/>
<path d="M3.86227 256.479C3.81183 256.479 3.76241 256.465 3.71964 256.438C-0.936149 253.526 -9.35963 246.868 -13.4476 235.004C-15.9477 227.692 -16.3256 219.824 -14.5375 212.308C-14.5294 212.273 -14.5146 212.241 -14.4939 212.212C-14.4733 212.184 -14.4472 212.159 -14.4171 212.141C-14.387 212.122 -14.3536 212.11 -14.3187 212.104C-14.2838 212.098 -14.2482 212.1 -14.2138 212.108C-14.1793 212.116 -14.1469 212.131 -14.1182 212.151C-14.0895 212.172 -14.0652 212.198 -14.0466 212.228C-14.028 212.258 -14.0155 212.291 -14.0098 212.326C-14.0042 212.361 -14.0054 212.397 -14.0135 212.431C-15.7786 219.849 -15.4062 227.613 -12.9392 234.829C-8.90535 246.536 -0.591673 253.108 4.00491 255.983C4.05436 256.014 4.09237 256.06 4.11322 256.115C4.13407 256.169 4.13662 256.229 4.12049 256.285C4.10436 256.341 4.07042 256.39 4.0238 256.425C3.97717 256.46 3.92038 256.479 3.862 256.479H3.86227Z" fill="#05541A"/>
<path d="M-13.9648 232.678C-13.9891 232.678 -14.0133 232.675 -14.0367 232.668L-20.3683 230.92C-20.4031 230.911 -20.4359 230.896 -20.4646 230.874C-20.4933 230.853 -20.5175 230.826 -20.5356 230.795C-20.5537 230.764 -20.5654 230.73 -20.57 230.694C-20.5747 230.659 -20.5721 230.622 -20.5625 230.588C-20.553 230.553 -20.5365 230.521 -20.5143 230.493C-20.492 230.465 -20.4643 230.441 -20.4328 230.424C-20.4014 230.407 -20.3668 230.396 -20.331 230.392C-20.2953 230.389 -20.2592 230.392 -20.2248 230.402L-14.0351 232.111L-4.93286 223.847C-4.88001 223.799 -4.81024 223.774 -4.7389 223.777C-4.66756 223.781 -4.60049 223.812 -4.55246 223.865C-4.50442 223.918 -4.47935 223.987 -4.48276 224.058C-4.48616 224.13 -4.51777 224.197 -4.57062 224.245L-13.784 232.608C-13.8335 232.653 -13.898 232.678 -13.9648 232.678ZM-6.39015 247.396C-6.39977 247.396 -6.40938 247.395 -6.41894 247.394L-14.8796 246.482C-14.9493 246.473 -15.0127 246.437 -15.0562 246.382C-15.0997 246.327 -15.1198 246.257 -15.1123 246.187C-15.1047 246.117 -15.0701 246.053 -15.0159 246.009C-14.9616 245.964 -14.892 245.942 -14.822 245.948L-6.51125 246.843L0.795643 237.371C0.839216 237.314 0.903477 237.277 0.974285 237.268C1.0451 237.259 1.11665 237.278 1.17322 237.322C1.22978 237.365 1.26672 237.43 1.27591 237.5C1.28509 237.571 1.26577 237.642 1.2222 237.699L-6.17674 247.291C-6.20189 247.324 -6.23422 247.35 -6.27122 247.368C-6.30822 247.386 -6.34891 247.396 -6.39015 247.396Z" fill="#05541A"/>
<path d="M2.43684 246.599C0.211484 238.838 -2.19203 226.592 -0.159094 211.998C-0.0196897 210.998 3.05259 189.622 7.67555 189.601C12.1927 189.581 18.3866 209.95 15.5815 229.148C13.8023 241.327 8.75768 250.6 4.92029 256.34L2.43684 246.599Z" fill="#004214"/>
<path d="M10.5746 191.976C14.355 197.887 17.8113 213.888 15.5816 229.148C13.8025 241.327 8.7578 250.6 4.92041 256.34C10.7288 243.955 12.3726 233.743 12.846 226.912C13.9569 210.885 10.1142 192.006 10.5413 191.95C10.5558 191.948 10.5701 191.969 10.5746 191.976Z" fill="#02350F"/>
<path d="M4.99174 255.95C4.97567 255.95 4.95964 255.948 4.94383 255.945C4.87361 255.933 4.81128 255.893 4.77055 255.834C4.72983 255.776 4.71404 255.703 4.72665 255.633C6.93367 243.368 8.18819 230.95 8.479 218.492C8.69814 208.858 8.34047 199.219 7.4079 189.628C7.40077 189.557 7.42213 189.486 7.4673 189.431C7.51247 189.376 7.57775 189.341 7.64876 189.334C7.71978 189.327 7.79073 189.348 7.84599 189.393C7.90126 189.438 7.93631 189.503 7.94345 189.574C8.8782 199.187 9.23668 208.848 9.01697 218.503C8.72569 230.989 7.46838 243.435 5.25628 255.727C5.24535 255.789 5.21285 255.846 5.16447 255.886C5.1161 255.927 5.05495 255.949 4.99174 255.95Z" fill="#05541A"/>
<path d="M8.77518 209.054C8.74496 209.054 8.71494 209.049 8.68637 209.039L0.764807 206.281C0.730616 206.27 0.698966 206.252 0.67172 206.229C0.644474 206.206 0.622182 206.177 0.60616 206.145C0.590138 206.113 0.580709 206.078 0.578427 206.042C0.576146 206.006 0.581059 205.971 0.592876 205.937C0.604693 205.903 0.623175 205.872 0.647235 205.845C0.671295 205.819 0.700444 205.797 0.732968 205.782C0.765491 205.767 0.800732 205.758 0.836612 205.757C0.872493 205.755 0.908287 205.761 0.941888 205.774L8.76846 208.498L15.0866 205.934C15.1528 205.908 15.2269 205.908 15.2927 205.936C15.3585 205.964 15.4105 206.016 15.4374 206.082C15.4643 206.148 15.4638 206.222 15.436 206.288C15.4082 206.354 15.3554 206.406 15.2892 206.433L8.8761 209.035C8.84404 209.047 8.80977 209.054 8.77518 209.054ZM8.21514 230.158C8.17064 230.158 8.12683 230.147 8.08758 230.126L-1.03184 225.229C-1.06298 225.212 -1.09051 225.19 -1.11288 225.162C-1.13524 225.135 -1.15199 225.104 -1.16217 225.07C-1.17236 225.036 -1.17577 225.001 -1.17223 224.965C-1.16868 224.93 -1.15824 224.896 -1.14151 224.865C-1.12478 224.834 -1.10207 224.807 -1.0747 224.784C-1.04732 224.762 -1.01581 224.745 -0.98196 224.735C-0.948111 224.725 -0.912588 224.722 -0.877418 224.725C-0.842248 224.729 -0.808122 224.739 -0.776986 224.756L8.21757 229.587L15.8568 225.635C15.8883 225.617 15.923 225.606 15.9589 225.602C15.9949 225.598 16.0312 225.601 16.0658 225.611C16.1004 225.622 16.1326 225.639 16.1604 225.662C16.1883 225.685 16.2112 225.713 16.2278 225.745C16.2444 225.777 16.2544 225.812 16.2571 225.848C16.2599 225.884 16.2553 225.92 16.2438 225.955C16.2323 225.989 16.214 226.02 16.19 226.047C16.166 226.074 16.1368 226.096 16.1041 226.112L8.33786 230.128C8.29993 230.148 8.25786 230.158 8.21514 230.158Z" fill="#05541A"/>
<path d="M30.7415 324.311H18.6905C17.8221 324.432 -1.3377 326.819 -11.2413 313.563C-20.8788 300.664 -16.574 279.883 -9.4315 277.694C-7.4131 277.076 -2.30465 277.064 8.13535 291.262L30.7415 324.311Z" fill="#5B5C1A"/>
<path d="M40.4296 295.857C38.295 279.901 43.1459 274.354 45.2738 272.481C57.1813 262.002 88.0909 274.805 104.749 294.244C114.452 305.566 118.115 317.732 119.642 324.579L65.9991 324.337L40.4296 295.857Z" fill="#4F4F19"/>
<path d="M82.8722 324.459C82.858 324.459 82.8438 324.458 82.8297 324.455C82.7593 324.444 82.6962 324.406 82.6543 324.348C82.6123 324.291 82.595 324.219 82.6061 324.148C83.6476 317.587 84.0286 307.484 79.9289 296.61C77.7599 290.843 74.5876 285.504 70.5583 280.838C66.6153 276.308 61.9028 272.508 56.6373 269.613C56.6063 269.596 56.579 269.573 56.557 269.545C56.5349 269.517 56.5185 269.486 56.5086 269.452C56.4988 269.418 56.4958 269.382 56.4997 269.347C56.5036 269.312 56.5144 269.278 56.5315 269.247C56.5486 269.216 56.5716 269.189 56.5992 269.167C56.6268 269.145 56.6585 269.129 56.6925 269.119C56.7264 269.109 56.762 269.106 56.7971 269.11C56.8323 269.114 56.8663 269.125 56.8972 269.142C62.218 272.068 66.98 275.908 70.9645 280.486C75.0355 285.199 78.2408 290.593 80.4327 296.419C84.5739 307.403 84.1893 317.605 83.1376 324.23C83.128 324.294 83.096 324.352 83.0473 324.394C82.9986 324.436 82.9365 324.459 82.8722 324.459Z" fill="#041C17"/>
<path d="M82.0132 301.898C81.9632 301.898 81.9143 301.884 81.8717 301.858C81.8292 301.832 81.7949 301.794 81.7725 301.75C81.7502 301.705 81.7407 301.655 81.7452 301.606C81.7497 301.556 81.7679 301.508 81.7979 301.468C82.883 300.021 84.079 298.661 85.3751 297.399C89.4466 293.455 94.4031 290.539 99.8317 288.895C99.9 288.874 99.9738 288.881 100.037 288.915C100.1 288.949 100.147 289.006 100.167 289.074C100.188 289.142 100.181 289.216 100.147 289.279C100.114 289.342 100.056 289.389 99.9881 289.409C94.6421 291.028 89.761 293.899 85.7516 297.783C84.4753 299.026 83.2978 300.366 82.2296 301.791C82.2044 301.825 82.1717 301.852 82.1341 301.87C82.0965 301.889 82.0551 301.899 82.0132 301.898ZM80.9879 299.202C80.9497 299.202 80.912 299.194 80.8773 299.178C78.4635 298.088 57.8319 290.92 54.8094 290.056C52.0477 289.269 49.2325 288.681 46.386 288.297C46.3507 288.293 46.3166 288.282 46.2857 288.264C46.2549 288.246 46.2278 288.223 46.2061 288.195C46.1844 288.167 46.1685 288.134 46.1593 288.1C46.1501 288.066 46.1478 288.03 46.1526 287.995C46.1573 287.96 46.169 287.926 46.1869 287.895C46.2049 287.865 46.2287 287.838 46.2571 287.816C46.2855 287.795 46.3179 287.779 46.3523 287.771C46.3868 287.762 46.4226 287.76 46.4578 287.765C49.3302 288.151 52.1709 288.745 54.9577 289.54C57.9872 290.405 78.6772 297.595 81.0993 298.689C81.1553 298.714 81.201 298.758 81.2287 298.813C81.2563 298.868 81.2644 298.93 81.2514 298.99C81.2384 299.05 81.2051 299.104 81.1573 299.143C81.1094 299.181 81.0497 299.202 80.9881 299.202H80.9879Z" fill="#041C17"/>
<path d="M48.6936 270.184C51.3296 269.066 54.1727 268.516 57.0363 268.572C59.7224 268.632 85.5677 270.533 104.749 294.124C113.148 304.454 117.433 315.454 119.642 324.459L108.581 324.409C106.446 323.239 100.909 319.828 97.6727 312.905C92.8783 302.652 96.99 292.95 97.6727 291.41C83.0137 279.164 64.525 272.425 45.4114 272.36C46.4132 271.505 47.5153 270.774 48.6936 270.184Z" fill="#5B5C1A"/>
<path d="M9.94019 284.693C9.17696 285.179 2.57086 289.546 1.85203 298.017C1.11464 306.709 7.21211 312.195 7.84993 312.749L18.8212 306.188L14.1256 318.418L30.4719 324.311H66.8065C64.5458 315.951 59.4751 301.792 47.349 288.992C33.3087 274.173 11.3905 262.842 6.4427 267.766C4.86968 269.33 4.22675 273.315 9.94019 284.693Z" fill="#80862C"/>
<path d="M9.67114 284.842C8.90792 285.327 2.30181 289.694 1.58299 298.166C0.845601 306.857 6.94307 312.343 7.58088 312.898L18.5521 306.337L13.8565 318.566L30.2029 324.459C34.9313 324.459 47.1758 324.319 47.1731 324.311C46.9723 323.689 35.5885 323.53 29.0478 317.473C26.4871 315.102 23.4945 310.573 23.3963 301.083C12.5509 300.454 6.98909 299.11 6.71082 297.053C6.49157 295.434 9.54161 293.374 15.8609 290.873C10.947 284.016 7.72008 276.1 6.44169 267.766C6.11768 268.178 5.84647 268.63 5.63433 269.109C5.30791 269.876 5.12546 270.695 5.09609 271.527C4.95606 273.144 5.04667 274.773 5.36521 276.364C6.23501 280.466 8.80592 283.784 9.67114 284.842Z" fill="#7C7C29"/>
<path d="M49.2313 324.459C49.1658 324.459 49.1026 324.435 49.0535 324.392C49.0044 324.348 48.9728 324.289 48.9646 324.224C47.6334 313.65 43.9707 303.502 38.2401 294.511C28.7082 279.651 15.8762 271.693 6.79124 267.633C6.72608 267.604 6.67518 267.55 6.64974 267.484C6.62431 267.417 6.62642 267.343 6.65561 267.278C6.6848 267.213 6.73868 267.162 6.80541 267.137C6.87213 267.112 6.94622 267.114 7.01139 267.143C16.1636 271.232 29.0898 279.249 38.6936 294.221C44.467 303.28 48.1573 313.504 49.4988 324.157C49.5077 324.227 49.4882 324.299 49.4444 324.355C49.4006 324.411 49.3363 324.448 49.2655 324.457C49.2541 324.458 49.2427 324.459 49.2313 324.459Z" fill="#033A11"/>
<path d="M2.72633 294.412C2.671 294.412 2.61702 294.395 2.57174 294.363C2.52646 294.331 2.49208 294.286 2.47328 294.235C2.45448 294.183 2.45218 294.126 2.46669 294.073C2.4812 294.019 2.51181 293.972 2.55436 293.937C7.5057 289.83 13.7048 287.519 20.1405 287.381C26.5763 287.243 32.8691 289.286 37.9924 293.177C38.0493 293.22 38.0866 293.284 38.0962 293.354C38.1058 293.425 38.0869 293.497 38.0437 293.553C38.0005 293.61 37.9365 293.647 37.8657 293.657C37.795 293.666 37.7233 293.648 37.6665 293.605C32.64 289.787 26.4662 287.782 20.1521 287.918C13.8379 288.053 7.75603 290.321 2.8983 294.35C2.84995 294.39 2.78912 294.412 2.72633 294.412ZM47.3156 314.692C47.2984 314.692 47.2813 314.69 47.2645 314.687C47.2297 314.68 47.1967 314.666 47.1672 314.647C47.1377 314.628 47.1123 314.603 47.0925 314.573C47.0727 314.544 47.0588 314.511 47.0517 314.477C47.0446 314.442 47.0444 314.407 47.051 314.372C47.6698 311.146 49.3154 308.206 51.7429 305.989C53.4797 304.44 55.5544 303.317 57.8021 302.708C57.8362 302.699 57.8718 302.697 57.9069 302.701C57.942 302.706 57.9758 302.717 58.0065 302.734C58.0372 302.752 58.0641 302.775 58.0858 302.803C58.1074 302.831 58.1233 302.863 58.1326 302.897C58.1419 302.931 58.1444 302.967 58.1399 303.002C58.1355 303.037 58.1241 303.07 58.1066 303.101C58.0891 303.132 58.0656 303.159 58.0377 303.18C58.0097 303.202 57.9778 303.218 57.9437 303.227C55.7767 303.813 53.7764 304.895 52.1016 306.388C49.761 308.526 48.1746 311.362 47.5785 314.474C47.5667 314.535 47.5341 314.59 47.4861 314.63C47.4382 314.669 47.3779 314.691 47.3156 314.692Z" fill="#033A11"/>
</g>
<g clip-path="url(#clip9_813_32217)">
<path d="M296.772 321.902C304.12 304.372 357.128 211.846 370.637 220.531C384.035 229.145 345.59 315.387 341.591 321.902H296.772Z" fill="#80862C"/>
<path d="M325.961 322.078C325.926 322.078 325.891 322.07 325.859 322.056C325.826 322.042 325.798 322.021 325.774 321.994C325.751 321.968 325.733 321.937 325.723 321.903C325.712 321.87 325.709 321.834 325.713 321.799C326.546 314.876 336.485 289.971 344.743 270.747C353.58 250.177 364.292 227.163 368.303 222.118C368.323 222.092 368.348 222.07 368.377 222.054C368.406 222.038 368.437 222.028 368.47 222.024C368.502 222.021 368.535 222.023 368.567 222.032C368.598 222.041 368.628 222.056 368.653 222.077C368.679 222.097 368.7 222.122 368.716 222.151C368.732 222.18 368.742 222.211 368.746 222.244C368.75 222.276 368.747 222.309 368.738 222.341C368.728 222.372 368.713 222.402 368.693 222.427C364.71 227.437 354.024 250.404 345.201 270.943C336.955 290.137 327.034 314.988 326.207 321.859C326.2 321.919 326.171 321.975 326.126 322.015C326.08 322.055 326.021 322.078 325.961 322.078H325.961Z" fill="#033A11"/>
<path d="M326.367 321.902C330.776 315.066 377.393 232.348 367.53 220.074C368.716 219.834 369.761 219.968 370.637 220.531C384.035 229.145 345.591 315.388 341.592 321.903H326.367V321.902Z" fill="#7C7C29"/>
<path d="M348.428 263.142C348.383 263.142 348.339 263.129 348.3 263.106C348.262 263.083 348.23 263.049 348.209 263.01C348.188 262.97 348.178 262.925 348.18 262.88C348.182 262.835 348.197 262.791 348.222 262.754C353.017 255.651 360.035 252.249 368.517 252.912C368.55 252.915 368.581 252.924 368.611 252.939C368.64 252.953 368.666 252.974 368.687 252.999C368.708 253.024 368.724 253.052 368.734 253.083C368.744 253.114 368.748 253.147 368.746 253.18C368.743 253.212 368.734 253.244 368.719 253.273C368.705 253.302 368.684 253.328 368.659 253.349C368.634 253.371 368.606 253.387 368.575 253.397C368.544 253.407 368.511 253.411 368.478 253.408C360.184 252.759 353.323 256.087 348.635 263.032C348.612 263.066 348.581 263.093 348.545 263.113C348.509 263.132 348.469 263.142 348.428 263.142V263.142ZM338.575 286.337C338.538 286.337 338.502 286.329 338.468 286.313C338.435 286.297 338.405 286.274 338.382 286.245C338.358 286.216 338.342 286.182 338.333 286.146C338.324 286.11 338.324 286.073 338.332 286.036C339.573 280.201 336.804 272.805 333.568 268.809C331.929 266.785 330.228 265.671 328.78 265.671C328.714 265.671 328.651 265.644 328.604 265.598C328.557 265.551 328.531 265.488 328.531 265.422C328.531 265.356 328.557 265.292 328.604 265.246C328.651 265.199 328.714 265.173 328.78 265.173C330.382 265.173 332.219 266.353 333.955 268.496C337.263 272.582 340.092 280.154 338.818 286.14C338.807 286.196 338.776 286.246 338.732 286.281C338.687 286.317 338.632 286.337 338.575 286.337Z" fill="#033A11"/>
<path d="M378.138 291.34L391.68 283.894C391.257 280.649 390.416 277.726 389.166 275.25L382.562 279.16L386.77 271.634C385.485 270.148 383.966 268.959 382.217 268.126C370.601 262.593 353.256 274.748 343.474 295.275C339.081 304.495 336.963 313.834 337.012 321.828H382.016C383.301 319.717 384.476 317.542 385.538 315.311C389.157 307.717 391.232 300.041 391.823 293.103L378.138 291.339V291.34Z" fill="#5B5C1A"/>
<path d="M378.138 291.34L391.681 283.894V283.893C391.257 280.648 390.416 277.726 389.166 275.249C389.166 275.249 382.588 279.06 382.554 279.093C372.892 280.285 362.416 284.96 353.405 292.469C350.742 294.687 348.333 297.065 346.188 299.553C347.087 303.007 347.591 306.883 347.591 310.977C347.591 314.848 347.139 318.521 346.331 321.829H382.011C382.208 321.506 382.406 321.185 382.599 320.856C383.658 319.051 384.639 317.201 385.538 315.311C386.427 313.447 387.236 311.546 387.964 309.613C388.49 308.213 388.971 306.797 389.406 305.366C389.827 303.982 390.201 302.585 390.529 301.177C391.171 298.411 391.601 295.705 391.823 293.103L378.137 291.34L378.138 291.34Z" fill="#4F4F19"/>
<path d="M353.224 322.078C353.188 322.078 353.152 322.07 353.119 322.055C353.086 322.04 353.057 322.017 353.034 321.99C353.011 321.962 352.994 321.93 352.984 321.895C352.974 321.861 352.972 321.824 352.978 321.788C353.942 315.96 358.628 303.948 364.639 291.898C371.107 278.931 377.008 269.974 380.423 267.938C380.452 267.921 380.483 267.91 380.515 267.905C380.547 267.9 380.58 267.902 380.612 267.91C380.644 267.918 380.673 267.932 380.7 267.952C380.726 267.971 380.748 267.996 380.765 268.024C380.781 268.052 380.792 268.083 380.797 268.115C380.802 268.148 380.8 268.181 380.792 268.212C380.784 268.244 380.77 268.274 380.75 268.3C380.731 268.326 380.706 268.348 380.678 268.365C377.391 270.324 371.416 279.427 365.084 292.12C359.093 304.13 354.425 316.086 353.469 321.87C353.459 321.928 353.429 321.98 353.385 322.019C353.34 322.057 353.283 322.078 353.224 322.078Z" fill="#041C17"/>
<path d="M354.901 315.712L354.887 315.712C354.855 315.71 354.823 315.702 354.793 315.688C354.764 315.674 354.737 315.654 354.715 315.63C354.694 315.605 354.677 315.577 354.666 315.546C354.655 315.515 354.65 315.483 354.652 315.45C354.875 311.273 347.952 298.785 343.336 298.071C343.304 298.066 343.273 298.055 343.245 298.038C343.217 298.021 343.193 297.999 343.174 297.973C343.154 297.946 343.14 297.916 343.133 297.885C343.125 297.853 343.123 297.82 343.128 297.788C343.133 297.755 343.145 297.724 343.162 297.696C343.179 297.669 343.201 297.644 343.227 297.625C343.254 297.606 343.284 297.592 343.315 297.584C343.347 297.576 343.38 297.575 343.412 297.58C348.279 298.332 355.389 310.973 355.149 315.477C355.146 315.54 355.118 315.6 355.072 315.644C355.026 315.688 354.964 315.712 354.901 315.712V315.712ZM362.381 297.387C362.339 297.387 362.298 297.376 362.262 297.357C362.225 297.337 362.194 297.308 362.172 297.273C362.149 297.238 362.136 297.198 362.133 297.156C362.13 297.114 362.137 297.073 362.155 297.035C364.157 292.653 373.234 291.236 377.317 291.236C377.383 291.236 377.446 291.262 377.492 291.309C377.539 291.355 377.565 291.418 377.565 291.484C377.565 291.55 377.539 291.614 377.492 291.66C377.446 291.707 377.383 291.733 377.317 291.733C372.4 291.733 364.325 293.484 362.607 297.242C362.587 297.285 362.556 297.322 362.515 297.348C362.475 297.373 362.429 297.387 362.381 297.387Z" fill="#041C17"/>
</g>
<g clip-path="url(#clip10_813_32217)">
<path d="M168.729 157.616C188.31 154.93 203.413 147.173 202.463 140.29C201.513 133.407 184.869 130.005 165.289 132.691C145.708 135.377 130.605 143.135 131.555 150.018C132.505 156.9 149.149 160.302 168.729 157.616Z" fill="#2B2929"/>
<path d="M167.93 154.084C148.349 156.77 132.524 155.532 131.647 149.686C130.687 143.287 145.422 135.561 165.002 132.875C184.583 130.189 201.647 133.187 202.531 140.367C203.253 146.235 187.51 151.397 167.93 154.083L167.93 154.084Z" fill="#1E1A1A"/>
<path d="M169.217 158.032C192.543 154.832 210.535 145.591 209.404 137.392C209.37 137.153 209.321 136.917 209.256 136.685L201.442 137.842C202.046 138.615 202.419 139.457 202.531 140.367C203.253 146.235 187.51 151.397 167.93 154.084C148.349 156.77 132.525 155.532 131.647 149.686C131.573 149.187 131.593 148.68 131.704 148.168L124.964 149.166C126.369 157.24 146.068 161.208 169.217 158.032Z" fill="#FFE3C3"/>
<path d="M168.83 168.609C185.09 168.609 198.271 155.505 198.271 139.34C198.271 123.175 185.09 110.071 168.83 110.071C152.57 110.071 139.389 123.175 139.389 139.34C139.389 155.505 152.57 168.609 168.83 168.609Z" fill="#2B2929"/>
<path d="M193.192 155.268C192.138 157.379 190.716 159.207 189.014 160.736C189.028 163.186 188.516 165.583 187.409 167.801C184.958 172.712 180.093 175.841 174.203 176.931C168.32 178.023 161.416 177.081 154.888 173.841C144.498 168.691 138.189 159.282 138.504 150.71C138.583 148.506 139.103 146.352 140.102 144.345C141.055 142.438 142.374 140.805 143.968 139.452C144.061 136.823 144.677 134.237 145.888 131.812C151.266 121.029 166.217 117.539 179.283 124.014C192.346 130.494 198.573 144.484 193.192 155.268Z" fill="#F7B4A3"/>
<path d="M146.539 142.264C151.189 147.552 175.887 149.765 184.766 141.658C188.131 149.473 191.217 150.955 194.862 152.072C195.049 141.356 187.009 132.62 187.009 132.62L166.167 135.322L146.539 142.264Z" fill="#DDA094"/>
<path d="M143.642 140.447C147.941 145.385 173.456 146.596 185.887 139.328C187.663 145.545 191.947 150.432 194.859 152.28C197.009 145.012 194.953 129.824 188.317 124.513C181.681 119.202 168.036 111.561 152.521 120.973C146.054 124.895 142.731 133.104 143.642 140.447H143.642Z" fill="#2B2929"/>
<path d="M174.045 155.157C173.555 157.386 170.13 158.532 166.4 157.718C166.126 157.658 165.855 157.588 165.587 157.507C162.294 156.532 160.076 154.264 160.531 152.199C161.022 149.967 164.447 148.821 168.177 149.638C169.789 149.992 171.194 150.653 172.232 151.471H172.236C173.597 152.546 174.325 153.889 174.045 155.157H174.045ZM188.267 158.554C187.095 158.812 185.963 158.804 185.026 158.578C183.786 158.286 182.888 157.613 182.684 156.688C182.326 155.059 184.244 153.254 186.968 152.658C188.128 152.405 189.249 152.409 190.177 152.628C191.433 152.916 192.343 153.592 192.551 154.525C192.909 156.154 190.994 157.959 188.266 158.554H188.267Z" fill="white"/>
<path d="M179.201 163.536C178.924 163.536 178.642 163.508 178.359 163.45C178.327 163.443 178.296 163.43 178.269 163.412C178.242 163.394 178.219 163.37 178.201 163.343C178.183 163.316 178.17 163.285 178.164 163.253C178.158 163.221 178.158 163.188 178.165 163.156C178.171 163.124 178.184 163.093 178.203 163.066C178.221 163.039 178.245 163.016 178.272 162.998C178.299 162.98 178.33 162.968 178.362 162.962C178.394 162.956 178.428 162.956 178.46 162.963C179.703 163.219 180.928 162.821 181.58 161.948C182.183 161.141 182.181 160.078 181.575 158.954C181.559 158.925 181.55 158.893 181.546 158.861C181.543 158.829 181.546 158.796 181.556 158.764C181.565 158.733 181.581 158.704 181.601 158.679C181.622 158.653 181.648 158.633 181.676 158.617C181.705 158.602 181.737 158.592 181.769 158.589C181.802 158.585 181.835 158.589 181.866 158.598C181.898 158.607 181.927 158.623 181.952 158.643C181.978 158.664 181.999 158.69 182.014 158.718C182.708 160.003 182.695 161.289 181.98 162.246C181.364 163.07 180.327 163.537 179.202 163.537L179.201 163.536Z" fill="#403838"/>
<path d="M140.33 150.078C144.222 150.078 147.376 146.933 147.376 143.053C147.376 139.173 144.222 136.028 140.33 136.028C136.439 136.028 133.284 139.173 133.284 143.053C133.284 146.933 136.439 150.078 140.33 150.078Z" fill="#F7B4A3"/>
<path d="M138.416 147.638C138.382 147.638 138.348 147.631 138.316 147.617C137.714 147.355 137.17 146.976 136.716 146.503C136.261 146.03 135.905 145.471 135.669 144.86C135.429 144.25 135.313 143.599 135.327 142.944C135.342 142.289 135.486 141.644 135.753 141.045C136.015 140.445 136.395 139.902 136.87 139.449C137.345 138.996 137.905 138.642 138.518 138.406C139.129 138.167 139.783 138.051 140.44 138.065C141.096 138.079 141.744 138.223 142.345 138.489C142.405 138.515 142.453 138.565 142.477 138.626C142.501 138.688 142.499 138.756 142.473 138.817C142.446 138.877 142.396 138.924 142.335 138.948C142.273 138.972 142.204 138.971 142.144 138.944C141.043 138.461 139.819 138.435 138.698 138.869C137.578 139.304 136.693 140.148 136.209 141.245C135.725 142.343 135.698 143.563 136.134 144.68C136.57 145.797 137.416 146.679 138.517 147.162C138.57 147.185 138.613 147.225 138.639 147.276C138.665 147.326 138.673 147.385 138.661 147.441C138.649 147.497 138.618 147.547 138.574 147.583C138.529 147.619 138.474 147.638 138.416 147.638Z" fill="#403838"/>
<path d="M174.203 176.931C168.32 178.023 161.416 177.081 154.888 173.841C144.498 168.691 138.189 159.282 138.504 150.71C140.006 158.168 149.471 174.462 174.203 176.931Z" fill="#DDA094"/>
<path d="M174.045 155.157C174.259 154.189 173.885 153.179 173.091 152.276C172.159 151.537 171.003 151.135 169.812 151.136C166.89 151.136 164.522 153.497 164.522 156.409C164.522 156.663 164.546 156.911 164.581 157.155C164.903 157.285 165.238 157.404 165.587 157.507C165.848 157.585 166.121 157.657 166.4 157.717C170.129 158.532 173.555 157.385 174.045 155.156V155.157ZM184.441 158.401C184.632 158.472 184.828 158.531 185.026 158.578C185.962 158.804 187.095 158.812 188.267 158.554C190.994 157.959 192.909 156.154 192.551 154.525C192.511 154.346 192.444 154.174 192.354 154.014C191.585 153.619 190.732 153.413 189.866 153.414C187.008 153.414 184.667 155.61 184.441 158.401Z" fill="#2B2929"/>
<path d="M166.269 164.776C165.656 164.545 165.503 163.734 166.007 163.316C167.262 162.271 168.984 162.23 170.258 163.095C171.166 163.712 171.638 164.451 171.925 165.498C172.103 166.15 171.469 166.731 170.834 166.493L166.269 164.776H166.269Z" fill="white"/>
<path d="M174.903 149.014C174.548 149.015 174.207 148.877 173.952 148.632C171.291 146.079 165.929 146.011 162.073 147.027C161.724 147.112 161.355 147.058 161.046 146.875C160.737 146.691 160.512 146.395 160.42 146.048C160.328 145.701 160.376 145.333 160.555 145.021C160.733 144.71 161.026 144.48 161.372 144.383C166.099 143.137 172.411 143.358 175.854 146.661C176.051 146.85 176.187 147.093 176.245 147.36C176.302 147.627 176.278 147.905 176.176 148.158C176.073 148.411 175.897 148.627 175.671 148.78C175.444 148.933 175.176 149.014 174.903 149.014ZM194.292 151.24C193.998 151.24 193.713 151.146 193.477 150.972C192.327 150.123 188.383 149.629 186.227 150.293C185.88 150.4 185.504 150.365 185.182 150.196C184.86 150.027 184.619 149.737 184.511 149.39C184.404 149.044 184.439 148.669 184.609 148.348C184.779 148.027 185.069 147.787 185.417 147.68C188.04 146.871 192.948 147.179 195.109 148.773C195.341 148.944 195.513 149.184 195.601 149.458C195.688 149.733 195.686 150.028 195.596 150.301C195.505 150.575 195.33 150.813 195.096 150.981C194.862 151.15 194.581 151.24 194.292 151.24H194.292Z" fill="#2B2929"/>
<path d="M168.256 104.75C168.281 103.065 166.744 101.676 164.823 101.648C162.903 101.619 161.325 102.962 161.3 104.647C161.275 106.332 162.812 107.722 164.732 107.75C166.653 107.779 168.231 106.436 168.256 104.75Z" fill="#FFE3C3"/>
<path d="M168.357 105.745C168.382 104.06 166.846 102.671 164.925 102.643C163.004 102.614 161.427 103.957 161.401 105.642C161.376 107.327 162.913 108.717 164.834 108.745C166.755 108.774 168.332 107.431 168.357 105.745Z" fill="#EACAAC"/>
<path d="M165.002 132.875C178.896 130.969 191.52 131.926 197.998 135.207C195.089 113.362 174.66 100.653 158.72 105.001C146.318 108.384 136.637 122.09 137.112 138.192L145.18 137.849C150.66 135.687 157.472 133.908 165.002 132.875V132.875Z" fill="#FFE3C3"/>
<path d="M165.003 132.875C179.703 130.858 192.985 132.046 199.066 135.802C194.233 118.269 173.369 122.944 158.359 127.038C145.957 130.421 136.1 125.585 136.575 141.687L137.519 141.657C143.458 137.842 153.376 134.47 165.003 132.875V132.875Z" fill="#EACAAC"/>
<path d="M149.101 131.81C149.068 131.81 149.037 131.798 149.014 131.776C148.991 131.753 148.977 131.723 148.976 131.691C148.796 126.711 149.736 121.664 151.693 117.095C153.704 112.399 157.207 107.946 162.101 103.86C162.127 103.839 162.16 103.829 162.193 103.832C162.225 103.834 162.256 103.85 162.277 103.876C162.298 103.901 162.309 103.934 162.306 103.966C162.303 103.999 162.287 104.03 162.262 104.051C157.397 108.112 153.918 112.533 151.922 117.192C149.979 121.728 149.047 126.738 149.225 131.682C149.226 131.698 149.223 131.714 149.217 131.729C149.212 131.745 149.203 131.759 149.192 131.771C149.181 131.783 149.167 131.792 149.152 131.799C149.138 131.806 149.121 131.81 149.105 131.81H149.101H149.101ZM184.246 127.437C184.218 127.437 184.191 127.428 184.169 127.411C184.147 127.394 184.132 127.37 184.125 127.343C182.785 122.023 180.271 116.977 176.855 112.751C173.883 109.075 170.61 106.038 167.638 104.2C167.61 104.183 167.59 104.155 167.582 104.123C167.574 104.091 167.58 104.057 167.597 104.029C167.615 104.001 167.643 103.981 167.675 103.973C167.707 103.966 167.741 103.971 167.769 103.989C170.764 105.841 174.06 108.898 177.049 112.595C180.487 116.848 183.018 121.927 184.367 127.283C184.372 127.301 184.372 127.32 184.368 127.339C184.364 127.357 184.356 127.375 184.344 127.39C184.333 127.405 184.318 127.417 184.301 127.425C184.284 127.433 184.265 127.437 184.246 127.437H184.246Z" fill="#EACAAC"/>
<path d="M165.002 132.875C182.101 130.529 197.279 132.518 201.442 137.842L209.256 136.685C207.11 128.962 187.764 125.233 165.118 128.339C141.792 131.539 123.8 140.78 124.931 148.98C124.94 149.043 124.953 149.104 124.964 149.166L131.704 148.168C133.014 142.113 146.948 135.352 165.002 132.875V132.875Z" fill="#FFE3C3"/>
<path d="M137.59 135.933L137.988 141.328L142.166 139.074L140.316 134.73L137.59 135.933ZM185.193 127.354L187.078 132.287L193.797 133.621L190.387 127.774C188.661 127.572 186.929 127.432 185.193 127.354H185.193Z" fill="#5D331B"/>
</g>
</g>
<defs>
<clipPath id="clip0_813_32217">
<rect width="375" height="322" fill="white"/>
</clipPath>
<clipPath id="clip1_813_32217">
<rect width="61.1224" height="49.3167" fill="white" transform="translate(262.094 252.835)"/>
</clipPath>
<clipPath id="clip2_813_32217">
<rect width="54.6359" height="155.173" fill="white" transform="translate(282.801 166.406)"/>
</clipPath>
<clipPath id="clip3_813_32217">
<rect width="287.65" height="156.668" fill="white" transform="translate(24.8396 163.418)"/>
</clipPath>
<clipPath id="clip4_813_32217">
<rect width="155.924" height="42.3426" fill="white" transform="matrix(-1 0 0 1 243.633 279.735)"/>
</clipPath>
<clipPath id="clip5_813_32217">
<rect width="116.507" height="40.35" fill="white" transform="translate(116.398 281.977)"/>
</clipPath>
<clipPath id="clip6_813_32217">
<rect width="10.2286" height="49.0676" fill="white" transform="translate(294.527 253.084)"/>
</clipPath>
<clipPath id="clip7_813_32217">
<rect width="20.4573" height="19.1787" fill="white" transform="translate(282.302 186.582)"/>
</clipPath>
<clipPath id="clip8_813_32217">
<rect width="140.207" height="135.247" fill="white" transform="translate(-20.5657 189.332)"/>
</clipPath>
<clipPath id="clip9_813_32217">
<rect width="95.0516" height="102.12" fill="white" transform="translate(296.772 219.957)"/>
</clipPath>
<clipPath id="clip10_813_32217">
<rect width="84.5734" height="75.7185" fill="white" transform="translate(124.881 101.647)"/>
</clipPath>
</defs>
</svg>
