<svg width="375" height="388" viewBox="0 0 375 388" fill="none" xmlns="http://www.w3.org/2000/svg">
<g clip-path="url(#clip0_2359_44328)">
<path fill-rule="evenodd" clip-rule="evenodd" d="M149.994 -169.61C218.739 -165.295 262.41 -106.958 313.429 -60.681C386.978 6.03119 505.923 50.8678 502.475 150.105C498.753 257.217 399.368 342.018 298.206 377.419C207.666 409.102 114.984 362.799 31.9594 314.756C-41.0885 272.486 -109.83 215.447 -125.132 132.45C-139.828 52.7412 -95.9465 -23.0309 -41.3679 -82.9525C8.24051 -137.417 76.4682 -174.226 149.994 -169.61Z" fill="#EFEAFE"/>
</g>
<g clip-path="url(#clip1_2359_44328)">
<path d="M74.7888 274.662L66.7009 250.92C67.4983 250.365 72.4365 246.809 72.7031 241.19C72.9304 236.399 69.7268 230.869 64.8578 230.16C63.3525 229.974 61.8248 230.181 60.4222 230.759C60.3462 226.292 60.5595 222.677 60.7606 220.247C61.1885 215.082 62.1063 201.435 58.0813 200.763C55.021 200.252 50.9672 209.73 48.9672 220.538C48.5605 222.734 47.5428 225.669 47.6248 226.814C45.724 225.222 41.8212 227.02 40.085 228.469C38.6863 229.637 37.1244 232.115 37.8593 233.819C37.7486 233.744 35.5231 232.298 33.022 233.247C32.0531 233.599 31.2251 234.258 30.6636 235.123C30.1021 235.989 29.8376 237.014 29.9103 238.043L34.95 258.317C35.5667 260.752 36.8679 262.958 38.6993 264.675L38.5122 281.715L74.7888 274.662Z" fill="#F8B5A4"/>
<path d="M138.763 346.402C142.513 348.285 146.417 349.846 150.431 351.065C174.182 358.273 195.872 351.644 206.868 347.234C211.738 348.311 224.955 350.522 238.327 343.615C242.424 341.49 246.156 338.724 249.381 335.42L247.943 333.117L138.763 346.402Z" fill="#D88830"/>
<path d="M347.002 175.544C347.932 173.983 348.522 171.629 349.444 168.941C350.523 165.795 352.795 162.155 352.222 159C350.838 151.374 346.542 147.695 349.26 146.272C351.978 144.85 358.425 147.702 361.65 154.071C364.083 158.874 365.428 165.314 364.122 175.383C363.297 181.966 361.766 188.44 359.555 194.695C358.501 196.129 356.326 205.414 355.2 206.892L327.787 201.236C327.722 197.094 325.545 192.94 326.933 189.045C328.608 180.197 336.903 180.517 345.119 177.294" fill="#F8B5A4"/>
<path d="M349.795 167.887C349.756 167.887 349.718 167.877 349.685 167.858C349.651 167.838 349.624 167.81 349.605 167.776C349.586 167.743 349.576 167.705 349.577 167.666C349.577 167.627 349.588 167.589 349.608 167.556C350.796 165.585 351.655 162.48 351.89 160.432C352.133 158.32 351.696 156.184 350.644 154.337C350.616 154.286 350.61 154.227 350.627 154.171C350.643 154.116 350.681 154.069 350.732 154.041C350.783 154.014 350.843 154.008 350.898 154.025C350.954 154.041 351 154.079 351.028 154.13C352.124 156.055 352.577 158.281 352.322 160.482C352.081 162.577 351.2 165.757 349.981 167.782C349.961 167.814 349.934 167.84 349.901 167.859C349.869 167.877 349.832 167.887 349.795 167.887Z" fill="#403838"/>
<path d="M332.729 198.966C329.365 197.124 322.911 190.004 319.524 181.516C316.486 173.9 315.561 165.523 319.174 164.506C325.83 162.631 324.129 170.488 331.699 178.408C337.081 184.041 339.375 182.753 343.82 184.577C339.48 186.507 337.068 197.036 332.729 198.966ZM335.571 168.924C335.334 166.26 339.658 163.615 345.242 163.2C351.886 162.707 355.534 164.459 355.771 167.124C356.008 169.788 351.678 172.351 346.1 172.848C340.521 173.345 335.808 171.589 335.571 168.924Z" fill="#F8B5A4"/>
<path d="M341.781 168.878C340.922 168.878 340.075 168.685 339.302 168.312C338.723 168.004 338.417 167.615 338.415 167.187C338.413 166.829 338.624 166.442 339.027 166.067C339.64 165.495 340.771 164.916 341.815 164.996C342.273 165.032 342.709 165.214 343.057 165.514C343.406 165.815 343.649 166.219 343.753 166.668C343.955 167.445 343.742 168.201 343.222 168.549C342.782 168.792 342.282 168.905 341.781 168.878ZM341.619 165.426C340.766 165.472 339.956 165.812 339.323 166.386C339.068 166.582 338.899 166.868 338.849 167.185C338.851 167.528 339.261 167.797 339.505 167.927C340.552 168.483 342.337 168.617 342.979 168.187C343.344 167.942 343.485 167.376 343.329 166.779C343.248 166.419 343.054 166.094 342.775 165.851C342.496 165.609 342.148 165.462 341.78 165.432C341.728 165.428 341.674 165.426 341.619 165.426ZM318.583 173.379C318.543 173.379 318.504 173.368 318.47 173.347C318.436 173.326 318.408 173.297 318.39 173.261C318.372 173.226 318.363 173.186 318.366 173.146C318.368 173.106 318.382 173.068 318.405 173.035C319.451 171.54 319.762 167.406 318.934 166.014C318.917 165.99 318.906 165.962 318.9 165.933C318.894 165.903 318.895 165.873 318.901 165.844C318.908 165.815 318.92 165.787 318.937 165.763C318.955 165.739 318.977 165.719 319.002 165.704C319.028 165.688 319.056 165.678 319.086 165.675C319.115 165.671 319.145 165.673 319.174 165.681C319.203 165.689 319.229 165.703 319.252 165.722C319.275 165.741 319.294 165.764 319.308 165.791C320.215 167.316 319.898 171.659 318.761 173.286C318.741 173.314 318.715 173.338 318.684 173.354C318.653 173.37 318.618 173.379 318.583 173.379Z" fill="#403838"/>
<path d="M335.456 199.203C332.034 195.215 330.764 190.289 332.568 186.703C334.342 183.179 338.494 182.126 341.921 181.257C347.55 179.309 350.014 184.008 350.248 192.729C344.037 198.693 341.666 193.239 335.456 199.203Z" fill="#DDA094"/>
<path d="M340.775 172.262C344.889 169.383 349.345 168.668 350.727 170.66C352.108 172.652 359.442 182.041 355.328 184.919C354.165 185.733 354.636 194.214 352.399 194.046C350.136 193.876 348.243 182.176 345.995 181.174C342.611 179.664 337.141 183.544 335.828 181.082C334.685 178.942 336.661 175.14 340.775 172.262Z" fill="#F8B5A4"/>
<path d="M348.679 185.992C348.64 185.992 348.6 185.981 348.566 185.961C348.532 185.94 348.505 185.91 348.486 185.875L346.485 182.059C346.295 181.698 345.995 181.406 345.629 181.227C345.263 181.048 344.849 180.989 344.448 181.061L340.023 182.073C339.074 182.291 338.091 182.315 337.133 182.145L336.504 182.035C336.449 182.024 336.4 181.991 336.368 181.944C336.337 181.897 336.324 181.84 336.334 181.784C336.344 181.728 336.375 181.679 336.42 181.645C336.466 181.612 336.523 181.598 336.579 181.605L337.208 181.715C338.109 181.875 339.034 181.852 339.926 181.647L344.362 180.633C344.855 180.543 345.365 180.613 345.816 180.833C346.267 181.053 346.636 181.411 346.87 181.856L348.872 185.672C348.885 185.697 348.893 185.725 348.896 185.753C348.898 185.782 348.895 185.811 348.887 185.838C348.878 185.865 348.864 185.891 348.846 185.913C348.828 185.935 348.805 185.953 348.78 185.966C348.749 185.983 348.714 185.992 348.679 185.992ZM337.173 180.82C336.994 180.833 336.814 180.805 336.647 180.737C336.48 180.669 336.331 180.564 336.212 180.429C335.977 180.135 335.895 179.658 335.981 179.084C336.102 178.278 336.599 177.162 337.403 176.615C337.776 176.372 338.215 176.252 338.659 176.272C339.103 176.293 339.53 176.452 339.879 176.728C340.557 177.223 340.892 177.967 340.714 178.579C340.44 179.525 338.861 180.531 337.686 180.765C337.517 180.8 337.345 180.818 337.173 180.82ZM338.522 176.704C338.21 176.704 337.906 176.799 337.65 176.976C337.054 177.382 336.545 178.275 336.414 179.147C336.33 179.488 336.38 179.849 336.554 180.154C336.789 180.447 337.312 180.394 337.602 180.336C338.733 180.111 340.092 179.163 340.297 178.456C340.422 178.027 340.145 177.461 339.624 177.08C339.305 176.843 338.92 176.711 338.522 176.704Z" fill="#403838"/>
<path d="M340.541 172.229C342.041 170.351 346.892 169.146 348.926 169.692C350.263 170.051 351.732 169.959 352.371 171.209C352.649 171.752 354.589 173.09 355.029 174.278C355.456 175.431 354.466 176.229 354.765 176.801C354.523 176.252 352.486 171.992 348.764 170.782C346.233 169.959 341.354 171.965 340.541 172.229ZM351.631 163.218C353.184 162.532 354.055 163.174 355.152 164.183C355.873 164.845 356.91 165.812 356.903 166.805C356.9 167.236 357.21 168.561 357.098 169.45C357.021 170.115 356.99 170.785 357.006 171.454C357.034 171.03 356.49 167.495 354.552 165.519C353.234 164.174 352.226 163.319 351.631 163.218Z" fill="#DDA094"/>
<path d="M354.685 177.414C354.64 177.414 354.597 177.4 354.561 177.375C354.524 177.349 354.496 177.314 354.481 177.272C353.198 173.836 351.645 171.858 349.594 171.048C347.374 170.171 344.464 170.657 340.697 172.533C340.646 172.558 340.586 172.563 340.531 172.544C340.476 172.526 340.431 172.486 340.405 172.434C340.379 172.382 340.375 172.322 340.394 172.267C340.412 172.212 340.451 172.167 340.503 172.141C344.387 170.207 347.413 169.717 349.754 170.642C351.929 171.501 353.56 173.559 354.89 177.119C354.902 177.152 354.906 177.188 354.902 177.223C354.898 177.258 354.885 177.291 354.865 177.32C354.845 177.349 354.818 177.373 354.787 177.389C354.755 177.405 354.721 177.414 354.686 177.414H354.685ZM356.883 171.643C356.838 171.644 356.794 171.63 356.758 171.604C356.722 171.577 356.696 171.54 356.684 171.497C354.71 164.913 353.974 162.458 346.612 163.795C346.555 163.805 346.497 163.792 346.449 163.76C346.402 163.727 346.369 163.676 346.359 163.619C346.348 163.562 346.361 163.503 346.394 163.456C346.427 163.408 346.477 163.375 346.534 163.365C354.278 161.958 355.103 164.707 357.094 171.349C357.112 171.405 357.106 171.466 357.08 171.519C357.053 171.572 357.007 171.612 356.951 171.632C356.929 171.639 356.906 171.642 356.883 171.643Z" fill="#403838"/>
<path d="M68.8526 275.329C72.9144 268.226 116.348 215.392 181.356 208.516C211.108 205.369 235.129 214.09 247.963 220.005C250.012 218.904 259.632 222.841 262.106 222.566C285.059 220.012 293.746 224.425 305.978 227.326C306.377 225.739 306.743 222.728 312.64 219.102C312.373 216.29 313.032 212.09 316.174 208.774C319.473 205.292 322.678 206.954 324.086 206.893C333.899 209.114 344.987 209.292 354.799 211.513C357.896 212.214 361.621 216.414 363.449 222.032C365.473 228.248 363.838 235.363 360.302 239.841C357.643 243.206 352.415 246.974 352.395 246.992C346.771 257.228 336.941 271.24 320.516 282.239C320.516 282.239 295.76 298.925 258.919 296.256C258.447 296.222 257.33 296.192 256.646 295.363C255.323 293.761 257.047 290.386 256.689 288.144C257.8 295.104 259.389 297.431 260.744 306.358C261.963 314.394 260.842 329.809 257.101 333.752C256.266 334.632 253.1 337.969 248.583 337.67C245.264 337.45 242.994 335.383 242.192 334.574C235.323 340.834 227.078 345.386 218.125 347.859C200.261 352.742 185.37 347.576 180.206 345.508C171.237 350.083 156.846 355.693 140.056 354.796C129.263 354.219 124.405 351.325 121.804 349.328C120.658 348.448 114.289 343.264 112.233 334.809C109.796 324.789 114.928 331.163 113.448 330.494C109.793 328.841 115.694 377.847 70.8175 377.886C54.8636 377.9 45.4025 367.637 45.4025 367.637C39.2834 360.749 38.1262 352.76 37.8386 349.409C33.1319 342.823 29.8708 335.313 28.2697 327.374C23.787 304.741 34.8859 286.69 37.8635 282.155L68.8526 275.329Z" fill="#F8A036"/>
<path d="M165.154 209.152C163.054 211.123 161.98 213.578 161.418 215.7C161.219 216.462 161.238 217.266 161.475 218.019C161.712 218.771 162.156 219.441 162.757 219.951C175.693 230.999 186.674 244.153 195.238 258.861C195.545 259.384 195.986 259.814 196.517 260.107C197.047 260.399 197.646 260.543 198.251 260.522C198.857 260.502 199.445 260.318 199.954 259.991C200.464 259.663 200.876 259.204 201.146 258.661C205.722 249.507 209.492 239.969 212.414 230.159C214.052 224.655 215.419 219.073 216.511 213.435C216.698 212.468 216.539 211.465 216.063 210.603C215.586 209.74 214.822 209.073 213.904 208.719C208.383 206.585 202.602 205.199 196.715 204.598C190.531 203.968 186.331 204.422 178.427 205.277C169.349 206.258 166.939 207.475 165.154 209.152Z" fill="#EACAAC"/>
<path d="M199.978 248.796C199.83 249.179 199.571 249.509 199.235 249.744C198.898 249.978 198.5 250.106 198.09 250.112C197.68 250.117 197.278 250 196.935 249.775C196.592 249.55 196.325 249.227 196.167 248.848C190.641 235.661 182.983 223.476 173.499 212.783C173.255 212.509 173.089 212.173 173.018 211.812C172.947 211.451 172.974 211.078 173.096 210.731C173.218 210.384 173.431 210.076 173.712 209.839C173.994 209.602 174.333 209.446 174.696 209.385C184.993 207.645 195.486 207.384 205.858 208.609C206.37 208.67 206.841 208.921 207.177 209.313C207.513 209.705 207.689 210.209 207.672 210.725C207.265 223.759 204.664 236.63 199.977 248.796H199.978Z" fill="#D88830"/>
<path d="M113.322 330.704C113.271 330.704 113.221 330.686 113.182 330.653C113.143 330.62 113.116 330.574 113.107 330.523C111.071 318.805 111.912 306.767 115.556 295.446C115.574 295.391 115.612 295.345 115.664 295.319C115.715 295.292 115.775 295.287 115.83 295.305C115.885 295.323 115.931 295.361 115.957 295.413C115.984 295.464 115.989 295.524 115.971 295.579C112.348 306.833 111.513 318.8 113.537 330.449C113.547 330.506 113.534 330.564 113.5 330.612C113.467 330.659 113.417 330.691 113.36 330.701C113.347 330.703 113.335 330.704 113.322 330.704ZM253.696 226.778C253.66 226.778 253.626 226.769 253.594 226.753C253.563 226.737 253.536 226.713 253.516 226.684C252.736 225.553 251.879 224.477 250.951 223.464C249.759 222.165 248.461 220.966 247.072 219.881C247.027 219.845 246.997 219.793 246.99 219.735C246.983 219.678 246.999 219.62 247.035 219.574C247.071 219.528 247.123 219.499 247.18 219.492C247.238 219.485 247.296 219.501 247.341 219.537C248.749 220.637 250.064 221.852 251.272 223.169C252.214 224.197 253.083 225.288 253.875 226.435C253.897 226.467 253.911 226.506 253.913 226.545C253.916 226.585 253.907 226.625 253.889 226.66C253.87 226.695 253.842 226.725 253.808 226.745C253.774 226.766 253.735 226.777 253.696 226.777V226.778Z" fill="#403838"/>
<path d="M320.526 209.673L324.499 199.072C324.776 198.33 325.319 197.718 326.023 197.355C326.726 196.993 327.539 196.905 328.303 197.11C332.028 198.108 343.751 200.204 353.634 201.648C355.493 201.919 357.195 202.845 358.433 204.259C359.671 205.674 360.365 207.485 360.389 209.366C360.449 213.94 360.508 218.514 360.567 223.088L320.526 209.673ZM37.7955 282.216L36.6283 271.933C36.5247 271.023 36.7625 270.107 37.2953 269.363C37.8282 268.619 38.6182 268.099 39.5119 267.905L70.517 261.173C70.9722 261.075 71.4425 261.068 71.9004 261.153C72.3582 261.239 72.7944 261.416 73.1832 261.672C73.572 261.929 73.9057 262.261 74.1647 262.649C74.4236 263.037 74.6026 263.472 74.6911 263.93L78.0749 281.441L37.7955 282.216Z" fill="#D88830"/>
<path fill-rule="evenodd" clip-rule="evenodd" d="M75.5122 268.179C76.2807 272.231 76.7625 276.331 76.954 280.45C79.7437 282.983 84.4796 287.86 87.9207 293.221C89.732 296.042 92.5937 300.405 94.2965 306.757C95.1425 309.913 96.5481 315.392 95.3166 322.337C94.5678 326.517 93.0082 330.508 90.726 334.086C93.0739 332.154 100.636 325.433 101.948 314.675C103.521 301.775 95.4642 288.345 81.6386 281.715C80.7632 281.086 79.581 280.027 78.9934 278.407C78.0963 275.931 79.3448 274.23 78.4836 271.767C78.1464 270.8 77.3971 269.469 75.5122 268.179Z" fill="#D88830"/>
<path d="M90.0129 335.045C89.9728 335.045 89.9336 335.034 89.8994 335.013C89.8652 334.993 89.8374 334.963 89.8191 334.927C89.8007 334.891 89.7926 334.851 89.7954 334.811C89.7983 334.771 89.8122 334.733 89.8354 334.7C92.1227 331.522 93.7946 327.943 94.7647 324.148C97.0572 314.983 94.9411 305.102 88.4764 294.779C85.1968 289.569 81.2452 284.815 76.7238 280.639C76.6824 280.6 76.658 280.547 76.6555 280.49C76.6531 280.433 76.6729 280.378 76.7107 280.335C76.7485 280.293 76.8014 280.267 76.8581 280.263C76.9147 280.259 76.9707 280.277 77.0141 280.314C81.5659 284.516 85.544 289.302 88.8457 294.547C95.376 304.975 97.5098 314.97 95.1876 324.254C94.2045 328.102 92.5095 331.731 90.1905 334.953C90.1704 334.982 90.1438 335.005 90.1129 335.021C90.082 335.037 90.0477 335.045 90.0129 335.045Z" fill="#403838"/>
<path d="M38.6982 349.922C39.5756 350.393 40.6506 350.824 42.5238 351.199C42.7521 351.244 45.2667 351.739 47.1144 351.709C52.401 351.625 58.9562 348.698 59.6113 348.134C57.9505 352.71 54.556 352.538 52.9804 353.242C51.1906 354.032 49.1976 354.238 47.2846 353.829C45.9151 353.555 44.4943 353.722 43.2253 354.306C42.4464 354.665 41.567 354.74 40.7386 354.519C38.7847 353.985 38.1749 352.01 38.1425 351.899L37.8385 349.411C38.1181 349.593 38.4049 349.763 38.6982 349.922Z" fill="#D88830"/>
<path d="M44.169 268.467L44.0816 268.474C43.0532 268.563 42.2911 269.469 42.3794 270.499L43.1941 280.002C43.2823 281.032 44.1876 281.795 45.216 281.707L45.3034 281.699C46.3318 281.611 47.0939 280.704 47.0056 279.675L46.1909 270.172C46.1026 269.142 45.1974 268.378 44.169 268.467Z" fill="#EACAAC"/>
<path d="M56.0865 266.713L55.9996 266.725C54.9768 266.863 54.2601 267.806 54.3988 268.831L55.6788 278.282C55.8176 279.306 56.7592 280.024 57.782 279.885L57.8689 279.873C58.8917 279.734 59.6084 278.791 59.4697 277.767L58.1897 268.316C58.0509 267.292 57.1093 266.574 56.0865 266.713Z" fill="#EACAAC"/>
<path d="M68.1353 264.356L68.0511 264.38C67.0598 264.668 66.4892 265.706 66.7768 266.699L69.4299 275.859C69.7174 276.852 70.7542 277.424 71.7455 277.136L71.8297 277.111C72.8211 276.823 73.3916 275.785 73.104 274.792L70.4509 265.632C70.1634 264.639 69.1267 264.068 68.1353 264.356Z" fill="#EACAAC"/>
<path d="M43.0442 278.516C42.9816 278.516 42.9212 278.493 42.875 278.451C42.8289 278.408 42.8003 278.35 42.795 278.288L42.1329 270.564C42.088 269.995 42.27 269.43 42.6392 268.994C43.0083 268.558 43.5346 268.286 44.1033 268.237C44.672 268.188 45.2369 268.367 45.6748 268.733C46.1127 269.1 46.3881 269.625 46.4409 270.194C46.4448 270.259 46.4232 270.323 46.3807 270.372C46.3382 270.421 46.2782 270.452 46.2135 270.458C46.1487 270.463 46.0844 270.443 46.0341 270.402C45.9839 270.361 45.9517 270.301 45.9445 270.237C45.898 269.804 45.6839 269.406 45.3481 269.129C45.0123 268.852 44.5816 268.718 44.1481 268.755C43.7147 268.792 43.313 268.998 43.0293 269.328C42.7456 269.659 42.6023 270.087 42.6303 270.522L43.2924 278.245C43.2952 278.278 43.2915 278.311 43.2816 278.342C43.2717 278.373 43.2558 278.402 43.2347 278.427C43.2136 278.452 43.1878 278.473 43.1588 278.488C43.1297 278.503 43.098 278.512 43.0653 278.515C43.0583 278.516 43.0512 278.516 43.0442 278.516Z" fill="#C6A589"/>
<path d="M330.515 200.283L330.432 200.257C329.445 199.953 328.399 200.507 328.096 201.495L325.293 210.611C324.99 211.599 325.543 212.646 326.53 212.95L326.613 212.976C327.6 213.28 328.646 212.726 328.95 211.738L331.752 202.622C332.055 201.634 331.502 200.587 330.515 200.283Z" fill="#EACAAC"/>
<path d="M343.193 202.817L343.107 202.8C342.095 202.597 341.11 203.253 340.907 204.267L339.033 213.618C338.83 214.632 339.486 215.618 340.498 215.821L340.584 215.839C341.596 216.042 342.581 215.385 342.784 214.372L344.658 205.021C344.861 204.007 344.205 203.021 343.193 202.817Z" fill="#EACAAC"/>
<path d="M343.414 211.486C343.397 211.486 343.38 211.485 343.364 211.481C343.299 211.468 343.242 211.43 343.205 211.375C343.169 211.32 343.155 211.252 343.168 211.187L344.406 205.014C344.492 204.581 344.404 204.131 344.159 203.763C343.915 203.395 343.535 203.14 343.102 203.053C342.669 202.966 342.22 203.054 341.853 203.299C341.485 203.544 341.23 203.925 341.143 204.358L340.377 208.182C340.371 208.214 340.358 208.245 340.34 208.272C340.322 208.299 340.298 208.323 340.271 208.341C340.244 208.359 340.213 208.372 340.181 208.378C340.149 208.384 340.116 208.384 340.084 208.378C340.052 208.371 340.021 208.359 339.994 208.34C339.967 208.322 339.944 208.299 339.925 208.271C339.907 208.244 339.895 208.214 339.888 208.181C339.882 208.149 339.882 208.116 339.889 208.084L340.655 204.26C340.768 203.697 341.099 203.202 341.576 202.884C342.054 202.566 342.638 202.45 343.2 202.563C343.762 202.676 344.256 203.008 344.574 203.486C344.892 203.964 345.007 204.549 344.894 205.112L343.657 211.286C343.646 211.342 343.615 211.393 343.571 211.429C343.527 211.466 343.471 211.486 343.414 211.486Z" fill="#C6A589"/>
<path d="M354.992 204.507L354.904 204.503C353.873 204.454 352.998 205.252 352.949 206.284L352.499 215.811C352.451 216.844 353.247 217.72 354.278 217.769L354.365 217.773C355.397 217.822 356.272 217.025 356.321 215.992L356.771 206.465C356.819 205.433 356.023 204.556 354.992 204.507Z" fill="#EACAAC"/>
<path d="M356.482 212.829H356.47C356.404 212.826 356.342 212.796 356.297 212.748C356.253 212.699 356.23 212.634 356.233 212.568L356.519 206.499C356.538 206.058 356.382 205.629 356.085 205.303C355.789 204.978 355.375 204.784 354.936 204.763C354.496 204.742 354.066 204.897 353.74 205.192C353.414 205.488 353.219 205.901 353.196 206.341C353.193 206.408 353.163 206.47 353.114 206.514C353.065 206.559 353.001 206.582 352.935 206.579C352.869 206.576 352.807 206.547 352.762 206.498C352.718 206.449 352.694 206.384 352.697 206.318C352.725 205.744 352.978 205.205 353.402 204.818C353.826 204.432 354.386 204.23 354.959 204.257C355.532 204.284 356.071 204.538 356.456 204.963C356.842 205.388 357.044 205.949 357.017 206.522L356.73 212.592C356.727 212.655 356.699 212.716 356.653 212.76C356.607 212.804 356.546 212.829 356.482 212.829ZM325.806 209.195C325.78 209.195 325.755 209.192 325.731 209.184C325.699 209.174 325.67 209.159 325.645 209.138C325.62 209.117 325.599 209.091 325.584 209.062C325.568 209.033 325.559 209.002 325.556 208.969C325.553 208.936 325.556 208.903 325.566 208.872L327.843 201.463C328.016 200.919 328.396 200.466 328.901 200.201C329.406 199.936 329.995 199.882 330.54 200.05C331.085 200.218 331.541 200.595 331.81 201.098C332.079 201.601 332.139 202.191 331.976 202.738C331.967 202.769 331.951 202.799 331.93 202.825C331.91 202.851 331.884 202.872 331.855 202.888C331.826 202.903 331.794 202.913 331.761 202.916C331.728 202.92 331.695 202.916 331.663 202.907C331.631 202.897 331.602 202.881 331.577 202.86C331.551 202.838 331.53 202.812 331.515 202.783C331.5 202.753 331.491 202.721 331.488 202.688C331.485 202.655 331.489 202.622 331.5 202.591C331.627 202.169 331.583 201.714 331.376 201.325C331.169 200.936 330.817 200.645 330.397 200.515C329.976 200.386 329.522 200.428 329.132 200.633C328.743 200.839 328.451 201.19 328.32 201.61L326.042 209.019C326.027 209.07 325.995 209.114 325.953 209.146C325.91 209.178 325.859 209.195 325.806 209.195ZM58.953 274.21C58.8928 274.21 58.8346 274.188 58.7893 274.149C58.7439 274.109 58.7144 274.054 58.7063 273.994L57.948 268.394C57.8844 267.96 57.6523 267.569 57.3022 267.305C56.9522 267.041 56.5123 266.926 56.0782 266.985C55.644 267.044 55.2506 267.272 54.9834 267.62C54.7161 267.968 54.5966 268.407 54.6507 268.842L55.196 272.867C55.2004 272.9 55.1983 272.933 55.19 272.964C55.1816 272.996 55.1671 273.026 55.1473 273.052C55.1274 273.078 55.1027 273.1 55.0744 273.116C55.0461 273.133 55.0148 273.144 54.9824 273.148C54.95 273.152 54.917 273.15 54.8854 273.142C54.8537 273.134 54.824 273.119 54.798 273.099C54.772 273.079 54.7501 273.054 54.7337 273.026C54.7172 272.998 54.7065 272.967 54.7021 272.934L54.1571 268.909C54.0851 268.342 54.2395 267.77 54.5868 267.317C54.934 266.864 55.446 266.567 56.0112 266.49C56.5764 266.413 57.1489 266.563 57.6041 266.907C58.0594 267.251 58.3604 267.762 58.4417 268.327L59.2002 273.927C59.2046 273.96 59.2026 273.993 59.1942 274.024C59.1858 274.056 59.1713 274.086 59.1515 274.112C59.1317 274.138 59.1069 274.16 59.0786 274.176C59.0503 274.193 59.0191 274.204 58.9867 274.208C58.9755 274.209 58.9643 274.21 58.953 274.21ZM72.9451 275.111C72.8896 275.111 72.8358 275.092 72.7921 275.058C72.7484 275.024 72.7174 274.976 72.7039 274.922L70.4063 265.757C70.2989 265.328 70.0259 264.96 69.6474 264.733C69.2688 264.506 68.8157 264.439 68.3877 264.546C67.9598 264.654 67.592 264.927 67.3653 265.306C67.1387 265.685 67.0717 266.139 67.1791 266.568L67.9304 269.565C67.9465 269.629 67.9364 269.697 67.9025 269.754C67.8685 269.81 67.8134 269.851 67.7493 269.867C67.6852 269.884 67.6173 269.873 67.5606 269.839C67.5039 269.805 67.463 269.75 67.4469 269.686L66.6959 266.689C66.5632 266.135 66.6543 265.55 66.9494 265.063C67.2445 264.575 67.7197 264.224 68.272 264.085C68.8243 263.946 69.4089 264.031 69.899 264.321C70.389 264.611 70.745 265.084 70.8895 265.635L73.187 274.801C73.195 274.832 73.1967 274.866 73.1919 274.898C73.1872 274.93 73.1761 274.962 73.1593 274.99C73.1425 275.018 73.1203 275.042 73.094 275.062C73.0677 275.081 73.0379 275.096 73.0061 275.104C72.9861 275.109 72.9656 275.111 72.9451 275.111Z" fill="#403838"/>
<path d="M46.2999 351.948C43.2854 351.937 40.3276 351.127 37.7277 349.599C37.7023 349.585 37.68 349.565 37.6621 349.543C37.6441 349.52 37.6309 349.494 37.6232 349.466C37.6155 349.437 37.6135 349.408 37.6173 349.379C37.6211 349.351 37.6305 349.323 37.6452 349.298C37.6598 349.272 37.6793 349.251 37.7025 349.233C37.7257 349.216 37.7522 349.203 37.7804 349.196C37.8085 349.189 37.8378 349.187 37.8665 349.192C37.8952 349.196 37.9227 349.206 37.9475 349.222C40.7153 350.85 43.8958 351.639 47.1028 351.492C53.5785 351.174 58.6286 348.822 59.4551 347.982C59.4957 347.94 59.5511 347.917 59.6089 347.917C59.6667 347.916 59.7223 347.939 59.7635 347.979C59.8047 348.02 59.828 348.075 59.8284 348.133C59.8288 348.191 59.8062 348.247 59.7656 348.288C58.7066 349.365 53.2844 351.625 47.1242 351.929C46.8458 351.942 46.571 351.948 46.2999 351.948Z" fill="#403838"/>
<path d="M250.635 250.057C256.183 263.101 258.46 277.306 257.266 291.433L258.541 296.286C260.23 296.525 261.938 296.611 263.642 296.541C265.799 290.277 265.577 285.511 264.917 282.238C263.214 273.784 257.707 270.875 258.286 262.827C258.496 259.914 259.373 258.142 258.286 255.676C256.867 252.455 253.345 250.881 250.635 250.057Z" fill="#D88830"/>
<path d="M257.393 291.772H257.376C257.348 291.77 257.32 291.762 257.294 291.749C257.269 291.736 257.246 291.718 257.227 291.697C257.209 291.675 257.195 291.65 257.186 291.622C257.177 291.595 257.173 291.566 257.175 291.538C258.26 277.258 255.88 262.926 250.238 249.767C250.216 249.714 250.216 249.654 250.238 249.601C250.259 249.548 250.301 249.506 250.354 249.483C250.406 249.461 250.466 249.46 250.519 249.48C250.572 249.501 250.615 249.542 250.639 249.595C256.309 262.819 258.701 277.221 257.61 291.571C257.606 291.626 257.581 291.677 257.541 291.714C257.501 291.751 257.448 291.772 257.393 291.772ZM314.458 230.833C314.428 230.833 314.399 230.827 314.371 230.815C311.168 229.431 307.888 228.233 304.547 227.226C304.519 227.219 304.493 227.206 304.469 227.188C304.446 227.17 304.427 227.148 304.413 227.122C304.398 227.097 304.389 227.069 304.386 227.039C304.383 227.01 304.385 226.981 304.394 226.953C304.402 226.925 304.416 226.899 304.435 226.876C304.453 226.853 304.476 226.835 304.502 226.821C304.528 226.808 304.557 226.8 304.586 226.798C304.615 226.795 304.644 226.799 304.672 226.808C308.029 227.819 311.325 229.023 314.543 230.414C314.589 230.434 314.627 230.469 314.65 230.514C314.673 230.558 314.68 230.609 314.67 230.659C314.66 230.708 314.633 230.752 314.594 230.784C314.555 230.815 314.507 230.833 314.457 230.833H314.458Z" fill="#403838"/>
<path d="M34.1074 242.906C35.1358 246.118 36.687 249.139 38.6983 251.845C40.0706 253.678 41.8443 256.047 43.2889 255.676C45.2644 255.169 45.0728 249.936 46.6043 249.802C47.702 249.705 48.1097 252.364 50.4299 253.122C51.7848 253.564 53.0464 253.115 53.7441 252.867C57.95 251.369 59.2144 245.858 59.3552 245.205C63.514 240.949 65.3849 238.565 64.9679 238.053C64.4706 237.443 60.73 239.486 53.7461 244.183C53.9936 245.307 54.7429 247.509 54.5121 249.546C54.39 250.623 53.8117 250.654 53.4905 250.823C52.7048 251.238 51.0843 249.673 46.6043 244.693C44.8695 242.766 43.169 240.807 41.5037 238.819C42.4447 241.12 43.129 243.519 43.544 245.97C43.9863 248.583 44.2487 250.384 43.544 250.823C42.7763 251.301 40.6123 250.308 34.1074 242.906Z" fill="#DDA094"/>
<path d="M53.4619 251.045C52.6176 251.045 50.9864 250.169 47.2769 245.939C44.731 243.036 41.4708 238.846 37.5892 233.486C37.5724 233.463 37.5603 233.437 37.5536 233.409C37.547 233.381 37.5459 233.352 37.5504 233.324C37.5549 233.295 37.5649 233.268 37.5799 233.244C37.5949 233.219 37.6146 233.198 37.6378 233.181C37.6609 233.165 37.6872 233.152 37.7151 233.146C37.7429 233.139 37.7718 233.138 37.8001 233.143C37.8284 233.147 37.8555 233.157 37.8799 233.172C37.9043 233.187 37.9255 233.207 37.9423 233.23C41.8164 238.579 45.0674 242.757 47.6044 245.651C51.8107 250.447 53.2491 250.778 53.7325 250.548C54.6669 250.104 55.0437 246.431 47.0689 226.818C47.0581 226.791 47.0526 226.763 47.0528 226.734C47.053 226.705 47.0588 226.677 47.0699 226.651C47.081 226.624 47.0972 226.6 47.1176 226.58C47.138 226.56 47.1621 226.544 47.1886 226.533C47.2151 226.522 47.2435 226.517 47.2722 226.517C47.3008 226.517 47.3291 226.523 47.3555 226.534C47.3819 226.545 47.4058 226.562 47.426 226.582C47.4461 226.602 47.462 226.627 47.4728 226.653C51.0038 235.338 53.256 241.776 54.1671 245.79C54.8708 248.89 54.7923 250.528 53.9196 250.943C53.7767 251.011 53.6202 251.046 53.4619 251.045Z" fill="#403838"/>
<path d="M43.0288 251.275C41.727 251.275 38.7614 249.257 30.3076 238.13C30.2725 238.084 30.2572 238.026 30.265 237.969C30.2728 237.911 30.303 237.859 30.3491 237.824C30.3951 237.789 30.4531 237.774 30.5105 237.782C30.5678 237.79 30.6197 237.82 30.6547 237.866C39.3906 249.364 42.3587 251.233 43.3093 250.777C43.9727 250.459 44.5192 248.341 40.7265 237.728C40.7086 237.674 40.7125 237.615 40.7375 237.564C40.7624 237.512 40.8064 237.473 40.8599 237.454C40.9135 237.434 40.9725 237.437 41.0242 237.461C41.076 237.484 41.1164 237.528 41.1369 237.581C45.1631 248.846 44.4125 250.732 43.4977 251.171C43.3513 251.241 43.1909 251.276 43.0288 251.275Z" fill="#403838"/>
<path d="M65.0804 237.428C63.5105 239.013 60.6622 241.875 56.2702 243.525C51.7277 245.232 45.0474 246.071 44.1578 244.234C43.5794 243.038 45.7349 240.057 58.5927 231.92" fill="#F8B5A4"/>
<path d="M47.0831 245.526C45.5523 245.526 44.4018 245.243 44.0462 244.55C43.473 243.432 44.3492 240.896 58.5354 231.825C58.5841 231.795 58.6425 231.786 58.698 231.799C58.7536 231.812 58.8018 231.846 58.8325 231.894C58.8632 231.942 58.8738 232 58.8621 232.056C58.8504 232.112 58.8173 232.161 58.7698 232.193C45.9657 240.38 43.9066 243.323 44.4339 244.35C45.187 245.817 51.652 244.929 56.2206 243.2C59.5318 241.95 62.5288 239.988 64.9999 237.451C65.0407 237.411 65.0954 237.389 65.1523 237.389C65.2092 237.389 65.2638 237.412 65.3044 237.452C65.3451 237.492 65.3686 237.546 65.3699 237.603C65.3712 237.66 65.3502 237.715 65.3114 237.757C62.7957 240.339 59.7447 242.337 56.3736 243.609C53.5922 244.661 49.7576 245.526 47.0831 245.526Z" fill="#403838"/>
<path d="M44.7977 244.307C44.1648 244.307 44.0397 244.107 43.9754 244.005C43.9446 243.956 43.9345 243.897 43.9474 243.84C43.9602 243.784 43.9949 243.734 44.0439 243.704C44.0929 243.673 44.1521 243.663 44.2085 243.676C44.2649 243.688 44.3139 243.723 44.3447 243.772C44.4753 243.981 45.7546 244.006 49.6569 242.608C49.8126 242.552 49.9555 242.466 50.0772 242.355C50.1989 242.243 50.2968 242.108 50.3651 241.957C50.433 241.811 50.4707 241.652 50.4761 241.491C50.4814 241.329 50.4542 241.169 50.396 241.018C50.3676 240.944 50.3353 240.869 50.2991 240.793C49.9345 240.037 48.9784 239.509 48.6201 239.31L48.5376 239.264C48.5127 239.25 48.4908 239.231 48.4731 239.208C48.4555 239.186 48.4425 239.16 48.4349 239.132C48.4272 239.105 48.4251 239.076 48.4286 239.047C48.4321 239.019 48.4411 238.991 48.4552 238.966C48.4693 238.941 48.4882 238.919 48.5108 238.902C48.5333 238.884 48.5591 238.871 48.5867 238.863C48.6143 238.856 48.6432 238.854 48.6716 238.857C48.7 238.861 48.7275 238.87 48.7524 238.884L48.8309 238.928C49.2238 239.145 50.267 239.722 50.6916 240.603C50.7334 240.69 50.7703 240.776 50.803 240.861C50.8822 241.066 50.9194 241.284 50.9123 241.504C50.9052 241.724 50.854 241.94 50.7616 242.139C50.6692 242.342 50.5368 242.525 50.3722 242.676C50.2077 242.827 50.0144 242.944 49.804 243.018C46.9682 244.035 45.5368 244.307 44.7977 244.307ZM42.9146 249.994C42.7006 249.991 42.4893 249.946 42.2916 249.864C41.4194 249.518 40.7197 248.41 40.7003 247.344C40.6833 246.965 40.7678 246.589 40.9449 246.254C41.122 245.92 41.3853 245.638 41.7075 245.44C41.9084 245.305 42.1409 245.225 42.3821 245.208C42.6233 245.191 42.8647 245.237 43.0825 245.342C43.3686 245.528 43.5924 245.795 43.725 246.109C43.7481 246.161 43.7503 246.22 43.731 246.273C43.7116 246.327 43.6723 246.37 43.6214 246.395C43.5704 246.42 43.5118 246.424 43.458 246.406C43.4042 246.388 43.3593 246.35 43.333 246.3C43.2366 246.067 43.0747 245.866 42.867 245.722C42.716 245.656 42.5505 245.629 42.3864 245.645C42.2224 245.662 42.0652 245.72 41.9303 245.815C41.6746 245.975 41.4662 246.2 41.3267 246.467C41.1871 246.735 41.1214 247.035 41.1364 247.336C41.1523 248.225 41.7426 249.177 42.4518 249.459C42.6582 249.54 43.0434 249.646 43.3063 249.43C43.5123 249.237 43.6656 248.995 43.7516 248.726C43.7605 248.698 43.7748 248.673 43.7936 248.651C43.8124 248.629 43.8355 248.611 43.8613 248.598C43.8872 248.585 43.9154 248.577 43.9443 248.575C43.9732 248.573 44.0022 248.577 44.0296 248.586C44.057 248.595 44.0823 248.61 44.1039 248.629C44.1256 248.649 44.1432 248.672 44.1557 248.698C44.1683 248.724 44.1755 248.753 44.1769 248.782C44.1784 248.811 44.1741 248.84 44.1643 248.867C44.0521 249.213 43.8514 249.524 43.5822 249.769C43.3929 249.92 43.1566 250 42.9146 249.994ZM53.8703 249.451C53.144 249.455 52.4395 249.203 51.8805 248.738C51.6133 248.529 51.3942 248.265 51.2384 247.964C51.0825 247.662 50.9934 247.331 50.9772 246.991C50.9786 245.915 52.0073 244.663 53.6684 244.518C53.6973 244.515 53.7264 244.517 53.7543 244.526C53.7821 244.534 53.8079 244.548 53.8303 244.566C53.8528 244.585 53.8713 244.607 53.8848 244.633C53.8983 244.659 53.9066 244.687 53.9091 244.716C53.9116 244.745 53.9084 244.774 53.8995 244.802C53.8906 244.829 53.8763 244.855 53.8574 244.877C53.8385 244.899 53.8154 244.917 53.7895 244.93C53.7635 244.943 53.7352 244.951 53.7063 244.953C52.3357 245.073 51.4157 246.104 51.4137 246.992C51.4301 247.267 51.5053 247.536 51.6343 247.779C51.7633 248.022 51.943 248.235 52.1613 248.403C52.4674 248.655 52.8251 248.836 53.2089 248.933C53.5927 249.031 53.9933 249.042 54.3821 248.967C54.4104 248.962 54.4396 248.962 54.4678 248.968C54.4961 248.974 54.5229 248.985 54.5468 249.002C54.5706 249.018 54.5909 249.039 54.6066 249.063C54.6223 249.087 54.633 249.115 54.6381 249.143C54.6433 249.171 54.6427 249.201 54.6365 249.229C54.6303 249.257 54.6185 249.284 54.6019 249.307C54.5853 249.331 54.5642 249.351 54.5397 249.367C54.5153 249.382 54.4881 249.392 54.4596 249.397C54.2651 249.433 54.0679 249.45 53.8703 249.451Z" fill="#403838"/>
<g clip-path="url(#clip2_2359_44328)">
<path fill-rule="evenodd" clip-rule="evenodd" d="M114.479 172.851L111.886 186.479L109.293 172.851L95.6859 170.254L109.293 167.657L111.886 154.028L114.479 167.657L128.086 170.253L114.479 172.851Z" fill="#DFD5FF"/>
</g>
<g clip-path="url(#clip3_2359_44328)">
<path fill-rule="evenodd" clip-rule="evenodd" d="M332.429 316.1L331.092 323.127L329.755 316.1L322.739 314.761L329.755 313.422L331.092 306.395L332.429 313.422L339.445 314.761L332.429 316.1Z" fill="#F8A036"/>
</g>
</g>
<path fill-rule="evenodd" clip-rule="evenodd" d="M64.6901 96.7053L63.353 103.732L62.0164 96.7053L55 95.3663L62.0164 94.0274L63.3532 87L64.6901 94.0274L71.7062 95.3661L64.6901 96.7053Z" fill="#F8A036"/>
<g clip-path="url(#clip4_2359_44328)">
<path d="M215.173 168.959C216.392 165.366 214.478 161.462 210.898 160.24C207.318 159.018 203.427 160.941 202.207 164.534C200.988 168.127 202.902 172.03 206.482 173.252C210.063 174.474 213.954 172.552 215.173 168.959Z" fill="#DDA094"/>
<path d="M208.656 177.724C214.462 160.616 205.349 142.03 188.301 136.212C171.254 130.394 152.727 139.547 146.922 156.656C141.116 173.764 150.229 192.35 167.277 198.168C184.324 203.985 202.85 194.833 208.656 177.724Z" fill="#2B2929"/>
<path fill-rule="evenodd" clip-rule="evenodd" d="M168.834 149.344C156.374 157.706 152.927 183.417 152.927 183.417L155.664 187.273C159.715 192.982 165.411 197.309 171.987 199.675C178.562 202.04 185.703 202.329 192.448 200.503C195.84 199.821 199.064 198.472 201.933 196.534C212.677 189.323 216.311 175.858 210.048 166.459C208.992 164.872 207.691 163.463 206.194 162.286C206.323 158.706 205.338 155.176 203.376 152.183C196.957 142.549 181.295 140.981 168.834 149.344Z" fill="#F8B5A4"/>
<path fill-rule="evenodd" clip-rule="evenodd" d="M192.448 200.503C195.84 199.821 199.064 198.472 201.933 196.534C212.678 189.323 216.312 175.857 210.048 166.459C208.992 164.872 207.694 163.756 208.783 167.965C209.325 169.962 209.727 171.994 209.986 174.047C210.509 179.384 208.907 183.817 205.403 189.014C203.408 191.972 198.507 196.376 192.448 200.503Z" fill="#DDA094"/>
<path d="M194.034 176.953C193.994 176.952 193.954 176.941 193.92 176.921C193.885 176.9 193.857 176.87 193.838 176.834C193.819 176.799 193.81 176.759 193.813 176.718C193.815 176.678 193.828 176.639 193.85 176.605L195.364 174.347C195.481 174.171 195.556 173.971 195.583 173.762C195.609 173.552 195.587 173.339 195.517 173.14C195.447 172.941 195.331 172.761 195.18 172.614C195.028 172.468 194.844 172.359 194.643 172.296L193.572 171.963C193.544 171.954 193.517 171.941 193.495 171.922C193.472 171.903 193.453 171.88 193.439 171.854C193.425 171.828 193.416 171.8 193.413 171.77C193.41 171.741 193.413 171.711 193.422 171.683C193.431 171.654 193.445 171.628 193.464 171.605C193.483 171.583 193.506 171.564 193.533 171.551C193.559 171.537 193.588 171.529 193.617 171.527C193.646 171.524 193.676 171.528 193.704 171.537L194.775 171.87C195.042 171.953 195.287 172.098 195.488 172.293C195.69 172.488 195.843 172.727 195.936 172.992C196.029 173.257 196.059 173.539 196.024 173.818C195.988 174.096 195.889 174.363 195.732 174.596L194.219 176.854C194.198 176.885 194.171 176.909 194.139 176.927C194.107 176.944 194.071 176.953 194.034 176.953Z" fill="#403838"/>
<path fill-rule="evenodd" clip-rule="evenodd" d="M186.947 140.773C185.08 145.129 182.442 152.804 177.069 159.89C171.696 166.977 165.891 174.227 149.411 180.556C145.69 170.712 146.19 161.991 150.909 154.395C155.625 146.799 169.133 141.97 186.947 140.773Z" fill="#2B2929"/>
<path d="M155.389 189.224C159.181 188.083 161.33 184.068 160.189 180.258C159.049 176.448 155.05 174.285 151.258 175.427C147.466 176.569 145.317 180.583 146.458 184.393C147.599 188.203 151.597 190.366 155.389 189.224Z" fill="#F8B5A4"/>
<path fill-rule="evenodd" clip-rule="evenodd" d="M178.813 139.464C181.228 146.335 195.005 155.459 207.742 159.296L203.843 149.651C199.126 141.577 188.442 137.574 178.813 139.464Z" fill="#2B2929"/>
<path d="M153.506 187.947C153.491 187.947 153.475 187.945 153.46 187.942C150.788 187.373 149.094 185.995 148.425 183.845C147.754 181.687 148.402 179.687 150.351 177.899C150.395 177.862 150.452 177.843 150.509 177.846C150.567 177.85 150.621 177.876 150.66 177.918C150.699 177.961 150.719 178.017 150.718 178.075C150.716 178.133 150.692 178.188 150.651 178.228C148.815 179.912 148.226 181.706 148.85 183.712C149.467 185.697 151.049 186.972 153.552 187.506C153.606 187.517 153.653 187.548 153.686 187.593C153.718 187.637 153.733 187.692 153.727 187.747C153.721 187.802 153.696 187.852 153.655 187.889C153.614 187.926 153.561 187.946 153.506 187.947Z" fill="#403838"/>
<path d="M197.352 180.125C197.201 180.049 197.036 180.008 196.868 180.006C196.771 180.004 196.675 180.013 196.58 180.034L189.243 181.719C189.125 181.746 189.016 181.806 188.93 181.892C188.845 181.979 188.785 182.087 188.755 182.205C188.7 182.531 191.074 184.051 193.959 183.71C194.729 183.619 196.326 183.43 197.085 182.236C197.582 181.454 197.667 180.321 197.352 180.125Z" fill="white"/>
<path fill-rule="evenodd" clip-rule="evenodd" d="M176.988 167.049C176.568 167.798 176.331 168.635 176.294 169.494C176.258 170.352 176.423 171.207 176.778 171.989C177.132 172.771 177.665 173.459 178.333 173.996C179.002 174.533 179.787 174.905 180.626 175.081C183.201 173.83 184.779 171.906 184.42 170.112C183.98 167.914 180.782 166.66 176.988 167.049Z" fill="#2B2929"/>
<path d="M176.289 169.724C176.289 168.787 176.529 167.866 176.988 167.049C176.54 167.095 176.085 167.162 175.624 167.255C171.258 168.134 168.117 170.838 168.609 173.296C169.101 175.753 173.039 177.032 177.405 176.153C178.519 175.933 179.601 175.573 180.626 175.082C179.4 174.823 178.3 174.149 177.51 173.174C176.72 172.198 176.289 170.98 176.289 169.724Z" fill="white"/>
<path fill-rule="evenodd" clip-rule="evenodd" d="M201.683 160.271C201.263 161.02 201.026 161.858 200.989 162.716C200.953 163.574 201.118 164.429 201.473 165.211C201.827 165.994 202.36 166.681 203.029 167.218C203.697 167.755 204.483 168.127 205.321 168.303C207.897 167.052 209.474 165.128 209.115 163.335C208.674 161.136 205.477 159.883 201.683 160.271Z" fill="#2B2929"/>
<path d="M200.984 162.946C200.983 162.009 201.224 161.088 201.682 160.271C201.225 160.318 200.769 160.387 200.318 160.477C195.952 161.356 192.812 164.06 193.303 166.518C193.795 168.975 197.733 170.254 202.099 169.375C203.214 169.155 204.296 168.795 205.32 168.303C204.094 168.045 202.994 167.371 202.205 166.396C201.415 165.42 200.984 164.202 200.984 162.946Z" fill="white"/>
<path d="M178.05 158.699L169.791 161.435C168.526 161.854 167.839 163.223 168.257 164.491L168.323 164.694C168.741 165.963 170.106 166.652 171.371 166.232L179.63 163.497C180.896 163.078 181.583 161.709 181.165 160.44L181.098 160.238C180.68 158.969 179.316 158.28 178.05 158.699Z" fill="#2B2929"/>
<path d="M202.406 153.365L195.256 154.535C193.941 154.75 193.048 155.994 193.263 157.313L193.281 157.425C193.496 158.744 194.736 159.638 196.051 159.423L203.202 158.254C204.517 158.039 205.409 156.795 205.194 155.476L205.176 155.364C204.962 154.045 203.722 153.15 202.406 153.365Z" fill="#2B2929"/>
<path d="M172.696 139.047C173.301 137.443 170.521 134.901 166.486 133.371C162.451 131.84 158.689 131.9 158.084 133.505C157.479 135.109 160.26 137.65 164.295 139.181C168.33 140.711 172.091 140.651 172.696 139.047Z" fill="#2B2929"/>
<path d="M174.699 134.289C175.791 130.425 175.341 126.914 173.696 126.446C172.05 125.979 169.831 128.732 168.74 132.596C167.648 136.459 168.098 139.97 169.743 140.438C171.389 140.905 173.608 138.152 174.699 134.289Z" fill="#2B2929"/>
</g>
<g clip-path="url(#clip5_2359_44328)">
<path d="M238.569 274.112C238.575 274.132 238.586 274.15 238.6 274.164L265.568 300.174C266.08 300.668 266.741 300.975 267.445 301.048C268.15 301.121 268.858 300.955 269.456 300.576C270.063 300.173 270.691 299.804 271.337 299.468C280.791 294.814 289.333 288.491 296.555 280.8C303.334 273.575 308.848 265.249 312.868 256.173C313.206 255.408 313.599 254.674 313.99 253.935C314.248 253.452 314.342 252.896 314.255 252.353C314.169 251.81 313.908 251.31 313.512 250.93L285.567 223.979C285.512 223.926 285.454 223.875 285.395 223.827C285.101 223.604 284.761 223.451 284.4 223.377C284.039 223.304 283.667 223.313 283.311 223.404C282.954 223.495 282.623 223.665 282.342 223.902C282.061 224.139 281.836 224.436 281.685 224.773C277.345 234.124 271.53 242.706 264.465 250.187C257.614 257.438 249.673 263.563 240.931 268.343C239.953 268.874 239.184 269.723 238.75 270.752C238.315 271.78 238.241 272.927 238.539 274.006C238.549 274.042 238.56 274.076 238.569 274.112Z" fill="#7D54F8"/>
<path d="M241.929 270.965L268.415 296.51C278.23 291.878 287.06 285.388 294.421 277.394C301.057 270.173 306.389 261.844 310.179 252.778L283.693 227.232C279.87 236.372 274.48 244.763 267.768 252.024C260.439 259.937 251.669 266.366 241.929 270.965Z" fill="white"/>
<path d="M254.051 286.786C254.301 286.665 254.521 286.491 254.697 286.276C254.872 286.06 254.998 285.809 255.065 285.539C255.133 285.268 255.141 284.987 255.088 284.713C255.035 284.439 254.923 284.18 254.76 283.953C254.597 283.727 254.387 283.54 254.144 283.404C253.901 283.268 253.632 283.188 253.355 283.168C253.078 283.148 252.801 283.189 252.542 283.289C252.283 283.389 252.05 283.545 251.858 283.745C251.552 284.067 251.368 284.487 251.338 284.932C251.308 285.377 251.435 285.818 251.696 286.18C251.957 286.542 252.336 286.8 252.766 286.911C253.196 287.022 253.651 286.977 254.051 286.786ZM252.679 283.925C252.962 283.789 253.286 283.763 253.588 283.855C253.889 283.946 254.146 284.148 254.308 284.42C254.47 284.691 254.525 285.014 254.462 285.323C254.399 285.633 254.223 285.907 253.969 286.092C253.714 286.277 253.4 286.359 253.087 286.323C252.775 286.287 252.487 286.134 252.28 285.896C252.073 285.657 251.962 285.349 251.969 285.033C251.976 284.717 252.1 284.416 252.318 284.188C252.421 284.08 252.544 283.991 252.679 283.925L252.679 283.925Z" fill="#403838"/>
<path d="M289.67 279.045C290.135 275.446 290.963 268.187 291.491 263.496C291.553 262.951 291.497 262.398 291.329 261.876C291.16 261.353 290.882 260.872 290.514 260.466C290.145 260.06 289.695 259.737 289.193 259.519C288.69 259.302 288.148 259.195 287.602 259.205L284.514 259.263C283.646 259.28 282.805 258.948 282.177 258.343C281.549 257.737 281.185 256.906 281.166 256.033C281.162 255.879 281.127 255.726 281.063 255.586C280.999 255.445 280.906 255.319 280.792 255.215C280.677 255.111 280.543 255.032 280.397 254.982C280.25 254.933 280.096 254.914 279.943 254.926L265.971 256.08C265.755 256.098 265.549 256.178 265.378 256.311C265.206 256.444 265.077 256.623 265.005 256.829C264.933 257.034 264.921 257.256 264.972 257.468C265.022 257.68 265.132 257.873 265.289 258.024L287.773 279.71C287.924 279.855 288.111 279.956 288.315 280.001C288.519 280.046 288.731 280.033 288.927 279.964C289.124 279.895 289.297 279.773 289.428 279.61C289.56 279.448 289.643 279.252 289.67 279.045Z" fill="#7D54F8"/>
<path d="M285.326 251.474C283.437 252.384 281.166 251.58 280.254 249.678C279.342 247.776 280.134 245.497 282.023 244.588C283.913 243.678 286.184 244.483 287.096 246.384C288.008 248.286 287.216 250.565 285.326 251.474Z" fill="#BC160D"/>
</g>
<g clip-path="url(#clip6_2359_44328)">
<path d="M4.88671 149.106C4.87764 149.125 4.87357 149.146 4.87487 149.166L7.42825 186.584C7.47676 187.295 7.76028 187.967 8.23361 188.496C8.70695 189.024 9.34284 189.377 10.0399 189.499C10.7596 189.609 11.4728 189.757 12.1764 189.944C22.3013 192.857 32.8675 193.919 43.3738 193.08C53.2388 192.287 62.9044 189.829 71.9653 185.809C72.7282 185.47 73.5116 185.19 74.2962 184.906C74.8117 184.722 75.2532 184.373 75.5531 183.912C75.8529 183.452 75.9945 182.906 75.956 182.357L73.3092 143.584C73.304 143.507 73.2954 143.431 73.2834 143.356C73.2147 142.992 73.0657 142.65 72.8474 142.353C72.6291 142.056 72.3472 141.812 72.0224 141.64C71.6976 141.467 71.3383 141.371 70.9711 141.357C70.6038 141.343 70.2379 141.412 69.9005 141.56C60.4179 145.569 50.3583 148.015 40.1091 148.804C30.1736 149.566 20.1843 148.762 10.5029 146.421C9.4223 146.156 8.28365 146.268 7.27261 146.738C6.26157 147.208 5.43779 148.008 4.93561 149.008C4.91919 149.041 4.90395 149.074 4.88671 149.106Z" fill="#7D54F8"/>
<path d="M9.48524 149.035L11.9934 185.785C22.3707 188.958 33.2627 190.09 44.0751 189.12C53.8311 188.235 63.3639 185.651 72.2475 181.484L69.7402 144.733C60.782 148.933 51.1651 151.524 41.3258 152.387C30.5922 153.319 19.7851 152.182 9.48524 149.035Z" fill="white"/>
<g clip-path="url(#clip7_2359_44328)">
<path d="M51.4055 178.319C54.4684 178.642 57.2098 176.523 57.5164 173.595C57.8231 170.668 55.5806 168.023 52.5177 167.7C49.4549 167.376 46.7134 169.495 46.4068 172.423C46.1002 175.35 48.3427 177.995 51.4055 178.319ZM52.2342 170.406C53.7946 170.571 54.9417 171.873 54.7914 173.308C54.6411 174.743 53.2494 175.777 51.689 175.612C50.1286 175.447 48.9815 174.146 49.1318 172.71C49.2821 171.275 50.6738 170.242 52.2342 170.406Z" fill="#EACAAC"/>
<path d="M51.222 177.036C53.5336 177.28 55.5855 175.844 55.7959 173.835C56.0064 171.826 54.2969 169.993 51.9852 169.749C49.6736 169.505 47.6218 170.941 47.4113 172.95C47.2009 174.959 48.9095 176.792 51.222 177.036ZM51.7907 171.606C52.9684 171.731 53.8424 172.633 53.7392 173.618C53.6361 174.603 52.5942 175.303 51.4165 175.179C50.2389 175.054 49.3649 174.152 49.468 173.167C49.5712 172.182 50.613 171.482 51.7907 171.606Z" fill="#D8B69A"/>
<path d="M45.1222 178.383L44.868 179.722C44.8032 180.068 44.6336 180.386 44.3818 180.633C44.13 180.88 43.8081 181.045 43.4591 181.105C40.8573 181.549 38.1855 181.377 35.6598 180.605C33.1342 179.833 30.8256 178.481 28.9208 176.66C28.6528 176.406 28.4722 176.075 28.4049 175.714C28.3376 175.353 28.3871 174.98 28.5462 174.649L29.3751 172.931L45.1222 178.383Z" fill="#EACAAC"/>
<path d="M36.2093 178.495C33.8227 177.34 31.814 175.535 30.417 173.292L45.1222 178.383L44.8866 179.621C41.9492 180.17 38.91 179.776 36.2093 178.495Z" fill="#D8B69A"/>
<path d="M53.6884 165.393L49.4726 176.461C49.2341 177.111 48.8075 177.676 48.2463 178.085C47.6852 178.495 47.0145 178.73 46.3183 178.762C42.8639 178.927 39.4063 178.476 36.1088 177.431C33.2555 176.524 30.5599 175.184 28.1181 173.457C27.4704 173 26.9964 172.339 26.7726 171.581C26.5488 170.824 26.5883 170.014 26.8848 169.282L31.617 157.589L53.6884 165.393Z" fill="#EACAAC"/>
<path d="M41.9228 163.471C35.8061 161.329 31.1437 158.753 31.5092 157.717C31.8747 156.681 37.1296 157.578 43.2464 159.719C49.3631 161.861 54.0254 164.437 53.6599 165.473C53.2945 166.509 48.0396 165.613 41.9228 163.471Z" fill="#403838"/>
</g>
</g>
<g clip-path="url(#clip8_2359_44328)">
<path d="M313.565 107.18L316.799 110.456L285.214 125.801L281.976 123.068L313.565 107.18Z" fill="#DED2E9"/>
<path d="M335.704 144.108L297.038 162.953L285.079 125.664L316.799 110.456L335.704 144.108Z" fill="white"/>
<path d="M281.976 123.068L285.079 125.664L297.038 162.953L294.33 162.125L281.976 123.068Z" fill="#DED2E9"/>
<path d="M285.04 125.651L304.716 164.227L338.936 143.906L319.382 114.312L315.584 113.423L312.245 112.562L285.04 125.651Z" fill="#EACAAC"/>
<path d="M318.166 119.159C318.157 119.168 318.146 119.176 318.134 119.182L293.914 133.015C293.894 133.028 293.871 133.036 293.848 133.04C293.824 133.044 293.8 133.043 293.777 133.038C293.754 133.032 293.733 133.022 293.714 133.007C293.695 132.993 293.679 132.975 293.667 132.954C293.656 132.934 293.648 132.911 293.646 132.887C293.643 132.864 293.645 132.84 293.652 132.817C293.659 132.794 293.67 132.773 293.686 132.755C293.701 132.737 293.72 132.722 293.741 132.711L317.961 118.879C317.998 118.858 318.042 118.851 318.084 118.86C318.126 118.869 318.163 118.893 318.188 118.927C318.213 118.962 318.225 119.004 318.221 119.047C318.217 119.089 318.198 119.129 318.167 119.159L318.166 119.159ZM321.816 124.433C321.806 124.443 321.795 124.451 321.783 124.457L297.416 138.362C297.376 138.382 297.33 138.386 297.287 138.373C297.244 138.36 297.208 138.331 297.185 138.292C297.163 138.253 297.157 138.207 297.168 138.163C297.179 138.12 297.206 138.082 297.244 138.058L321.61 124.154C321.647 124.133 321.69 124.126 321.732 124.135C321.774 124.144 321.811 124.167 321.837 124.202C321.862 124.236 321.874 124.279 321.87 124.321C321.866 124.364 321.847 124.404 321.816 124.433ZM325.066 129.3C325.056 129.309 325.046 129.316 325.035 129.323L300.762 143.704C300.722 143.727 300.674 143.734 300.629 143.723C300.584 143.711 300.546 143.682 300.522 143.642C300.499 143.602 300.492 143.555 300.504 143.51C300.515 143.465 300.544 143.426 300.584 143.402L324.857 129.022C324.894 128.999 324.938 128.992 324.981 129C325.023 129.008 325.061 129.032 325.086 129.067C325.112 129.101 325.124 129.144 325.121 129.187C325.117 129.23 325.097 129.27 325.065 129.3L325.066 129.3Z" fill="#403838"/>
<path d="M309.499 158.531C310.451 157.639 310.503 156.146 309.616 155.194C308.728 154.242 307.236 154.193 306.284 155.085C305.332 155.976 305.28 157.47 306.168 158.421C307.055 159.373 308.547 159.422 309.499 158.531Z" fill="#7D54F8"/>
<path d="M333.252 141.843C333.242 141.851 333.232 141.859 333.221 141.866L323.231 147.819C323.211 147.831 323.189 147.839 323.166 147.842C323.143 147.845 323.12 147.844 323.098 147.838C323.076 147.833 323.055 147.823 323.037 147.809C323.018 147.795 323.003 147.778 322.991 147.758C322.979 147.739 322.972 147.717 322.968 147.694C322.965 147.671 322.966 147.648 322.972 147.626C322.978 147.603 322.988 147.583 323.001 147.564C323.015 147.546 323.032 147.53 323.052 147.518L333.043 141.565C333.08 141.543 333.124 141.535 333.166 141.543C333.209 141.551 333.246 141.575 333.272 141.61C333.298 141.644 333.31 141.687 333.306 141.73C333.303 141.773 333.283 141.813 333.252 141.843Z" fill="#403838"/>
<path d="M312.197 112.636L314.043 119.119L319.382 114.311L312.197 112.636Z" fill="#D1AE8B"/>
<path d="M311.856 112.452L314.169 117.812L319.381 114.311L312.371 112.579L311.856 112.452Z" fill="#FFE3C3"/>
<path d="M294.782 124.826C294.556 125.037 294.274 125.176 293.97 125.227C293.666 125.277 293.354 125.236 293.074 125.108C292.794 124.981 292.558 124.773 292.396 124.512C292.234 124.25 292.153 123.946 292.164 123.637C292.175 123.329 292.276 123.031 292.456 122.78C292.636 122.53 292.886 122.338 293.175 122.229C293.463 122.121 293.777 122.1 294.077 122.17C294.376 122.24 294.648 122.398 294.858 122.623C295.139 122.925 295.289 123.326 295.275 123.739C295.26 124.152 295.083 124.543 294.782 124.826ZM292.897 122.806C292.722 122.97 292.6 123.181 292.545 123.414C292.49 123.647 292.506 123.89 292.589 124.114C292.673 124.338 292.821 124.532 293.015 124.671C293.208 124.81 293.439 124.889 293.678 124.897C293.916 124.905 294.152 124.841 294.355 124.715C294.558 124.589 294.719 124.405 294.818 124.188C294.917 123.97 294.95 123.728 294.911 123.492C294.873 123.256 294.766 123.037 294.603 122.862C294.384 122.629 294.082 122.491 293.762 122.481C293.442 122.47 293.131 122.587 292.897 122.806ZM301.922 121.259C301.697 121.47 301.414 121.609 301.11 121.66C300.806 121.71 300.495 121.669 300.214 121.541C299.934 121.414 299.698 121.207 299.536 120.945C299.374 120.683 299.294 120.379 299.304 120.07C299.315 119.762 299.417 119.464 299.597 119.213C299.777 118.963 300.027 118.771 300.315 118.662C300.603 118.554 300.917 118.533 301.217 118.603C301.517 118.673 301.789 118.831 301.999 119.056C302.28 119.358 302.43 119.76 302.415 120.173C302.401 120.586 302.223 120.977 301.922 121.259ZM300.037 119.239C299.862 119.403 299.74 119.614 299.685 119.847C299.631 120.08 299.646 120.324 299.73 120.547C299.813 120.771 299.961 120.965 300.155 121.104C300.349 121.244 300.579 121.322 300.818 121.33C301.057 121.338 301.292 121.274 301.495 121.148C301.698 121.022 301.86 120.838 301.959 120.621C302.058 120.403 302.09 120.161 302.052 119.925C302.013 119.689 301.906 119.47 301.743 119.295C301.525 119.062 301.222 118.924 300.902 118.914C300.582 118.903 300.271 119.021 300.037 119.239ZM309.062 117.693C308.837 117.903 308.554 118.043 308.25 118.093C307.947 118.143 307.635 118.102 307.355 117.975C307.074 117.848 306.838 117.64 306.676 117.378C306.514 117.116 306.434 116.812 306.444 116.504C306.455 116.196 306.557 115.898 306.737 115.647C306.917 115.396 307.166 115.205 307.455 115.096C307.743 114.987 308.057 114.967 308.357 115.037C308.657 115.107 308.929 115.264 309.139 115.489C309.42 115.791 309.57 116.193 309.555 116.606C309.541 117.019 309.363 117.41 309.062 117.693ZM307.177 115.673C307.002 115.836 306.88 116.048 306.825 116.28C306.771 116.513 306.786 116.757 306.87 116.981C306.953 117.205 307.101 117.398 307.295 117.538C307.489 117.677 307.719 117.755 307.958 117.763C308.197 117.771 308.432 117.708 308.635 117.582C308.838 117.455 309 117.272 309.099 117.054C309.198 116.836 309.23 116.594 309.192 116.358C309.153 116.122 309.046 115.903 308.883 115.729C308.664 115.495 308.362 115.358 308.042 115.347C307.723 115.337 307.411 115.454 307.177 115.673Z" fill="#403838"/>
<path d="M293.53 123.387C293.496 123.42 293.454 123.443 293.409 123.456C293.364 123.47 293.317 123.472 293.271 123.464C293.225 123.455 293.181 123.436 293.144 123.407C293.107 123.379 293.076 123.342 293.056 123.3C292.436 122.113 291.575 121.069 290.528 120.235C289.336 119.25 288.029 118.559 286.849 118.286C285.74 118.03 284.893 118.177 284.463 118.698C284.014 119.243 284.061 120.185 284.589 121.284C284.632 121.373 284.678 121.462 284.726 121.552C284.76 121.621 284.765 121.701 284.742 121.775C284.718 121.848 284.667 121.91 284.599 121.947C284.531 121.984 284.452 121.993 284.377 121.973C284.303 121.953 284.239 121.904 284.2 121.838C284.147 121.74 284.097 121.642 284.05 121.545C283.405 120.207 283.388 119.061 284.001 118.316C284.583 117.61 285.642 117.392 286.985 117.701C288.254 117.993 289.649 118.728 290.911 119.77C292.024 120.659 292.938 121.772 293.596 123.036C293.624 123.094 293.633 123.159 293.621 123.223C293.609 123.286 293.577 123.344 293.53 123.387ZM300.735 119.94C300.7 119.972 300.659 119.996 300.614 120.009C300.568 120.022 300.521 120.025 300.474 120.016C300.428 120.007 300.385 119.988 300.347 119.959C300.31 119.93 300.28 119.893 300.26 119.851C299.667 118.698 298.837 117.686 297.824 116.879C295.538 114.992 292.841 114.328 291.934 115.429C291.505 115.949 291.529 116.84 291.998 117.873C292.015 117.909 292.025 117.948 292.027 117.988C292.028 118.028 292.022 118.067 292.008 118.105C291.995 118.142 291.974 118.176 291.947 118.205C291.92 118.235 291.887 118.258 291.851 118.275C291.815 118.291 291.776 118.3 291.736 118.302C291.697 118.303 291.657 118.296 291.62 118.282C291.583 118.268 291.549 118.247 291.521 118.22C291.492 118.192 291.469 118.159 291.453 118.123C290.876 116.855 290.883 115.762 291.472 115.047C292.623 113.647 295.582 114.25 298.206 116.416C299.285 117.278 300.169 118.361 300.8 119.592C300.827 119.649 300.836 119.714 300.824 119.776C300.812 119.839 300.781 119.896 300.735 119.94ZM307.866 116.697C307.846 116.716 307.822 116.733 307.797 116.746C307.726 116.781 307.643 116.788 307.568 116.763C307.492 116.738 307.43 116.684 307.394 116.613C306.766 115.451 305.91 114.428 304.878 113.605C302.543 111.677 299.833 110.946 298.961 112.003C298.56 112.49 298.599 113.346 299.068 114.35C299.101 114.422 299.105 114.505 299.078 114.58C299.051 114.655 298.995 114.716 298.923 114.75C298.851 114.783 298.769 114.787 298.694 114.76C298.619 114.733 298.558 114.678 298.525 114.605C297.946 113.364 297.937 112.305 298.498 111.621C299.615 110.266 302.585 110.933 305.26 113.141C306.356 114.017 307.264 115.106 307.929 116.342C307.959 116.4 307.968 116.466 307.957 116.53C307.946 116.594 307.914 116.653 307.866 116.697Z" fill="#7D54F8"/>
</g>
<g clip-path="url(#clip9_2359_44328)">
<path fill-rule="evenodd" clip-rule="evenodd" d="M245.526 120.174L243.764 129.437L242.002 120.174L232.753 118.409L242.002 116.644L243.764 107.38L245.526 116.644L254.775 118.408L245.526 120.174Z" fill="#F8A036"/>
</g>
<g clip-path="url(#clip10_2359_44328)">
<path d="M127.288 83.4025C136.683 75.4879 147.49 75.412 151.785 80.1837C154.724 83.4495 154.197 88.5224 153.835 90.6724L149.944 89.6387C150.302 88.4213 151.443 84.0517 149.286 81.579C146.573 78.4709 138.948 78.7046 132.042 84.7045L127.288 83.4025Z" fill="#7D54F8"/>
<path d="M132.042 84.7046C138.192 77.1746 146.996 76.3693 150.643 79.8142C154.082 83.0639 152.507 89.6941 152.366 90.2556C151.573 90.0636 150.637 89.8253 149.844 89.6333C150.244 88.2412 151.348 84.2815 149.336 81.9108C146.663 78.7602 139.072 78.8895 132.042 84.7046Z" fill="#6940E4"/>
<path d="M123.538 101.339L123.533 104.241C123.533 104.682 123.671 105.111 123.929 105.469C124.187 105.827 124.551 106.094 124.97 106.233C125.383 106.37 125.828 106.376 126.244 106.248C126.66 106.121 127.025 105.867 127.289 105.522L129.111 103.142L123.538 101.339ZM142.29 107.407L142.285 110.309C142.284 110.75 142.423 111.179 142.681 111.537C142.939 111.895 143.303 112.162 143.721 112.301C144.135 112.438 144.58 112.444 144.996 112.316C145.411 112.189 145.777 111.935 146.041 111.59L147.862 109.211L142.29 107.407Z" fill="#383131"/>
<path d="M120.813 100.458L120.809 103.359C120.808 103.8 120.947 104.23 121.205 104.587C121.463 104.945 121.827 105.213 122.245 105.352C122.658 105.489 123.104 105.494 123.52 105.366C123.935 105.239 124.3 104.985 124.565 104.64L126.386 102.261L120.813 100.458ZM139.405 106.474L139.309 109.346C139.279 110.24 139.776 111.017 140.541 111.272C141.296 111.524 142.145 111.211 142.655 110.494L144.373 108.082L139.405 106.474Z" fill="#403838"/>
<path d="M125.443 84.9684L120.865 99.179C120.707 99.6713 120.75 100.207 120.987 100.668C121.223 101.129 121.633 101.477 122.126 101.637L148.927 110.31C149.171 110.389 149.428 110.419 149.684 110.399C149.939 110.378 150.189 110.308 150.417 110.192C150.645 110.075 150.848 109.915 151.014 109.72C151.18 109.525 151.306 109.299 151.384 109.055L158.165 94.8619C158.325 94.5274 158.409 94.1616 158.411 93.7906C158.413 93.4196 158.333 93.0526 158.177 92.7156C158.021 92.3786 157.793 92.08 157.509 91.8411C157.224 91.6022 156.89 91.4288 156.531 91.3333L127.9 83.714C127.407 83.5545 126.872 83.597 126.411 83.8322C125.95 84.0675 125.602 84.4762 125.443 84.9684Z" fill="#D3B69F"/>
<path d="M122.564 84.0366L117.986 98.2472C117.907 98.491 117.878 98.748 117.899 99.0034C117.919 99.2589 117.99 99.5079 118.108 99.7361C118.225 99.9644 118.386 100.167 118.581 100.334C118.777 100.5 119.003 100.626 119.247 100.705L146.048 109.378C146.541 109.538 147.077 109.495 147.538 109.26C147.998 109.024 148.346 108.616 148.505 108.123L155.979 93.4181C156.095 93.189 156.159 92.9368 156.166 92.6797C156.173 92.4226 156.122 92.1672 156.017 91.9319C155.913 91.6967 155.757 91.4875 155.562 91.3196C155.367 91.1517 155.137 91.0293 154.888 90.9613L125.021 82.7823C124.528 82.6227 123.993 82.6652 123.532 82.9005C123.071 83.1357 122.723 83.5444 122.564 84.0366V84.0366Z" fill="#EACAAC"/>
<path d="M141.396 98.4782C143.762 93.9682 143.509 89.1722 140.832 87.766C138.154 86.3598 134.067 88.8759 131.701 93.3859C129.336 97.8959 129.589 102.692 132.266 104.098C134.943 105.504 139.031 102.988 141.396 98.4782Z" fill="#403838"/>
<path d="M140.134 97.9037C141.946 94.4494 141.752 90.7759 139.702 89.6988C137.651 88.6218 134.52 90.549 132.708 94.0033C130.897 97.4577 131.091 101.131 133.141 102.208C135.192 103.285 138.323 101.358 140.134 97.9037Z" fill="#9B8E82"/>
<path d="M138.802 97.0863C139.822 94.9598 139.554 92.7102 138.204 92.0616C136.854 91.4131 134.933 92.6113 133.914 94.7378C132.894 96.8643 133.162 99.1139 134.512 99.7624C135.862 100.411 137.783 99.2128 138.802 97.0863Z" fill="#403838"/>
<path d="M148.536 89.8979L154.156 91.502C154.305 91.5443 154.441 91.6207 154.554 91.7251C154.668 91.8294 154.755 91.9589 154.81 92.103C154.864 92.2471 154.884 92.4019 154.868 92.555C154.852 92.708 154.8 92.8551 154.717 92.9844C154.531 93.2718 154.24 93.4749 153.906 93.55C153.572 93.6252 153.222 93.5665 152.93 93.3865L148.267 90.5077C148.198 90.4648 148.147 90.3985 148.123 90.321C148.099 90.2435 148.104 90.16 148.136 90.0858C148.169 90.0117 148.227 89.9518 148.301 89.9173C148.374 89.8828 148.458 89.8759 148.536 89.8979Z" fill="#FFE3C3"/>
<path d="M126.756 83.2566L127.543 82.5132C127.68 82.3837 127.849 82.2917 128.032 82.246C128.215 82.2003 128.407 82.2024 128.589 82.2521L132.583 83.3407C132.757 83.3881 132.917 83.4776 133.049 83.6012C133.181 83.7249 133.28 83.8788 133.338 84.0497C133.396 84.2205 133.412 84.4029 133.383 84.5809C133.354 84.7589 133.282 84.9271 133.173 85.0705L126.756 83.2566ZM148.343 89.1403L148.346 89.1336C148.501 88.8688 148.737 88.6606 149.019 88.5395C149.301 88.4185 149.615 88.391 149.914 88.4611L153.176 89.2248C153.464 89.2921 153.724 89.4465 153.922 89.6669C154.119 89.8873 154.244 90.1629 154.279 90.4563L154.318 90.7767L148.343 89.1403Z" fill="#403838"/>
</g>
<defs>
<clipPath id="clip0_2359_44328">
<rect width="375" height="388" fill="white"/>
</clipPath>
<clipPath id="clip1_2359_44328">
<rect width="337.416" height="231.972" fill="white" transform="translate(27.2156 145.916)"/>
</clipPath>
<clipPath id="clip2_2359_44328">
<rect width="32.4" height="32.4507" fill="white" transform="translate(95.6859 154.028)"/>
</clipPath>
<clipPath id="clip3_2359_44328">
<rect width="16.7062" height="16.7324" fill="white" transform="translate(322.739 306.395)"/>
</clipPath>
<clipPath id="clip4_2359_44328">
<rect width="70.3688" height="75.2958" fill="white" transform="translate(145.172 126.395)"/>
</clipPath>
<clipPath id="clip5_2359_44328">
<rect width="77.7586" height="63.5881" fill="white" transform="matrix(-0.901023 0.433772 0.432433 0.901666 297.247 216.648)"/>
</clipPath>
<clipPath id="clip6_2359_44328">
<rect width="77.7435" height="63.5999" fill="white" transform="matrix(-0.958548 -0.284932 -0.283746 0.9589 86.8766 146.011)"/>
</clipPath>
<clipPath id="clip7_2359_44328">
<rect width="31.0572" height="23.2522" fill="white" transform="matrix(-0.994255 -0.104945 -0.104188 0.994781 58.9418 159.986)"/>
</clipPath>
<clipPath id="clip8_2359_44328">
<rect width="51.678" height="56.2379" fill="white" transform="matrix(0.730092 -0.683349 0.682207 0.731159 267.684 133.568)"/>
</clipPath>
<clipPath id="clip9_2359_44328">
<rect width="22.0219" height="22.0563" fill="white" transform="translate(232.753 107.38)"/>
</clipPath>
<clipPath id="clip10_2359_44328">
<rect width="37.228" height="34.2069" fill="white" transform="matrix(0.951424 0.307883 -0.306652 0.951822 126.805 70.873)"/>
</clipPath>
</defs>
</svg>
