<svg width="24" height="25" viewBox="0 0 24 25" fill="none" xmlns="http://www.w3.org/2000/svg">
<path opacity="0.5" d="M12.0001 24.0166C18.6275 24.0166 24 18.6441 24 12.0167C24 5.38929 18.6275 0.0167236 12.0001 0.0167236C5.37269 0.0167236 0.00012207 5.38929 0.00012207 12.0167C0.00012207 18.6441 5.37269 24.0166 12.0001 24.0166Z" fill="#DCDCE1"/>
<path d="M12.0001 5.93274C9.51612 5.93274 7.50012 7.94873 7.50012 10.4327C7.50012 12.8687 9.40812 14.8487 11.9401 14.9207C11.9761 14.9207 12.0241 14.9207 12.0481 14.9207C12.0721 14.9207 12.1081 14.9207 12.1321 14.9207C12.1441 14.9207 12.1561 14.9207 12.1561 14.9207C14.5801 14.8367 16.4881 12.8687 16.5001 10.4327C16.5001 7.94873 14.4841 5.93274 12.0001 5.93274Z" fill="#6B727B"/>
<path d="M20.136 20.8366C18 22.8046 15.144 24.0166 12 24.0166C8.856 24.0166 6.00001 22.8046 3.86401 20.8366C4.15201 19.7446 4.93201 18.7486 6.07201 17.9806C9.348 15.7967 14.676 15.7967 17.928 17.9806C19.08 18.7486 19.848 19.7446 20.136 20.8366Z" fill="#6B727B"/>
</svg>
