<svg width="83" height="64" viewBox="0 0 83 64" fill="none" xmlns="http://www.w3.org/2000/svg">
<path d="M53.3753 31.9695L30.0067 8.5604C27.5468 6.04993 23.4598 5.97976 20.9192 8.43407C20.0337 9.254 19.4266 10.3233 19.1408 11.4509L10.5556 43.6528C10.0995 47.1287 12.6026 50.3268 16.1277 50.7573C16.8281 50.826 17.5496 50.7981 18.2409 50.6572L50.3621 42.0503C51.9843 41.5224 53.3059 40.3992 54.0992 38.8838C54.8913 37.3641 55.037 35.6261 54.5123 34.0187C54.2814 33.3325 53.9478 32.7017 53.3753 31.9695Z" fill="url(#paint0_linear_1224_8914)"/>
<g filter="url(#filter0_f_1224_8914)">
<path d="M44.2821 33.9949L30.8843 20.5739C29.474 19.1346 27.1308 19.0943 25.6742 20.5015C25.1665 20.9716 24.8185 21.5846 24.6546 22.2311L19.7325 40.6933C19.471 42.6861 20.9061 44.5196 22.9272 44.7664C23.3287 44.8058 23.7424 44.7899 24.1387 44.709L42.5546 39.7745C43.4847 39.4719 44.2424 38.8279 44.6972 37.9591C45.1513 37.0878 45.2349 36.0913 44.934 35.1698C44.8016 34.7764 44.6104 34.4147 44.2821 33.9949Z" fill="#F27001"/>
</g>
<g filter="url(#filter1_b_1224_8914)">
<path d="M80.9819 43.2915L59.5903 6.16587C57.3541 2.19989 52.2636 0.741815 48.2619 2.96101C46.879 3.69005 45.7608 4.82443 45.0252 6.13962L23.4865 43.5539C21.7505 47.7503 23.8102 52.5911 28.0767 54.3116C28.93 54.6324 29.8422 54.8394 30.7543 54.8948H73.8318C76.0386 54.7782 78.0689 53.8159 79.5695 52.1857C81.0702 50.5498 81.8352 48.4239 81.7175 46.2368C81.6587 45.3007 81.4527 44.3996 80.9819 43.2915Z" fill="#F27001" fill-opacity="0.35"/>
<path d="M81.4421 43.0959C81.4342 43.0774 81.4252 43.0593 81.4151 43.0418L60.0259 5.92028C60.0255 5.91968 60.0252 5.91907 60.0248 5.91847C57.6545 1.71703 52.2657 0.172212 48.024 2.52119C46.5541 3.2973 45.3697 4.50062 44.5904 5.89281C44.5899 5.89372 44.5893 5.89463 44.5888 5.89554L23.0532 43.3045C23.0424 43.3232 23.0328 43.3427 23.0245 43.3628C21.1803 47.8206 23.3702 52.9528 27.8897 54.7753L27.8897 54.7755L27.9008 54.7796C28.7966 55.1164 29.7577 55.3352 30.724 55.3939C30.7341 55.3945 30.7442 55.3948 30.7543 55.3948H73.8318C73.8352 55.3948 73.8385 55.3948 73.8419 55.3947C73.8473 55.3946 73.8527 55.3944 73.8582 55.3941C76.1967 55.2705 78.3491 54.2497 79.9374 52.5244L79.938 52.5237C81.5286 50.7897 82.3418 48.5327 82.2168 46.2099L82.2165 46.2054C82.1538 45.2076 81.9329 44.2512 81.4421 43.0959Z" stroke="url(#paint1_linear_1224_8914)" stroke-linecap="round" stroke-linejoin="round"/>
</g>
<g filter="url(#filter2_bd_1224_8914)">
<mask id="path-5-inside-1_1224_8914" fill="white">
<path fill-rule="evenodd" clip-rule="evenodd" d="M52.2941 33.2027C53.7064 33.2027 54.854 32.0333 54.854 30.6335V22.3837C54.854 20.9811 53.7064 19.8467 52.2941 19.8467C50.8817 19.8467 49.7047 20.9811 49.7047 22.3837V30.6335C49.7047 32.0333 50.8817 33.2027 52.2941 33.2027ZM49.7047 40.6084C49.7047 42.0052 50.8817 43.1746 52.2941 43.1746C53.7064 43.1746 54.854 42.0052 54.854 40.5763C54.854 39.1795 53.7064 38.0392 52.2941 38.0392C50.8817 38.0392 49.7047 39.2057 49.7047 40.6084Z"/>
</mask>
<path fill-rule="evenodd" clip-rule="evenodd" d="M52.2941 33.2027C53.7064 33.2027 54.854 32.0333 54.854 30.6335V22.3837C54.854 20.9811 53.7064 19.8467 52.2941 19.8467C50.8817 19.8467 49.7047 20.9811 49.7047 22.3837V30.6335C49.7047 32.0333 50.8817 33.2027 52.2941 33.2027ZM49.7047 40.6084C49.7047 42.0052 50.8817 43.1746 52.2941 43.1746C53.7064 43.1746 54.854 42.0052 54.854 40.5763C54.854 39.1795 53.7064 38.0392 52.2941 38.0392C50.8817 38.0392 49.7047 39.2057 49.7047 40.6084Z" fill="url(#paint2_linear_1224_8914)"/>
<path d="M54.454 30.6335C54.454 31.8155 53.4824 32.8027 52.2941 32.8027V33.6027C53.9305 33.6027 55.254 32.2511 55.254 30.6335H54.454ZM54.454 22.3837V30.6335H55.254V22.3837H54.454ZM52.2941 20.2467C53.4892 20.2467 54.454 21.2057 54.454 22.3837H55.254C55.254 20.7565 53.9237 19.4467 52.2941 19.4467V20.2467ZM50.1047 22.3837C50.1047 21.2115 51.0929 20.2467 52.2941 20.2467V19.4467C50.6705 19.4467 49.3047 20.7506 49.3047 22.3837H50.1047ZM50.1047 30.6335V22.3837H49.3047V30.6335H50.1047ZM52.2941 32.8027C51.0998 32.8027 50.1047 31.8096 50.1047 30.6335H49.3047C49.3047 32.257 50.6636 33.6027 52.2941 33.6027V32.8027ZM52.2941 42.7746C51.0995 42.7746 50.1047 41.7812 50.1047 40.6084H49.3047C49.3047 42.2292 50.6639 43.5746 52.2941 43.5746V42.7746ZM54.454 40.5763C54.454 41.7904 53.4795 42.7746 52.2941 42.7746V43.5746C53.9334 43.5746 55.254 42.22 55.254 40.5763H54.454ZM52.2941 38.4392C53.4886 38.4392 54.454 39.4035 54.454 40.5763H55.254C55.254 38.9555 53.9243 37.6392 52.2941 37.6392V38.4392ZM50.1047 40.6084C50.1047 39.4297 51.0995 38.4392 52.2941 38.4392V37.6392C50.6639 37.6392 49.3047 38.9817 49.3047 40.6084H50.1047Z" fill="url(#paint3_linear_1224_8914)" mask="url(#path-5-inside-1_1224_8914)"/>
</g>
<defs>
<filter id="filter0_f_1224_8914" x="0.701782" y="0.469727" width="63.4097" height="63.3174" filterUnits="userSpaceOnUse" color-interpolation-filters="sRGB">
<feFlood flood-opacity="0" result="BackgroundImageFix"/>
<feBlend mode="normal" in="SourceGraphic" in2="BackgroundImageFix" result="shape"/>
<feGaussianBlur stdDeviation="9.5" result="effect1_foregroundBlur_1224_8914"/>
</filter>
<filter id="filter1_b_1224_8914" x="-2.13013" y="-23.0781" width="108.859" height="102.973" filterUnits="userSpaceOnUse" color-interpolation-filters="sRGB">
<feFlood flood-opacity="0" result="BackgroundImageFix"/>
<feGaussianBlur in="BackgroundImageFix" stdDeviation="12"/>
<feComposite in2="SourceAlpha" operator="in" result="effect1_backgroundBlur_1224_8914"/>
<feBlend mode="normal" in="SourceGraphic" in2="effect1_backgroundBlur_1224_8914" result="shape"/>
</filter>
<filter id="filter2_bd_1224_8914" x="34.7047" y="4.84668" width="35.1493" height="53.3281" filterUnits="userSpaceOnUse" color-interpolation-filters="sRGB">
<feFlood flood-opacity="0" result="BackgroundImageFix"/>
<feGaussianBlur in="BackgroundImageFix" stdDeviation="7.5"/>
<feComposite in2="SourceAlpha" operator="in" result="effect1_backgroundBlur_1224_8914"/>
<feColorMatrix in="SourceAlpha" type="matrix" values="0 0 0 0 0 0 0 0 0 0 0 0 0 0 0 0 0 0 127 0" result="hardAlpha"/>
<feOffset dx="5" dy="5"/>
<feGaussianBlur stdDeviation="5"/>
<feColorMatrix type="matrix" values="0 0 0 0 0.94902 0 0 0 0 0.439216 0 0 0 0 0.00392157 0 0 0 0.4 0"/>
<feBlend mode="normal" in2="effect1_backgroundBlur_1224_8914" result="effect2_dropShadow_1224_8914"/>
<feBlend mode="normal" in="SourceGraphic" in2="effect2_dropShadow_1224_8914" result="shape"/>
</filter>
<linearGradient id="paint0_linear_1224_8914" x1="32.9544" y1="28.3817" x2="1.38813" y2="58.2116" gradientUnits="userSpaceOnUse">
<stop stop-color="#FFBF89"/>
<stop offset="1" stop-color="#F27001"/>
</linearGradient>
<linearGradient id="paint1_linear_1224_8914" x1="32.2399" y1="8.09329" x2="65.1171" y2="53.3369" gradientUnits="userSpaceOnUse">
<stop stop-color="white" stop-opacity="0.25"/>
<stop offset="1" stop-color="white" stop-opacity="0"/>
</linearGradient>
<linearGradient id="paint2_linear_1224_8914" x1="52.2799" y1="21.1625" x2="47.5521" y2="20.7247" gradientUnits="userSpaceOnUse">
<stop stop-color="white" stop-opacity="0.75"/>
<stop offset="1" stop-color="white" stop-opacity="0.2"/>
</linearGradient>
<linearGradient id="paint3_linear_1224_8914" x1="50.5244" y1="22.5644" x2="58.2688" y2="24.6816" gradientUnits="userSpaceOnUse">
<stop stop-color="white" stop-opacity="0.25"/>
<stop offset="1" stop-color="white" stop-opacity="0"/>
</linearGradient>
</defs>
</svg>
