<svg width="86" height="80" viewBox="0 0 86 80" fill="none" xmlns="http://www.w3.org/2000/svg">
<path d="M53.3753 43.9701L30.0067 20.561C27.5468 18.0505 23.4597 17.9804 20.9192 20.4347C20.0336 21.2546 19.4265 22.3239 19.1408 23.4515L10.5556 55.6534C10.0995 59.1293 12.6025 62.3274 16.1277 62.7579C16.8281 62.8266 17.5496 62.7987 18.2408 62.6578L50.362 54.0509C51.9843 53.523 53.3059 52.3998 54.0992 50.8844C54.8913 49.3647 55.037 47.6267 54.5122 46.0194C54.2813 45.3331 53.9477 44.7023 53.3753 43.9701Z" fill="url(#paint0_linear_399_27023)"/>
<g filter="url(#filter0_f_399_27023)">
<path d="M44.2822 45.9959L30.8844 32.5749C29.474 31.1355 27.1308 31.0953 25.6743 32.5024C25.1666 32.9725 24.8185 33.5856 24.6547 34.2321L19.7325 52.6942C19.471 54.6871 20.9061 56.5206 22.9272 56.7674C23.3287 56.8068 23.7424 56.7908 24.1387 56.71L42.5546 51.7755C43.4847 51.4728 44.2424 50.8289 44.6972 49.9601C45.1513 49.0888 45.2349 48.0923 44.934 47.1708C44.8016 46.7774 44.6104 46.4157 44.2822 45.9959Z" fill="#F27001"/>
</g>
<g filter="url(#filter1_b_399_27023)">
<path d="M80.9819 55.2918L59.5903 18.1662C57.3541 14.2003 52.2636 12.7422 48.2619 14.9614C46.879 15.6904 45.7608 16.8248 45.0252 18.14L23.4865 55.5543C21.7505 59.7506 23.8102 64.5914 28.0767 66.312C28.93 66.6328 29.8422 66.8398 30.7544 66.8952H73.8318C76.0386 66.7786 78.0689 65.8162 79.5696 64.1861C81.0702 62.5501 81.8352 60.4243 81.7175 58.2371C81.6587 57.3011 81.4527 56.4 80.9819 55.2918Z" fill="#F27001" fill-opacity="0.35"/>
<path d="M81.4421 55.0963C81.4342 55.0777 81.4252 55.0597 81.4152 55.0422L60.0259 17.9207C60.0255 17.92 60.0252 17.9194 60.0249 17.9188C57.6545 13.7174 52.2657 12.1726 48.024 14.5216C46.5542 15.2977 45.3697 16.501 44.5904 17.8932C44.5899 17.8941 44.5894 17.895 44.5889 17.8959L23.0532 55.3048C23.0424 55.3236 23.0328 55.3431 23.0245 55.3631C21.1803 59.821 23.3702 64.9531 27.8897 66.7757L27.8897 66.7758L27.9008 66.78C28.7966 67.1167 29.7577 67.3356 30.724 67.3943C30.7341 67.3949 30.7442 67.3952 30.7544 67.3952H73.8318C73.8352 67.3952 73.8385 67.3952 73.8419 67.3951C73.8473 67.395 73.8528 67.3948 73.8582 67.3945C76.1967 67.2709 78.3492 66.2501 79.9374 64.5247L79.938 64.5241C81.5286 62.7901 82.3418 60.5331 82.2168 58.2103L82.2166 58.2058C82.1538 57.208 81.9329 56.2516 81.4421 55.0963Z" stroke="url(#paint1_linear_399_27023)" stroke-linecap="round" stroke-linejoin="round"/>
</g>
<g filter="url(#filter2_bd_399_27023)">
<mask id="path-5-inside-1_399_27023" fill="white">
<path fill-rule="evenodd" clip-rule="evenodd" d="M52.294 45.2027C53.7064 45.2027 54.854 44.0333 54.854 42.6335V34.3837C54.854 32.9811 53.7064 31.8467 52.294 31.8467C50.8817 31.8467 49.7047 32.9811 49.7047 34.3837V42.6335C49.7047 44.0333 50.8817 45.2027 52.294 45.2027ZM49.7047 52.6084C49.7047 54.0052 50.8817 55.1746 52.294 55.1746C53.7064 55.1746 54.854 54.0052 54.854 52.5763C54.854 51.1795 53.7064 50.0392 52.294 50.0392C50.8817 50.0392 49.7047 51.2057 49.7047 52.6084Z"/>
</mask>
<path fill-rule="evenodd" clip-rule="evenodd" d="M52.294 45.2027C53.7064 45.2027 54.854 44.0333 54.854 42.6335V34.3837C54.854 32.9811 53.7064 31.8467 52.294 31.8467C50.8817 31.8467 49.7047 32.9811 49.7047 34.3837V42.6335C49.7047 44.0333 50.8817 45.2027 52.294 45.2027ZM49.7047 52.6084C49.7047 54.0052 50.8817 55.1746 52.294 55.1746C53.7064 55.1746 54.854 54.0052 54.854 52.5763C54.854 51.1795 53.7064 50.0392 52.294 50.0392C50.8817 50.0392 49.7047 51.2057 49.7047 52.6084Z" fill="url(#paint2_linear_399_27023)"/>
<path d="M54.454 42.6335C54.454 43.8155 53.4824 44.8027 52.294 44.8027V45.6027C53.9305 45.6027 55.254 44.2511 55.254 42.6335H54.454ZM54.454 34.3837V42.6335H55.254V34.3837H54.454ZM52.294 32.2467C53.4892 32.2467 54.454 33.2057 54.454 34.3837H55.254C55.254 32.7565 53.9236 31.4467 52.294 31.4467V32.2467ZM50.1047 34.3837C50.1047 33.2115 51.0929 32.2467 52.294 32.2467V31.4467C50.6704 31.4467 49.3047 32.7506 49.3047 34.3837H50.1047ZM50.1047 42.6335V34.3837H49.3047V42.6335H50.1047ZM52.294 44.8027C51.0998 44.8027 50.1047 43.8096 50.1047 42.6335H49.3047C49.3047 44.257 50.6635 45.6027 52.294 45.6027V44.8027ZM52.294 54.7746C51.0995 54.7746 50.1047 53.7812 50.1047 52.6084H49.3047C49.3047 54.2292 50.6638 55.5746 52.294 55.5746V54.7746ZM54.454 52.5763C54.454 53.7904 53.4794 54.7746 52.294 54.7746V55.5746C53.9334 55.5746 55.254 54.22 55.254 52.5763H54.454ZM52.294 50.4392C53.4886 50.4392 54.454 51.4035 54.454 52.5763H55.254C55.254 50.9555 53.9242 49.6392 52.294 49.6392V50.4392ZM50.1047 52.6084C50.1047 51.4297 51.0995 50.4392 52.294 50.4392V49.6392C50.6638 49.6392 49.3047 50.9817 49.3047 52.6084H50.1047Z" fill="url(#paint3_linear_399_27023)" mask="url(#path-5-inside-1_399_27023)"/>
</g>
<defs>
<filter id="filter0_f_399_27023" x="0.701767" y="12.4708" width="63.4097" height="63.3171" filterUnits="userSpaceOnUse" color-interpolation-filters="sRGB">
<feFlood flood-opacity="0" result="BackgroundImageFix"/>
<feBlend mode="normal" in="SourceGraphic" in2="BackgroundImageFix" result="shape"/>
<feGaussianBlur stdDeviation="9.5" result="effect1_foregroundBlur_399_27023"/>
</filter>
<filter id="filter1_b_399_27023" x="-2.13013" y="-11.078" width="108.859" height="102.973" filterUnits="userSpaceOnUse" color-interpolation-filters="sRGB">
<feFlood flood-opacity="0" result="BackgroundImageFix"/>
<feGaussianBlur in="BackgroundImageFix" stdDeviation="12"/>
<feComposite in2="SourceAlpha" operator="in" result="effect1_backgroundBlur_399_27023"/>
<feBlend mode="normal" in="SourceGraphic" in2="effect1_backgroundBlur_399_27023" result="shape"/>
</filter>
<filter id="filter2_bd_399_27023" x="34.7047" y="16.8467" width="35.1493" height="53.3279" filterUnits="userSpaceOnUse" color-interpolation-filters="sRGB">
<feFlood flood-opacity="0" result="BackgroundImageFix"/>
<feGaussianBlur in="BackgroundImageFix" stdDeviation="7.5"/>
<feComposite in2="SourceAlpha" operator="in" result="effect1_backgroundBlur_399_27023"/>
<feColorMatrix in="SourceAlpha" type="matrix" values="0 0 0 0 0 0 0 0 0 0 0 0 0 0 0 0 0 0 127 0" result="hardAlpha"/>
<feOffset dx="5" dy="5"/>
<feGaussianBlur stdDeviation="5"/>
<feColorMatrix type="matrix" values="0 0 0 0 0.94902 0 0 0 0 0.439216 0 0 0 0 0.00392157 0 0 0 0.4 0"/>
<feBlend mode="normal" in2="effect1_backgroundBlur_399_27023" result="effect2_dropShadow_399_27023"/>
<feBlend mode="normal" in="SourceGraphic" in2="effect2_dropShadow_399_27023" result="shape"/>
</filter>
<linearGradient id="paint0_linear_399_27023" x1="32.9544" y1="40.3823" x2="1.38808" y2="70.2122" gradientUnits="userSpaceOnUse">
<stop stop-color="#FFBF89"/>
<stop offset="1" stop-color="#F27001"/>
</linearGradient>
<linearGradient id="paint1_linear_399_27023" x1="32.2399" y1="20.0937" x2="65.1171" y2="65.3372" gradientUnits="userSpaceOnUse">
<stop stop-color="white" stop-opacity="0.25"/>
<stop offset="1" stop-color="white" stop-opacity="0"/>
</linearGradient>
<linearGradient id="paint2_linear_399_27023" x1="52.2799" y1="33.1625" x2="47.552" y2="32.7247" gradientUnits="userSpaceOnUse">
<stop stop-color="white" stop-opacity="0.75"/>
<stop offset="1" stop-color="white" stop-opacity="0.2"/>
</linearGradient>
<linearGradient id="paint3_linear_399_27023" x1="50.5244" y1="34.5644" x2="58.2688" y2="36.6816" gradientUnits="userSpaceOnUse">
<stop stop-color="white" stop-opacity="0.25"/>
<stop offset="1" stop-color="white" stop-opacity="0"/>
</linearGradient>
</defs>
</svg>
