<svg width="64" height="64" viewBox="0 0 64 64" fill="none" xmlns="http://www.w3.org/2000/svg">
<path d="M31.9198 58.6667C46.6474 58.6667 58.5865 46.7276 58.5865 32C58.5865 17.2724 46.6474 5.33331 31.9198 5.33331C17.1922 5.33331 5.25317 17.2724 5.25317 32C5.25317 46.7276 17.1922 58.6667 31.9198 58.6667Z" fill="#7D54F8"/>
<path d="M26.6669 42.6666C25.1949 42.6666 24.0002 41.472 24.0002 40V24C24.0002 22.528 25.1949 21.3333 26.6669 21.3333C28.1389 21.3333 29.3336 22.528 29.3336 24V40C29.3336 41.472 28.1389 42.6666 26.6669 42.6666ZM37.3336 42.6666C35.8616 42.6666 34.6669 41.472 34.6669 40V24C34.6669 22.528 35.8616 21.3333 37.3336 21.3333C38.8056 21.3333 40.0002 22.528 40.0002 24V40C40.0002 41.472 38.8056 42.6666 37.3336 42.6666Z" fill="white"/>
</svg>
